<?xml version="1.0" encoding="UTF-8" standalone="no"?>
<!-- Created with Inkscape (http://www.inkscape.org/) -->

<svg
   xmlns:dc="http://purl.org/dc/elements/1.1/"
   xmlns:cc="http://creativecommons.org/ns#"
   xmlns:rdf="http://www.w3.org/1999/02/22-rdf-syntax-ns#"
   xmlns:svg="http://www.w3.org/2000/svg"
   xmlns="http://www.w3.org/2000/svg"
   xmlns:xlink="http://www.w3.org/1999/xlink"
   xmlns:sodipodi="http://sodipodi.sourceforge.net/DTD/sodipodi-0.dtd"
   xmlns:inkscape="http://www.inkscape.org/namespaces/inkscape"
   width="793.70081"
   height="1122.5197"
   viewBox="0 0 210 297"
   version="1.1"
   id="svg8"
   inkscape:version="0.92.3 (2405546, 2018-03-11)"
   sodipodi:docname="erso.svg">
  <defs
     id="defs2">
    <linearGradient
       inkscape:collect="always"
       id="linearGradient2805">
      <stop
         style="stop-color:#550000;stop-opacity:1"
         offset="0"
         id="stop2801" />
      <stop
         style="stop-color:#ff0000;stop-opacity:1"
         offset="1"
         id="stop2803" />
    </linearGradient>
    <inkscape:path-effect
       effect="skeletal"
       id="path-effect2776"
       is_visible="true"
       pattern="m 7602.0925,5872.7708 c 16.3355,0 34.6513,15.7691 34.6513,15.7691 0,0 -18.3158,15.7714 -34.6513,15.7714 -16.3355,0 -34.6513,-15.7714 -34.6513,-15.7714 0,0 18.3158,-15.7691 34.6513,-15.7691 z"
       copytype="single_stretched"
       prop_scale="0.26458333"
       scale_y_rel="false"
       spacing="0"
       normal_offset="0"
       tang_offset="0"
       prop_units="false"
       vertical_pattern="false"
       fuse_tolerance="0" />
    <inkscape:path-effect
       effect="spiro"
       id="path-effect2774"
       is_visible="true" />
    <inkscape:path-effect
       fuse_tolerance="0"
       vertical_pattern="false"
       prop_units="false"
       tang_offset="0"
       normal_offset="0"
       spacing="0"
       scale_y_rel="false"
       prop_scale="0.26458333"
       copytype="single_stretched"
       pattern="m 7606.1688,5864.4065 c 16.3355,0 34.6513,15.7691 34.6513,15.7691 0,0 -18.3158,15.7714 -34.6513,15.7714 -16.3355,0 -34.6513,-15.7714 -34.6513,-15.7714 0,0 18.3158,-15.7691 34.6513,-15.7691 z"
       is_visible="true"
       id="path-effect2770"
       effect="skeletal" />
    <inkscape:path-effect
       is_visible="true"
       id="path-effect2768"
       effect="spiro" />
    <inkscape:path-effect
       fuse_tolerance="0"
       vertical_pattern="false"
       prop_units="false"
       tang_offset="0"
       normal_offset="0"
       spacing="0"
       scale_y_rel="false"
       prop_scale="0.26458333"
       copytype="single_stretched"
       pattern="m 7594.8158,5877.5361 c 16.3355,0 34.6513,15.7691 34.6513,15.7691 0,0 -18.3158,15.7714 -34.6513,15.7714 -16.3355,0 -34.6513,-15.7714 -34.6513,-15.7714 0,0 18.3158,-15.7691 34.6513,-15.7691 z"
       is_visible="true"
       id="path-effect2764"
       effect="skeletal" />
    <inkscape:path-effect
       is_visible="true"
       id="path-effect2762"
       effect="spiro" />
    <inkscape:path-effect
       effect="skeletal"
       id="path-effect2758"
       is_visible="true"
       pattern="m 7609.9691,5867.9145 c 16.3355,0 34.6513,15.7691 34.6513,15.7691 0,0 -18.3158,15.7714 -34.6513,15.7714 -16.3355,0 -34.6513,-15.7714 -34.6513,-15.7714 0,0 18.3158,-15.7691 34.6513,-15.7691 z"
       copytype="single_stretched"
       prop_scale="0.26458333"
       scale_y_rel="false"
       spacing="0"
       normal_offset="0"
       tang_offset="0"
       prop_units="false"
       vertical_pattern="false"
       fuse_tolerance="0" />
    <inkscape:path-effect
       effect="spiro"
       id="path-effect2750"
       is_visible="true" />
    <linearGradient
       inkscape:collect="always"
       id="linearGradient2624">
      <stop
         style="stop-color:#9b1212;stop-opacity:1;"
         offset="0"
         id="stop2620" />
      <stop
         style="stop-color:#9b1212;stop-opacity:0;"
         offset="1"
         id="stop2622" />
    </linearGradient>
    <inkscape:path-effect
       effect="skeletal"
       id="path-effect2598"
       is_visible="true"
       pattern="m 7588.4621,5771.0223 c 16.3355,0 34.6513,15.7691 34.6513,15.7691 0,0 -18.3158,15.7714 -34.6513,15.7714 -16.3355,0 -34.6513,-15.7714 -34.6513,-15.7714 0,0 18.3158,-15.7691 34.6513,-15.7691 z"
       copytype="single_stretched"
       prop_scale="0.26458333"
       scale_y_rel="false"
       spacing="0"
       normal_offset="0"
       tang_offset="0"
       prop_units="false"
       vertical_pattern="false"
       fuse_tolerance="0" />
    <inkscape:path-effect
       effect="spiro"
       id="path-effect2596"
       is_visible="true" />
    <inkscape:path-effect
       fuse_tolerance="0"
       vertical_pattern="false"
       prop_units="false"
       tang_offset="0"
       normal_offset="0"
       spacing="0"
       scale_y_rel="false"
       prop_scale="0.26458333"
       copytype="single_stretched"
       pattern="m 7596.3549,5774.2379 c 16.3355,0 34.6513,15.7691 34.6513,15.7691 0,0 -18.3158,15.7714 -34.6513,15.7714 -16.3355,0 -34.6513,-15.7714 -34.6513,-15.7714 0,0 18.3158,-15.7691 34.6513,-15.7691 z"
       is_visible="true"
       id="path-effect2592"
       effect="skeletal" />
    <inkscape:path-effect
       is_visible="true"
       id="path-effect2590"
       effect="spiro" />
    <inkscape:path-effect
       effect="skeletal"
       id="path-effect2586"
       is_visible="true"
       pattern="m 7543.1516,5776.577 c 16.3355,0 34.6513,15.7691 34.6513,15.7691 0,0 -18.3158,15.7714 -34.6513,15.7714 -16.3355,0 -34.6513,-15.7714 -34.6513,-15.7714 0,0 18.3158,-15.7691 34.6513,-15.7691 z"
       copytype="single_stretched"
       prop_scale="0.26458333"
       scale_y_rel="false"
       spacing="0"
       normal_offset="0"
       tang_offset="0"
       prop_units="false"
       vertical_pattern="false"
       fuse_tolerance="0" />
    <inkscape:path-effect
       effect="spiro"
       id="path-effect2578"
       is_visible="true" />
    <inkscape:path-effect
       fuse_tolerance="0"
       vertical_pattern="false"
       prop_units="false"
       tang_offset="0"
       normal_offset="0"
       spacing="0"
       scale_y_rel="false"
       prop_scale="0.26458333"
       copytype="single_stretched"
       pattern="m 7560.3114,5750.8523 c 16.3355,0 34.6513,15.7691 34.6513,15.7691 0,0 -18.3158,15.7714 -34.6513,15.7714 -16.3355,0 -34.6513,-15.7714 -34.6513,-15.7714 0,0 18.3158,-15.7691 34.6513,-15.7691 z"
       is_visible="true"
       id="path-effect2406"
       effect="skeletal" />
    <inkscape:path-effect
       is_visible="true"
       id="path-effect2404"
       effect="spiro" />
    <inkscape:path-effect
       effect="skeletal"
       id="path-effect2400"
       is_visible="true"
       pattern="m 7570.6302,5750.8523 c 16.3355,0 34.6513,15.7691 34.6513,15.7691 0,0 -18.3158,15.7714 -34.6513,15.7714 -16.3355,0 -34.6513,-15.7714 -34.6513,-15.7714 0,0 18.3158,-15.7691 34.6513,-15.7691 z"
       copytype="single_stretched"
       prop_scale="0.26458333"
       scale_y_rel="false"
       spacing="0"
       normal_offset="0"
       tang_offset="0"
       prop_units="false"
       vertical_pattern="false"
       fuse_tolerance="0" />
    <inkscape:path-effect
       effect="spiro"
       id="path-effect2392"
       is_visible="true" />
    <inkscape:path-effect
       fuse_tolerance="0"
       vertical_pattern="false"
       prop_units="false"
       tang_offset="0"
       normal_offset="0"
       spacing="0"
       scale_y_rel="false"
       prop_scale="0.26458333"
       copytype="single_stretched"
       pattern="m 7446.276,5750.8523 c 16.3355,0 34.6513,15.7691 34.6513,15.7691 0,0 -18.3158,15.7714 -34.6513,15.7714 -16.3355,0 -34.6513,-15.7714 -34.6513,-15.7714 0,0 18.3158,-15.7691 34.6513,-15.7691 z"
       is_visible="true"
       id="path-effect2340"
       effect="skeletal" />
    <inkscape:path-effect
       is_visible="true"
       id="path-effect2338"
       effect="spiro" />
    <inkscape:path-effect
       effect="skeletal"
       id="path-effect2334"
       is_visible="true"
       pattern="m 7446.276,5750.8523 c 16.3355,0 34.6513,15.7691 34.6513,15.7691 0,0 -18.3158,15.7714 -34.6513,15.7714 -16.3355,0 -34.6513,-15.7714 -34.6513,-15.7714 0,0 18.3158,-15.7691 34.6513,-15.7691 z"
       copytype="single_stretched"
       prop_scale="0.26458333"
       scale_y_rel="false"
       spacing="0"
       normal_offset="0"
       tang_offset="0"
       prop_units="false"
       vertical_pattern="false"
       fuse_tolerance="0" />
    <inkscape:path-effect
       effect="spiro"
       id="path-effect2332"
       is_visible="true" />
    <inkscape:path-effect
       fuse_tolerance="0"
       vertical_pattern="false"
       prop_units="false"
       tang_offset="0"
       normal_offset="0"
       spacing="0"
       scale_y_rel="false"
       prop_scale="0.26458333"
       copytype="single_stretched"
       pattern="m 7441.5135,5750.8523 c 16.3355,0 34.6513,15.7691 34.6513,15.7691 0,0 -18.3158,15.7714 -34.6513,15.7714 -16.3355,0 -34.6513,-15.7714 -34.6513,-15.7714 0,0 18.3158,-15.7691 34.6513,-15.7691 z"
       is_visible="true"
       id="path-effect2328"
       effect="skeletal" />
    <inkscape:path-effect
       is_visible="true"
       id="path-effect2326"
       effect="spiro" />
    <inkscape:path-effect
       fuse_tolerance="0"
       vertical_pattern="false"
       prop_units="false"
       tang_offset="0"
       normal_offset="0"
       spacing="0"
       scale_y_rel="false"
       prop_scale="0.26458333"
       copytype="single_stretched"
       pattern="m 7575.3927,5750.8523 c 16.3355,0 34.6513,15.7691 34.6513,15.7691 0,0 -18.3158,15.7714 -34.6513,15.7714 -16.3355,0 -34.6513,-15.7714 -34.6513,-15.7714 0,0 18.3158,-15.7691 34.6513,-15.7691 z"
       is_visible="true"
       id="path-effect2297"
       effect="skeletal" />
    <inkscape:path-effect
       is_visible="true"
       id="path-effect2295"
       effect="spiro" />
    <inkscape:path-effect
       effect="skeletal"
       id="path-effect2291"
       is_visible="true"
       pattern="m 7570.6302,5750.8523 c 16.3355,0 34.6513,15.7691 34.6513,15.7691 0,0 -18.3158,15.7714 -34.6513,15.7714 -16.3355,0 -34.6513,-15.7714 -34.6513,-15.7714 0,0 18.3158,-15.7691 34.6513,-15.7691 z"
       copytype="single_stretched"
       prop_scale="0.26458333"
       scale_y_rel="false"
       spacing="0"
       normal_offset="0"
       tang_offset="0"
       prop_units="false"
       vertical_pattern="false"
       fuse_tolerance="0" />
    <inkscape:path-effect
       effect="spiro"
       id="path-effect2283"
       is_visible="true" />
    <inkscape:path-effect
       effect="skeletal"
       id="path-effect2266"
       is_visible="true"
       pattern="m 7425.4494,5837.2873 c 16.3355,0 34.6513,15.7691 34.6513,15.7691 0,0 -18.3158,15.7714 -34.6513,15.7714 -16.3355,0 -34.6513,-15.7714 -34.6513,-15.7714 0,0 18.3158,-15.7691 34.6513,-15.7691 z"
       copytype="single_stretched"
       prop_scale="0.26458333"
       scale_y_rel="false"
       spacing="0"
       normal_offset="0"
       tang_offset="0"
       prop_units="false"
       vertical_pattern="false"
       fuse_tolerance="0" />
    <inkscape:path-effect
       effect="spiro"
       id="path-effect2258"
       is_visible="true" />
    <linearGradient
       inkscape:collect="always"
       id="linearGradient2210">
      <stop
         style="stop-color:#ff5555;stop-opacity:1"
         offset="0"
         id="stop2206" />
      <stop
         style="stop-color:#800000;stop-opacity:1"
         offset="1"
         id="stop2208" />
    </linearGradient>
    <inkscape:path-effect
       fuse_tolerance="0"
       vertical_pattern="false"
       prop_units="false"
       tang_offset="0"
       normal_offset="0"
       spacing="0"
       scale_y_rel="false"
       prop_scale="0.26458333"
       copytype="single_stretched"
       pattern="m 7522.4256,5811.6597 c 16.3355,0 34.6513,15.7691 34.6513,15.7691 0,0 -18.3158,15.7714 -34.6513,15.7714 -16.3355,0 -34.6513,-15.7714 -34.6513,-15.7714 0,0 18.3158,-15.7691 34.6513,-15.7691 z"
       is_visible="true"
       id="path-effect2181"
       effect="skeletal" />
    <inkscape:path-effect
       is_visible="true"
       id="path-effect2179"
       effect="spiro" />
    <inkscape:path-effect
       effect="skeletal"
       id="path-effect2175"
       is_visible="true"
       pattern="m 7522.4256,5781.7255 c 16.3355,0 34.6513,15.7691 34.6513,15.7691 0,0 -18.3158,15.7714 -34.6513,15.7714 -16.3355,0 -34.6513,-15.7714 -34.6513,-15.7714 0,0 18.3158,-15.7691 34.6513,-15.7691 z"
       copytype="single_stretched"
       prop_scale="0.26458333"
       scale_y_rel="false"
       spacing="0"
       normal_offset="0"
       tang_offset="0"
       prop_units="false"
       vertical_pattern="false"
       fuse_tolerance="0" />
    <inkscape:path-effect
       effect="spiro"
       id="path-effect2167"
       is_visible="true" />
    <inkscape:path-effect
       effect="skeletal"
       id="path-effect1903"
       is_visible="true"
       pattern="m 7570.6302,5750.8523 c 16.3355,0 34.6513,15.7691 34.6513,15.7691 0,0 -18.3158,15.7714 -34.6513,15.7714 -16.3355,0 -34.6513,-15.7714 -34.6513,-15.7714 0,0 18.3158,-15.7691 34.6513,-15.7691 z"
       copytype="single_stretched"
       prop_scale="0.26458333"
       scale_y_rel="false"
       spacing="0"
       normal_offset="0"
       tang_offset="0"
       prop_units="false"
       vertical_pattern="false"
       fuse_tolerance="0" />
    <inkscape:path-effect
       effect="spiro"
       id="path-effect1895"
       is_visible="true" />
    <inkscape:path-effect
       effect="simplify"
       id="path-effect1893"
       is_visible="true"
       steps="1"
       threshold="0.00961538"
       smooth_angles="360"
       helper_size="0"
       simplify_individual_paths="false"
       simplify_just_coalesce="false"
       simplifyindividualpaths="false"
       simplifyJustCoalesce="false" />
    <linearGradient
       inkscape:collect="always"
       xlink:href="#linearGradient2210"
       id="linearGradient2212"
       x1="29111"
       y1="21817.52"
       x2="29111"
       y2="22236.52"
       gradientUnits="userSpaceOnUse" />
    <linearGradient
       inkscape:collect="always"
       xlink:href="#linearGradient2624"
       id="linearGradient2626"
       x1="7701.0693"
       y1="5817.4771"
       x2="7701.0693"
       y2="5839.6479"
       gradientUnits="userSpaceOnUse"
       gradientTransform="matrix(0.92230548,0,0,0.92252274,598.88954,450.74725)" />
    <linearGradient
       inkscape:collect="always"
       xlink:href="#linearGradient2805"
       id="linearGradient2807"
       x1="27557.277"
       y1="22226.832"
       x2="27557.277"
       y2="21659"
       gradientUnits="userSpaceOnUse"
       gradientTransform="matrix(0.21539422,0,0,0.21539422,1735.8048,1273.1683)" />
  </defs>
  <sodipodi:namedview
     id="base"
     pagecolor="#e1e1e1"
     bordercolor="#666666"
     borderopacity="1.0"
     inkscape:pageopacity="0"
     inkscape:pageshadow="2"
     inkscape:zoom="0.45254834"
     inkscape:cx="29235.441"
     inkscape:cy="-21009.318"
     inkscape:document-units="px"
     inkscape:current-layer="layer1"
     showgrid="false"
     showborder="false"
     units="px"
     inkscape:window-width="1656"
     inkscape:window-height="991"
     inkscape:window-x="12"
     inkscape:window-y="12"
     inkscape:window-maximized="0"
     inkscape:snap-global="false"
     inkscape:object-paths="true" />
  <metadata
     id="metadata5">
    <rdf:RDF>
      <cc:Work
         rdf:about="">
        <dc:format>image/svg+xml</dc:format>
        <dc:type
           rdf:resource="http://purl.org/dc/dcmitype/StillImage" />
        <dc:title></dc:title>
      </cc:Work>
    </rdf:RDF>
  </metadata>
  <g
     inkscape:label="Layer 1"
     inkscape:groupmode="layer"
     id="layer1"
     transform="translate(0,8.3923341e-6)"
     style="display:inline">
    <rect
       style="opacity:1;fill:#1a1a1a;fill-opacity:1;fill-rule:nonzero;stroke:none;stroke-width:1.05833328;stroke-linecap:round;stroke-linejoin:round;stroke-miterlimit:4;stroke-dasharray:none;stroke-dashoffset:0;stroke-opacity:1;paint-order:fill markers stroke"
       id="rect2218"
       width="320.25864"
       height="120.20912"
       x="7624.4419"
       y="5758.0278" />
    <path
       style="fill:url(#linearGradient2212);stroke:none;stroke-width:0.99999994px;stroke-linecap:butt;stroke-linejoin:miter;stroke-opacity:1;fill-opacity:1"
       d="M 29142.934 21797.889 C 29142.934 21797.889 29135.019 21803.059 29124.541 21815.307 C 29114.146 21827.457 29101.311 21847.328 29096.064 21874.477 C 29095.8 21875.853 29095.563 21877.246 29095.342 21878.646 C 29092.477 21871.654 29089.228 21865.702 29086.17 21860.936 C 29078.6 21849.137 29072.389 21843.783 29072.389 21843.783 C 29072.389 21843.783 29076.593 21850.872 29080.525 21863.586 C 29084.48 21876.371 29087.632 21894.473 29084.473 21914.672 C 29081.187 21935.867 29071.089 21957.498 29054.832 21974.25 C 29047.902 21981.453 29039.175 21988.292 29030.424 21996.307 C 29022.913 22003.186 29015.187 22011.097 29008.506 22020.76 C 28989.826 22048.922 28989.86 22082.605 29001.09 22107.602 C 29011.797 22131.147 29030.279 22143.963 29043.311 22149.881 C 29056.674 22155.95 29065.277 22156.18 29065.277 22156.18 C 29065.277 22156.18 29057.176 22153.163 29046.711 22144.412 C 29036.324 22135.727 29024.001 22120.876 29019.561 22101.129 C 29016.422 22087.551 29017.394 22072.243 29022.385 22058.355 C 29020.005 22075.601 29023.248 22092.639 29030.293 22106.406 C 29040.994 22127.086 29058.195 22137.764 29070.182 22142.49 C 29082.473 22147.337 29090.219 22147.15 29090.219 22147.15 C 29090.219 22147.15 29082.798 22144.808 29072.99 22137.418 C 29063.255 22130.084 29051.5 22117.294 29046.605 22099.742 C 29041.387 22081.448 29044.478 22059.142 29056.109 22042.727 C 29060.141 22036.666 29065.688 22031.086 29071.734 22025.09 C 29078.756 22018.126 29086.688 22010.38 29093.715 22000.916 C 29099.476 21993.109 29103.905 21984.825 29107.141 21976.377 C 29108.028 21977.601 29108.946 21978.813 29109.902 21980.01 C 29116.77 21988.562 29124.49 21995.552 29131.383 22001.949 C 29137.317 22007.458 29142.807 22012.673 29146.918 22018.457 C 29158.71 22034.214 29162.065 22055.722 29157.344 22073.43 C 29152.914 22090.385 29141.862 22102.735 29132.744 22109.814 C 29123.546 22116.956 29116.58 22119.248 29116.58 22119.248 C 29116.58 22119.248 29123.88 22119.015 29135.18 22113.883 C 29143.182 22110.248 29153.563 22103.557 29162.135 22092.654 C 29161.221 22095.877 29160.131 22099.016 29158.859 22102.039 C 29149.741 22124.023 29132.573 22138.58 29118.988 22146.404 C 29105.284 22154.298 29095.484 22156.084 29095.484 22156.084 C 29095.484 22156.084 29105.35 22157.13 29121.506 22152.332 C 29137.277 22147.648 29160.223 22136.05 29176.115 22111.277 C 29192.838 22084.978 29198.398 22047.144 29182.311 22012.521 C 29176.502 22000.559 29169.155 21990.319 29161.826 21981.172 C 29153.288 21970.517 29144.511 21961.045 29137.803 21951.342 C 29122.031 21928.709 29114.617 21901.65 29115.033 21876.568 C 29115.4 21852.679 29122.655 21832.565 29129.711 21818.793 C 29136.736 21805.082 29142.934 21797.889 29142.934 21797.889 z "
       transform="matrix(0.26458333,0,0,0.26458333,0,-8.3923341e-6)"
       id="path2165" />
    <text
       xml:space="preserve"
       style="font-style:normal;font-variant:normal;font-weight:normal;font-stretch:normal;font-size:15.05472183px;line-height:1.25;font-family:'Andale Mono';-inkscape-font-specification:'Andale Mono';letter-spacing:0px;word-spacing:0px;fill:#ffffff;fill-opacity:1;stroke:#ffffff;stroke-width:1.05833328;stroke-linecap:round;stroke-linejoin:round;stroke-miterlimit:4;stroke-dasharray:none;stroke-opacity:1"
       x="7770.606"
       y="5803.2241"
       id="text2216"
       transform="scale(0.99496984,1.0050556)"><tspan
         sodipodi:role="line"
         id="tspan2214"
         x="7770.606"
         y="5803.2241"
         style="font-style:normal;font-variant:normal;font-weight:normal;font-stretch:normal;font-family:Kiona;-inkscape-font-specification:Kiona;fill:#ffffff;stroke:#ffffff;stroke-width:1.05833328;stroke-linecap:round;stroke-linejoin:round;stroke-miterlimit:4;stroke-dasharray:none;stroke-opacity:1">ERSO ENTERPRISES</tspan></text>
    <path
       style="fill:#c22c2c;stroke:none;stroke-width:0.26458332px;stroke-linecap:butt;stroke-linejoin:miter;stroke-opacity:1;fill-opacity:1"
       d="m 7504.3248,5851.9373 c 0.7878,5.2143 2.5817,10.3285 5.3263,14.878 4.5356,7.5446 11.7012,13.5733 19.87,16.7735 8.4616,3.3285 17.9397,3.6162 26.3068,1.1769 0,0 0,0 0,0 9.1637,-2.6604 16.8712,-8.4893 21.9248,-15.4433 6.1205,-8.4076 8.2963,-18.12 8.044,-26.2295 -0.5525,-18.0089 -9.9824,-26.3552 -9.9824,-26.3552 0,0 10.3884,7.3018 12.4455,26.1807 0.926,8.5313 -0.5776,19.178 -6.7519,28.9442 -5.1209,8.0869 -13.3388,15.1898 -23.7805,18.8216 0,0 0,0 0,0 -9.5523,3.3119 -20.5515,3.5163 -30.8025,-0.09 -9.8935,-3.4939 -18.5968,-10.392 -24.2705,-19.4851 -3.4144,-5.4875 -5.6338,-11.6256 -6.5831,-17.9262 -0.6234,-4.1371 -0.7042,-8.377 -0.2007,-12.5842 0,0 0,0 0,-1e-4 1.2829,-10.6048 6.2252,-20.5671 13.7587,-27.9677 7.7397,-7.5852 17.8002,-12.0984 27.9447,-13.1474 7.4452,-0.7583 14.1633,0.144 20.0371,-0.9739 3.1098,-0.5924 5.9888,-1.6066 8.2675,-3.3082 2.3762,-1.7794 4.1789,-4.2321 4.7032,-6.8629 0.3996,-1.8179 0.2271,-3.7759 -0.3467,-5.5505 -0.607,-1.8792 -1.705,-3.593 -3.0301,-5.0139 -2.9194,-3.1659 -7.1383,-4.8746 -10.8977,-5.7084 -3.3771,-0.7362 -6.6585,-0.8397 -9.5189,-0.6506 -10.1893,0.6764 -15.4241,4.3122 -15.4241,4.3122 0,0 4.8211,-4.1649 15.2679,-5.7419 2.9393,-0.4446 6.3835,-0.6198 10.0604,-0.1213 4.1185,0.545 8.9243,2.0843 12.7889,5.5978 1.7402,1.5971 3.254,3.6275 4.2401,6.0282 0.9352,2.2794 1.3466,4.8924 0.9759,7.5559 -0.5878,3.8383 -2.7151,7.3959 -5.8244,9.9478 -2.9213,2.4043 -6.4405,3.97 -10.1187,4.8362 -6.9023,1.6276 -13.9963,1.1429 -20.3702,2.1168 -8.6303,1.3043 -17.0715,5.5589 -23.3053,12.0817 -6.0803,6.3441 -10.028,14.8175 -10.9779,23.5218 0,0 0,0 0,0 -0.3827,3.4573 -0.2937,6.9621 0.2238,10.3875 z"
       id="path2281"
       inkscape:connector-curvature="0"
       inkscape:original-d="m 7531.3645,5775.7271 c 4.9149,-1.588 10.1695,-5.0271 15.3458,-5.0271 3.251,0 6.5604,-0.029 9.7896,0.2646 6.5402,0.5945 26.7335,7.1329 16.1396,17.7271 -6.5109,6.5108 -32.9605,5.5231 -34.6604,14.0229 -3.9833,19.9165 27.455,19.685 37.8354,14.0229"
       inkscape:path-effect="#path-effect2283;#path-effect2291" />
    <path
       inkscape:original-d="m 7554.8686,5786.4462 c -3.9686,-1.2822 -8.2114,-4.0591 -12.391,-4.0591 -2.6251,0 -5.2973,-0.023 -7.9047,0.2136 -5.2809,0.4801 -21.586,5.7595 -13.032,14.3139 5.2573,5.2571 26.6141,4.4596 27.9867,11.3228 3.2163,16.0816 -22.1686,15.8947 -30.5503,11.3228"
       inkscape:connector-curvature="0"
       id="path2293"
       d="m 7584.1607,5849.1075 c -0.7821,5.1921 -2.6151,10.2469 -5.4365,14.7682 -4.6909,7.4912 -11.8664,13.1449 -20.021,15.9943 -8.4494,2.9391 -17.4773,2.7268 -25.3044,-0.032 0,0 0,0 0,0 -8.5543,-3.0259 -15.239,-8.8839 -19.3804,-15.5227 -4.9909,-8.0166 -6.14,-16.7034 -5.3276,-23.6326 1.805,-15.3287 10.2863,-21.1232 10.2863,-21.1232 0,0 -7.5229,6.839 -7.8232,21.2977 -0.1387,6.5075 1.6826,14.2599 6.6197,20.9179 4.0741,5.5059 10.2485,10.0899 17.5247,12.1444 0,0 0,0 0,0 6.642,1.8857 14.1487,1.6059 20.8087,-1.0548 6.4299,-2.5558 12.0677,-7.3401 15.6205,-13.2829 2.1516,-3.5832 3.5592,-7.6142 4.1797,-11.7199 0.4077,-2.6972 0.4803,-5.4564 0.1829,-8.1758 0,0 0,0 0,0 -0.7349,-6.8453 -3.8266,-13.5439 -8.5963,-18.5647 -4.8885,-5.1645 -11.5485,-8.5752 -18.3713,-9.6529 -5.0435,-0.8072 -10.8077,-0.4561 -16.48,-1.8194 -3.0247,-0.7257 -5.9279,-2.0431 -8.3485,-4.052 -2.5812,-2.1349 -4.3301,-5.1139 -4.8108,-8.3293 -0.2966,-2.2319 0.059,-4.4049 0.8485,-6.2939 0.8328,-1.9887 2.0951,-3.6585 3.5402,-4.9651 3.2114,-2.8704 7.1484,-4.0969 10.5084,-4.5092 2.9977,-0.3796 5.7944,-0.2112 8.1754,0.1724 8.4601,1.3599 12.3127,4.774 12.3127,4.774 0,0 -4.2663,-2.885 -12.4689,-3.3443 -2.3021,-0.1281 -4.9359,-0.018 -7.6339,0.5995 -3.0009,0.701 -6.351,2.0971 -8.6172,4.6198 -1.03,1.1303 -1.8765,2.4836 -2.3302,3.9507 -0.4285,1.3843 -0.5448,2.9022 -0.2193,4.2886 0.4172,2.0079 1.8415,3.882 3.6896,5.2444 1.778,1.3062 4.041,2.0721 6.4973,2.5241 4.6437,0.8535 10.0321,0.085 16.1469,0.6763 8.337,0.8225 16.6163,4.4918 23.0107,10.7187 6.2228,6.0773 10.3092,14.2648 11.3771,23.0107 0,0 0,0 0,0 0.4182,3.4693 0.3537,6.9635 -0.1598,10.3725 z"
       style="fill:#c22c2c;fill-opacity:1;stroke:none;stroke-width:0.26458332px;stroke-linecap:butt;stroke-linejoin:miter;stroke-opacity:1"
       inkscape:path-effect="#path-effect2295;#path-effect2297" />
    <path
       inkscape:path-effect="#path-effect2326;#path-effect2328"
       inkscape:original-d="m 7402.2478,5775.7271 c 4.9149,-1.588 10.1695,-5.0271 15.3458,-5.0271 3.251,0 6.5604,-0.029 9.7896,0.2646 6.5402,0.5945 26.7335,7.1329 16.1396,17.7271 -6.5109,6.5108 -32.9605,5.5231 -34.6604,14.0229 -3.9833,19.9165 27.455,19.685 37.8354,14.0229"
       inkscape:connector-curvature="0"
       id="path2324"
       d="m 7375.2081,5851.9373 c 0.7878,5.2143 2.5817,10.3285 5.3263,14.878 4.5356,7.5446 11.7012,13.5733 19.87,16.7735 8.4616,3.3285 17.9397,3.6162 26.3068,1.1769 0,0 0,0 0,0 9.1637,-2.6604 16.8712,-8.4893 21.9248,-15.4433 6.1205,-8.4076 8.2963,-18.12 8.044,-26.2295 -0.5525,-18.0089 -9.9824,-26.3552 -9.9824,-26.3552 0,0 10.3884,7.3018 12.4455,26.1807 0.926,8.5313 -0.5776,19.178 -6.7519,28.9442 -5.1209,8.0869 -13.3388,15.1898 -23.7805,18.8216 0,0 0,0 0,0 -9.5523,3.3119 -20.5515,3.5163 -30.8025,-0.09 -9.8935,-3.4939 -18.5968,-10.392 -24.2705,-19.4851 -3.4144,-5.4875 -5.6338,-11.6256 -6.5831,-17.9262 -0.6234,-4.1371 -0.7042,-8.377 -0.2007,-12.5842 0,0 0,-1e-4 0,-1e-4 1.2829,-10.6048 6.2252,-20.5671 13.7587,-27.9677 7.7397,-7.5852 17.8002,-12.0984 27.9447,-13.1474 7.4452,-0.7583 14.1633,0.144 20.0371,-0.9739 3.1098,-0.5924 5.9888,-1.6066 8.2675,-3.3082 2.3762,-1.7794 4.1789,-4.2321 4.7032,-6.8629 0.3996,-1.8179 0.2271,-3.7759 -0.3467,-5.5505 -0.607,-1.8792 -1.705,-3.593 -3.0301,-5.0139 -2.9194,-3.1659 -7.1383,-4.8746 -10.8977,-5.7084 -3.3771,-0.7362 -6.6585,-0.8397 -9.5189,-0.6506 -10.1893,0.6764 -15.4241,4.3122 -15.4241,4.3122 0,0 4.8211,-4.1649 15.2679,-5.7419 2.9393,-0.4446 6.3835,-0.6198 10.0604,-0.1213 4.1185,0.545 8.9243,2.0843 12.7889,5.5978 1.7402,1.5971 3.254,3.6275 4.2401,6.0282 0.9352,2.2794 1.3466,4.8924 0.9759,7.5559 -0.5878,3.8383 -2.7151,7.3959 -5.8244,9.9478 -2.9213,2.4043 -6.4405,3.97 -10.1187,4.8362 -6.9023,1.6276 -13.9963,1.1429 -20.3702,2.1168 -8.6303,1.3043 -17.0715,5.5589 -23.3053,12.0817 -6.0803,6.3441 -10.028,14.8175 -10.9779,23.5218 0,0 0,0 0,0 -0.3827,3.4573 -0.2937,6.9621 0.2238,10.3875 z"
       style="fill:#c22c2c;fill-opacity:1;stroke:none;stroke-width:0.26458332px;stroke-linecap:butt;stroke-linejoin:miter;stroke-opacity:1" />
    <path
       inkscape:path-effect="#path-effect2332;#path-effect2334"
       style="fill:#c22c2c;fill-opacity:1;stroke:none;stroke-width:0.26458332px;stroke-linecap:butt;stroke-linejoin:miter;stroke-opacity:1"
       d="m 7455.044,5849.1075 c -0.7821,5.1921 -2.6151,10.2469 -5.4365,14.7682 -4.6909,7.4912 -11.8664,13.1449 -20.021,15.9943 -8.4494,2.9391 -17.4773,2.7268 -25.3044,-0.032 0,0 0,0 0,0 -8.5543,-3.0259 -15.239,-8.8839 -19.3804,-15.5227 -4.9909,-8.0166 -6.14,-16.7034 -5.3276,-23.6326 1.805,-15.3287 10.2863,-21.1232 10.2863,-21.1232 0,0 -7.5229,6.839 -7.8232,21.2977 -0.1387,6.5075 1.6826,14.2599 6.6197,20.9179 4.0741,5.5059 10.2485,10.0899 17.5247,12.1444 0,0 0,0 0,0 6.642,1.8857 14.1487,1.6059 20.8087,-1.0548 6.4299,-2.5558 12.0677,-7.3401 15.6205,-13.2829 2.1516,-3.5832 3.5592,-7.6142 4.1797,-11.7199 0.4077,-2.6972 0.4803,-5.4564 0.1829,-8.1758 0,0 0,0 0,0 -0.7349,-6.8453 -3.8266,-13.5439 -8.5963,-18.5647 -4.8885,-5.1645 -11.5485,-8.5752 -18.3713,-9.6529 -5.0435,-0.8072 -10.8077,-0.4561 -16.48,-1.8194 -3.0247,-0.7257 -5.9279,-2.0431 -8.3485,-4.052 -2.5812,-2.1349 -4.3301,-5.1139 -4.8108,-8.3293 -0.2966,-2.2319 0.059,-4.4049 0.8485,-6.2939 0.8328,-1.9887 2.0951,-3.6585 3.5402,-4.9651 3.2114,-2.8704 7.1484,-4.0969 10.5084,-4.5092 2.9977,-0.3796 5.7944,-0.2112 8.1754,0.1724 8.4601,1.3599 12.3127,4.774 12.3127,4.774 0,0 -4.2663,-2.885 -12.4689,-3.3443 -2.3021,-0.1281 -4.9359,-0.018 -7.6339,0.5995 -3.0009,0.701 -6.351,2.0971 -8.6172,4.6198 -1.03,1.1303 -1.8765,2.4836 -2.3302,3.9507 -0.4285,1.3843 -0.5448,2.9022 -0.2193,4.2886 0.4172,2.0079 1.8415,3.882 3.6896,5.2444 1.778,1.3062 4.041,2.0721 6.4973,2.5241 4.6437,0.8535 10.0321,0.085 16.1469,0.6763 8.337,0.8225 16.6163,4.4918 23.0107,10.7187 6.2228,6.0773 10.3092,14.2648 11.3771,23.0107 0,0 0,0 0,0 0.4182,3.4693 0.3537,6.9635 -0.1598,10.3725 z"
       id="path2330"
       inkscape:connector-curvature="0"
       inkscape:original-d="m 7425.7519,5786.4462 c -3.9686,-1.2822 -8.2114,-4.0591 -12.391,-4.0591 -2.6251,0 -5.2973,-0.023 -7.9047,0.2136 -5.2809,0.4801 -21.586,5.7595 -13.032,14.3139 5.2573,5.2571 26.6141,4.4596 27.9867,11.3228 3.2163,16.0816 -22.1686,15.8947 -30.5503,11.3228" />
    <path
       style="fill:url(#linearGradient2626);fill-opacity:1;stroke:#9b1212;stroke-width:0.26458332;stroke-linecap:round;stroke-linejoin:round;stroke-miterlimit:4;stroke-dasharray:none;stroke-opacity:0"
       d="m 7694.2981,5851.3538 c -1.6956,-1.1529 -6.2996,-6.0176 -5.9341,-12.2504 0.3657,-6.2325 2.65,-7.822 7.3278,-12.8587 4.6777,-5.0366 5.9364,-8.7427 5.9364,-8.7427 0,0 0.5434,0.862 2.401,2.8033 1.8577,1.9412 6.1287,5.0625 7.1854,8.0335 1.0567,2.9712 2.0995,5.472 0.853,10.1284 -1.2467,4.6563 -5.1733,7.6583 -8.4498,9.1564 z"
       id="path2602"
       inkscape:connector-curvature="0" />
    <rect
       y="5914.1304"
       x="7624.4419"
       height="161.13478"
       width="253.69939"
       id="rect2809"
       style="opacity:1;fill:#e6e6e6;fill-opacity:1;fill-rule:nonzero;stroke:none;stroke-width:1.05833328;stroke-linecap:round;stroke-linejoin:round;stroke-miterlimit:4;stroke-dasharray:none;stroke-dashoffset:0;stroke-opacity:1;paint-order:fill markers stroke" />
    <text
       transform="scale(0.99496984,1.0050556)"
       id="text2815"
       y="5979.646"
       x="7749.877"
       style="font-style:normal;font-variant:normal;font-weight:normal;font-stretch:normal;font-size:15.05472183px;line-height:1.25;font-family:'Andale Mono';-inkscape-font-specification:'Andale Mono';letter-spacing:0px;word-spacing:0px;fill:#7e0000;fill-opacity:1;stroke:#8c2323;stroke-width:1.05833328;stroke-linecap:round;stroke-linejoin:round;stroke-miterlimit:4;stroke-dasharray:none;stroke-opacity:1;"
       xml:space="preserve"><tspan
         style="font-style:normal;font-variant:normal;font-weight:normal;font-stretch:normal;font-family:Kiona;-inkscape-font-specification:Kiona;fill:#7e0000;stroke:#8c2323;stroke-width:1.05833328;stroke-linecap:round;stroke-linejoin:round;stroke-miterlimit:4;stroke-dasharray:none;stroke-opacity:1;fill-opacity:1;"
         y="5979.646"
         x="7749.877"
         id="tspan2813"
         sodipodi:role="line">ERSO ENTERPRISES</tspan></text>
    <path
       inkscape:connector-curvature="0"
       style="fill:url(#linearGradient2807);fill-opacity:1;stroke:none;stroke-width:0.26458332px;stroke-linecap:butt;stroke-linejoin:miter;stroke-opacity:1"
       d="m 7675.3626,5952.9224 c 0,0 -1.595,2.7702 -2.7018,7.8959 -0.1197,0.5551 -0.2293,1.1418 -0.3297,1.748 -0.3797,0.9974 -0.8202,2.3603 -1.1842,4.1077 -0.8172,3.9213 -1.0763,9.6271 1.2531,15.7578 2.0693,5.3291 5.3582,9.6456 8.2216,13.9843 0.2163,0.3332 0.4291,0.6645 0.6382,0.9941 1.1018,1.7364 2.1161,3.4628 2.8721,5.2379 0.9025,2.1375 1.5153,4.3007 1.5545,6.4153 0.1135,3.5245 -1.3253,6.9383 -3.4069,9.2972 -2.1011,2.3959 -4.7384,3.6564 -6.6759,4.2586 -1.9545,0.6074 -3.2006,0.6344 -3.2006,0.6344 0,0 1.1752,0.3907 3.3528,0.3702 2.1191,-0.019 5.4359,-0.5283 8.6757,-2.7949 2.2552,-1.586 4.3669,-4.0031 5.6639,-7.0867 0.2386,1.3828 0.3467,2.7594 0.287,4.1161 -0.1699,4.947 -2.5018,9.4828 -5.5702,12.4824 -3.0962,3.04 -6.7656,4.2706 -9.3927,4.8715 -1.7639,0.2823 -3.4479,0.1029 -5.2731,-0.039 -2.1472,-0.259 -4.8309,-1.3214 -7.1871,-3.5884 -2.333,-2.2317 -4.1028,-5.6002 -4.2906,-9.2245 -0.1413,-2.1713 0.3009,-4.4401 1.0446,-6.705 0.6242,-1.8813 1.5162,-3.7321 2.4975,-5.5985 0.1146,-0.2177 0.2328,-0.4375 0.35,-0.6568 0.1385,0.5705 0.3123,1.1332 0.5251,1.684 1.3221,3.316 3.8698,5.4144 6.3012,6.3895 2.4501,0.9746 4.645,0.804 5.9843,0.5078 1.3794,-0.3052 2.0546,-0.7202 2.0546,-0.7202 0,0 -0.7999,0.025 -2.0591,-0.2693 -1.2558,-0.2937 -2.9376,-0.9492 -4.3454,-2.2721 -1.3865,-1.2924 -2.4402,-3.1896 -2.6631,-5.1731 -0.1654,-1.2263 -0.01,-2.5512 0.2785,-3.9235 0.2615,-1.2193 0.7016,-2.4725 1.1758,-3.7857 -0.032,0.088 0.1919,-0.5293 0.16,-0.4409 1.1432,-3.0463 2.5622,-6.4531 3.0336,-10.3112 0.5028,-4.4774 -0.6778,-8.1874 -1.9107,-10.5976 -0.2499,-0.4886 -0.4947,-0.91 -0.7308,-1.2941 -0.108,-0.4495 -0.2215,-0.8846 -0.3412,-1.295 -1.1436,-3.9208 -2.5481,-5.9612 -2.5481,-5.9612 0,0 0.6627,2.3963 0.7336,6.2447 0.072,3.9161 -0.5785,9.0009 -3.0367,14.0442 -2.0326,4.271 -5.5003,8.4635 -8.3178,13.4621 -0.2253,0.3935 -0.4457,0.7922 -0.6591,1.1963 -1.1265,2.1313 -2.0986,4.458 -2.7413,6.9624 -0.786,3.031 -0.9439,6.238 -0.3126,9.325 1.1095,5.2098 4.4113,9.0016 7.8734,11.0476 3.4803,2.0458 6.8627,1.9061 9.0611,2.1497 1.7089,0.067 3.4779,0.1742 5.4564,0.035 2.8797,-0.3423 7.1099,-0.663 11.3343,-3.5143 4.2042,-2.8623 8.0489,-7.8856 9.0722,-14.4559 0.5809,-3.8963 0.1634,-7.9018 -1.0113,-11.6725 -0.9644,-3.1176 -2.3377,-6.0084 -3.8918,-8.6696 -0.2948,-0.5047 -0.597,-1.0031 -0.9057,-1.4955 -3.8743,-6.2535 -8.5559,-11.619 -11.3705,-17.2098 -3.3833,-6.6059 -4.313,-13.2775 -4.2738,-18.3623 0.038,-5.008 0.8767,-8.1021 0.8767,-8.1021 z"
       id="path2748" />
  </g>
</svg>
