<?xml version="1.0" encoding="UTF-8" standalone="no"?>
<!-- Created with Inkscape (http://www.inkscape.org/) -->

<svg
   xmlns:dc="http://purl.org/dc/elements/1.1/"
   xmlns:cc="http://creativecommons.org/ns#"
   xmlns:rdf="http://www.w3.org/1999/02/22-rdf-syntax-ns#"
   xmlns:svg="http://www.w3.org/2000/svg"
   xmlns="http://www.w3.org/2000/svg"
   xmlns:sodipodi="http://sodipodi.sourceforge.net/DTD/sodipodi-0.dtd"
   xmlns:inkscape="http://www.inkscape.org/namespaces/inkscape"
   width="210mm"
   height="297mm"
   viewBox="0 0 210 297"
   version="1.1"
   id="svg8"
   inkscape:version="0.92.2 (5c3e80d, 2017-08-06)"
   sodipodi:docname="Short Shrifts.svg">
  <defs
     id="defs2">
    <inkscape:path-effect
       effect="skeletal"
       id="path-effect5223"
       is_visible="true"
       pattern="#path1101"
       copytype="repeated"
       prop_scale="1"
       scale_y_rel="false"
       spacing="0"
       normal_offset="0"
       tang_offset="0"
       prop_units="false"
       vertical_pattern="false"
       fuse_tolerance="0" />
    <inkscape:path-effect
       fuse_tolerance="0"
       vertical_pattern="false"
       prop_units="false"
       tang_offset="0"
       normal_offset="0"
       spacing="0.7"
       scale_y_rel="false"
       prop_scale="1"
       copytype="repeated"
       pattern="#path1089"
       is_visible="true"
       id="path-effect5193"
       effect="skeletal" />
    <inkscape:path-effect
       effect="skeletal"
       id="path-effect5184"
       is_visible="true"
       pattern="#path1089"
       copytype="repeated"
       prop_scale="1"
       scale_y_rel="false"
       spacing="0.7"
       normal_offset="0"
       tang_offset="0"
       prop_units="false"
       vertical_pattern="false"
       fuse_tolerance="0" />
  </defs>
  <sodipodi:namedview
     id="base"
     pagecolor="#ffffff"
     bordercolor="#666666"
     borderopacity="1.0"
     inkscape:pageopacity="0.0"
     inkscape:pageshadow="2"
     inkscape:zoom="0.98994949"
     inkscape:cx="3710.6375"
     inkscape:cy="-643.55119"
     inkscape:document-units="mm"
     inkscape:current-layer="layer1"
     showgrid="false"
     inkscape:snap-bbox="false"
     showborder="false"
     inkscape:object-paths="false"
     inkscape:window-width="1648"
     inkscape:window-height="991"
     inkscape:window-x="16"
     inkscape:window-y="43"
     inkscape:window-maximized="0"
     inkscape:snap-global="false">
    <inkscape:grid
       type="xygrid"
       id="grid819" />
  </sodipodi:namedview>
  <metadata
     id="metadata5">
    <rdf:RDF>
      <cc:Work
         rdf:about="">
        <dc:format>image/svg+xml</dc:format>
        <dc:type
           rdf:resource="http://purl.org/dc/dcmitype/StillImage" />
        <dc:title />
      </cc:Work>
    </rdf:RDF>
  </metadata>
  <g
     inkscape:label="Layer 1"
     inkscape:groupmode="layer"
     id="layer1">
    <rect
       style="opacity:1;fill:#e6e6e6;fill-opacity:1;fill-rule:nonzero;stroke:none;stroke-width:0.40000004;stroke-linecap:butt;stroke-linejoin:miter;stroke-miterlimit:4;stroke-dasharray:none;stroke-opacity:1;paint-order:normal"
       id="rect969"
       width="120.41132"
       height="104.66019"
       x="783.81519"
       y="417.49954" />
    <path
       inkscape:connector-curvature="0"
       style="opacity:1;fill:#000000;fill-opacity:1;fill-rule:nonzero;stroke:none;stroke-width:0.39999998;stroke-linecap:butt;stroke-linejoin:miter;stroke-miterlimit:4;stroke-dasharray:none;stroke-opacity:1;paint-order:normal"
       d="m 817.66068,445.98637 c -0.0167,0.0167 -0.0329,0.0339 -0.0496,0.0506 l 1.38131,1.43042 c 0.0249,-0.0249 0.049,-0.0506 0.0739,-0.0755 z m 53.12235,0.41082 -1.45418,1.35549 c 0.049,0.0504 0.0986,0.10019 0.14727,0.15089 l 1.4056,-1.4056 c -0.0326,-0.0339 -0.066,-0.067 -0.0987,-0.10078 z m -53.98585,0.48525 c -0.0322,0.0344 -0.0645,0.0688 -0.0967,0.10334 l 1.43092,1.38131 c 0.048,-0.0518 0.0959,-0.10353 0.14417,-0.15502 z m 54.88657,0.47439 -1.50122,1.30329 c 0.0472,0.0521 0.0932,0.10525 0.14005,0.15761 l 1.4547,-1.35549 c -0.0314,-0.0349 -0.062,-0.0706 -0.0935,-0.10541 z m -55.76922,0.50126 c -0.0309,0.0355 -0.0627,0.0703 -0.0935,0.10594 l 1.47847,1.32963 c 0.0461,-0.0534 0.0931,-0.10604 0.13951,-0.15917 z m 56.63325,0.49143 -1.54618,1.24902 c 0.0453,0.0537 0.0909,0.10726 0.13592,0.16124 l 1.50119,-1.30276 c -0.0301,-0.036 -0.0607,-0.0716 -0.0909,-0.1075 z m -57.4797,0.51523 c -0.0297,0.0366 -0.0593,0.0733 -0.0889,0.11006 l 1.52495,1.27694 c 0.0441,-0.0549 0.0878,-0.11023 0.13229,-0.16487 z m 58.31118,0.50437 -1.58957,1.19423 c 0.0434,0.0553 0.0851,0.11191 0.12814,0.16742 l 1.5472,-1.24952 c -0.0289,-0.0371 -0.0568,-0.0751 -0.0858,-0.11213 z m -59.12303,0.5307 c -0.0284,0.0376 -0.0575,0.0745 -0.0858,0.11213 l 1.5684,1.22217 c 0.0422,-0.0565 0.0861,-0.11171 0.12867,-0.16796 z m 59.91521,0.52039 -1.63142,1.13792 c 0.0413,0.0566 0.083,0.11313 0.12401,0.17002 l 1.5901,-1.19425 c -0.0275,-0.038 -0.0551,-0.0758 -0.0827,-0.11369 z m -60.68983,0.54313 c -0.027,0.0385 -0.0532,0.0777 -0.0801,0.11626 l 1.61179,1.16634 c 0.0401,-0.0578 0.0799,-0.11605 0.12039,-0.17362 z m 61.44792,0.53277 -1.67122,1.08005 c 0.0393,0.0581 0.0778,0.11684 0.11679,0.17518 l 1.63195,-1.13792 c -0.0262,-0.0389 -0.0513,-0.0785 -0.0775,-0.11731 z m -62.18431,0.55708 c -0.0257,0.0395 -0.052,0.0783 -0.0775,0.11782 l 1.65211,1.10897 c 0.0382,-0.0593 0.0778,-0.11761 0.11626,-0.17674 z m 62.90056,0.54724 -1.70894,1.0201 c 0.0373,0.0595 0.0746,0.11903 0.11163,0.1788 l 1.67171,-1.08003 c -0.0246,-0.0397 -0.0496,-0.0792 -0.0744,-0.11887 z m -63.59871,0.56792 c -0.0243,0.0403 -0.0477,0.0811 -0.0718,0.12145 l 1.69087,1.05111 c 0.0361,-0.0607 0.0716,-0.12192 0.10801,-0.18243 z m 64.27824,0.55864 -1.74408,0.96015 c 0.0352,0.0608 0.0701,0.12187 0.10491,0.18293 l 1.70947,-1.02113 c -0.0233,-0.0407 -0.0468,-0.0813 -0.0703,-0.12195 z m -64.93555,0.58084 c -0.0227,0.0412 -0.0466,0.0817 -0.0693,0.12298 l 1.72755,0.99066 c 0.0339,-0.0619 0.0691,-0.12285 0.10337,-0.1845 z m 65.57272,0.57103 -1.77766,0.89813 c 0.0331,0.0621 0.066,0.12422 0.0987,0.18655 l 1.74461,-0.96014 c -0.022,-0.0415 -0.0436,-0.0831 -0.0656,-0.12454 z m -66.19182,0.59012 c -0.0214,0.0419 -0.0419,0.0842 -0.063,0.12611 l 1.76321,0.93016 c 0.0316,-0.0629 0.0616,-0.12689 0.0935,-0.18965 z m 66.79026,0.58241 -1.8092,0.8351 c 0.0308,0.0631 0.0626,0.12578 0.093,0.18912 l 1.77872,-0.89865 c -0.0204,-0.0421 -0.042,-0.0835 -0.0625,-0.12557 z m -67.3649,0.60153 c -0.0199,0.0425 -0.0398,0.085 -0.0594,0.12763 l 1.79472,0.86712 c 0.0294,-0.0642 0.0596,-0.12777 0.0894,-0.19172 z m 67.91989,0.59219 -1.83812,0.77102 c 0.0285,0.0642 0.0561,0.1289 0.0842,0.19328 l 1.81023,-0.83561 c -0.0188,-0.0429 -0.0373,-0.0859 -0.0563,-0.12869 z m -68.45578,0.60928 c -0.0183,0.0433 -0.0351,0.0873 -0.0532,0.13073 l 1.8252,0.80357 c 0.027,-0.065 0.0532,-0.13055 0.0806,-0.19535 z m 68.96841,0.60306 -1.86553,0.70589 c 0.0262,0.0653 0.0542,0.12983 0.0801,0.19534 l 1.83811,-0.771 c -0.0172,-0.0435 -0.0352,-0.0868 -0.0527,-0.13023 z m -69.45675,0.61857 c -0.0167,0.0439 -0.0335,0.0878 -0.0501,0.13177 l 1.85312,0.73898 c 0.0246,-0.066 0.0503,-0.13163 0.0755,-0.19741 z m 69.92649,0.61132 -1.88929,0.64027 c 0.0238,0.0659 0.0463,0.1324 0.0698,0.19844 l 1.86603,-0.70642 c -0.0156,-0.044 -0.0306,-0.0884 -0.0465,-0.13229 z m -70.37504,0.62579 c -0.0151,0.0444 -0.0305,0.0888 -0.0455,0.13333 l 1.87947,0.67387 c 0.0222,-0.0668 0.0449,-0.13341 0.0677,-0.19998 z m 70.7993,0.62064 -1.91202,0.57311 c 0.0214,0.0669 0.0439,0.1334 0.0651,0.2005 l 1.89031,-0.64029 c -0.014,-0.0446 -0.0291,-0.0888 -0.0434,-0.13332 z m -71.20081,0.63304 c -0.0135,0.0449 -0.0269,0.0899 -0.0403,0.13488 l 1.90273,0.6072 c 0.0201,-0.0676 0.0396,-0.13518 0.06,-0.20257 z m 71.58321,0.62632 -1.93114,0.50591 c 0.019,0.0674 0.0361,0.13555 0.0548,0.2031 l 1.91307,-0.57362 c -0.0124,-0.045 -0.0241,-0.0904 -0.0367,-0.13539 z m -71.94135,0.63976 c -0.0119,0.0455 -0.0254,0.0904 -0.0372,0.13592 l 1.92289,0.53949 c 0.0175,-0.0684 0.0373,-0.13592 0.0553,-0.20413 z m 72.27467,0.63408 -1.94871,0.43667 c 0.0167,0.0683 0.0338,0.13663 0.0501,0.20513 l 1.9322,-0.50591 c -0.0108,-0.0454 -0.0225,-0.0906 -0.0336,-0.13589 z m -72.5873,0.64389 c -0.0103,0.0457 -0.0198,0.0917 -0.03,0.13745 l 1.94149,0.4718 c 0.0151,-0.0688 0.0294,-0.13803 0.045,-0.20671 z m 72.87927,0.63973 -1.96371,0.36846 c 0.0143,0.0687 0.0285,0.13737 0.0424,0.20619 l 1.94974,-0.43717 c -0.009,-0.0459 -0.019,-0.0917 -0.0284,-0.13748 z m -73.14541,0.64905 c -0.009,0.0461 -0.0183,0.0919 -0.0269,0.13798 l 1.95802,0.4031 c 0.0127,-0.0695 0.0267,-0.13846 0.0398,-0.20775 z m 73.3883,0.64495 -1.97612,0.29869 c 0.0119,0.0693 0.0233,0.1388 0.0346,0.20825 l 1.96421,-0.36846 c -0.008,-0.0461 -0.0148,-0.0924 -0.0227,-0.13848 z m -73.61206,0.65162 c -0.007,0.0465 -0.0127,0.0935 -0.0196,0.14004 l 1.97197,0.33332 c 0.0103,-0.0696 0.0188,-0.1398 0.0295,-0.20928 z m 73.81049,0.64958 -1.98593,0.22894 c 0.01,0.0697 0.0198,0.13896 0.0289,0.20876 l 1.97663,-0.29869 c -0.006,-0.0465 -0.0135,-0.0926 -0.0196,-0.13901 z m -73.98308,0.65473 c -0.006,0.0466 -0.0109,0.0933 -0.0161,0.14005 l 1.98231,0.26408 c 0.008,-0.07 0.0161,-0.13994 0.0243,-0.20982 z m 74.13604,0.65321 -1.99263,0.15811 c 0.007,0.0699 0.0122,0.14028 0.0185,0.21035 l 1.98644,-0.22895 c -0.005,-0.0464 -0.008,-0.0931 -0.0124,-0.13951 z M 806.85877,469.31 c -0.004,0.047 -0.009,0.0936 -0.0124,0.14057 l 1.99056,0.19378 c 0.005,-0.0705 0.013,-0.14041 0.0185,-0.21084 z m 74.37012,0.6558 -1.99779,0.0878 c 0.005,0.0702 0.009,0.14047 0.0135,0.21084 l 1.99316,-0.15864 c -0.003,-0.0467 -0.006,-0.0934 -0.009,-0.14004 z m -74.4528,0.6573 c -0.003,0.0469 -0.004,0.0941 -0.006,0.14108 l 1.99729,0.1235 c 0.003,-0.0705 0.005,-0.14142 0.008,-0.21185 z m 74.51431,0.65733 -1.99988,0.0175 c 0.003,0.0703 0.005,0.14047 0.006,0.21085 l 1.99832,-0.0878 c 0,-0.0469 -0.003,-0.0937 -0.005,-0.14057 z m -72.5501,0.64027 -2.0004,0.0175 c 0,0.0471 0,0.094 -0.003,0.14108 l 1.99935,0.0527 c 0,-0.0706 0.003,-0.14089 0.003,-0.21138 z m 70.56417,0.62322 c 0,0.0704 -0.003,0.14052 -0.003,0.21085 l 1.99988,-0.0175 c 0,-0.0469 0.003,-0.0936 0.003,-0.14058 z m -70.55901,0.62167 -1.99884,0.0884 c 0,0.0471 0.003,0.0941 0.004,0.14107 l 2.00091,-0.018 c -0.003,-0.0704 -0.004,-0.14081 -0.006,-0.21135 z m 70.53006,0.62373 c -0.003,0.0702 -0.005,0.14073 -0.008,0.21084 l 1.99885,0.0527 c 0.003,-0.0466 0.004,-0.0934 0.006,-0.14005 z m -70.47889,0.62063 -1.99419,0.15864 c 0.003,0.0469 0.006,0.0937 0.009,0.14058 l 1.99835,-0.0884 c -0.005,-0.0703 -0.009,-0.14042 -0.0135,-0.21085 z m 70.40965,0.62272 c -0.005,0.0703 -0.0124,0.1401 -0.018,0.21032 l 1.99625,0.12351 c 0.004,-0.0468 0.009,-0.0932 0.0124,-0.14005 z m -70.31612,0.61907 -1.98696,0.22892 c 0.004,0.0468 0.008,0.0939 0.0124,0.14058 l 1.99316,-0.15865 c -0.007,-0.0701 -0.0122,-0.14065 -0.0185,-0.21085 z m 70.19883,0.62167 c -0.008,0.0698 -0.0156,0.13957 -0.0238,0.20929 l 1.98953,0.19378 c 0.005,-0.0465 0.0109,-0.093 0.0161,-0.13952 z m -70.06394,0.61651 -1.97715,0.29868 c 0.006,0.0466 0.0135,0.0929 0.0196,0.13952 l 1.98643,-0.22892 c -0.009,-0.0698 -0.0198,-0.1393 -0.0289,-0.20928 z m 69.9058,0.6196 c -0.0101,0.0695 -0.0188,0.13943 -0.0294,0.20875 l 1.98125,0.26355 c 0.007,-0.046 0.0127,-0.0924 0.0196,-0.13848 z m -69.7234,0.61185 -1.96524,0.36845 c 0.008,0.0464 0.0153,0.0927 0.0233,0.13899 l 1.97662,-0.29869 c -0.0119,-0.0695 -0.0233,-0.13914 -0.0346,-0.20875 z m 69.52134,0.61753 c -0.0127,0.0692 -0.0262,0.13812 -0.0393,0.20722 l 1.9699,0.3333 c 0.009,-0.046 0.0183,-0.0919 0.0269,-0.13795 z m -69.29911,0.60823 -1.9508,0.4377 c 0.009,0.0459 0.019,0.0917 0.0284,0.13745 l 1.96424,-0.36793 c -0.0143,-0.069 -0.028,-0.13809 -0.0419,-0.20722 z m 69.05262,0.61341 c -0.0151,0.0685 -0.0295,0.13729 -0.0449,0.20566 l 1.95646,0.40256 c 0.0103,-0.0455 0.0198,-0.0914 0.03,-0.13695 z m -68.78444,0.60306 -1.9327,0.50591 c 0.0108,0.0455 0.022,0.091 0.0331,0.13642 l 1.94977,-0.4372 c -0.0167,-0.0684 -0.0338,-0.13663 -0.0501,-0.20513 z m 68.49816,0.60976 c -0.0175,0.068 -0.0374,0.1352 -0.0553,0.2031 l 1.94096,0.4713 c 0.0119,-0.0453 0.0249,-0.0901 0.0367,-0.13542 z m -68.1881,0.59635 -1.91357,0.57361 c 0.0124,0.0452 0.0238,0.0908 0.0367,0.13592 l 1.9322,-0.50591 c -0.019,-0.0676 -0.0366,-0.13589 -0.0553,-0.20362 z m 67.85322,0.60409 c -0.0199,0.0674 -0.0396,0.13483 -0.0599,0.20206 l 1.92236,0.53899 c 0.0135,-0.0447 0.0265,-0.0896 0.0398,-0.13436 z m -67.50129,0.59068 -1.89085,0.64027 c 0.0143,0.0448 0.0296,0.0891 0.0439,0.13385 l 1.91204,-0.57311 c -0.0214,-0.0671 -0.044,-0.13375 -0.0651,-0.20101 z m 67.1287,0.59841 c -0.0222,0.0666 -0.0445,0.13309 -0.0672,0.19947 l 1.90119,0.60669 c 0.0151,-0.0443 0.03,-0.0885 0.045,-0.13282 z m -66.73236,0.5824 -1.86656,0.70641 c 0.0156,0.0442 0.0306,0.0887 0.0465,0.1328 l 1.89034,-0.63974 c -0.0241,-0.0663 -0.0468,-0.13303 -0.0703,-0.19947 z m 66.31482,0.59169 c -0.0246,0.0658 -0.0499,0.13129 -0.0749,0.19688 l 1.87741,0.67283 c 0.0167,-0.0436 0.0337,-0.0871 0.0501,-0.13073 z m -65.87969,0.57618 -1.8397,0.77153 c 0.0172,0.0435 0.0358,0.0863 0.0532,0.12972 l 1.86602,-0.7059 c -0.0262,-0.0653 -0.0537,-0.12986 -0.0796,-0.19535 z m 65.42236,0.58291 c -0.0269,0.0648 -0.0528,0.13025 -0.0801,0.19484 l 1.85209,0.73845 c 0.0182,-0.043 0.0347,-0.0867 0.0527,-0.1297 z m -64.9423,0.56586 -1.81072,0.83561 c 0.0188,0.0431 0.0378,0.0862 0.0568,0.1292 l 1.83814,-0.77103 c -0.0285,-0.0643 -0.0561,-0.12925 -0.0842,-0.19378 z m 64.44361,0.57671 c -0.0292,0.0638 -0.0593,0.12711 -0.0889,0.19069 l 1.82367,0.80306 c 0.0198,-0.0424 0.0398,-0.0846 0.0594,-0.12713 z m -63.92685,0.55708 -1.77972,0.89866 c 0.0204,0.0423 0.042,0.0839 0.0625,0.12608 l 1.8097,-0.83508 c -0.0308,-0.0633 -0.0621,-0.12621 -0.0925,-0.18966 z m 63.38684,0.56637 c -0.0315,0.0627 -0.0617,0.12613 -0.0935,0.18862 l 1.79316,0.86609 c 0.0212,-0.0415 0.0416,-0.0834 0.0625,-0.12504 z m -62.82716,0.54623 -1.74512,0.96015 c 0.022,0.0415 0.0436,0.0831 0.0656,0.12454 l 1.77819,-0.89763 c -0.0331,-0.0622 -0.066,-0.12461 -0.0987,-0.18706 z m 62.24942,0.55809 c -0.0336,0.0615 -0.0684,0.12224 -0.10232,0.18346 l 1.76112,0.92914 c 0.0228,-0.041 0.0462,-0.0814 0.0687,-0.12248 z m -61.65258,0.53538 -1.71048,1.02164 c 0.0233,0.0407 0.0468,0.0813 0.0703,0.12195 l 1.74461,-0.96015 c -0.0352,-0.0609 -0.0696,-0.12232 -0.10441,-0.18344 z m 61.03453,0.54674 c -0.0358,0.0602 -0.0708,0.12086 -0.10697,0.18087 l 1.72652,0.99012 c 0.0241,-0.0401 0.0474,-0.0808 0.0713,-0.12094 z m -60.39786,0.52398 -1.67174,1.08006 c 0.0246,0.0398 0.0496,0.0796 0.0744,0.11935 l 1.70895,-1.02008 c -0.0374,-0.0597 -0.0746,-0.11938 -0.11163,-0.17933 z m 59.74416,0.53692 c -0.0379,0.059 -0.0775,0.11694 -0.11576,0.17571 l 1.69085,1.05058 c 0.0254,-0.0392 0.0516,-0.078 0.077,-0.11732 z m -59.07135,0.5116 -1.63245,1.13792 c 0.0262,0.0391 0.0512,0.0789 0.0775,0.11782 l 1.67121,-1.08003 c -0.0393,-0.0582 -0.0773,-0.11732 -0.11628,-0.17571 z m 58.37785,0.52347 c -0.0399,0.0576 -0.0796,0.11528 -0.11991,0.17262 l 1.65108,1.10897 c 0.0269,-0.0384 0.0533,-0.0772 0.0801,-0.11575 z m -57.66832,0.49972 -1.59009,1.19476 c 0.0275,0.0381 0.0556,0.0757 0.0832,0.11369 l 1.63142,-1.13792 c -0.0415,-0.0569 -0.0834,-0.11338 -0.12454,-0.17053 z m 56.94175,0.51263 c -0.0421,0.0563 -0.0858,0.11139 -0.12817,0.16743 l 1.61126,1.16634 c 0.0283,-0.0374 0.0572,-0.0741 0.0853,-0.1116 z m -56.19607,0.48525 -1.54718,1.25005 c 0.0288,0.0371 0.0563,0.0752 0.0853,0.11213 l 1.5906,-1.19475 c -0.0434,-0.0554 -0.0856,-0.11182 -0.12869,-0.16743 z m 55.43073,0.49869 c -0.044,0.0547 -0.088,0.10935 -0.13229,0.1638 l 1.56837,1.22163 c 0.0294,-0.0362 0.0586,-0.0727 0.0879,-0.10903 z m -54.65093,0.47283 -1.50172,1.30329 c 0.0302,0.0361 0.0612,0.0715 0.0915,0.10747 l 1.54667,-1.24952 c -0.0453,-0.0538 -0.0914,-0.10713 -0.13642,-0.16124 z m 53.85512,0.48575 c -0.046,0.0532 -0.0927,0.1057 -0.13901,0.15865 l 1.52445,1.2764 c 0.0307,-0.0352 0.0619,-0.0701 0.0925,-0.10541 z m -53.0407,0.45683 -1.45521,1.35599 c 0.0313,0.035 0.0621,0.0705 0.0936,0.10541 l 1.50169,-1.30328 c -0.0472,-0.0522 -0.0931,-0.10563 -0.14004,-0.15812 z m 52.20819,0.47025 c -0.0478,0.0516 -0.0955,0.10321 -0.14367,0.15451 l 1.47846,1.32911 c 0.032,-0.0342 0.0638,-0.0685 0.0956,-0.10282 z m -51.36277,0.44442 -1.40557,1.40612 c 0.0325,0.0338 0.0655,0.0671 0.0982,0.10076 l 1.4547,-1.35546 c -0.049,-0.0505 -0.0985,-0.1006 -0.14729,-0.15142 z m 50.50081,0.45579 c -0.0246,0.0249 -0.0486,0.0506 -0.0734,0.0754 l 1.4051,1.40509 v 0 c 0.0164,-0.0164 0.0322,-0.0337 0.0486,-0.0501 z"
       id="path949" />
    <g
       id="g928"
       transform="matrix(0.10714283,0,0,0.10714283,845.84159,437.1821)"
       style="stroke-width:9.33333588">
      <path
         id="path865"
         transform="scale(0.26458333)"
         d="M 335.13281,506.80469 A 192.85716,202.14283 0 0 0 142.27539,708.94922 192.85716,202.14283 0 0 0 201.1543,854.04883 c -1.57279,1.76688 -109.564004,123.13849 -252.933597,291.30467 15.626513,18.3617 31.706919,37.3337 48.1308595,56.7774 C 130.00495,1043.5102 230.39014,923.93441 240.13281,911.0918 l 14.26758,-18.8086 A 192.85716,202.14283 0 0 0 335.13281,911.0918 192.85716,202.14283 0 0 0 527.98828,708.94922 192.85716,202.14283 0 0 0 335.13281,506.80469 Z m 0,52.60351 A 142.6704,149.53968 0 0 1 477.80273,708.94922 142.6704,149.53968 0 0 1 335.13281,858.48828 142.6704,149.53968 0 0 1 192.46094,708.94922 142.6704,149.53968 0 0 1 335.13281,559.4082 Z m -459.92383,672.041 c -258.2769,306.3712 -584.56488,712.5765 -639.36328,871.0703 0,0 393.01726,-464.5834 687.578128,-813.8789 -16.338787,-19.3771 -32.617358,-38.6834 -48.214848,-57.1914 z"
         style="fill:#4d4d4d;fill-opacity:1;stroke:#4d4d4d;stroke-width:9.33333492px;stroke-linecap:butt;stroke-linejoin:miter;stroke-opacity:1"
         inkscape:connector-curvature="0" />
      <path
         id="path881"
         transform="scale(0.26458333)"
         d="m -582.11914,378.55859 c -9.46379,-0.12697 -21.15039,12.84375 -21.15039,12.84375 -63.5249,65.19263 -22.88186,132.95234 9.04687,169.19532 a 192.85716,202.14283 0 0 0 -62.20507,148.35156 192.85716,202.14283 0 0 0 192.85546,202.14258 192.85716,202.14283 0 0 0 80.73243,-18.8086 l 14.26757,18.8086 C -337.14368,952.52037 635.71484,2102.5195 635.71484,2102.5195 543.09741,1834.6414 -325.10999,859.08592 -329.59375,854.04883 a 192.85716,202.14283 0 0 0 58.87891,-145.09961 192.85716,202.14283 0 0 0 -192.85743,-202.14453 192.85716,202.14283 0 0 0 -103.41211,31.78515 c -35.74503,-49.52748 -3.37304,-128.69922 -3.37304,-128.69922 0.86638,-24.17307 -4.85571,-31.23937 -11.76172,-31.33203 z M -463.57227,559.4082 A 142.6704,149.53968 0 0 1 -320.90039,708.94922 142.6704,149.53968 0 0 1 -463.57227,858.48828 142.6704,149.53968 0 0 1 -606.24219,708.94922 142.6704,149.53968 0 0 1 -463.57227,559.4082 Z m 398.66602,634.3789 a 23.099541,23.099541 0 0 1 23.097656,23.0996 23.099541,23.099541 0 0 1 -23.097656,23.0996 23.099541,23.099541 0 0 1 -23.099609,-23.0996 23.099541,23.099541 0 0 1 23.099609,-23.0996 z"
         style="fill:#4d4d4d;fill-opacity:1;stroke:#4d4d4d;stroke-width:9.33333492px;stroke-linecap:butt;stroke-linejoin:miter;stroke-opacity:1"
         inkscape:connector-curvature="0" />
    </g>
    <g
       id="g1028"
       transform="matrix(1.6268413,0,0,1.6268413,-535.57176,-359.19829)"
       style="stroke-width:0.6146881;fill:#4d4d4d;fill-opacity:1">
      <path
         d="m 835.12548,513.1307 q -0.27542,-0.008 -0.46287,-0.0842 -0.18744,-0.0727 -0.3022,-0.16449 -0.13388,-0.10329 -0.21422,-0.241 -0.0765,-0.13006 -0.0956,-0.26777 -0.0153,-0.13772 -0.004,-0.25248 0.0115,-0.11093 0.0306,-0.18744 0.0229,-0.0803 0.0306,-0.0956 0.11476,-0.37106 0.46669,-0.6197 0.15302,-0.10329 0.34811,-0.18362 0.19509,-0.0842 0.44374,-0.14154 0.3175,-0.0765 0.66178,-0.11093 0.34428,-0.0383 0.69239,-0.0574 0.0153,-0.0727 0.0268,-0.14537 0.0115,-0.0727 0.023,-0.14918 0.004,-0.0191 0.0229,-0.15302 0.0191,-0.13388 0.0727,-0.3175 -0.13771,0.0153 -0.2716,0.0229 -0.13389,0.004 -0.26777,0.004 -0.17214,0 -0.33663,-0.0115 -0.24482,-0.0191 -0.47435,-0.0612 -0.22952,-0.0459 -0.44756,-0.11476 -0.14919,-0.0459 -0.27542,-0.0994 -0.12624,-0.0574 -0.23335,-0.11094 -0.16449,-0.0765 -0.27925,-0.15301 -0.11093,-0.0803 -0.17979,-0.14537 -0.0842,-0.0765 -0.13389,-0.14918 -0.0383,-0.0612 -0.0421,-0.10711 -0.004,-0.0459 0.004,-0.0765 0.0115,-0.0383 0.0383,-0.0612 0.0459,-0.0344 0.0956,-0.0421 0.0421,-0.008 0.0918,0.0191 0.0497,0.0268 0.0918,0.11094 0.0574,0.11858 0.13772,0.24864 0.0803,0.12624 0.20274,0.20275 0.13388,0.0727 0.30985,0.14536 0.17597,0.0689 0.39401,0.12624 0.21804,0.0574 0.47434,0.0956 0.26012,0.0344 0.56615,0.0344 0.13771,0 0.28308,-0.008 0.14536,-0.0115 0.3022,-0.0306 0.0229,-0.065 0.0497,-0.13388 0.0306,-0.0727 0.0612,-0.13771 0.22187,-0.44757 0.54703,-0.53938 0.008,-0.004 0.0421,-0.0115 0.0344,-0.008 0.0803,-0.008 0.0497,0 0.10328,0.0115 0.0574,0.008 0.10711,0.0383 0.0382,0.023 0.0765,0.0765 0.0421,0.0497 0.0574,0.14154 0.0191,0.13771 -0.0421,0.24865 -0.0574,0.10328 -0.17979,0.19126 -0.19127,0.13389 -0.58145,0.22952 -0.0306,0.12242 -0.0574,0.26778 -0.0268,0.14154 -0.0574,0.3175 -0.008,0.0536 -0.0191,0.10711 -0.008,0.0536 -0.0153,0.10711 0.0421,0 0.0842,0 0.0421,-0.004 0.0841,-0.004 0.14537,-0.008 0.28308,-0.0115 0.13771,-0.004 0.26012,-0.0115 0.0306,-0.004 0.0536,0.0191 0.023,0.0191 0.0268,0.0497 0,0.0306 -0.023,0.0574 -0.0191,0.023 -0.0497,0.023 -0.24482,0.0153 -0.54702,0.0229 -0.0497,0.004 -0.0995,0.008 -0.0497,0 -0.10328,0 -0.0574,0.29073 -0.13389,0.5738 -0.0727,0.28308 -0.17979,0.53938 -0.10711,0.25247 -0.2563,0.46669 -0.14536,0.21804 -0.34045,0.37106 -0.1951,0.15683 -0.44757,0.24099 -0.25247,0.088 -0.5738,0.0803 z m -0.65413,-0.35575 q 0.11093,0.0765 0.22569,0.11858 0.11476,0.0421 0.2257,0.0536 0.11093,0.0153 0.21422,0.008 0.10328,-0.008 0.19509,-0.0306 0.21422,-0.0459 0.41696,-0.16449 0.32898,-0.23717 0.57763,-0.74594 0.22187,-0.4667 0.3634,-1.13613 -0.6044,0.0497 -1.02136,0.15684 -0.41314,0.10711 -0.68474,0.26012 -0.2716,0.14919 -0.42461,0.34046 -0.14919,0.18744 -0.22187,0.39783 -0.065,0.18362 -0.0574,0.3175 0.008,0.13772 0.0459,0.2257 0.0382,0.0918 0.0841,0.13771 0.0459,0.0497 0.0612,0.0612 z m 3.25919,-3.22476 q 0.065,-0.0459 0.0956,-0.0956 0.0344,-0.0535 0.0497,-0.0956 0.0153,-0.0497 0.0153,-0.0995 -0.0115,-0.0574 -0.0383,-0.0842 -0.023,-0.0306 -0.0536,-0.0421 -0.0344,-0.0153 -0.0688,-0.0115 -0.11094,0.004 -0.1798,0.0727 -0.0688,0.0689 -0.10328,0.12624 -0.0382,0.065 -0.0803,0.16831 -0.0421,0.0995 -0.0842,0.24865 0.14536,-0.0421 0.2563,-0.088 0.11476,-0.0459 0.19127,-0.0995 z"
         style="font-style:normal;font-variant:normal;font-weight:normal;font-stretch:normal;font-size:medium;line-height:1.25;font-family:'Tale of Hawks';-inkscape-font-specification:'Tale of Hawks';letter-spacing:0px;word-spacing:0px;fill:#4d4d4d;fill-opacity:1;stroke:none;stroke-width:0.16263622"
         id="path989"
         inkscape:connector-curvature="0" />
      <path
         d="m 839.12093,510.97704 q 0.0153,0.008 0.0115,0.0306 -0.004,0.008 -0.0191,0.0497 -0.0153,0.0383 -0.0421,0.0995 -0.0765,0.16449 -0.17214,0.3175 -0.0803,0.13006 -0.19127,0.26013 -0.10711,0.13006 -0.22952,0.20656 -0.008,0.004 -0.0421,0.0191 -0.0306,0.0153 -0.0803,0.0268 -0.0497,0.008 -0.11094,-0.004 -0.0574,-0.0115 -0.11476,-0.0574 -0.0459,-0.0383 -0.065,-0.11093 -0.0153,-0.0765 -0.0115,-0.16832 0.008,-0.0956 0.0306,-0.20274 0.0268,-0.10711 0.0689,-0.20657 0.0268,-0.065 0.065,-0.14154 0.0421,-0.0803 0.0765,-0.14536 0.0421,-0.0765 0.0842,-0.15301 -0.0383,0.0153 -0.15301,0.10328 -0.11094,0.0842 -0.241,0.2257 -0.13006,0.13771 -0.24865,0.3175 -0.11858,0.17979 -0.16449,0.37871 0,0.0191 0.004,0.0344 0,0.0153 0,0.0268 0.004,0.0115 0.004,0.0191 0.004,0.0268 -0.008,0.0497 -0.008,0.023 -0.0382,0.0306 -0.0191,0.008 -0.0344,0.008 -0.0153,0 -0.0382,0 -0.0191,-0.004 -0.0383,-0.0191 -0.0459,-0.0306 -0.0689,-0.0727 -0.0306,-0.065 -0.0344,-0.14154 -0.008,-0.0803 0,-0.14919 0.008,-0.0803 0.0229,-0.16449 0.0268,-0.11859 0.065,-0.241 0.0344,-0.12623 0.0765,-0.23717 0.0421,-0.11093 0.0803,-0.20657 0.0421,-0.0956 0.0727,-0.16448 0.065,-0.14154 0.13007,-0.26395 0.065,-0.12624 0.11858,-0.21805 0.0612,-0.10711 0.11859,-0.19509 0.10328,-0.15301 0.21039,-0.29073 0.10711,-0.13771 0.20657,-0.24482 0.10328,-0.10711 0.19509,-0.17979 0.0956,-0.0727 0.16832,-0.0995 0.0421,-0.0153 0.0842,-0.0191 0.0344,-0.004 0.0727,0.004 0.0421,0.004 0.0765,0.0268 0.0536,0.0459 0.0459,0.14536 -0.008,0.088 -0.0765,0.241 -0.0689,0.14919 -0.2563,0.40166 -0.088,0.11858 -0.17214,0.21422 -0.0803,0.0956 -0.17214,0.19126 -0.0918,0.0918 -0.20274,0.19127 -0.10711,0.0995 -0.24865,0.2257 -0.0497,0.10328 -0.11476,0.24864 -0.0612,0.14154 -0.11476,0.29073 0.0344,-0.0536 0.0727,-0.10711 0.0421,-0.0574 0.0918,-0.11476 0.0727,-0.088 0.15684,-0.17214 0.088,-0.088 0.17979,-0.16066 0.0918,-0.0727 0.18362,-0.12242 0.0918,-0.0536 0.17979,-0.0727 0.0421,-0.008 0.0842,0 0.0421,0.008 0.0842,0.0383 0.065,0.0574 0.0574,0.14153 -0.008,0.0842 -0.0344,0.14154 -0.0191,0.0306 -0.0383,0.065 -0.0153,0.0306 -0.0382,0.065 -0.0344,0.0574 -0.0995,0.16832 -0.0612,0.10711 -0.12241,0.22952 -0.0574,0.12241 -0.0995,0.24482 -0.0421,0.11858 -0.0344,0.19509 0.004,0.0268 0.0191,0.0536 0.0153,0.0268 0.0612,0.004 0.0459,-0.0229 0.0956,-0.0765 0.0535,-0.0535 0.0995,-0.1071 0.0535,-0.065 0.1071,-0.14154 0.0612,-0.0842 0.11476,-0.17214 0.0536,-0.088 0.0995,-0.16449 0.0459,-0.0765 0.0803,-0.13389 0.0382,-0.0612 0.065,-0.0918 0.004,-0.004 0.0115,-0.004 0.0191,0 0.0383,0.008 z m -0.17214,-1.73288 q -0.0115,-0.008 -0.0421,0 -0.0306,0.008 -0.0918,0.0689 -0.0612,0.0574 -0.16067,0.18744 -0.0994,0.13006 -0.24864,0.36341 -0.0421,0.0688 -0.0918,0.15683 -0.0421,0.0765 -0.10328,0.18362 -0.0612,0.10328 -0.12624,0.2257 0.30985,-0.31751 0.48964,-0.55468 0.18362,-0.23717 0.2716,-0.40931 0.0382,-0.0689 0.0574,-0.11093 0.0191,-0.0459 0.0306,-0.0689 0.0115,-0.0268 0.0153,-0.0421 z"
         style="font-style:normal;font-variant:normal;font-weight:normal;font-stretch:normal;font-size:medium;line-height:1.25;font-family:'Tale of Hawks';-inkscape-font-specification:'Tale of Hawks';letter-spacing:0px;word-spacing:0px;fill:#4d4d4d;fill-opacity:1;stroke:none;stroke-width:0.16263622"
         id="path991"
         inkscape:connector-curvature="0" />
      <path
         d="m 839.27125,511.87217 q 0.13389,0.0306 0.25247,-0.0229 0.0497,-0.023 0.0995,-0.065 0.0536,-0.0421 0.0956,-0.11476 0.0459,-0.0727 0.0803,-0.17596 0.0344,-0.10711 0.0535,-0.25247 0.008,-0.0956 -0.0115,-0.16832 -0.0191,-0.0727 -0.065,-0.17596 -0.0459,-0.10711 -0.0268,-0.1951 0.023,-0.088 0.11093,-0.0842 0.0612,0.004 0.0803,0.065 0.023,0.0612 0.0268,0.0995 0.004,0.0383 0.0191,0.0765 0.0115,0.0306 0.0306,0.065 0.0229,0.0306 0.0612,0.0497 0.0306,0.0153 0.0803,0.023 0.0421,0.008 0.10711,0.004 0.0688,-0.008 0.16066,-0.0383 -0.004,0 0.0382,-0.0115 0.0306,-0.008 0.0536,-0.0153 0.0229,-0.008 0.0268,0 0.004,0.008 0.004,0.0191 0,0.0115 -0.0115,0.0268 -0.0115,0.0191 -0.0421,0.0459 -0.0268,0.0229 -0.0727,0.0421 -0.0153,0.008 -0.0421,0.0153 -0.0229,0.008 -0.0612,0.0153 -0.0344,0.004 -0.088,0.0115 -0.065,0.008 -0.11094,0 -0.0421,-0.008 -0.0727,-0.023 -0.0344,-0.0153 -0.0574,-0.0383 v 0.0574 q 0,0.0612 -0.0115,0.15301 -0.0306,0.23335 -0.11859,0.40549 -0.0383,0.0727 -0.0918,0.14154 -0.0536,0.065 -0.12623,0.11476 -0.0727,0.0459 -0.16832,0.0688 -0.0956,0.0191 -0.21422,0 -0.11093,-0.0229 -0.19126,-0.0995 -0.0689,-0.065 -0.11476,-0.19126 -0.0497,-0.13006 -0.023,-0.34811 0.0268,-0.21804 0.10329,-0.39018 0.0765,-0.17214 0.17596,-0.2869 0.0995,-0.11859 0.2104,-0.17597 0.11093,-0.0574 0.20274,-0.0459 0.0306,0.008 0.0536,0.0229 0.0191,0.0153 0.0382,0.0383 0.0191,0.023 0.023,0.0612 0,0.0306 -0.008,0.0574 -0.008,0.0229 -0.0268,0.0497 -0.0153,0.0268 -0.0497,0.0459 -0.0306,0.0153 -0.0995,0.0689 -0.0688,0.0497 -0.14536,0.13771 -0.0765,0.0842 -0.14536,0.20274 -0.0689,0.11859 -0.10329,0.26778 -0.023,0.11476 -0.0191,0.21039 0.004,0.0842 0.0268,0.16066 0.0268,0.0727 0.10328,0.0956 z"
         style="font-style:normal;font-variant:normal;font-weight:normal;font-stretch:normal;font-size:medium;line-height:1.25;font-family:'Tale of Hawks';-inkscape-font-specification:'Tale of Hawks';letter-spacing:0px;word-spacing:0px;fill:#4d4d4d;fill-opacity:1;stroke:none;stroke-width:0.16263622"
         id="path993"
         inkscape:connector-curvature="0" />
      <path
         d="m 841.2141,510.71309 q 0,-0.0153 -0.0153,-0.023 -0.008,-0.004 -0.0153,-0.004 -0.0191,0 -0.0803,0.0459 -0.0612,0.0421 -0.14154,0.11858 -0.0803,0.0765 -0.17214,0.17979 -0.088,0.10329 -0.16831,0.2257 -0.0765,0.11858 -0.13007,0.24865 -0.0536,0.13006 -0.065,0.26012 0,0.0115 0.004,0.0268 0,0.0191 0.008,0.0574 0.008,0.0306 0.004,0.0688 0,0.0344 -0.0382,0.0497 -0.0574,0.0229 -0.11093,0 -0.0536,-0.0268 -0.0765,-0.065 -0.0574,-0.10328 -0.0536,-0.23335 0,-0.13388 0.023,-0.24864 0.0421,-0.20657 0.11858,-0.39784 0.0803,-0.19126 0.18362,-0.37488 0.0229,-0.0383 0.0535,-0.0803 0.0344,-0.0459 0.0765,-0.0803 0.0421,-0.0344 0.088,-0.0497 0.0459,-0.0153 0.0995,0.004 0.0497,0.0191 0.0612,0.065 0.0115,0.0421 0,0.0918 -0.008,0.0459 -0.0344,0.0956 -0.023,0.0459 -0.0383,0.0765 -0.0918,0.14919 -0.17597,0.31368 0.0612,-0.0918 0.13389,-0.18362 0.0727,-0.0956 0.14536,-0.17214 0.0765,-0.0765 0.15301,-0.13006 0.0765,-0.0574 0.14919,-0.0689 0.0842,-0.0153 0.13771,0.0153 0.0536,0.0306 0.065,0.0765 0.0115,0.0344 0.004,0.0803 -0.004,0.0421 -0.0191,0.088 -0.0153,0.0459 -0.0421,0.088 -0.023,0.0421 -0.0459,0.0727 -0.0612,0.0842 -0.11859,0.13389 -0.0497,0.0459 -0.10328,0.0688 -0.0535,0.023 -0.0956,-0.0191 -0.0574,-0.0497 -0.0306,-0.11094 0.0306,-0.065 0.088,-0.12623 0.0574,-0.0612 0.11476,-0.11094 0.0612,-0.0497 0.0612,-0.0727 z"
         style="font-style:normal;font-variant:normal;font-weight:normal;font-stretch:normal;font-size:medium;line-height:1.25;font-family:'Tale of Hawks';-inkscape-font-specification:'Tale of Hawks';letter-spacing:0px;word-spacing:0px;fill:#4d4d4d;fill-opacity:1;stroke:none;stroke-width:0.16263622"
         id="path995"
         inkscape:connector-curvature="0" />
      <path
         d="m 842.00529,510.54095 q -0.13006,0.24865 -0.22952,0.48582 -0.0421,0.0995 -0.0842,0.20657 -0.0382,0.10711 -0.0727,0.21039 -0.0306,0.0995 -0.0497,0.19509 -0.0153,0.0918 -0.0115,0.16449 0.004,0.0229 0.0153,0.0497 0.0153,0.0268 0.0574,0.0115 0.088,-0.0268 0.18361,-0.11859 0.0995,-0.0918 0.18744,-0.19127 0.0995,-0.11858 0.19892,-0.26012 0.0536,-0.0765 0.10329,-0.14919 0.0497,-0.0765 0.0918,-0.13388 0.0115,-0.0153 0.023,-0.0268 0.0191,-0.0191 0.0344,-0.0153 0.0153,0.008 0.0268,0.0268 0.0153,0.0191 -0.004,0.0574 -0.0306,0.0612 -0.0689,0.12623 -0.0306,0.0536 -0.0727,0.12241 -0.0382,0.065 -0.0765,0.12624 -0.0995,0.13389 -0.20274,0.24865 -0.0918,0.0994 -0.20657,0.18744 -0.11093,0.088 -0.22952,0.11476 -0.0535,0.0115 -0.12624,0.008 -0.0688,-0.004 -0.13388,-0.0612 -0.0459,-0.0383 -0.0574,-0.11476 -0.0115,-0.0803 -0.008,-0.16066 0.004,-0.0956 0.0268,-0.19892 0.023,-0.11093 0.0574,-0.21804 0.0306,-0.11094 0.0689,-0.21422 0.0459,-0.13771 0.10328,-0.27925 0.0574,-0.14154 0.11859,-0.27543 0.065,-0.13388 0.13006,-0.25629 0.0689,-0.12624 0.13006,-0.23717 -0.0765,0 -0.14536,0 -0.065,0 -0.12624,-0.004 -0.0497,0 -0.0803,0.004 -0.0306,0.004 -0.0459,0.004 -0.11476,0.0229 -0.18744,0.0612 -0.0765,0.0383 -0.16067,0.0459 -0.0344,0.004 -0.0497,-0.008 -0.0153,-0.0153 -0.023,-0.0344 -0.008,-0.0191 -0.004,-0.0421 0.004,-0.0383 0.0344,-0.0612 0.0306,-0.0268 0.0689,-0.0383 0.0383,-0.0115 0.0765,-0.0153 0.0344,-0.004 0.0497,-0.004 0.0727,-0.004 0.24482,-0.008 0.17214,-0.008 0.41313,-0.0153 0.0765,-0.12623 0.13007,-0.21421 0.0574,-0.088 0.0842,-0.13007 0.0765,-0.11858 0.13389,-0.19126 0.0574,-0.0727 0.11093,-0.11859 0.0421,-0.0421 0.0842,-0.065 0.0383,-0.0191 0.0803,-0.0229 0.0421,-0.008 0.0803,0.0229 0.0306,0.0268 0.0344,0.0727 0.004,0.0421 -0.0153,0.0995 -0.0153,0.0574 -0.0497,0.12241 -0.0344,0.0612 -0.0765,0.12241 -0.0306,0.0459 -0.065,0.0956 -0.0306,0.0421 -0.065,0.0956 -0.0344,0.0497 -0.065,0.10328 0.20657,-0.004 0.42079,0 0.21805,0 0.42844,0.008 0.088,0.004 0.17596,0.008 0.088,0.004 0.17214,0.0115 0.0459,0.004 0.0956,0.008 0.0421,0.004 0.0918,0.008 0.0535,0 0.10328,0.008 0.0421,0.008 0.0918,0.0153 0.0536,0.008 0.0956,0.023 0.0421,0.0153 0.0727,0.0383 0.0306,0.0191 0.0306,0.0497 0,0.0268 -0.008,0.0459 -0.008,0.0191 -0.023,0.0306 -0.0153,0.0115 -0.0497,0.008 -0.0459,0 -0.0918,-0.0153 -0.0421,-0.0191 -0.0918,-0.0383 -0.0497,-0.0191 -0.11094,-0.0383 -0.0574,-0.0191 -0.13006,-0.0268 -0.0268,0 -0.0535,0 -0.023,-0.004 -0.0497,-0.004 -0.17214,-0.008 -0.38254,-0.008 -0.21039,-0.004 -0.43991,-0.004 -0.10711,-0.004 -0.21422,-0.004 -0.10711,0 -0.21039,0 -0.0497,0.088 -0.0995,0.18361 -0.0459,0.0842 -0.10329,0.18744 -0.0535,0.0995 -0.11093,0.19892 z"
         style="font-style:normal;font-variant:normal;font-weight:normal;font-stretch:normal;font-size:medium;line-height:1.25;font-family:'Tale of Hawks';-inkscape-font-specification:'Tale of Hawks';letter-spacing:0px;word-spacing:0px;fill:#4d4d4d;fill-opacity:1;stroke:none;stroke-width:0.16263622"
         id="path997"
         inkscape:connector-curvature="0" />
    </g>
    <g
       id="g1036"
       transform="matrix(1.4306939,0,0,1.4306939,-355.41898,-258.96863)"
       style="stroke-width:0.6989615;fill:#4d4d4d;fill-opacity:1">
      <path
         d="m 844.72618,513.1307 q -0.27542,-0.008 -0.46286,-0.0842 -0.18745,-0.0727 -0.30221,-0.16449 -0.13388,-0.10329 -0.21422,-0.241 -0.0765,-0.13006 -0.0956,-0.26777 -0.0153,-0.13772 -0.004,-0.25248 0.0115,-0.11093 0.0306,-0.18744 0.023,-0.0803 0.0306,-0.0956 0.11476,-0.37106 0.46669,-0.6197 0.15302,-0.10329 0.34811,-0.18362 0.19509,-0.0842 0.44374,-0.14154 0.3175,-0.0765 0.66178,-0.11093 0.34428,-0.0383 0.69239,-0.0574 0.0153,-0.0727 0.0268,-0.14537 0.0115,-0.0727 0.023,-0.14918 0.004,-0.0191 0.023,-0.15302 0.0191,-0.13388 0.0727,-0.3175 -0.13771,0.0153 -0.2716,0.0229 -0.13389,0.004 -0.26777,0.004 -0.17214,0 -0.33663,-0.0115 -0.24482,-0.0191 -0.47434,-0.0612 -0.22952,-0.0459 -0.44757,-0.11476 -0.14919,-0.0459 -0.27542,-0.0994 -0.12624,-0.0574 -0.23335,-0.11094 -0.16449,-0.0765 -0.27925,-0.15301 -0.11093,-0.0803 -0.17979,-0.14537 -0.0842,-0.0765 -0.13389,-0.14918 -0.0382,-0.0612 -0.0421,-0.10711 -0.004,-0.0459 0.004,-0.0765 0.0115,-0.0383 0.0382,-0.0612 0.0459,-0.0344 0.0956,-0.0421 0.0421,-0.008 0.0918,0.0191 0.0497,0.0268 0.0918,0.11094 0.0574,0.11858 0.13772,0.24864 0.0803,0.12624 0.20274,0.20275 0.13389,0.0727 0.30985,0.14536 0.17597,0.0689 0.39401,0.12624 0.21804,0.0574 0.47434,0.0956 0.26013,0.0344 0.56615,0.0344 0.13771,0 0.28308,-0.008 0.14536,-0.0115 0.3022,-0.0306 0.023,-0.065 0.0497,-0.13388 0.0306,-0.0727 0.0612,-0.13771 0.22187,-0.44757 0.54703,-0.53938 0.008,-0.004 0.0421,-0.0115 0.0344,-0.008 0.0803,-0.008 0.0497,0 0.10328,0.0115 0.0574,0.008 0.10711,0.0383 0.0382,0.023 0.0765,0.0765 0.0421,0.0497 0.0574,0.14154 0.0191,0.13771 -0.0421,0.24865 -0.0574,0.10328 -0.17979,0.19126 -0.19127,0.13389 -0.58145,0.22952 -0.0306,0.12242 -0.0574,0.26778 -0.0268,0.14154 -0.0574,0.3175 -0.008,0.0536 -0.0191,0.10711 -0.008,0.0536 -0.0153,0.10711 0.0421,0 0.0842,0 0.0421,-0.004 0.0842,-0.004 0.14537,-0.008 0.28308,-0.0115 0.13771,-0.004 0.26012,-0.0115 0.0306,-0.004 0.0536,0.0191 0.0229,0.0191 0.0268,0.0497 0,0.0306 -0.023,0.0574 -0.0191,0.023 -0.0497,0.023 -0.24482,0.0153 -0.54702,0.0229 -0.0497,0.004 -0.0995,0.008 -0.0497,0 -0.10328,0 -0.0574,0.29073 -0.13389,0.5738 -0.0727,0.28308 -0.17979,0.53938 -0.10711,0.25247 -0.2563,0.46669 -0.14536,0.21804 -0.34045,0.37106 -0.1951,0.15683 -0.44757,0.24099 -0.25247,0.088 -0.5738,0.0803 z m -0.65413,-0.35575 q 0.11093,0.0765 0.22569,0.11858 0.11476,0.0421 0.2257,0.0536 0.11093,0.0153 0.21422,0.008 0.10328,-0.008 0.19509,-0.0306 0.21422,-0.0459 0.41696,-0.16449 0.32898,-0.23717 0.57763,-0.74594 0.22187,-0.4667 0.3634,-1.13613 -0.6044,0.0497 -1.02136,0.15684 -0.41314,0.10711 -0.68474,0.26012 -0.2716,0.14919 -0.42461,0.34046 -0.14919,0.18744 -0.22187,0.39783 -0.065,0.18362 -0.0574,0.3175 0.008,0.13772 0.0459,0.2257 0.0382,0.0918 0.0842,0.13771 0.0459,0.0497 0.0612,0.0612 z m 3.25919,-3.22476 q 0.065,-0.0459 0.0956,-0.0956 0.0344,-0.0535 0.0497,-0.0956 0.0153,-0.0497 0.0153,-0.0995 -0.0115,-0.0574 -0.0382,-0.0842 -0.023,-0.0306 -0.0536,-0.0421 -0.0344,-0.0153 -0.0688,-0.0115 -0.11094,0.004 -0.1798,0.0727 -0.0688,0.0689 -0.10328,0.12624 -0.0383,0.065 -0.0803,0.16831 -0.0421,0.0995 -0.0842,0.24865 0.14536,-0.0421 0.2563,-0.088 0.11476,-0.0459 0.19127,-0.0995 z"
         style="font-style:normal;font-variant:normal;font-weight:normal;font-stretch:normal;font-size:medium;line-height:1.25;font-family:'Tale of Hawks';-inkscape-font-specification:'Tale of Hawks';letter-spacing:0px;word-spacing:0px;fill:#4d4d4d;fill-opacity:1;stroke:none;stroke-width:0.18493354"
         id="path999"
         inkscape:connector-curvature="0" />
      <path
         d="m 848.72163,510.97704 q 0.0153,0.008 0.0115,0.0306 -0.004,0.008 -0.0191,0.0497 -0.0153,0.0383 -0.0421,0.0995 -0.0765,0.16449 -0.17214,0.3175 -0.0803,0.13006 -0.19127,0.26013 -0.10711,0.13006 -0.22952,0.20656 -0.008,0.004 -0.0421,0.0191 -0.0306,0.0153 -0.0803,0.0268 -0.0497,0.008 -0.11094,-0.004 -0.0574,-0.0115 -0.11476,-0.0574 -0.0459,-0.0383 -0.065,-0.11093 -0.0153,-0.0765 -0.0115,-0.16832 0.008,-0.0956 0.0306,-0.20274 0.0268,-0.10711 0.0689,-0.20657 0.0268,-0.065 0.065,-0.14154 0.0421,-0.0803 0.0765,-0.14536 0.0421,-0.0765 0.0842,-0.15301 -0.0382,0.0153 -0.15301,0.10328 -0.11094,0.0842 -0.241,0.2257 -0.13006,0.13771 -0.24865,0.3175 -0.11858,0.17979 -0.16449,0.37871 0,0.0191 0.004,0.0344 0,0.0153 0,0.0268 0.004,0.0115 0.004,0.0191 0.004,0.0268 -0.008,0.0497 -0.008,0.023 -0.0383,0.0306 -0.0191,0.008 -0.0344,0.008 -0.0153,0 -0.0383,0 -0.0191,-0.004 -0.0382,-0.0191 -0.0459,-0.0306 -0.0689,-0.0727 -0.0306,-0.065 -0.0344,-0.14154 -0.008,-0.0803 0,-0.14919 0.008,-0.0803 0.023,-0.16449 0.0268,-0.11859 0.065,-0.241 0.0344,-0.12623 0.0765,-0.23717 0.0421,-0.11093 0.0803,-0.20657 0.0421,-0.0956 0.0727,-0.16448 0.065,-0.14154 0.13006,-0.26395 0.065,-0.12624 0.11858,-0.21805 0.0612,-0.10711 0.11859,-0.19509 0.10328,-0.15301 0.21039,-0.29073 0.10711,-0.13771 0.20657,-0.24482 0.10328,-0.10711 0.19509,-0.17979 0.0956,-0.0727 0.16832,-0.0995 0.0421,-0.0153 0.0842,-0.0191 0.0344,-0.004 0.0727,0.004 0.0421,0.004 0.0765,0.0268 0.0536,0.0459 0.0459,0.14536 -0.008,0.088 -0.0765,0.241 -0.0689,0.14919 -0.2563,0.40166 -0.088,0.11858 -0.17214,0.21422 -0.0803,0.0956 -0.17214,0.19126 -0.0918,0.0918 -0.20274,0.19127 -0.10711,0.0995 -0.24865,0.2257 -0.0497,0.10328 -0.11476,0.24864 -0.0612,0.14154 -0.11476,0.29073 0.0344,-0.0536 0.0727,-0.10711 0.0421,-0.0574 0.0918,-0.11476 0.0727,-0.088 0.15684,-0.17214 0.088,-0.088 0.17979,-0.16066 0.0918,-0.0727 0.18362,-0.12242 0.0918,-0.0536 0.17979,-0.0727 0.0421,-0.008 0.0842,0 0.0421,0.008 0.0842,0.0383 0.065,0.0574 0.0574,0.14153 -0.008,0.0842 -0.0344,0.14154 -0.0191,0.0306 -0.0382,0.065 -0.0153,0.0306 -0.0383,0.065 -0.0344,0.0574 -0.0995,0.16832 -0.0612,0.10711 -0.12241,0.22952 -0.0574,0.12241 -0.0995,0.24482 -0.0421,0.11858 -0.0344,0.19509 0.004,0.0268 0.0191,0.0536 0.0153,0.0268 0.0612,0.004 0.0459,-0.0229 0.0956,-0.0765 0.0536,-0.0535 0.0995,-0.1071 0.0536,-0.065 0.10711,-0.14154 0.0612,-0.0842 0.11476,-0.17214 0.0535,-0.088 0.0994,-0.16449 0.0459,-0.0765 0.0803,-0.13389 0.0383,-0.0612 0.065,-0.0918 0.004,-0.004 0.0115,-0.004 0.0191,0 0.0383,0.008 z m -0.17214,-1.73288 q -0.0115,-0.008 -0.0421,0 -0.0306,0.008 -0.0918,0.0689 -0.0612,0.0574 -0.16066,0.18744 -0.0995,0.13006 -0.24865,0.36341 -0.0421,0.0688 -0.0918,0.15683 -0.0421,0.0765 -0.10328,0.18362 -0.0612,0.10328 -0.12624,0.2257 0.30985,-0.31751 0.48964,-0.55468 0.18362,-0.23717 0.2716,-0.40931 0.0383,-0.0689 0.0574,-0.11093 0.0191,-0.0459 0.0306,-0.0689 0.0115,-0.0268 0.0153,-0.0421 z"
         style="font-style:normal;font-variant:normal;font-weight:normal;font-stretch:normal;font-size:medium;line-height:1.25;font-family:'Tale of Hawks';-inkscape-font-specification:'Tale of Hawks';letter-spacing:0px;word-spacing:0px;fill:#4d4d4d;fill-opacity:1;stroke:none;stroke-width:0.18493354"
         id="path1001"
         inkscape:connector-curvature="0" />
      <path
         d="m 849.52226,510.71309 q 0,-0.0153 -0.0153,-0.023 -0.008,-0.004 -0.0153,-0.004 -0.0191,0 -0.0803,0.0459 -0.0612,0.0421 -0.14154,0.11858 -0.0803,0.0765 -0.17214,0.17979 -0.088,0.10329 -0.16831,0.2257 -0.0765,0.11858 -0.13006,0.24865 -0.0536,0.13006 -0.065,0.26012 0,0.0115 0.004,0.0268 0,0.0191 0.008,0.0574 0.008,0.0306 0.004,0.0688 0,0.0344 -0.0383,0.0497 -0.0574,0.0229 -0.11094,0 -0.0536,-0.0268 -0.0765,-0.065 -0.0574,-0.10328 -0.0535,-0.23335 0,-0.13388 0.023,-0.24864 0.0421,-0.20657 0.11859,-0.39784 0.0803,-0.19126 0.18361,-0.37488 0.023,-0.0383 0.0536,-0.0803 0.0344,-0.0459 0.0765,-0.0803 0.0421,-0.0344 0.088,-0.0497 0.0459,-0.0153 0.0995,0.004 0.0497,0.0191 0.0612,0.065 0.0115,0.0421 0,0.0918 -0.008,0.0459 -0.0344,0.0956 -0.023,0.0459 -0.0383,0.0765 -0.0918,0.14919 -0.17597,0.31368 0.0612,-0.0918 0.13389,-0.18362 0.0727,-0.0956 0.14536,-0.17214 0.0765,-0.0765 0.15302,-0.13006 0.0765,-0.0574 0.14919,-0.0689 0.0841,-0.0153 0.13771,0.0153 0.0535,0.0306 0.065,0.0765 0.0115,0.0344 0.004,0.0803 -0.004,0.0421 -0.0191,0.088 -0.0153,0.0459 -0.0421,0.088 -0.023,0.0421 -0.0459,0.0727 -0.0612,0.0842 -0.11858,0.13389 -0.0497,0.0459 -0.10329,0.0688 -0.0535,0.023 -0.0956,-0.0191 -0.0574,-0.0497 -0.0306,-0.11094 0.0306,-0.065 0.088,-0.12623 0.0574,-0.0612 0.11476,-0.11094 0.0612,-0.0497 0.0612,-0.0727 z"
         style="font-style:normal;font-variant:normal;font-weight:normal;font-stretch:normal;font-size:medium;line-height:1.25;font-family:'Tale of Hawks';-inkscape-font-specification:'Tale of Hawks';letter-spacing:0px;word-spacing:0px;fill:#4d4d4d;fill-opacity:1;stroke:none;stroke-width:0.18493354"
         id="path1003"
         inkscape:connector-curvature="0" />
      <path
         d="m 850.57446,510.97704 q 0.0191,0.008 0.008,0.0459 -0.008,0.0115 -0.0344,0.0765 -0.0268,0.065 -0.0765,0.16449 -0.0268,0.0536 -0.0574,0.11093 -0.0268,0.0536 -0.0612,0.11859 -0.0344,0.065 -0.0765,0.13389 -0.0382,0.065 -0.0842,0.13388 -0.0459,0.0689 -0.0995,0.13772 -0.0459,0.0612 -0.11093,0.13006 -0.0612,0.0688 -0.13771,0.12241 -0.0497,0.0382 -0.0956,0.0535 -0.0421,0.0153 -0.0727,0.0191 -0.0421,0.008 -0.0727,0 -0.0574,-0.0153 -0.088,-0.0536 -0.0344,-0.0344 -0.0536,-0.0727 -0.0191,-0.0421 -0.0306,-0.0956 -0.023,-0.11476 0.008,-0.26012 0.0306,-0.14919 0.0918,-0.30221 0.0612,-0.15683 0.14154,-0.30602 0.0803,-0.15302 0.15683,-0.2716 0.0459,-0.0727 0.0918,-0.11859 0.0421,-0.0421 0.088,-0.065 0.0497,-0.0268 0.0918,0 0.0421,0.0268 0.0574,0.0689 0.0153,0.0421 0.0115,0.088 0,0.0459 -0.0191,0.0956 -0.0191,0.0497 -0.0421,0.0918 -0.12623,0.21805 -0.22187,0.40931 -0.0956,0.18745 -0.14918,0.32898 -0.0536,0.13772 -0.0574,0.22187 -0.004,0.0803 0.0535,0.0918 0.0421,0 0.10328,-0.0689 0.065,-0.065 0.13007,-0.14536 0.0727,-0.0956 0.15301,-0.21804 0.0497,-0.0727 0.0918,-0.13771 0.0421,-0.0689 0.0803,-0.13389 0.0765,-0.13006 0.13389,-0.22952 0.0574,-0.10329 0.0956,-0.15684 0.004,-0.004 0.004,-0.004 0.004,0 0.008,-0.004 0.004,0 0.008,-0.004 0.023,-0.008 0.0344,0.004 z m -0.12623,-0.86835 q 0.0574,0.0268 0.0842,0.065 0.023,0.0306 0.023,0.0803 0,0.0459 -0.0612,0.10711 -0.0803,0.0803 -0.10711,0.12624 -0.0268,0.0459 -0.0574,0.088 -0.0536,0.0612 -0.0956,0.0688 -0.023,0.004 -0.0421,-0.004 -0.065,-0.0268 -0.0765,-0.0842 -0.0115,-0.0612 0.004,-0.12241 0.0153,-0.0689 0.0612,-0.15301 0.0382,-0.065 0.0803,-0.11094 0.0382,-0.0383 0.0841,-0.0612 0.0497,-0.0268 0.10329,0 z"
         style="font-style:normal;font-variant:normal;font-weight:normal;font-stretch:normal;font-size:medium;line-height:1.25;font-family:'Tale of Hawks';-inkscape-font-specification:'Tale of Hawks';letter-spacing:0px;word-spacing:0px;fill:#4d4d4d;fill-opacity:1;stroke:none;stroke-width:0.18493354"
         id="path1005"
         inkscape:connector-curvature="0" />
      <path
         d="m 852.02893,509.1141 q 0.0421,0.0306 0.065,0.088 0.0191,0.0497 0.0191,0.13006 0,0.0803 -0.0497,0.19892 -0.0574,0.12241 -0.15684,0.22187 -0.088,0.088 -0.22952,0.16449 -0.13771,0.0727 -0.34811,0.0918 -0.0153,0.0229 -0.0306,0.0497 -0.0153,0.0268 -0.0344,0.0612 -0.0191,0.0344 -0.0421,0.0765 0.023,0 0.0459,0 0.023,0 0.0459,0.004 0.0115,0 0.0344,0.004 0.0268,0.004 0.0535,0.0153 0.0268,0.008 0.0497,0.0268 0.023,0.0191 0.0268,0.0536 0.004,0.0803 -0.0612,0.10711 -0.0612,0.0268 -0.12623,0.0191 -0.0459,-0.004 -0.0918,-0.004 -0.0459,-0.004 -0.0956,-0.008 -0.008,0.0191 -0.0191,0.0421 -0.0115,0.0191 -0.023,0.0383 0.0268,0.15301 0.0421,0.35958 0.0191,0.20657 0.0153,0.42844 0,0.22187 -0.0268,0.43608 -0.0268,0.21422 -0.088,0.38254 -0.0612,0.16831 -0.16449,0.26777 -0.0995,0.0995 -0.24865,0.0918 -0.13389,-0.008 -0.20657,-0.0765 -0.0765,-0.0688 -0.10711,-0.17596 -0.0306,-0.10329 -0.023,-0.23717 0.004,-0.13772 0.0306,-0.27543 0.0612,-0.32515 0.22952,-0.73829 0.0497,-0.13771 0.0995,-0.26012 0.0536,-0.12624 0.10329,-0.23335 -0.065,0.023 -0.12241,0.0612 -0.0574,0.0344 -0.10329,0.088 -0.0382,0.0497 -0.0459,0.11476 -0.008,0.0612 0.0382,0.11476 l 0.008,0.008 q 0.004,0.004 0.004,0.0153 -0.0115,0.0153 -0.0306,0.004 -0.088,-0.0421 -0.0995,-0.13771 -0.0153,-0.0995 0.0344,-0.18362 0.0344,-0.0574 0.0842,-0.0995 0.0497,-0.0459 0.10329,-0.0842 0.11093,-0.0727 0.23334,-0.1071 0.0268,-0.0497 0.0459,-0.088 0.0229,-0.0383 0.0382,-0.0688 0.0153,-0.0344 0.0306,-0.0574 -0.0803,0 -0.16066,-0.004 -0.0689,0 -0.15302,0 -0.0803,-0.004 -0.15301,-0.008 -0.16066,-0.004 -0.27925,0.0383 -0.11858,0.0383 -0.21039,0.0956 -0.0918,0.0574 -0.16067,0.11476 -0.0727,0.0574 -0.13006,0.088 -0.0765,0.0421 -0.12241,0.0383 -0.0459,-0.008 -0.0765,-0.0306 -0.0344,-0.0268 -0.0497,-0.0765 -0.0153,-0.0459 -0.004,-0.0842 0.008,-0.0421 0.0344,-0.0765 0.023,-0.0344 0.0612,-0.0612 0.0344,-0.0268 0.0765,-0.0459 0.0956,-0.0459 0.22187,-0.0765 0.065,-0.0115 0.16449,-0.0229 0.088,-0.008 0.22569,-0.008 0.13389,-0.004 0.33281,0.004 0.0995,0.004 0.17979,0.004 0.0842,-0.004 0.14919,-0.008 0.0727,-0.004 0.13388,-0.008 0.10329,-0.15301 0.2104,-0.29073 0.10711,-0.13771 0.21039,-0.24482 0.10329,-0.10711 0.19509,-0.17979 0.0918,-0.0727 0.16832,-0.0995 0.0383,-0.0153 0.0803,-0.0191 0.0344,-0.004 0.0727,0.004 0.0421,0.004 0.0765,0.0268 z m -1.43833,3.16355 q 0.11859,0.004 0.20657,-0.15684 0.0382,-0.0688 0.0727,-0.17979 0.0344,-0.11476 0.0574,-0.28307 0.0268,-0.17214 0.0382,-0.40931 0.0115,-0.23717 0,-0.5585 -0.0306,0.0688 -0.065,0.14154 -0.0306,0.0688 -0.0612,0.14153 -0.15684,0.34046 -0.24865,0.61588 -0.0382,0.11859 -0.0688,0.23335 -0.0268,0.11476 -0.0344,0.21039 -0.004,0.0956 0.0153,0.16067 0.023,0.065 0.088,0.0842 z m 1.24706,-2.61653 q 0.0803,-0.0956 0.11094,-0.16066 0.0306,-0.065 0.0382,-0.10711 0.008,-0.0459 -0.0153,-0.0765 -0.0115,-0.008 -0.0421,-0.0115 -0.0306,-0.004 -0.0956,0.0421 -0.065,0.0459 -0.16449,0.16448 -0.0995,0.11859 -0.24865,0.35194 0.0995,-0.0115 0.17597,-0.0459 0.0803,-0.0344 0.13388,-0.0689 0.0612,-0.0421 0.10711,-0.088 z"
         style="font-style:normal;font-variant:normal;font-weight:normal;font-stretch:normal;font-size:medium;line-height:1.25;font-family:'Tale of Hawks';-inkscape-font-specification:'Tale of Hawks';letter-spacing:0px;word-spacing:0px;fill:#4d4d4d;fill-opacity:1;stroke:none;stroke-width:0.18493354"
         id="path1007"
         inkscape:connector-curvature="0" />
      <path
         d="m 851.94967,510.54095 q -0.13006,0.24865 -0.22952,0.48582 -0.0421,0.0995 -0.0842,0.20657 -0.0382,0.10711 -0.0727,0.21039 -0.0306,0.0995 -0.0497,0.19509 -0.0153,0.0918 -0.0115,0.16449 0.004,0.0229 0.0153,0.0497 0.0153,0.0268 0.0574,0.0115 0.088,-0.0268 0.18362,-0.11859 0.0994,-0.0918 0.18744,-0.19127 0.0995,-0.11858 0.19891,-0.26012 0.0536,-0.0765 0.10329,-0.14919 0.0497,-0.0765 0.0918,-0.13388 0.0115,-0.0153 0.0229,-0.0268 0.0191,-0.0191 0.0344,-0.0153 0.0153,0.008 0.0268,0.0268 0.0153,0.0191 -0.004,0.0574 -0.0306,0.0612 -0.0689,0.12623 -0.0306,0.0536 -0.0727,0.12241 -0.0382,0.065 -0.0765,0.12624 -0.0994,0.13389 -0.20274,0.24865 -0.0918,0.0994 -0.20657,0.18744 -0.11093,0.088 -0.22952,0.11476 -0.0535,0.0115 -0.12623,0.008 -0.0689,-0.004 -0.13389,-0.0612 -0.0459,-0.0383 -0.0574,-0.11476 -0.0115,-0.0803 -0.008,-0.16066 0.004,-0.0956 0.0268,-0.19892 0.0229,-0.11093 0.0574,-0.21804 0.0306,-0.11094 0.0688,-0.21422 0.0459,-0.13771 0.10329,-0.27925 0.0574,-0.14154 0.11858,-0.27543 0.065,-0.13388 0.13006,-0.25629 0.0689,-0.12624 0.13007,-0.23717 -0.0765,0 -0.14537,0 -0.065,0 -0.12623,-0.004 -0.0497,0 -0.0803,0.004 -0.0306,0.004 -0.0459,0.004 -0.11476,0.0229 -0.18744,0.0612 -0.0765,0.0383 -0.16066,0.0459 -0.0344,0.004 -0.0497,-0.008 -0.0153,-0.0153 -0.023,-0.0344 -0.008,-0.0191 -0.004,-0.0421 0.004,-0.0383 0.0344,-0.0612 0.0306,-0.0268 0.0688,-0.0383 0.0383,-0.0115 0.0765,-0.0153 0.0344,-0.004 0.0497,-0.004 0.0727,-0.004 0.24482,-0.008 0.17214,-0.008 0.41314,-0.0153 0.0765,-0.12623 0.13006,-0.21421 0.0574,-0.088 0.0842,-0.13007 0.0765,-0.11858 0.13388,-0.19126 0.0574,-0.0727 0.11094,-0.11859 0.0421,-0.0421 0.0842,-0.065 0.0383,-0.0191 0.0803,-0.0229 0.0421,-0.008 0.0803,0.0229 0.0306,0.0268 0.0344,0.0727 0.004,0.0421 -0.0153,0.0995 -0.0153,0.0574 -0.0497,0.12241 -0.0344,0.0612 -0.0765,0.12241 -0.0306,0.0459 -0.065,0.0956 -0.0306,0.0421 -0.065,0.0956 -0.0344,0.0497 -0.065,0.10328 0.20657,-0.004 0.42078,0 0.21805,0 0.42844,0.008 0.088,0.004 0.17597,0.008 0.088,0.004 0.17214,0.0115 0.0459,0.004 0.0956,0.008 0.0421,0.004 0.0918,0.008 0.0535,0 0.10328,0.008 0.0421,0.008 0.0918,0.0153 0.0536,0.008 0.0956,0.023 0.0421,0.0153 0.0727,0.0383 0.0306,0.0191 0.0306,0.0497 0,0.0268 -0.008,0.0459 -0.008,0.0191 -0.023,0.0306 -0.0153,0.0115 -0.0497,0.008 -0.0459,0 -0.0918,-0.0153 -0.0421,-0.0191 -0.0918,-0.0383 -0.0497,-0.0191 -0.11093,-0.0383 -0.0574,-0.0191 -0.13007,-0.0268 -0.0268,0 -0.0535,0 -0.023,-0.004 -0.0497,-0.004 -0.17214,-0.008 -0.38253,-0.008 -0.2104,-0.004 -0.43992,-0.004 -0.10711,-0.004 -0.21422,-0.004 -0.10711,0 -0.21039,0 -0.0497,0.088 -0.0995,0.18361 -0.0459,0.0842 -0.10328,0.18744 -0.0536,0.0995 -0.11094,0.19892 z"
         style="font-style:normal;font-variant:normal;font-weight:normal;font-stretch:normal;font-size:medium;line-height:1.25;font-family:'Tale of Hawks';-inkscape-font-specification:'Tale of Hawks';letter-spacing:0px;word-spacing:0px;fill:#4d4d4d;fill-opacity:1;stroke:none;stroke-width:0.18493354"
         id="path1009"
         inkscape:connector-curvature="0" />
    </g>
    <path
       style="fill:#4d4d4d;stroke-width:1;fill-opacity:1"
       d="m 839.86377,494.78747 c -0.75497,-0.0355 -1.64557,-0.25854 -2.25324,-0.56434 -1.72795,-0.86955 -2.24838,-2.25914 -1.25213,-3.34329 0.38924,-0.42359 0.80022,-0.50791 1.31262,-0.26933 0.35381,0.16474 0.41477,0.2535 0.1233,0.17952 -0.29282,-0.0743 -0.58397,0.0169 -0.86611,0.27122 -0.41475,0.37393 -0.53456,0.8822 -0.27943,1.1854 0.42398,0.50388 1.38209,0.24879 2.8931,-0.77026 1.20665,-0.81379 1.7728,-1.04501 2.66418,-1.08807 0.65752,-0.0318 1.11142,0.0723 1.56064,0.35789 l 0.25483,0.16199 0.25483,-0.16168 c 0.3807,-0.24156 0.87887,-0.37751 1.3839,-0.37767 0.91237,-2e-4 1.58996,0.26388 2.84092,1.10754 1.511,1.01905 2.46911,1.27414 2.8931,0.77026 0.47121,-0.56 -0.38563,-1.64951 -1.14555,-1.45662 -0.29147,0.074 -0.2305,-0.0148 0.12331,-0.17952 0.51239,-0.23858 0.92337,-0.15426 1.31261,0.26933 0.98927,1.07654 0.47687,2.46926 -1.2253,3.33041 -0.74279,0.37579 -1.60078,0.56642 -2.54831,0.5662 -1.48781,-4e-4 -2.62642,-0.40839 -3.47909,-1.24678 l -0.42112,-0.41408 -0.29483,0.31845 c -0.50545,0.54596 -1.25608,0.96908 -2.09592,1.18145 -0.43622,0.11032 -1.2899,0.19391 -1.75631,0.17198 z"
       id="path1049"
       inkscape:connector-curvature="0" />
    <rect
       y="417.49954"
       x="962.97589"
       height="104.66019"
       width="120.41132"
       id="rect1051"
       style="opacity:1;fill:#ededed;fill-opacity:1;fill-rule:nonzero;stroke:none;stroke-width:0.40000004;stroke-linecap:butt;stroke-linejoin:miter;stroke-miterlimit:4;stroke-dasharray:none;stroke-opacity:1;paint-order:normal" />
    <circle
       style="opacity:1;fill:#1a1a1a;fill-opacity:1;fill-rule:nonzero;stroke:none;stroke-width:0.40000001;stroke-linecap:butt;stroke-linejoin:miter;stroke-miterlimit:4;stroke-dasharray:none;stroke-opacity:1;paint-order:normal"
       id="path5246"
       cx="1021.1027"
       cy="471.62497"
       r="23.62351" />
    <path
       style="opacity:1;fill:#ff0000;fill-opacity:1;fill-rule:nonzero;stroke:none;stroke-width:0.40000004;stroke-linecap:butt;stroke-linejoin:miter;stroke-miterlimit:4;stroke-dasharray:none;stroke-opacity:1;paint-order:normal"
       d="m 1021.6631,418.2503 a 4.3026342,4.3026342 0 0 0 -1.8613,3.08978 4.3026342,4.3026342 0 0 0 3.5594,-0.58501 4.3026342,4.3026342 0 0 0 1.8571,-3.08691 4.3026342,4.3026342 0 0 0 -3.5552,0.58214 z"
       id="path1089"
       inkscape:connector-curvature="0" />
    <g
       id="g5268"
       transform="translate(-1.8831901,-0.69373866)">
      <g
         id="g1059"
         transform="matrix(0.07508232,0,0,0.07508232,1024.3989,447.69818)"
         style="stroke-width:13.3187151">
        <path
           id="path1055"
           transform="scale(0.26458333)"
           d="M 335.13281,506.80469 A 192.85716,202.14283 0 0 0 142.27539,708.94922 192.85716,202.14283 0 0 0 201.1543,854.04883 c -1.57279,1.76688 -109.564004,123.13849 -252.933597,291.30467 15.626513,18.3617 31.706919,37.3337 48.1308595,56.7774 C 130.00495,1043.5102 230.39014,923.93441 240.13281,911.0918 l 14.26758,-18.8086 A 192.85716,202.14283 0 0 0 335.13281,911.0918 192.85716,202.14283 0 0 0 527.98828,708.94922 192.85716,202.14283 0 0 0 335.13281,506.80469 Z m 0,52.60351 A 142.6704,149.53968 0 0 1 477.80273,708.94922 142.6704,149.53968 0 0 1 335.13281,858.48828 142.6704,149.53968 0 0 1 192.46094,708.94922 142.6704,149.53968 0 0 1 335.13281,559.4082 Z m -459.92383,672.041 c -258.2769,306.3712 -584.56488,712.5765 -639.36328,871.0703 0,0 393.01726,-464.5834 687.578128,-813.8789 -16.338787,-19.3771 -32.617358,-38.6834 -48.214848,-57.1914 z"
           style="fill:#4d4d4d;fill-opacity:1;stroke:#4d4d4d;stroke-width:13.31871319px;stroke-linecap:butt;stroke-linejoin:miter;stroke-opacity:1"
           inkscape:connector-curvature="0" />
        <path
           id="path1057"
           transform="scale(0.26458333)"
           d="m -582.11914,378.55859 c -9.46379,-0.12697 -21.15039,12.84375 -21.15039,12.84375 -63.5249,65.19263 -22.88186,132.95234 9.04687,169.19532 a 192.85716,202.14283 0 0 0 -62.20507,148.35156 192.85716,202.14283 0 0 0 192.85546,202.14258 192.85716,202.14283 0 0 0 80.73243,-18.8086 l 14.26757,18.8086 C -337.14368,952.52037 635.71484,2102.5195 635.71484,2102.5195 543.09741,1834.6414 -325.10999,859.08592 -329.59375,854.04883 a 192.85716,202.14283 0 0 0 58.87891,-145.09961 192.85716,202.14283 0 0 0 -192.85743,-202.14453 192.85716,202.14283 0 0 0 -103.41211,31.78515 c -35.74503,-49.52748 -3.37304,-128.69922 -3.37304,-128.69922 0.86638,-24.17307 -4.85571,-31.23937 -11.76172,-31.33203 z M -463.57227,559.4082 A 142.6704,149.53968 0 0 1 -320.90039,708.94922 142.6704,149.53968 0 0 1 -463.57227,858.48828 142.6704,149.53968 0 0 1 -606.24219,708.94922 142.6704,149.53968 0 0 1 -463.57227,559.4082 Z m 398.66602,634.3789 a 23.099541,23.099541 0 0 1 23.097656,23.0996 23.099541,23.099541 0 0 1 -23.097656,23.0996 23.099541,23.099541 0 0 1 -23.099609,-23.0996 23.099541,23.099541 0 0 1 23.099609,-23.0996 z"
           style="fill:#4d4d4d;fill-opacity:1;stroke:#4d4d4d;stroke-width:13.31871319px;stroke-linecap:butt;stroke-linejoin:miter;stroke-opacity:1"
           inkscape:connector-curvature="0" />
      </g>
      <g
         id="g1071"
         transform="matrix(1.1400392,0,0,1.1400392,56.347953,-110.38013)"
         style="fill:#4d4d4d;fill-opacity:1;stroke-width:0.87716281">
        <path
           d="m 835.12548,513.1307 q -0.27542,-0.008 -0.46287,-0.0842 -0.18744,-0.0727 -0.3022,-0.16449 -0.13388,-0.10329 -0.21422,-0.241 -0.0765,-0.13006 -0.0956,-0.26777 -0.0153,-0.13772 -0.004,-0.25248 0.0115,-0.11093 0.0306,-0.18744 0.0229,-0.0803 0.0306,-0.0956 0.11476,-0.37106 0.46669,-0.6197 0.15302,-0.10329 0.34811,-0.18362 0.19509,-0.0842 0.44374,-0.14154 0.3175,-0.0765 0.66178,-0.11093 0.34428,-0.0383 0.69239,-0.0574 0.0153,-0.0727 0.0268,-0.14537 0.0115,-0.0727 0.023,-0.14918 0.004,-0.0191 0.0229,-0.15302 0.0191,-0.13388 0.0727,-0.3175 -0.13771,0.0153 -0.2716,0.0229 -0.13389,0.004 -0.26777,0.004 -0.17214,0 -0.33663,-0.0115 -0.24482,-0.0191 -0.47435,-0.0612 -0.22952,-0.0459 -0.44756,-0.11476 -0.14919,-0.0459 -0.27542,-0.0994 -0.12624,-0.0574 -0.23335,-0.11094 -0.16449,-0.0765 -0.27925,-0.15301 -0.11093,-0.0803 -0.17979,-0.14537 -0.0842,-0.0765 -0.13389,-0.14918 -0.0383,-0.0612 -0.0421,-0.10711 -0.004,-0.0459 0.004,-0.0765 0.0115,-0.0383 0.0383,-0.0612 0.0459,-0.0344 0.0956,-0.0421 0.0421,-0.008 0.0918,0.0191 0.0497,0.0268 0.0918,0.11094 0.0574,0.11858 0.13772,0.24864 0.0803,0.12624 0.20274,0.20275 0.13388,0.0727 0.30985,0.14536 0.17597,0.0689 0.39401,0.12624 0.21804,0.0574 0.47434,0.0956 0.26012,0.0344 0.56615,0.0344 0.13771,0 0.28308,-0.008 0.14536,-0.0115 0.3022,-0.0306 0.0229,-0.065 0.0497,-0.13388 0.0306,-0.0727 0.0612,-0.13771 0.22187,-0.44757 0.54703,-0.53938 0.008,-0.004 0.0421,-0.0115 0.0344,-0.008 0.0803,-0.008 0.0497,0 0.10328,0.0115 0.0574,0.008 0.10711,0.0383 0.0382,0.023 0.0765,0.0765 0.0421,0.0497 0.0574,0.14154 0.0191,0.13771 -0.0421,0.24865 -0.0574,0.10328 -0.17979,0.19126 -0.19127,0.13389 -0.58145,0.22952 -0.0306,0.12242 -0.0574,0.26778 -0.0268,0.14154 -0.0574,0.3175 -0.008,0.0536 -0.0191,0.10711 -0.008,0.0536 -0.0153,0.10711 0.0421,0 0.0842,0 0.0421,-0.004 0.0841,-0.004 0.14537,-0.008 0.28308,-0.0115 0.13771,-0.004 0.26012,-0.0115 0.0306,-0.004 0.0536,0.0191 0.023,0.0191 0.0268,0.0497 0,0.0306 -0.023,0.0574 -0.0191,0.023 -0.0497,0.023 -0.24482,0.0153 -0.54702,0.0229 -0.0497,0.004 -0.0995,0.008 -0.0497,0 -0.10328,0 -0.0574,0.29073 -0.13389,0.5738 -0.0727,0.28308 -0.17979,0.53938 -0.10711,0.25247 -0.2563,0.46669 -0.14536,0.21804 -0.34045,0.37106 -0.1951,0.15683 -0.44757,0.24099 -0.25247,0.088 -0.5738,0.0803 z m -0.65413,-0.35575 q 0.11093,0.0765 0.22569,0.11858 0.11476,0.0421 0.2257,0.0536 0.11093,0.0153 0.21422,0.008 0.10328,-0.008 0.19509,-0.0306 0.21422,-0.0459 0.41696,-0.16449 0.32898,-0.23717 0.57763,-0.74594 0.22187,-0.4667 0.3634,-1.13613 -0.6044,0.0497 -1.02136,0.15684 -0.41314,0.10711 -0.68474,0.26012 -0.2716,0.14919 -0.42461,0.34046 -0.14919,0.18744 -0.22187,0.39783 -0.065,0.18362 -0.0574,0.3175 0.008,0.13772 0.0459,0.2257 0.0382,0.0918 0.0841,0.13771 0.0459,0.0497 0.0612,0.0612 z m 3.25919,-3.22476 q 0.065,-0.0459 0.0956,-0.0956 0.0344,-0.0535 0.0497,-0.0956 0.0153,-0.0497 0.0153,-0.0995 -0.0115,-0.0574 -0.0383,-0.0842 -0.023,-0.0306 -0.0536,-0.0421 -0.0344,-0.0153 -0.0688,-0.0115 -0.11094,0.004 -0.1798,0.0727 -0.0688,0.0689 -0.10328,0.12624 -0.0382,0.065 -0.0803,0.16831 -0.0421,0.0995 -0.0842,0.24865 0.14536,-0.0421 0.2563,-0.088 0.11476,-0.0459 0.19127,-0.0995 z"
           style="font-style:normal;font-variant:normal;font-weight:normal;font-stretch:normal;font-size:medium;line-height:1.25;font-family:'Tale of Hawks';-inkscape-font-specification:'Tale of Hawks';letter-spacing:0px;word-spacing:0px;fill:#4d4d4d;fill-opacity:1;stroke:none;stroke-width:0.23208266"
           id="path1061"
           inkscape:connector-curvature="0" />
        <path
           d="m 839.12093,510.97704 q 0.0153,0.008 0.0115,0.0306 -0.004,0.008 -0.0191,0.0497 -0.0153,0.0383 -0.0421,0.0995 -0.0765,0.16449 -0.17214,0.3175 -0.0803,0.13006 -0.19127,0.26013 -0.10711,0.13006 -0.22952,0.20656 -0.008,0.004 -0.0421,0.0191 -0.0306,0.0153 -0.0803,0.0268 -0.0497,0.008 -0.11094,-0.004 -0.0574,-0.0115 -0.11476,-0.0574 -0.0459,-0.0383 -0.065,-0.11093 -0.0153,-0.0765 -0.0115,-0.16832 0.008,-0.0956 0.0306,-0.20274 0.0268,-0.10711 0.0689,-0.20657 0.0268,-0.065 0.065,-0.14154 0.0421,-0.0803 0.0765,-0.14536 0.0421,-0.0765 0.0842,-0.15301 -0.0383,0.0153 -0.15301,0.10328 -0.11094,0.0842 -0.241,0.2257 -0.13006,0.13771 -0.24865,0.3175 -0.11858,0.17979 -0.16449,0.37871 0,0.0191 0.004,0.0344 0,0.0153 0,0.0268 0.004,0.0115 0.004,0.0191 0.004,0.0268 -0.008,0.0497 -0.008,0.023 -0.0382,0.0306 -0.0191,0.008 -0.0344,0.008 -0.0153,0 -0.0382,0 -0.0191,-0.004 -0.0383,-0.0191 -0.0459,-0.0306 -0.0689,-0.0727 -0.0306,-0.065 -0.0344,-0.14154 -0.008,-0.0803 0,-0.14919 0.008,-0.0803 0.0229,-0.16449 0.0268,-0.11859 0.065,-0.241 0.0344,-0.12623 0.0765,-0.23717 0.0421,-0.11093 0.0803,-0.20657 0.0421,-0.0956 0.0727,-0.16448 0.065,-0.14154 0.13007,-0.26395 0.065,-0.12624 0.11858,-0.21805 0.0612,-0.10711 0.11859,-0.19509 0.10328,-0.15301 0.21039,-0.29073 0.10711,-0.13771 0.20657,-0.24482 0.10328,-0.10711 0.19509,-0.17979 0.0956,-0.0727 0.16832,-0.0995 0.0421,-0.0153 0.0842,-0.0191 0.0344,-0.004 0.0727,0.004 0.0421,0.004 0.0765,0.0268 0.0536,0.0459 0.0459,0.14536 -0.008,0.088 -0.0765,0.241 -0.0689,0.14919 -0.2563,0.40166 -0.088,0.11858 -0.17214,0.21422 -0.0803,0.0956 -0.17214,0.19126 -0.0918,0.0918 -0.20274,0.19127 -0.10711,0.0995 -0.24865,0.2257 -0.0497,0.10328 -0.11476,0.24864 -0.0612,0.14154 -0.11476,0.29073 0.0344,-0.0536 0.0727,-0.10711 0.0421,-0.0574 0.0918,-0.11476 0.0727,-0.088 0.15684,-0.17214 0.088,-0.088 0.17979,-0.16066 0.0918,-0.0727 0.18362,-0.12242 0.0918,-0.0536 0.17979,-0.0727 0.0421,-0.008 0.0842,0 0.0421,0.008 0.0842,0.0383 0.065,0.0574 0.0574,0.14153 -0.008,0.0842 -0.0344,0.14154 -0.0191,0.0306 -0.0383,0.065 -0.0153,0.0306 -0.0382,0.065 -0.0344,0.0574 -0.0995,0.16832 -0.0612,0.10711 -0.12241,0.22952 -0.0574,0.12241 -0.0995,0.24482 -0.0421,0.11858 -0.0344,0.19509 0.004,0.0268 0.0191,0.0536 0.0153,0.0268 0.0612,0.004 0.0459,-0.0229 0.0956,-0.0765 0.0535,-0.0535 0.0995,-0.1071 0.0535,-0.065 0.1071,-0.14154 0.0612,-0.0842 0.11476,-0.17214 0.0536,-0.088 0.0995,-0.16449 0.0459,-0.0765 0.0803,-0.13389 0.0382,-0.0612 0.065,-0.0918 0.004,-0.004 0.0115,-0.004 0.0191,0 0.0383,0.008 z m -0.17214,-1.73288 q -0.0115,-0.008 -0.0421,0 -0.0306,0.008 -0.0918,0.0689 -0.0612,0.0574 -0.16067,0.18744 -0.0994,0.13006 -0.24864,0.36341 -0.0421,0.0688 -0.0918,0.15683 -0.0421,0.0765 -0.10328,0.18362 -0.0612,0.10328 -0.12624,0.2257 0.30985,-0.31751 0.48964,-0.55468 0.18362,-0.23717 0.2716,-0.40931 0.0382,-0.0689 0.0574,-0.11093 0.0191,-0.0459 0.0306,-0.0689 0.0115,-0.0268 0.0153,-0.0421 z"
           style="font-style:normal;font-variant:normal;font-weight:normal;font-stretch:normal;font-size:medium;line-height:1.25;font-family:'Tale of Hawks';-inkscape-font-specification:'Tale of Hawks';letter-spacing:0px;word-spacing:0px;fill:#4d4d4d;fill-opacity:1;stroke:none;stroke-width:0.23208266"
           id="path1063"
           inkscape:connector-curvature="0" />
        <path
           d="m 839.27125,511.87217 q 0.13389,0.0306 0.25247,-0.0229 0.0497,-0.023 0.0995,-0.065 0.0536,-0.0421 0.0956,-0.11476 0.0459,-0.0727 0.0803,-0.17596 0.0344,-0.10711 0.0535,-0.25247 0.008,-0.0956 -0.0115,-0.16832 -0.0191,-0.0727 -0.065,-0.17596 -0.0459,-0.10711 -0.0268,-0.1951 0.023,-0.088 0.11093,-0.0842 0.0612,0.004 0.0803,0.065 0.023,0.0612 0.0268,0.0995 0.004,0.0383 0.0191,0.0765 0.0115,0.0306 0.0306,0.065 0.0229,0.0306 0.0612,0.0497 0.0306,0.0153 0.0803,0.023 0.0421,0.008 0.10711,0.004 0.0688,-0.008 0.16066,-0.0383 -0.004,0 0.0382,-0.0115 0.0306,-0.008 0.0536,-0.0153 0.0229,-0.008 0.0268,0 0.004,0.008 0.004,0.0191 0,0.0115 -0.0115,0.0268 -0.0115,0.0191 -0.0421,0.0459 -0.0268,0.0229 -0.0727,0.0421 -0.0153,0.008 -0.0421,0.0153 -0.0229,0.008 -0.0612,0.0153 -0.0344,0.004 -0.088,0.0115 -0.065,0.008 -0.11094,0 -0.0421,-0.008 -0.0727,-0.023 -0.0344,-0.0153 -0.0574,-0.0383 v 0.0574 q 0,0.0612 -0.0115,0.15301 -0.0306,0.23335 -0.11859,0.40549 -0.0383,0.0727 -0.0918,0.14154 -0.0536,0.065 -0.12623,0.11476 -0.0727,0.0459 -0.16832,0.0688 -0.0956,0.0191 -0.21422,0 -0.11093,-0.0229 -0.19126,-0.0995 -0.0689,-0.065 -0.11476,-0.19126 -0.0497,-0.13006 -0.023,-0.34811 0.0268,-0.21804 0.10329,-0.39018 0.0765,-0.17214 0.17596,-0.2869 0.0995,-0.11859 0.2104,-0.17597 0.11093,-0.0574 0.20274,-0.0459 0.0306,0.008 0.0536,0.0229 0.0191,0.0153 0.0382,0.0383 0.0191,0.023 0.023,0.0612 0,0.0306 -0.008,0.0574 -0.008,0.0229 -0.0268,0.0497 -0.0153,0.0268 -0.0497,0.0459 -0.0306,0.0153 -0.0995,0.0689 -0.0688,0.0497 -0.14536,0.13771 -0.0765,0.0842 -0.14536,0.20274 -0.0689,0.11859 -0.10329,0.26778 -0.023,0.11476 -0.0191,0.21039 0.004,0.0842 0.0268,0.16066 0.0268,0.0727 0.10328,0.0956 z"
           style="font-style:normal;font-variant:normal;font-weight:normal;font-stretch:normal;font-size:medium;line-height:1.25;font-family:'Tale of Hawks';-inkscape-font-specification:'Tale of Hawks';letter-spacing:0px;word-spacing:0px;fill:#4d4d4d;fill-opacity:1;stroke:none;stroke-width:0.23208266"
           id="path1065"
           inkscape:connector-curvature="0" />
        <path
           d="m 841.2141,510.71309 q 0,-0.0153 -0.0153,-0.023 -0.008,-0.004 -0.0153,-0.004 -0.0191,0 -0.0803,0.0459 -0.0612,0.0421 -0.14154,0.11858 -0.0803,0.0765 -0.17214,0.17979 -0.088,0.10329 -0.16831,0.2257 -0.0765,0.11858 -0.13007,0.24865 -0.0536,0.13006 -0.065,0.26012 0,0.0115 0.004,0.0268 0,0.0191 0.008,0.0574 0.008,0.0306 0.004,0.0688 0,0.0344 -0.0382,0.0497 -0.0574,0.0229 -0.11093,0 -0.0536,-0.0268 -0.0765,-0.065 -0.0574,-0.10328 -0.0536,-0.23335 0,-0.13388 0.023,-0.24864 0.0421,-0.20657 0.11858,-0.39784 0.0803,-0.19126 0.18362,-0.37488 0.0229,-0.0383 0.0535,-0.0803 0.0344,-0.0459 0.0765,-0.0803 0.0421,-0.0344 0.088,-0.0497 0.0459,-0.0153 0.0995,0.004 0.0497,0.0191 0.0612,0.065 0.0115,0.0421 0,0.0918 -0.008,0.0459 -0.0344,0.0956 -0.023,0.0459 -0.0383,0.0765 -0.0918,0.14919 -0.17597,0.31368 0.0612,-0.0918 0.13389,-0.18362 0.0727,-0.0956 0.14536,-0.17214 0.0765,-0.0765 0.15301,-0.13006 0.0765,-0.0574 0.14919,-0.0689 0.0842,-0.0153 0.13771,0.0153 0.0536,0.0306 0.065,0.0765 0.0115,0.0344 0.004,0.0803 -0.004,0.0421 -0.0191,0.088 -0.0153,0.0459 -0.0421,0.088 -0.023,0.0421 -0.0459,0.0727 -0.0612,0.0842 -0.11859,0.13389 -0.0497,0.0459 -0.10328,0.0688 -0.0535,0.023 -0.0956,-0.0191 -0.0574,-0.0497 -0.0306,-0.11094 0.0306,-0.065 0.088,-0.12623 0.0574,-0.0612 0.11476,-0.11094 0.0612,-0.0497 0.0612,-0.0727 z"
           style="font-style:normal;font-variant:normal;font-weight:normal;font-stretch:normal;font-size:medium;line-height:1.25;font-family:'Tale of Hawks';-inkscape-font-specification:'Tale of Hawks';letter-spacing:0px;word-spacing:0px;fill:#4d4d4d;fill-opacity:1;stroke:none;stroke-width:0.23208266"
           id="path1067"
           inkscape:connector-curvature="0" />
        <path
           d="m 842.00529,510.54095 q -0.13006,0.24865 -0.22952,0.48582 -0.0421,0.0995 -0.0842,0.20657 -0.0382,0.10711 -0.0727,0.21039 -0.0306,0.0995 -0.0497,0.19509 -0.0153,0.0918 -0.0115,0.16449 0.004,0.0229 0.0153,0.0497 0.0153,0.0268 0.0574,0.0115 0.088,-0.0268 0.18361,-0.11859 0.0995,-0.0918 0.18744,-0.19127 0.0995,-0.11858 0.19892,-0.26012 0.0536,-0.0765 0.10329,-0.14919 0.0497,-0.0765 0.0918,-0.13388 0.0115,-0.0153 0.023,-0.0268 0.0191,-0.0191 0.0344,-0.0153 0.0153,0.008 0.0268,0.0268 0.0153,0.0191 -0.004,0.0574 -0.0306,0.0612 -0.0689,0.12623 -0.0306,0.0536 -0.0727,0.12241 -0.0382,0.065 -0.0765,0.12624 -0.0995,0.13389 -0.20274,0.24865 -0.0918,0.0994 -0.20657,0.18744 -0.11093,0.088 -0.22952,0.11476 -0.0535,0.0115 -0.12624,0.008 -0.0688,-0.004 -0.13388,-0.0612 -0.0459,-0.0383 -0.0574,-0.11476 -0.0115,-0.0803 -0.008,-0.16066 0.004,-0.0956 0.0268,-0.19892 0.023,-0.11093 0.0574,-0.21804 0.0306,-0.11094 0.0689,-0.21422 0.0459,-0.13771 0.10328,-0.27925 0.0574,-0.14154 0.11859,-0.27543 0.065,-0.13388 0.13006,-0.25629 0.0689,-0.12624 0.13006,-0.23717 -0.0765,0 -0.14536,0 -0.065,0 -0.12624,-0.004 -0.0497,0 -0.0803,0.004 -0.0306,0.004 -0.0459,0.004 -0.11476,0.0229 -0.18744,0.0612 -0.0765,0.0383 -0.16067,0.0459 -0.0344,0.004 -0.0497,-0.008 -0.0153,-0.0153 -0.023,-0.0344 -0.008,-0.0191 -0.004,-0.0421 0.004,-0.0383 0.0344,-0.0612 0.0306,-0.0268 0.0689,-0.0383 0.0383,-0.0115 0.0765,-0.0153 0.0344,-0.004 0.0497,-0.004 0.0727,-0.004 0.24482,-0.008 0.17214,-0.008 0.41313,-0.0153 0.0765,-0.12623 0.13007,-0.21421 0.0574,-0.088 0.0842,-0.13007 0.0765,-0.11858 0.13389,-0.19126 0.0574,-0.0727 0.11093,-0.11859 0.0421,-0.0421 0.0842,-0.065 0.0383,-0.0191 0.0803,-0.0229 0.0421,-0.008 0.0803,0.0229 0.0306,0.0268 0.0344,0.0727 0.004,0.0421 -0.0153,0.0995 -0.0153,0.0574 -0.0497,0.12241 -0.0344,0.0612 -0.0765,0.12241 -0.0306,0.0459 -0.065,0.0956 -0.0306,0.0421 -0.065,0.0956 -0.0344,0.0497 -0.065,0.10328 0.20657,-0.004 0.42079,0 0.21805,0 0.42844,0.008 0.088,0.004 0.17596,0.008 0.088,0.004 0.17214,0.0115 0.0459,0.004 0.0956,0.008 0.0421,0.004 0.0918,0.008 0.0535,0 0.10328,0.008 0.0421,0.008 0.0918,0.0153 0.0536,0.008 0.0956,0.023 0.0421,0.0153 0.0727,0.0383 0.0306,0.0191 0.0306,0.0497 0,0.0268 -0.008,0.0459 -0.008,0.0191 -0.023,0.0306 -0.0153,0.0115 -0.0497,0.008 -0.0459,0 -0.0918,-0.0153 -0.0421,-0.0191 -0.0918,-0.0383 -0.0497,-0.0191 -0.11094,-0.0383 -0.0574,-0.0191 -0.13006,-0.0268 -0.0268,0 -0.0535,0 -0.023,-0.004 -0.0497,-0.004 -0.17214,-0.008 -0.38254,-0.008 -0.21039,-0.004 -0.43991,-0.004 -0.10711,-0.004 -0.21422,-0.004 -0.10711,0 -0.21039,0 -0.0497,0.088 -0.0995,0.18361 -0.0459,0.0842 -0.10329,0.18744 -0.0535,0.0995 -0.11093,0.19892 z"
           style="font-style:normal;font-variant:normal;font-weight:normal;font-stretch:normal;font-size:medium;line-height:1.25;font-family:'Tale of Hawks';-inkscape-font-specification:'Tale of Hawks';letter-spacing:0px;word-spacing:0px;fill:#4d4d4d;fill-opacity:1;stroke:none;stroke-width:0.23208266"
           id="path1069"
           inkscape:connector-curvature="0" />
      </g>
      <g
         id="g1085"
         transform="matrix(1.0025852,0,0,1.0025852,182.59335,-40.142336)"
         style="fill:#4d4d4d;fill-opacity:1;stroke-width:0.99742138">
        <path
           d="m 844.72618,513.1307 q -0.27542,-0.008 -0.46286,-0.0842 -0.18745,-0.0727 -0.30221,-0.16449 -0.13388,-0.10329 -0.21422,-0.241 -0.0765,-0.13006 -0.0956,-0.26777 -0.0153,-0.13772 -0.004,-0.25248 0.0115,-0.11093 0.0306,-0.18744 0.023,-0.0803 0.0306,-0.0956 0.11476,-0.37106 0.46669,-0.6197 0.15302,-0.10329 0.34811,-0.18362 0.19509,-0.0842 0.44374,-0.14154 0.3175,-0.0765 0.66178,-0.11093 0.34428,-0.0383 0.69239,-0.0574 0.0153,-0.0727 0.0268,-0.14537 0.0115,-0.0727 0.023,-0.14918 0.004,-0.0191 0.023,-0.15302 0.0191,-0.13388 0.0727,-0.3175 -0.13771,0.0153 -0.2716,0.0229 -0.13389,0.004 -0.26777,0.004 -0.17214,0 -0.33663,-0.0115 -0.24482,-0.0191 -0.47434,-0.0612 -0.22952,-0.0459 -0.44757,-0.11476 -0.14919,-0.0459 -0.27542,-0.0994 -0.12624,-0.0574 -0.23335,-0.11094 -0.16449,-0.0765 -0.27925,-0.15301 -0.11093,-0.0803 -0.17979,-0.14537 -0.0842,-0.0765 -0.13389,-0.14918 -0.0382,-0.0612 -0.0421,-0.10711 -0.004,-0.0459 0.004,-0.0765 0.0115,-0.0383 0.0382,-0.0612 0.0459,-0.0344 0.0956,-0.0421 0.0421,-0.008 0.0918,0.0191 0.0497,0.0268 0.0918,0.11094 0.0574,0.11858 0.13772,0.24864 0.0803,0.12624 0.20274,0.20275 0.13389,0.0727 0.30985,0.14536 0.17597,0.0689 0.39401,0.12624 0.21804,0.0574 0.47434,0.0956 0.26013,0.0344 0.56615,0.0344 0.13771,0 0.28308,-0.008 0.14536,-0.0115 0.3022,-0.0306 0.023,-0.065 0.0497,-0.13388 0.0306,-0.0727 0.0612,-0.13771 0.22187,-0.44757 0.54703,-0.53938 0.008,-0.004 0.0421,-0.0115 0.0344,-0.008 0.0803,-0.008 0.0497,0 0.10328,0.0115 0.0574,0.008 0.10711,0.0383 0.0382,0.023 0.0765,0.0765 0.0421,0.0497 0.0574,0.14154 0.0191,0.13771 -0.0421,0.24865 -0.0574,0.10328 -0.17979,0.19126 -0.19127,0.13389 -0.58145,0.22952 -0.0306,0.12242 -0.0574,0.26778 -0.0268,0.14154 -0.0574,0.3175 -0.008,0.0536 -0.0191,0.10711 -0.008,0.0536 -0.0153,0.10711 0.0421,0 0.0842,0 0.0421,-0.004 0.0842,-0.004 0.14537,-0.008 0.28308,-0.0115 0.13771,-0.004 0.26012,-0.0115 0.0306,-0.004 0.0536,0.0191 0.0229,0.0191 0.0268,0.0497 0,0.0306 -0.023,0.0574 -0.0191,0.023 -0.0497,0.023 -0.24482,0.0153 -0.54702,0.0229 -0.0497,0.004 -0.0995,0.008 -0.0497,0 -0.10328,0 -0.0574,0.29073 -0.13389,0.5738 -0.0727,0.28308 -0.17979,0.53938 -0.10711,0.25247 -0.2563,0.46669 -0.14536,0.21804 -0.34045,0.37106 -0.1951,0.15683 -0.44757,0.24099 -0.25247,0.088 -0.5738,0.0803 z m -0.65413,-0.35575 q 0.11093,0.0765 0.22569,0.11858 0.11476,0.0421 0.2257,0.0536 0.11093,0.0153 0.21422,0.008 0.10328,-0.008 0.19509,-0.0306 0.21422,-0.0459 0.41696,-0.16449 0.32898,-0.23717 0.57763,-0.74594 0.22187,-0.4667 0.3634,-1.13613 -0.6044,0.0497 -1.02136,0.15684 -0.41314,0.10711 -0.68474,0.26012 -0.2716,0.14919 -0.42461,0.34046 -0.14919,0.18744 -0.22187,0.39783 -0.065,0.18362 -0.0574,0.3175 0.008,0.13772 0.0459,0.2257 0.0382,0.0918 0.0842,0.13771 0.0459,0.0497 0.0612,0.0612 z m 3.25919,-3.22476 q 0.065,-0.0459 0.0956,-0.0956 0.0344,-0.0535 0.0497,-0.0956 0.0153,-0.0497 0.0153,-0.0995 -0.0115,-0.0574 -0.0382,-0.0842 -0.023,-0.0306 -0.0536,-0.0421 -0.0344,-0.0153 -0.0688,-0.0115 -0.11094,0.004 -0.1798,0.0727 -0.0688,0.0689 -0.10328,0.12624 -0.0383,0.065 -0.0803,0.16831 -0.0421,0.0995 -0.0842,0.24865 0.14536,-0.0421 0.2563,-0.088 0.11476,-0.0459 0.19127,-0.0995 z"
           style="font-style:normal;font-variant:normal;font-weight:normal;font-stretch:normal;font-size:medium;line-height:1.25;font-family:'Tale of Hawks';-inkscape-font-specification:'Tale of Hawks';letter-spacing:0px;word-spacing:0px;fill:#4d4d4d;fill-opacity:1;stroke:none;stroke-width:0.26390105"
           id="path1073"
           inkscape:connector-curvature="0" />
        <path
           d="m 848.72163,510.97704 q 0.0153,0.008 0.0115,0.0306 -0.004,0.008 -0.0191,0.0497 -0.0153,0.0383 -0.0421,0.0995 -0.0765,0.16449 -0.17214,0.3175 -0.0803,0.13006 -0.19127,0.26013 -0.10711,0.13006 -0.22952,0.20656 -0.008,0.004 -0.0421,0.0191 -0.0306,0.0153 -0.0803,0.0268 -0.0497,0.008 -0.11094,-0.004 -0.0574,-0.0115 -0.11476,-0.0574 -0.0459,-0.0383 -0.065,-0.11093 -0.0153,-0.0765 -0.0115,-0.16832 0.008,-0.0956 0.0306,-0.20274 0.0268,-0.10711 0.0689,-0.20657 0.0268,-0.065 0.065,-0.14154 0.0421,-0.0803 0.0765,-0.14536 0.0421,-0.0765 0.0842,-0.15301 -0.0382,0.0153 -0.15301,0.10328 -0.11094,0.0842 -0.241,0.2257 -0.13006,0.13771 -0.24865,0.3175 -0.11858,0.17979 -0.16449,0.37871 0,0.0191 0.004,0.0344 0,0.0153 0,0.0268 0.004,0.0115 0.004,0.0191 0.004,0.0268 -0.008,0.0497 -0.008,0.023 -0.0383,0.0306 -0.0191,0.008 -0.0344,0.008 -0.0153,0 -0.0383,0 -0.0191,-0.004 -0.0382,-0.0191 -0.0459,-0.0306 -0.0689,-0.0727 -0.0306,-0.065 -0.0344,-0.14154 -0.008,-0.0803 0,-0.14919 0.008,-0.0803 0.023,-0.16449 0.0268,-0.11859 0.065,-0.241 0.0344,-0.12623 0.0765,-0.23717 0.0421,-0.11093 0.0803,-0.20657 0.0421,-0.0956 0.0727,-0.16448 0.065,-0.14154 0.13006,-0.26395 0.065,-0.12624 0.11858,-0.21805 0.0612,-0.10711 0.11859,-0.19509 0.10328,-0.15301 0.21039,-0.29073 0.10711,-0.13771 0.20657,-0.24482 0.10328,-0.10711 0.19509,-0.17979 0.0956,-0.0727 0.16832,-0.0995 0.0421,-0.0153 0.0842,-0.0191 0.0344,-0.004 0.0727,0.004 0.0421,0.004 0.0765,0.0268 0.0536,0.0459 0.0459,0.14536 -0.008,0.088 -0.0765,0.241 -0.0689,0.14919 -0.2563,0.40166 -0.088,0.11858 -0.17214,0.21422 -0.0803,0.0956 -0.17214,0.19126 -0.0918,0.0918 -0.20274,0.19127 -0.10711,0.0995 -0.24865,0.2257 -0.0497,0.10328 -0.11476,0.24864 -0.0612,0.14154 -0.11476,0.29073 0.0344,-0.0536 0.0727,-0.10711 0.0421,-0.0574 0.0918,-0.11476 0.0727,-0.088 0.15684,-0.17214 0.088,-0.088 0.17979,-0.16066 0.0918,-0.0727 0.18362,-0.12242 0.0918,-0.0536 0.17979,-0.0727 0.0421,-0.008 0.0842,0 0.0421,0.008 0.0842,0.0383 0.065,0.0574 0.0574,0.14153 -0.008,0.0842 -0.0344,0.14154 -0.0191,0.0306 -0.0382,0.065 -0.0153,0.0306 -0.0383,0.065 -0.0344,0.0574 -0.0995,0.16832 -0.0612,0.10711 -0.12241,0.22952 -0.0574,0.12241 -0.0995,0.24482 -0.0421,0.11858 -0.0344,0.19509 0.004,0.0268 0.0191,0.0536 0.0153,0.0268 0.0612,0.004 0.0459,-0.0229 0.0956,-0.0765 0.0536,-0.0535 0.0995,-0.1071 0.0536,-0.065 0.10711,-0.14154 0.0612,-0.0842 0.11476,-0.17214 0.0535,-0.088 0.0994,-0.16449 0.0459,-0.0765 0.0803,-0.13389 0.0383,-0.0612 0.065,-0.0918 0.004,-0.004 0.0115,-0.004 0.0191,0 0.0383,0.008 z m -0.17214,-1.73288 q -0.0115,-0.008 -0.0421,0 -0.0306,0.008 -0.0918,0.0689 -0.0612,0.0574 -0.16066,0.18744 -0.0995,0.13006 -0.24865,0.36341 -0.0421,0.0688 -0.0918,0.15683 -0.0421,0.0765 -0.10328,0.18362 -0.0612,0.10328 -0.12624,0.2257 0.30985,-0.31751 0.48964,-0.55468 0.18362,-0.23717 0.2716,-0.40931 0.0383,-0.0689 0.0574,-0.11093 0.0191,-0.0459 0.0306,-0.0689 0.0115,-0.0268 0.0153,-0.0421 z"
           style="font-style:normal;font-variant:normal;font-weight:normal;font-stretch:normal;font-size:medium;line-height:1.25;font-family:'Tale of Hawks';-inkscape-font-specification:'Tale of Hawks';letter-spacing:0px;word-spacing:0px;fill:#4d4d4d;fill-opacity:1;stroke:none;stroke-width:0.26390105"
           id="path1075"
           inkscape:connector-curvature="0" />
        <path
           d="m 849.52226,510.71309 q 0,-0.0153 -0.0153,-0.023 -0.008,-0.004 -0.0153,-0.004 -0.0191,0 -0.0803,0.0459 -0.0612,0.0421 -0.14154,0.11858 -0.0803,0.0765 -0.17214,0.17979 -0.088,0.10329 -0.16831,0.2257 -0.0765,0.11858 -0.13006,0.24865 -0.0536,0.13006 -0.065,0.26012 0,0.0115 0.004,0.0268 0,0.0191 0.008,0.0574 0.008,0.0306 0.004,0.0688 0,0.0344 -0.0383,0.0497 -0.0574,0.0229 -0.11094,0 -0.0536,-0.0268 -0.0765,-0.065 -0.0574,-0.10328 -0.0535,-0.23335 0,-0.13388 0.023,-0.24864 0.0421,-0.20657 0.11859,-0.39784 0.0803,-0.19126 0.18361,-0.37488 0.023,-0.0383 0.0536,-0.0803 0.0344,-0.0459 0.0765,-0.0803 0.0421,-0.0344 0.088,-0.0497 0.0459,-0.0153 0.0995,0.004 0.0497,0.0191 0.0612,0.065 0.0115,0.0421 0,0.0918 -0.008,0.0459 -0.0344,0.0956 -0.023,0.0459 -0.0383,0.0765 -0.0918,0.14919 -0.17597,0.31368 0.0612,-0.0918 0.13389,-0.18362 0.0727,-0.0956 0.14536,-0.17214 0.0765,-0.0765 0.15302,-0.13006 0.0765,-0.0574 0.14919,-0.0689 0.0841,-0.0153 0.13771,0.0153 0.0535,0.0306 0.065,0.0765 0.0115,0.0344 0.004,0.0803 -0.004,0.0421 -0.0191,0.088 -0.0153,0.0459 -0.0421,0.088 -0.023,0.0421 -0.0459,0.0727 -0.0612,0.0842 -0.11858,0.13389 -0.0497,0.0459 -0.10329,0.0688 -0.0535,0.023 -0.0956,-0.0191 -0.0574,-0.0497 -0.0306,-0.11094 0.0306,-0.065 0.088,-0.12623 0.0574,-0.0612 0.11476,-0.11094 0.0612,-0.0497 0.0612,-0.0727 z"
           style="font-style:normal;font-variant:normal;font-weight:normal;font-stretch:normal;font-size:medium;line-height:1.25;font-family:'Tale of Hawks';-inkscape-font-specification:'Tale of Hawks';letter-spacing:0px;word-spacing:0px;fill:#4d4d4d;fill-opacity:1;stroke:none;stroke-width:0.26390105"
           id="path1077"
           inkscape:connector-curvature="0" />
        <path
           d="m 850.57446,510.97704 q 0.0191,0.008 0.008,0.0459 -0.008,0.0115 -0.0344,0.0765 -0.0268,0.065 -0.0765,0.16449 -0.0268,0.0536 -0.0574,0.11093 -0.0268,0.0536 -0.0612,0.11859 -0.0344,0.065 -0.0765,0.13389 -0.0382,0.065 -0.0842,0.13388 -0.0459,0.0689 -0.0995,0.13772 -0.0459,0.0612 -0.11093,0.13006 -0.0612,0.0688 -0.13771,0.12241 -0.0497,0.0382 -0.0956,0.0535 -0.0421,0.0153 -0.0727,0.0191 -0.0421,0.008 -0.0727,0 -0.0574,-0.0153 -0.088,-0.0536 -0.0344,-0.0344 -0.0536,-0.0727 -0.0191,-0.0421 -0.0306,-0.0956 -0.023,-0.11476 0.008,-0.26012 0.0306,-0.14919 0.0918,-0.30221 0.0612,-0.15683 0.14154,-0.30602 0.0803,-0.15302 0.15683,-0.2716 0.0459,-0.0727 0.0918,-0.11859 0.0421,-0.0421 0.088,-0.065 0.0497,-0.0268 0.0918,0 0.0421,0.0268 0.0574,0.0689 0.0153,0.0421 0.0115,0.088 0,0.0459 -0.0191,0.0956 -0.0191,0.0497 -0.0421,0.0918 -0.12623,0.21805 -0.22187,0.40931 -0.0956,0.18745 -0.14918,0.32898 -0.0536,0.13772 -0.0574,0.22187 -0.004,0.0803 0.0535,0.0918 0.0421,0 0.10328,-0.0689 0.065,-0.065 0.13007,-0.14536 0.0727,-0.0956 0.15301,-0.21804 0.0497,-0.0727 0.0918,-0.13771 0.0421,-0.0689 0.0803,-0.13389 0.0765,-0.13006 0.13389,-0.22952 0.0574,-0.10329 0.0956,-0.15684 0.004,-0.004 0.004,-0.004 0.004,0 0.008,-0.004 0.004,0 0.008,-0.004 0.023,-0.008 0.0344,0.004 z m -0.12623,-0.86835 q 0.0574,0.0268 0.0842,0.065 0.023,0.0306 0.023,0.0803 0,0.0459 -0.0612,0.10711 -0.0803,0.0803 -0.10711,0.12624 -0.0268,0.0459 -0.0574,0.088 -0.0536,0.0612 -0.0956,0.0688 -0.023,0.004 -0.0421,-0.004 -0.065,-0.0268 -0.0765,-0.0842 -0.0115,-0.0612 0.004,-0.12241 0.0153,-0.0689 0.0612,-0.15301 0.0382,-0.065 0.0803,-0.11094 0.0382,-0.0383 0.0841,-0.0612 0.0497,-0.0268 0.10329,0 z"
           style="font-style:normal;font-variant:normal;font-weight:normal;font-stretch:normal;font-size:medium;line-height:1.25;font-family:'Tale of Hawks';-inkscape-font-specification:'Tale of Hawks';letter-spacing:0px;word-spacing:0px;fill:#4d4d4d;fill-opacity:1;stroke:none;stroke-width:0.26390105"
           id="path1079"
           inkscape:connector-curvature="0" />
        <path
           d="m 852.02893,509.1141 q 0.0421,0.0306 0.065,0.088 0.0191,0.0497 0.0191,0.13006 0,0.0803 -0.0497,0.19892 -0.0574,0.12241 -0.15684,0.22187 -0.088,0.088 -0.22952,0.16449 -0.13771,0.0727 -0.34811,0.0918 -0.0153,0.0229 -0.0306,0.0497 -0.0153,0.0268 -0.0344,0.0612 -0.0191,0.0344 -0.0421,0.0765 0.023,0 0.0459,0 0.023,0 0.0459,0.004 0.0115,0 0.0344,0.004 0.0268,0.004 0.0535,0.0153 0.0268,0.008 0.0497,0.0268 0.023,0.0191 0.0268,0.0536 0.004,0.0803 -0.0612,0.10711 -0.0612,0.0268 -0.12623,0.0191 -0.0459,-0.004 -0.0918,-0.004 -0.0459,-0.004 -0.0956,-0.008 -0.008,0.0191 -0.0191,0.0421 -0.0115,0.0191 -0.023,0.0383 0.0268,0.15301 0.0421,0.35958 0.0191,0.20657 0.0153,0.42844 0,0.22187 -0.0268,0.43608 -0.0268,0.21422 -0.088,0.38254 -0.0612,0.16831 -0.16449,0.26777 -0.0995,0.0995 -0.24865,0.0918 -0.13389,-0.008 -0.20657,-0.0765 -0.0765,-0.0688 -0.10711,-0.17596 -0.0306,-0.10329 -0.023,-0.23717 0.004,-0.13772 0.0306,-0.27543 0.0612,-0.32515 0.22952,-0.73829 0.0497,-0.13771 0.0995,-0.26012 0.0536,-0.12624 0.10329,-0.23335 -0.065,0.023 -0.12241,0.0612 -0.0574,0.0344 -0.10329,0.088 -0.0382,0.0497 -0.0459,0.11476 -0.008,0.0612 0.0382,0.11476 l 0.008,0.008 q 0.004,0.004 0.004,0.0153 -0.0115,0.0153 -0.0306,0.004 -0.088,-0.0421 -0.0995,-0.13771 -0.0153,-0.0995 0.0344,-0.18362 0.0344,-0.0574 0.0842,-0.0995 0.0497,-0.0459 0.10329,-0.0842 0.11093,-0.0727 0.23334,-0.1071 0.0268,-0.0497 0.0459,-0.088 0.0229,-0.0383 0.0382,-0.0688 0.0153,-0.0344 0.0306,-0.0574 -0.0803,0 -0.16066,-0.004 -0.0689,0 -0.15302,0 -0.0803,-0.004 -0.15301,-0.008 -0.16066,-0.004 -0.27925,0.0383 -0.11858,0.0383 -0.21039,0.0956 -0.0918,0.0574 -0.16067,0.11476 -0.0727,0.0574 -0.13006,0.088 -0.0765,0.0421 -0.12241,0.0383 -0.0459,-0.008 -0.0765,-0.0306 -0.0344,-0.0268 -0.0497,-0.0765 -0.0153,-0.0459 -0.004,-0.0842 0.008,-0.0421 0.0344,-0.0765 0.023,-0.0344 0.0612,-0.0612 0.0344,-0.0268 0.0765,-0.0459 0.0956,-0.0459 0.22187,-0.0765 0.065,-0.0115 0.16449,-0.0229 0.088,-0.008 0.22569,-0.008 0.13389,-0.004 0.33281,0.004 0.0995,0.004 0.17979,0.004 0.0842,-0.004 0.14919,-0.008 0.0727,-0.004 0.13388,-0.008 0.10329,-0.15301 0.2104,-0.29073 0.10711,-0.13771 0.21039,-0.24482 0.10329,-0.10711 0.19509,-0.17979 0.0918,-0.0727 0.16832,-0.0995 0.0383,-0.0153 0.0803,-0.0191 0.0344,-0.004 0.0727,0.004 0.0421,0.004 0.0765,0.0268 z m -1.43833,3.16355 q 0.11859,0.004 0.20657,-0.15684 0.0382,-0.0688 0.0727,-0.17979 0.0344,-0.11476 0.0574,-0.28307 0.0268,-0.17214 0.0382,-0.40931 0.0115,-0.23717 0,-0.5585 -0.0306,0.0688 -0.065,0.14154 -0.0306,0.0688 -0.0612,0.14153 -0.15684,0.34046 -0.24865,0.61588 -0.0382,0.11859 -0.0688,0.23335 -0.0268,0.11476 -0.0344,0.21039 -0.004,0.0956 0.0153,0.16067 0.023,0.065 0.088,0.0842 z m 1.24706,-2.61653 q 0.0803,-0.0956 0.11094,-0.16066 0.0306,-0.065 0.0382,-0.10711 0.008,-0.0459 -0.0153,-0.0765 -0.0115,-0.008 -0.0421,-0.0115 -0.0306,-0.004 -0.0956,0.0421 -0.065,0.0459 -0.16449,0.16448 -0.0995,0.11859 -0.24865,0.35194 0.0995,-0.0115 0.17597,-0.0459 0.0803,-0.0344 0.13388,-0.0689 0.0612,-0.0421 0.10711,-0.088 z"
           style="font-style:normal;font-variant:normal;font-weight:normal;font-stretch:normal;font-size:medium;line-height:1.25;font-family:'Tale of Hawks';-inkscape-font-specification:'Tale of Hawks';letter-spacing:0px;word-spacing:0px;fill:#4d4d4d;fill-opacity:1;stroke:none;stroke-width:0.26390105"
           id="path1081"
           inkscape:connector-curvature="0" />
        <path
           d="m 851.94967,510.54095 q -0.13006,0.24865 -0.22952,0.48582 -0.0421,0.0995 -0.0842,0.20657 -0.0382,0.10711 -0.0727,0.21039 -0.0306,0.0995 -0.0497,0.19509 -0.0153,0.0918 -0.0115,0.16449 0.004,0.0229 0.0153,0.0497 0.0153,0.0268 0.0574,0.0115 0.088,-0.0268 0.18362,-0.11859 0.0994,-0.0918 0.18744,-0.19127 0.0995,-0.11858 0.19891,-0.26012 0.0536,-0.0765 0.10329,-0.14919 0.0497,-0.0765 0.0918,-0.13388 0.0115,-0.0153 0.0229,-0.0268 0.0191,-0.0191 0.0344,-0.0153 0.0153,0.008 0.0268,0.0268 0.0153,0.0191 -0.004,0.0574 -0.0306,0.0612 -0.0689,0.12623 -0.0306,0.0536 -0.0727,0.12241 -0.0382,0.065 -0.0765,0.12624 -0.0994,0.13389 -0.20274,0.24865 -0.0918,0.0994 -0.20657,0.18744 -0.11093,0.088 -0.22952,0.11476 -0.0535,0.0115 -0.12623,0.008 -0.0689,-0.004 -0.13389,-0.0612 -0.0459,-0.0383 -0.0574,-0.11476 -0.0115,-0.0803 -0.008,-0.16066 0.004,-0.0956 0.0268,-0.19892 0.0229,-0.11093 0.0574,-0.21804 0.0306,-0.11094 0.0688,-0.21422 0.0459,-0.13771 0.10329,-0.27925 0.0574,-0.14154 0.11858,-0.27543 0.065,-0.13388 0.13006,-0.25629 0.0689,-0.12624 0.13007,-0.23717 -0.0765,0 -0.14537,0 -0.065,0 -0.12623,-0.004 -0.0497,0 -0.0803,0.004 -0.0306,0.004 -0.0459,0.004 -0.11476,0.0229 -0.18744,0.0612 -0.0765,0.0383 -0.16066,0.0459 -0.0344,0.004 -0.0497,-0.008 -0.0153,-0.0153 -0.023,-0.0344 -0.008,-0.0191 -0.004,-0.0421 0.004,-0.0383 0.0344,-0.0612 0.0306,-0.0268 0.0688,-0.0383 0.0383,-0.0115 0.0765,-0.0153 0.0344,-0.004 0.0497,-0.004 0.0727,-0.004 0.24482,-0.008 0.17214,-0.008 0.41314,-0.0153 0.0765,-0.12623 0.13006,-0.21421 0.0574,-0.088 0.0842,-0.13007 0.0765,-0.11858 0.13388,-0.19126 0.0574,-0.0727 0.11094,-0.11859 0.0421,-0.0421 0.0842,-0.065 0.0383,-0.0191 0.0803,-0.0229 0.0421,-0.008 0.0803,0.0229 0.0306,0.0268 0.0344,0.0727 0.004,0.0421 -0.0153,0.0995 -0.0153,0.0574 -0.0497,0.12241 -0.0344,0.0612 -0.0765,0.12241 -0.0306,0.0459 -0.065,0.0956 -0.0306,0.0421 -0.065,0.0956 -0.0344,0.0497 -0.065,0.10328 0.20657,-0.004 0.42078,0 0.21805,0 0.42844,0.008 0.088,0.004 0.17597,0.008 0.088,0.004 0.17214,0.0115 0.0459,0.004 0.0956,0.008 0.0421,0.004 0.0918,0.008 0.0535,0 0.10328,0.008 0.0421,0.008 0.0918,0.0153 0.0536,0.008 0.0956,0.023 0.0421,0.0153 0.0727,0.0383 0.0306,0.0191 0.0306,0.0497 0,0.0268 -0.008,0.0459 -0.008,0.0191 -0.023,0.0306 -0.0153,0.0115 -0.0497,0.008 -0.0459,0 -0.0918,-0.0153 -0.0421,-0.0191 -0.0918,-0.0383 -0.0497,-0.0191 -0.11093,-0.0383 -0.0574,-0.0191 -0.13007,-0.0268 -0.0268,0 -0.0535,0 -0.023,-0.004 -0.0497,-0.004 -0.17214,-0.008 -0.38253,-0.008 -0.2104,-0.004 -0.43992,-0.004 -0.10711,-0.004 -0.21422,-0.004 -0.10711,0 -0.21039,0 -0.0497,0.088 -0.0995,0.18361 -0.0459,0.0842 -0.10328,0.18744 -0.0536,0.0995 -0.11094,0.19892 z"
           style="font-style:normal;font-variant:normal;font-weight:normal;font-stretch:normal;font-size:medium;line-height:1.25;font-family:'Tale of Hawks';-inkscape-font-specification:'Tale of Hawks';letter-spacing:0px;word-spacing:0px;fill:#4d4d4d;fill-opacity:1;stroke:none;stroke-width:0.26390105"
           id="path1083"
           inkscape:connector-curvature="0" />
      </g>
    </g>
    <path
       inkscape:connector-curvature="0"
       id="path1101"
       d="m 1016.8728,418.2503 a 4.3026342,4.3026342 0 0 1 1.8612,3.08978 4.3026342,4.3026342 0 0 1 -3.5592,-0.58501 4.3026342,4.3026342 0 0 1 -1.8571,-3.08691 4.3026342,4.3026342 0 0 1 3.5551,0.58214 z"
       style="opacity:1;fill:#ff0000;fill-opacity:1;fill-rule:nonzero;stroke:none;stroke-width:0.40000004;stroke-linecap:butt;stroke-linejoin:miter;stroke-miterlimit:4;stroke-dasharray:none;stroke-opacity:1;paint-order:normal" />
    <g
       id="g5250"
       transform="translate(0.10059185)">
      <path
         inkscape:connector-curvature="0"
         id="path1091"
         d="m 997.04979,450.09037 c -0.85105,0.45508 -1.44759,1.28539 -1.59886,2.22109 -0.15041,0.94114 0.16567,1.85034 0.80892,2.51818 0.73494,-0.4914 1.2313,-1.25824 1.38638,-2.15242 0.15239,-0.88843 -0.0469,-1.84444 -0.59644,-2.58685 z m 2.71964,3.25423 c -0.17311,2.3e-4 -0.34835,0.0161 -0.52437,0.0485 -0.93398,0.17396 -1.75364,0.79672 -2.18428,1.67095 0.75952,0.52147 1.72494,0.68814 2.60468,0.51486 0.88754,-0.1765 1.64064,-0.68503 2.11674,-1.43191 -0.5534,-0.5108 -1.2627,-0.80342 -2.01277,-0.80247 z m -5.91469,0.16316 c -0.78126,0.57002 -1.25597,1.47995 -1.2699,2.4271 -0.0123,0.95318 0.43734,1.79951 1.17353,2.35958 0.64535,-0.59135 1.01862,-1.41366 1.04377,-2.3148 0.0234,-0.89482 -0.30353,-1.81286 -0.9474,-2.47188 z m 3.48302,2.77807 c -0.28442,0.005 -0.57169,0.0539 -0.85482,0.1491 -0.90063,0.30477 -1.62359,1.04549 -1.91947,1.97714 0.8262,0.39807 1.80377,0.41682 2.64377,0.12254 0.84781,-0.29876 1.51948,-0.89851 1.89025,-1.69711 -0.52245,-0.36666 -1.13404,-0.56358 -1.75973,-0.55167 z m -6.15183,1.07488 c -0.68581,0.68665 -1.01435,1.66617 -0.87302,2.60657 0.0295,0.19422 0.0784,0.38357 0.14606,0.56533 0.25819,0.69209 0.76742,1.23161 1.41332,1.56508 0.18068,-0.23405 0.32752,-0.48948 0.43709,-0.76109 0.21015,-0.52641 0.27835,-1.10591 0.19843,-1.68764 -0.1229,-0.88258 -0.58664,-1.73822 -1.32188,-2.28825 z m 4.33975,2.17214 c -0.4494,-0.003 -0.90109,0.10094 -1.32454,0.32402 v 3.8e-4 c -0.8407,0.44487 -1.43865,1.30008 -1.57533,2.27535 0.88355,0.24958 1.85163,0.0986 2.62632,-0.32554 0.78217,-0.4301 1.34287,-1.11892 1.58442,-1.95512 -0.41429,-0.20589 -0.86148,-0.31608 -1.31087,-0.31909 z m -6.3552,2.08945 c -0.55888,0.80211 -0.70637,1.82845 -0.39914,2.72911 0.31074,0.90556 1.02675,1.54773 1.91226,1.82158 0.40361,-0.77605 0.47192,-1.67003 0.19387,-2.52462 -0.277,-0.84611 -0.88633,-1.61154 -1.70699,-2.02607 z m 4.97982,1.41102 c -0.1948,0.007 -0.38972,0.0328 -0.58202,0.0804 -0.37832,0.0937 -0.73532,0.26717 -1.05023,0.51526 -0.75138,0.59415 -1.18155,1.5521 -1.13329,2.53675 0.91509,0.0818 1.83861,-0.24654 2.52423,-0.80587 0.54892,-0.44952 0.93315,-1.03395 1.11169,-1.68915 0.0447,-0.16664 0.0762,-0.33706 0.0941,-0.51032 -0.31484,-0.0936 -0.63979,-0.13791 -0.96446,-0.12711 z m -6.21026,3.14612 c -0.40964,0.88606 -0.37704,1.921 0.0816,2.75492 0.4629,0.83814 1.27893,1.34739 2.19869,1.46455 0.26396,-0.8345 0.17713,-1.72841 -0.24549,-2.52275 -0.4202,-0.78633 -1.15388,-1.4325 -2.03479,-1.69672 z m 5.73827,0.51941 c -0.80045,0.006 -1.56618,0.32203 -2.12206,0.95575 -0.62972,0.72048 -0.87932,1.73821 -0.65411,2.69763 0.91509,-0.0846 1.76473,-0.57379 2.33757,-1.24941 0.57777,-0.68401 0.85315,-1.52478 0.7831,-2.38728 -0.11525,-0.0119 -0.23016,-0.0175 -0.3445,-0.0167 z m -0.0812,3.71865 c -0.92429,0.073 -1.76328,0.542 -2.25789,1.36854 -0.4217,0.70763 -0.53021,1.5879 -0.28987,2.40739 0.0364,0.1243 0.0805,0.24617 0.13204,0.36424 0.39061,-0.10916 0.75767,-0.29518 1.0836,-0.53688 0.4075,-0.30239 0.74586,-0.68714 0.99104,-1.11282 0.44534,-0.77653 0.56568,-1.65346 0.34108,-2.49047 z m -6.07896,0.46097 c -0.24689,0.92902 -0.0461,1.9282 0.53116,2.66842 0.008,0.0107 0.0169,0.0216 0.0254,0.0322 0.60077,0.74413 1.49196,1.10637 2.41763,1.06463 0.0601,-0.44647 0.0265,-0.89555 -0.099,-1.32568 -0.11733,-0.40029 -0.31323,-0.77961 -0.57785,-1.1189 -0.54964,-0.70205 -1.38371,-1.21225 -2.29734,-1.32074 z m 6.32672,3.2588 c -0.89628,0.23826 -1.63721,0.85101 -1.97978,1.75024 h 3.8e-4 c -0.33871,0.89396 -0.22252,1.93143 0.31568,2.7534 0.83432,-0.39265 1.46668,-1.14324 1.77033,-1.98054 0.30504,-0.84604 0.26602,-1.7371 -0.10661,-2.5231 z m -5.93251,1.4395 c -0.0868,0.96921 0.28954,1.92903 0.99747,2.56142 0.71308,0.63473 1.65134,0.84936 2.55877,0.65941 -0.0252,-0.87916 -0.40573,-1.69849 -1.06995,-2.3072 -0.65962,-0.60232 -1.56781,-0.9625 -2.48629,-0.91363 z m 6.83059,2.20326 c -0.84569,0.38549 -1.47519,1.11531 -1.66487,2.05909 -0.18678,0.93827 0.0985,1.94168 0.76452,2.66423 0.75876,-0.52354 1.26057,-1.3675 1.42318,-2.24461 0.16258,-0.88614 -0.0226,-1.76208 -0.52283,-2.47871 z m -4.99157,2.28065 c -0.22762,1.2e-4 -0.45583,0.0236 -0.68069,0.0725 0.0686,0.96922 0.59123,1.85624 1.38979,2.36945 0.80395,0.51464 1.76418,0.58074 2.63126,0.25194 -0.16188,-0.86586 -0.66662,-1.61755 -1.41977,-2.11486 -0.56088,-0.36886 -1.23777,-0.57932 -1.92059,-0.57899 z m 6.4785,1.17467 c -0.77155,0.51865 -1.27365,1.34189 -1.30595,2.30304 -0.0304,0.95533 0.41641,1.89722 1.19249,2.49922 0.65966,-0.64017 1.01459,-1.55411 1.03162,-2.44382 0.0156,-0.89888 -0.3081,-1.73243 -0.91816,-2.35844 z m -3.9592,2.99699 c -0.4529,-0.0196 -0.91122,0.0486 -1.34048,0.21512 0.10922,0.47338 0.33008,0.91803 0.64236,1.29267 0.30049,0.36156 0.67629,0.64623 1.09612,0.83205 v -3.6e-4 c 0.87423,0.38506 1.83409,0.30242 2.64074,-0.15708 -0.29192,-0.82557 -0.90186,-1.4881 -1.71724,-1.86445 -0.005,-0.002 -0.009,-0.005 -0.0136,-0.006 -0.4074,-0.18527 -0.85494,-0.29267 -1.30784,-0.31226 z m 5.98525,0.16353 c -0.67367,0.6376 -1.03231,1.53044 -0.90261,2.48176 0.1306,0.94507 0.73188,1.7981 1.60036,2.25827 0.53718,-0.7427 0.72771,-1.70254 0.59492,-2.57774 -0.13585,-0.88436 -0.59059,-1.64809 -1.29267,-2.16229 z m 2.51627,2.75797 c -0.552,0.74225 -0.751,1.68101 -0.4545,2.59518 0.2961,0.90739 1.0434,1.64446 1.9866,1.94148 0.3915,-0.83141 0.4014,-1.81294 0.1146,-2.6468 -0.2917,-0.84275 -0.8706,-1.50851 -1.6467,-1.88986 z m -5.70676,0.82636 c -0.5658,0.01 -1.13279,0.15411 -1.6311,0.44315 0.36347,0.90273 1.13626,1.58808 2.0568,1.82915 0.92672,0.24093 1.85762,0.002 2.57622,-0.5839 -0.422,-0.76632 -1.13059,-1.32221 -1.99989,-1.56281 -0.32347,-0.0889 -0.66254,-0.13142 -1.00203,-0.12559 z m 3.69133,3.20454 c -0.78391,5e-5 -1.58399,0.25722 -2.20364,0.77096 0.51105,0.83112 1.3935,1.37796 2.34325,1.45544 0.95662,0.0763 1.82752,-0.32789 2.42822,-1.03543 -0.5505,-0.67212 -1.34015,-1.08889 -2.23356,-1.17504 -0.11077,-0.0105 -0.22228,-0.0159 -0.33427,-0.0159 z"
         style="fill:#4d4d4d;fill-opacity:1;stroke:none;stroke-width:0.26458332px;stroke-linecap:butt;stroke-linejoin:miter;stroke-opacity:1" />
      <path
         style="fill:#4d4d4d;fill-opacity:1;stroke:none;stroke-width:0.26458332px;stroke-linecap:butt;stroke-linejoin:miter;stroke-opacity:1"
         d="m 1044.9546,449.7124 c 0.851,0.45508 1.4476,1.28539 1.5988,2.22109 0.1505,0.94114 -0.1656,1.85034 -0.8089,2.51818 -0.7349,-0.4914 -1.2313,-1.25824 -1.3864,-2.15242 -0.1523,-0.88843 0.047,-1.84444 0.5965,-2.58685 z m -2.7197,3.25423 c 0.1732,2.3e-4 0.3484,0.0161 0.5244,0.0485 0.934,0.17396 1.7537,0.79672 2.1843,1.67095 -0.7595,0.52147 -1.7249,0.68814 -2.6047,0.51486 -0.8875,-0.1765 -1.6406,-0.68503 -2.1167,-1.43191 0.5534,-0.5108 1.2627,-0.80342 2.0127,-0.80247 z m 5.9147,0.16316 c 0.7813,0.57002 1.256,1.47995 1.2699,2.4271 0.012,0.95318 -0.4373,1.79951 -1.1735,2.35958 -0.6453,-0.59135 -1.0186,-1.41366 -1.0438,-2.3148 -0.023,-0.89482 0.3036,-1.81286 0.9474,-2.47188 z m -3.483,2.77807 c 0.2844,0.005 0.5717,0.0539 0.8548,0.1491 0.9007,0.30477 1.6236,1.04549 1.9195,1.97714 -0.8262,0.39807 -1.8038,0.41682 -2.6438,0.12254 -0.8478,-0.29876 -1.5194,-0.89851 -1.8902,-1.69711 0.5224,-0.36666 1.134,-0.56358 1.7597,-0.55167 z m 6.1518,1.07488 c 0.6859,0.68665 1.0144,1.66617 0.8731,2.60657 -0.029,0.19422 -0.078,0.38357 -0.1461,0.56533 -0.2582,0.69209 -0.7674,1.23161 -1.4133,1.56508 -0.1807,-0.23405 -0.3275,-0.48948 -0.4371,-0.76109 -0.2102,-0.52641 -0.2784,-1.10591 -0.1984,-1.68764 0.1229,-0.88258 0.5866,-1.73822 1.3218,-2.28825 z m -4.3397,2.17214 c 0.4494,-0.003 0.9011,0.10094 1.3245,0.32402 v 3.8e-4 c 0.8407,0.44487 1.4387,1.30008 1.5754,2.27535 -0.8836,0.24958 -1.8517,0.0986 -2.6264,-0.32554 -0.7821,-0.4301 -1.3428,-1.11892 -1.5844,-1.95512 0.4143,-0.20589 0.8615,-0.31608 1.3109,-0.31909 z m 6.3552,2.08945 c 0.5589,0.80211 0.7064,1.82845 0.3991,2.72911 -0.3107,0.90556 -1.0267,1.54773 -1.9122,1.82158 -0.4036,-0.77605 -0.4719,-1.67003 -0.1939,-2.52462 0.277,-0.84611 0.8863,-1.61154 1.707,-2.02607 z m -4.9798,1.41102 c 0.1948,0.007 0.3897,0.0328 0.582,0.0804 0.3783,0.0937 0.7353,0.26717 1.0502,0.51526 0.7514,0.59415 1.1816,1.5521 1.1333,2.53675 -0.9151,0.0818 -1.8386,-0.24654 -2.5242,-0.80587 -0.5489,-0.44952 -0.9332,-1.03395 -1.1117,-1.68915 -0.045,-0.16664 -0.076,-0.33706 -0.094,-0.51032 0.3148,-0.0936 0.6398,-0.13791 0.9645,-0.12711 z m 6.2102,3.14612 c 0.4097,0.88606 0.3771,1.921 -0.082,2.75492 -0.4629,0.83814 -1.2789,1.34739 -2.1987,1.46455 -0.2639,-0.8345 -0.1771,-1.72841 0.2455,-2.52275 0.4202,-0.78633 1.1539,-1.4325 2.0348,-1.69672 z m -5.7382,0.51941 c 0.8004,0.006 1.5661,0.32203 2.122,0.95575 0.6297,0.72048 0.8793,1.73821 0.6541,2.69763 -0.9151,-0.0846 -1.7647,-0.57379 -2.3375,-1.24941 -0.5778,-0.68401 -0.8532,-1.52478 -0.7831,-2.38728 0.1152,-0.0119 0.2301,-0.0175 0.3445,-0.0167 z m 0.081,3.71865 c 0.9243,0.073 1.7632,0.542 2.2579,1.36854 0.4217,0.70763 0.5302,1.5879 0.2898,2.40739 -0.036,0.1243 -0.081,0.24617 -0.132,0.36424 -0.3906,-0.10916 -0.7577,-0.29518 -1.0836,-0.53688 -0.4075,-0.30239 -0.7459,-0.68714 -0.9911,-1.11282 -0.4453,-0.77653 -0.5656,-1.65346 -0.341,-2.49047 z m 6.0789,0.46097 c 0.2469,0.92902 0.046,1.9282 -0.5311,2.66842 -0.01,0.0107 -0.017,0.0216 -0.025,0.0322 -0.6008,0.74413 -1.492,1.10637 -2.4177,1.06463 -0.06,-0.44647 -0.026,-0.89555 0.099,-1.32568 0.1174,-0.40029 0.3133,-0.77961 0.5779,-1.1189 0.5496,-0.70205 1.3837,-1.21225 2.2973,-1.32074 z m -6.3267,3.2588 c 0.8963,0.23826 1.6372,0.85101 1.9798,1.75024 h -4e-4 c 0.3387,0.89396 0.2225,1.93143 -0.3157,2.7534 -0.8343,-0.39265 -1.4667,-1.14324 -1.7703,-1.98054 -0.305,-0.84604 -0.266,-1.7371 0.1066,-2.5231 z m 5.9325,1.4395 c 0.087,0.96921 -0.2895,1.92903 -0.9975,2.56142 -0.713,0.63473 -1.6513,0.84936 -2.5587,0.65941 0.025,-0.87916 0.4057,-1.69849 1.0699,-2.3072 0.6596,-0.60232 1.5678,-0.9625 2.4863,-0.91363 z m -6.8306,2.20326 c 0.8457,0.38549 1.4752,1.11531 1.6649,2.05909 0.1868,0.93827 -0.098,1.94168 -0.7645,2.66423 -0.7588,-0.52354 -1.2606,-1.3675 -1.4232,-2.24461 -0.1626,-0.88614 0.023,-1.76208 0.5228,-2.47871 z m 4.9916,2.28065 c 0.2276,1.2e-4 0.4558,0.0236 0.6807,0.0725 -0.069,0.96922 -0.5912,1.85624 -1.3898,2.36945 -0.804,0.51464 -1.7642,0.58074 -2.6313,0.25194 0.1619,-0.86586 0.6667,-1.61755 1.4198,-2.11486 0.5609,-0.36886 1.2378,-0.57932 1.9206,-0.57899 z m -6.4785,1.17467 c 0.7715,0.51865 1.2736,1.34189 1.3059,2.30304 0.03,0.95533 -0.4164,1.89722 -1.1924,2.49922 -0.6597,-0.64017 -1.0146,-1.55411 -1.0317,-2.44382 -0.016,-0.89888 0.3081,-1.73243 0.9182,-2.35844 z m 3.9592,2.99699 c 0.4529,-0.0196 0.9112,0.0486 1.3405,0.21512 -0.1092,0.47338 -0.3301,0.91803 -0.6424,1.29267 -0.3005,0.36156 -0.6763,0.64623 -1.0961,0.83205 v -3.6e-4 c -0.8742,0.38506 -1.8341,0.30242 -2.6407,-0.15708 0.2919,-0.82557 0.9018,-1.4881 1.7172,-1.86445 0,-0.002 0.01,-0.005 0.014,-0.006 0.4074,-0.18527 0.8549,-0.29267 1.3078,-0.31226 z m -5.9853,0.16353 c 0.6737,0.6376 1.0324,1.53044 0.9027,2.48176 -0.1306,0.94507 -0.7319,1.7981 -1.6004,2.25827 -0.5372,-0.7427 -0.7277,-1.70254 -0.5949,-2.57774 0.1358,-0.88436 0.5906,-1.64809 1.2926,-2.16229 z m -2.5162,2.75797 c 0.552,0.74225 0.7509,1.68101 0.4545,2.59518 -0.2961,0.90739 -1.0435,1.64446 -1.9866,1.94148 -0.3916,-0.83141 -0.4015,-1.81294 -0.1146,-2.6468 0.2917,-0.84275 0.8705,-1.50851 1.6467,-1.88986 z m 5.7067,0.82636 c 0.5658,0.01 1.1328,0.15411 1.6311,0.44315 -0.3634,0.90273 -1.1362,1.58808 -2.0568,1.82915 -0.9267,0.24093 -1.8576,0.002 -2.5762,-0.5839 0.422,-0.76632 1.1306,-1.32221 1.9999,-1.56281 0.3235,-0.0889 0.6625,-0.13142 1.002,-0.12559 z m -3.6913,3.20454 c 0.7839,5e-5 1.584,0.25722 2.2036,0.77096 -0.511,0.83112 -1.3935,1.37796 -2.3432,1.45544 -0.9566,0.0763 -1.8275,-0.32789 -2.4283,-1.03543 0.5506,-0.67212 1.3402,-1.08889 2.2336,-1.17504 0.1108,-0.0105 0.2223,-0.0159 0.3343,-0.0159 z"
         id="path5240"
         inkscape:connector-curvature="0" />
    </g>
  </g>
</svg>
