<?xml version="1.0" encoding="UTF-8" standalone="no"?>
<!-- Created with Inkscape (http://www.inkscape.org/) -->

<svg
   xmlns:dc="http://purl.org/dc/elements/1.1/"
   xmlns:cc="http://creativecommons.org/ns#"
   xmlns:rdf="http://www.w3.org/1999/02/22-rdf-syntax-ns#"
   xmlns:svg="http://www.w3.org/2000/svg"
   xmlns="http://www.w3.org/2000/svg"
   xmlns:sodipodi="http://sodipodi.sourceforge.net/DTD/sodipodi-0.dtd"
   xmlns:inkscape="http://www.inkscape.org/namespaces/inkscape"
   width="210mm"
   height="297mm"
   viewBox="0 0 210 297"
   version="1.1"
   id="svg8"
   inkscape:version="0.92.2 (5c3e80d, 2017-08-06)"
   sodipodi:docname="boat-wallpaper.svg">
  <defs
     id="defs2" />
  <sodipodi:namedview
     id="base"
     pagecolor="#ffffff"
     bordercolor="#666666"
     borderopacity="1.0"
     inkscape:pageopacity="0.0"
     inkscape:pageshadow="2"
     inkscape:zoom="0.24748737"
     inkscape:cx="-2797.895"
     inkscape:cy="-155.90719"
     inkscape:document-units="mm"
     inkscape:current-layer="layer1"
     showgrid="false"
     inkscape:object-nodes="true"
     inkscape:window-width="1660"
     inkscape:window-height="1006"
     inkscape:window-x="10"
     inkscape:window-y="34"
     inkscape:window-maximized="0" />
  <metadata
     id="metadata5">
    <rdf:RDF>
      <cc:Work
         rdf:about="">
        <dc:format>image/svg+xml</dc:format>
        <dc:type
           rdf:resource="http://purl.org/dc/dcmitype/StillImage" />
        <dc:title></dc:title>
      </cc:Work>
    </rdf:RDF>
  </metadata>
  <g
     inkscape:label="Layer 1"
     inkscape:groupmode="layer"
     id="layer1">
    <rect
       style="opacity:1;fill:#80b3ff;fill-opacity:1;stroke:none;stroke-width:108.59502411;stroke-linecap:round;stroke-linejoin:miter;stroke-miterlimit:4;stroke-dasharray:none;stroke-opacity:1;paint-order:fill markers stroke"
       id="rect815"
       width="320"
       height="480"
       x="-600.4115"
       y="-474.37924"
       transform="scale(1,-1)"
       inkscape:export-xdpi="96"
       inkscape:export-ydpi="96" />
    <path
       style="fill:#999999;fill-opacity:1;stroke:none;stroke-width:0.05290164px;stroke-linecap:butt;stroke-linejoin:miter;stroke-opacity:1"
       d="m -412.1559,252.08666 -22.14311,1.1336 -5.77096,4.59266 z"
       id="path841"
       inkscape:connector-curvature="0"
       inkscape:export-xdpi="96"
       inkscape:export-ydpi="96" />
    <path
       style="fill:#999999;stroke:none;stroke-width:0.05290164px;stroke-linecap:butt;stroke-linejoin:miter;stroke-opacity:1"
       d="m -469.7431,246.56977 32.95016,4.9123 -3.27703,6.33085 z"
       id="path837"
       inkscape:connector-curvature="0"
       inkscape:export-xdpi="96"
       inkscape:export-ydpi="96" />
    <path
       inkscape:connector-curvature="0"
       style="opacity:1;fill:#dedede;fill-opacity:1;stroke:none;stroke-width:9.99716187;stroke-linecap:round;stroke-linejoin:miter;stroke-miterlimit:4;stroke-dasharray:none;stroke-opacity:1;paint-order:fill markers stroke"
       d="m -444.37776,232.56294 -6.2208,18.2361 -8.00365,13.8622 2.7921,-0.2837 4.72424,-0.18914 6.8983,-2.26807 4.1987,-1.99523 2.605,1.42833 6.23634,3.77962 4.53562,0.47284 4.94802,-0.34882 -10.1446,-14.45803 z"
       id="path817"
       inkscape:export-xdpi="96"
       inkscape:export-ydpi="96" />
    <path
       inkscape:connector-curvature="0"
       style="opacity:1;fill:#cccccc;fill-opacity:1;stroke:none;stroke-width:9.99716187;stroke-linecap:round;stroke-linejoin:miter;stroke-miterlimit:4;stroke-dasharray:none;stroke-opacity:1;paint-order:fill markers stroke"
       d="m -444.37776,232.56294 -8.18552,18.2361 -6.53346,13.91285 3.28663,-0.33435 3.70054,-0.14831 12.03957,-6.41615 14.48647,7.72046 3.93462,-0.2775 -10.08412,-14.457 z"
       id="path825"
       inkscape:export-xdpi="96"
       inkscape:export-ydpi="96" />
    <path
       inkscape:connector-curvature="0"
       style="fill:#f2f2f2;stroke:none;stroke-width:0.17484146px;stroke-linecap:butt;stroke-linejoin:miter;stroke-opacity:1"
       d="m -444.37761,232.56298 c 0,0 2.41628,17.45129 3.85437,25.49135 l 0.45315,-0.24144 5.43957,2.89889 c 3.73202,-0.98464 7.81573,-2.04684 8.2971,-2.17186 l -5.39959,-7.74083 z"
       id="path843"
       inkscape:export-xdpi="96"
       inkscape:export-ydpi="96" />
    <path
       inkscape:connector-curvature="0"
       style="fill:#ffffff;stroke:none;stroke-width:0.05290164px;stroke-linecap:butt;stroke-linejoin:miter;stroke-opacity:1"
       d="m -469.74312,246.56984 7.03006,18.32963 1.32757,0.045 5.57538,-0.56689 3.70054,-0.14831 12.03957,-6.41615 z"
       id="path835"
       inkscape:export-xdpi="96"
       inkscape:export-ydpi="96" />
    <path
       inkscape:connector-curvature="0"
       style="fill:#ffffff;stroke:none;stroke-width:0.05290164px;stroke-linecap:butt;stroke-linejoin:miter;stroke-opacity:1"
       d="m -412.15592,252.08682 -27.91408,5.72626 14.48647,7.72046 5.68079,-0.40049 2.69026,-0.54829 z"
       id="path839"
       inkscape:export-xdpi="96"
       inkscape:export-ydpi="96" />
    <path
       inkscape:connector-curvature="0"
       style="color:#000000;font-style:normal;font-variant:normal;font-weight:normal;font-stretch:normal;font-size:medium;line-height:normal;font-family:sans-serif;font-variant-ligatures:normal;font-variant-position:normal;font-variant-caps:normal;font-variant-numeric:normal;font-variant-alternates:normal;font-feature-settings:normal;text-indent:0;text-align:start;text-decoration:none;text-decoration-line:none;text-decoration-style:solid;text-decoration-color:#000000;letter-spacing:normal;word-spacing:normal;text-transform:none;writing-mode:lr-tb;direction:ltr;text-orientation:mixed;dominant-baseline:auto;baseline-shift:baseline;text-anchor:start;white-space:normal;shape-padding:0;clip-rule:nonzero;display:inline;overflow:visible;visibility:visible;opacity:1;isolation:auto;mix-blend-mode:normal;color-interpolation:sRGB;color-interpolation-filters:linearRGB;solid-color:#000000;solid-opacity:1;vector-effect:none;fill:#0064fb;fill-opacity:1;fill-rule:nonzero;stroke:none;stroke-width:2.34063768;stroke-linecap:round;stroke-linejoin:round;stroke-miterlimit:4;stroke-dasharray:none;stroke-dashoffset:0;stroke-opacity:1;color-rendering:auto;image-rendering:auto;shape-rendering:auto;text-rendering:auto;enable-background:accumulate"
       d="m -440.03848,258.68435 a 1.2286829,1.2286829 0 0 0 -0.80201,0.33331 c -12.8561,5.58035 -21.88252,5.52433 -27.68616,4.1429 -5.86105,-1.39509 -8.36538,-4.04885 -8.36538,-4.04885 a 1.170436,1.170436 0 0 0 -0.83407,-0.36897 1.170436,1.170436 0 0 0 -0.84955,1.99419 c 0,0 3.12002,3.17896 9.50793,4.69946 6.26277,1.4907 15.73837,1.47144 28.76778,-4.10259 1.19324,1.081 4.13514,3.35656 8.90383,4.61625 6.40427,1.69174 16.15125,1.6295 29.55894,-4.92011 a 1.2291861,1.2291861 0 0 0 -1.0785,-2.20917 c -12.99419,6.34762 -22.05135,6.28681 -27.85308,4.75424 -5.80173,-1.53257 -8.29305,-4.45503 -8.29305,-4.45503 a 1.2286829,1.2286829 0 0 0 -0.97668,-0.43563 z"
       id="path882"
       inkscape:export-xdpi="96"
       inkscape:export-ydpi="96" />
    <g
       id="g1011"
       transform="matrix(0.5498302,-0.14732656,0.14732656,0.5498302,-250.38248,38.949248)"
       style="stroke:#b8d5ff;stroke-width:1.5;stroke-linecap:round;stroke-linejoin:round;stroke-miterlimit:4;stroke-dasharray:none;stroke-opacity:1"
       inkscape:export-xdpi="96"
       inkscape:export-ydpi="96">
      <path
         d="m -392.92507,202.56782 c 0.61685,1.05958 -0.0412,2.35919 -1.04342,2.8895 -1.69344,0.89605 -3.70101,-0.15383 -4.4877,-1.76216 -1.25181,-2.55924 0.336,-5.51901 2.77597,-6.63627 3.70153,-1.69491 7.9031,0.60595 9.43588,4.14729 2.23659,5.16744 -0.98327,10.94832 -5.94246,12.99277 -2.50457,1.03252 -5.32533,1.15841 -7.93419,0.45737"
         sodipodi:t0="0.54900002"
         sodipodi:argument="-10.549469"
         sodipodi:radius="13.045798"
         sodipodi:revolution="3"
         sodipodi:expansion="3.5"
         sodipodi:cy="202.88725"
         sodipodi:cx="-394.49231"
         id="path1005"
         style="fill:none;fill-rule:evenodd;stroke:#b8d5ff;stroke-width:1.5;stroke-linecap:round;stroke-linejoin:round;stroke-miterlimit:4;stroke-dasharray:none;stroke-opacity:1"
         sodipodi:type="spiral" />
      <path
         inkscape:connector-curvature="0"
         id="path1007"
         d="m -400.12098,214.65631 -33.76782,-9.04805"
         style="fill:none;stroke:#b8d5ff;stroke-width:1.5;stroke-linecap:round;stroke-linejoin:round;stroke-miterlimit:4;stroke-dasharray:none;stroke-opacity:1" />
    </g>
    <g
       transform="matrix(0.34997331,-0.09377507,0.09377507,0.34997331,-369.3502,125.92711)"
       id="g1017"
       style="stroke:#b8d5ff;stroke-width:2.75999856;stroke-linecap:round;stroke-linejoin:round;stroke-miterlimit:4;stroke-dasharray:none;stroke-opacity:1"
       inkscape:export-xdpi="96"
       inkscape:export-ydpi="96">
      <path
         sodipodi:type="spiral"
         style="fill:none;fill-rule:evenodd;stroke:#b8d5ff;stroke-width:2.75999856;stroke-linecap:round;stroke-linejoin:round;stroke-miterlimit:4;stroke-dasharray:none;stroke-opacity:1"
         id="path1013"
         sodipodi:cx="-394.49231"
         sodipodi:cy="202.88725"
         sodipodi:expansion="3.5"
         sodipodi:revolution="3"
         sodipodi:radius="13.045798"
         sodipodi:argument="-10.549469"
         sodipodi:t0="0.54900002"
         d="m -392.92507,202.56782 c 0.61685,1.05958 -0.0412,2.35919 -1.04342,2.8895 -1.69344,0.89605 -3.70101,-0.15383 -4.4877,-1.76216 -1.25181,-2.55924 0.336,-5.51901 2.77597,-6.63627 3.70153,-1.69491 7.9031,0.60595 9.43588,4.14729 2.23659,5.16744 -0.98327,10.94832 -5.94246,12.99277 -2.50457,1.03252 -5.32533,1.15841 -7.93419,0.45737" />
      <path
         style="fill:none;stroke:#b8d5ff;stroke-width:2.75999856;stroke-linecap:round;stroke-linejoin:round;stroke-miterlimit:4;stroke-dasharray:none;stroke-opacity:1"
         d="m -400.12098,214.65631 -33.76782,-9.04805"
         id="path1015"
         inkscape:connector-curvature="0" />
    </g>
    <g
       id="g1068"
       transform="translate(15.308036,5.1026786)"
       inkscape:export-xdpi="96"
       inkscape:export-ydpi="96">
      <path
         transform="rotate(-21.789084,-282.25332,294.24701)"
         d="m -371.66476,188.98312 c 0.0496,0.72462 -0.66609,1.2191 -1.3267,1.23425 -1.24292,0.0285 -2.06548,-1.20028 -2.05037,-2.34523 0.0265,-2.00819 2.01816,-3.30716 3.88373,-3.22769 3.09331,0.13176 5.05916,3.21228 4.86532,6.10593 -0.30694,4.58214 -4.89059,7.45378 -9.20198,7.07632 -0.91284,-0.0799 -1.81324,-0.2891 -2.67039,-0.61241"
         sodipodi:t0="0.56900001"
         sodipodi:argument="-16.690758"
         sodipodi:radius="10.221093"
         sodipodi:revolution="3"
         sodipodi:expansion="4.3600001"
         sodipodi:cy="188.70982"
         sodipodi:cx="-372.49551"
         id="path1021"
         style="fill:none;fill-rule:evenodd;stroke:#b8d5ff;stroke-width:1;stroke-linecap:round;stroke-linejoin:round;stroke-miterlimit:4;stroke-dasharray:none;stroke-opacity:1"
         sodipodi:type="spiral" />
      <path
         inkscape:connector-curvature="0"
         id="path1023"
         d="m -407.33054,239.74824 h -20.69339"
         style="fill:none;stroke:#b8d5ff;stroke-width:1;stroke-linecap:round;stroke-linejoin:round;stroke-miterlimit:4;stroke-dasharray:none;stroke-opacity:1" />
    </g>
  </g>
</svg>
