<?xml version="1.0" encoding="UTF-8" standalone="no"?>
<!-- Created with Inkscape (http://www.inkscape.org/) -->

<svg
   xmlns:dc="http://purl.org/dc/elements/1.1/"
   xmlns:cc="http://creativecommons.org/ns#"
   xmlns:rdf="http://www.w3.org/1999/02/22-rdf-syntax-ns#"
   xmlns:svg="http://www.w3.org/2000/svg"
   xmlns="http://www.w3.org/2000/svg"
   xmlns:sodipodi="http://sodipodi.sourceforge.net/DTD/sodipodi-0.dtd"
   xmlns:inkscape="http://www.inkscape.org/namespaces/inkscape"
   width="210mm"
   height="297mm"
   viewBox="0 0 210 297"
   version="1.1"
   id="svg8"
   inkscape:version="0.92.3 (2405546, 2018-03-11)"
   sodipodi:docname="crumbs.svg">
  <defs
     id="defs2" />
  <sodipodi:namedview
     id="base"
     pagecolor="#ffffff"
     bordercolor="#666666"
     borderopacity="1.0"
     inkscape:pageopacity="0.0"
     inkscape:pageshadow="2"
     inkscape:zoom="0.52397717"
     inkscape:cx="1504.3986"
     inkscape:cy="180.35346"
     inkscape:document-units="mm"
     inkscape:current-layer="layer1"
     showgrid="false"
     showborder="false"
     inkscape:window-width="1354"
     inkscape:window-height="723"
     inkscape:window-x="6"
     inkscape:window-y="288"
     inkscape:window-maximized="0" />
  <metadata
     id="metadata5">
    <rdf:RDF>
      <cc:Work
         rdf:about="">
        <dc:format>image/svg+xml</dc:format>
        <dc:type
           rdf:resource="http://purl.org/dc/dcmitype/StillImage" />
        <dc:title />
      </cc:Work>
    </rdf:RDF>
  </metadata>
  <g
     inkscape:label="Layer 1"
     inkscape:groupmode="layer"
     id="layer1">
    <rect
       transform="rotate(-32.419096)"
       ry="4.9322495"
       style="opacity:1;fill:#5382ff;fill-opacity:1;stroke:#5382ff;stroke-width:5;stroke-linecap:round;stroke-linejoin:round;stroke-miterlimit:4;stroke-dasharray:none;stroke-opacity:1"
       id="rect828"
       width="71.410995"
       height="71.410995"
       x="38.216064"
       y="647.45123" />
    <rect
       y="536.62659"
       x="310.85748"
       height="11.134617"
       width="11.134617"
       id="rect830"
       style="opacity:1;fill:#5382ff;fill-opacity:1;stroke:#5382ff;stroke-width:0.77961504;stroke-linecap:round;stroke-linejoin:round;stroke-miterlimit:4;stroke-dasharray:none;stroke-opacity:1"
       ry="0.76905113"
       transform="rotate(-6.7610413)" />
    <rect
       style="opacity:1;fill:#5382ff;fill-opacity:1;stroke:#000000;stroke-width:10;stroke-linecap:round;stroke-linejoin:round;stroke-miterlimit:4;stroke-dasharray:none;stroke-opacity:1"
       id="rect7"
       width="71.410995"
       height="71.410995"
       x="88.9067"
       y="190.95467" />
    <rect
       y="389.22717"
       x="200.60991"
       height="71.410995"
       width="71.410995"
       id="rect814"
       style="opacity:1;fill:#5382ff;fill-opacity:1;stroke:#5382ff;stroke-width:5;stroke-linecap:round;stroke-linejoin:round;stroke-miterlimit:4;stroke-dasharray:none;stroke-opacity:1"
       ry="4.9322495"
       transform="rotate(-32.419096)" />
    <rect
       transform="rotate(-6.7610413)"
       ry="0.76905113"
       style="opacity:1;fill:#5382ff;fill-opacity:1;stroke:#5382ff;stroke-width:0.77961504;stroke-linecap:round;stroke-linejoin:round;stroke-miterlimit:4;stroke-dasharray:none;stroke-opacity:1"
       id="rect816"
       width="11.134617"
       height="11.134617"
       x="345.42755"
       y="233.54852" />
    <rect
       y="-53.557194"
       x="409.34406"
       height="23.711897"
       width="23.711897"
       id="rect818"
       style="opacity:1;fill:#5382ff;fill-opacity:1;stroke:#5382ff;stroke-width:1.66024137;stroke-linecap:round;stroke-linejoin:round;stroke-miterlimit:4;stroke-dasharray:none;stroke-opacity:1"
       ry="1.6377449"
       transform="rotate(28.764428)" />
    <rect
       y="100.92542"
       x="439.13589"
       height="4.8903384"
       width="4.8903384"
       id="rect820"
       style="opacity:1;fill:#5382ff;fill-opacity:1;stroke:#5382ff;stroke-width:0.34240794;stroke-linecap:round;stroke-linejoin:round;stroke-miterlimit:4;stroke-dasharray:none;stroke-opacity:1"
       ry="0.33776829"
       transform="rotate(9.709362)" />
    <text
       xml:space="preserve"
       style="font-style:normal;font-weight:normal;font-size:24.5060997px;line-height:1.25;font-family:sans-serif;letter-spacing:0px;word-spacing:0px;fill:#000000;fill-opacity:1;stroke:#000000;stroke-width:1;stroke-opacity:1;stroke-miterlimit:4;stroke-dasharray:none;stroke-linejoin:round;stroke-linecap:round"
       x="379.88861"
       y="321.48935"
       id="text824"><tspan
         sodipodi:role="line"
         id="tspan822"
         x="379.88861"
         y="321.48935"
         style="font-style:normal;font-variant:normal;font-weight:normal;font-stretch:normal;font-family:karla;-inkscape-font-specification:karla;stroke-width:1;stroke:#000000;stroke-opacity:1;stroke-miterlimit:4;stroke-dasharray:none;stroke-linejoin:round;stroke-linecap:round">crumbs</tspan></text>
    <path
       style="font-style:normal;font-variant:normal;font-weight:normal;font-stretch:normal;font-size:medium;line-height:1.25;font-family:karla;-inkscape-font-specification:karla;letter-spacing:0px;word-spacing:0px;fill:#000000;fill-opacity:1;stroke:#000000;stroke-width:0.79052705;stroke-linecap:round;stroke-linejoin:round;stroke-miterlimit:4;stroke-dasharray:none;stroke-opacity:1"
       d="m 443.56892,530.35336 v 13.19291 h 1.06541 l 0.3488,-1.62729 c 0.28413,0.60701 0.67144,1.06534 1.1622,1.3753 0.5037,0.30997 1.06527,0.46506 1.6852,0.46506 1.14943,0 2.12493,-0.44569 2.92569,-1.33684 0.80073,-0.90407 1.20111,-2.07906 1.20111,-3.52555 0,-1.45939 -0.39431,-2.62831 -1.18213,-3.50655 -0.78783,-0.89114 -1.77546,-1.33686 -2.96367,-1.33686 -1.18819,0 -2.09221,0.53589 -2.71214,1.60783 v -5.30801 z"
       id="path869" />
    <path
       style="font-style:normal;font-variant:normal;font-weight:normal;font-stretch:normal;font-size:medium;line-height:1.25;font-family:karla;-inkscape-font-specification:karla;letter-spacing:0px;word-spacing:0px;fill:#000000;fill-opacity:1;stroke:#000000;stroke-width:0.79052705;stroke-linecap:round;stroke-linejoin:round;stroke-miterlimit:4;stroke-dasharray:none;stroke-opacity:1"
       d="m 399.42772,534.05354 c -1.08487,0 -2.03372,0.43262 -2.84738,1.29793 -0.81366,0.86532 -1.2206,2.0408 -1.2206,3.52604 0,1.47232 0.40694,2.65385 1.2206,3.54499 0.82656,0.89115 1.82729,1.33684 3.00257,1.33684 1.1107,0 2.00818,-0.30367 2.69267,-0.91068 0.69742,-0.61993 1.04643,-1.42722 1.04643,-2.4217 h -1.56939 c 0,0.63285 -0.18733,1.12386 -0.56188,1.47258 -0.36163,0.33577 -0.91666,0.5035 -1.66573,0.5035 -0.73618,0 -1.35613,-0.32282 -1.85982,-0.96858 -0.49077,-0.64576 -0.73652,-1.49791 -0.73652,-2.55695 0,-1.07196 0.2518,-1.91806 0.75549,-2.53799 0.51662,-0.61991 1.18845,-0.92966 2.01501,-0.92966 0.45204,0 0.86551,0.15463 1.24004,0.4646 0.37455,0.29704 0.64552,0.71705 0.81341,1.2595 l 1.54993,-0.13573 c -0.19372,-0.83949 -0.61374,-1.537 -1.2595,-2.09235 -0.64576,-0.56828 -1.51754,-0.85234 -2.61533,-0.85234 z"
       id="path867" />
    <path
       style="font-style:normal;font-variant:normal;font-weight:normal;font-stretch:normal;font-size:medium;line-height:1.25;font-family:karla;-inkscape-font-specification:karla;letter-spacing:0px;word-spacing:0px;fill:#000000;fill-opacity:1;stroke:#000000;stroke-width:0.79052705;stroke-linecap:round;stroke-linejoin:round;stroke-miterlimit:4;stroke-dasharray:none;stroke-opacity:1"
       d="m 430.03574,534.05354 c -1.47232,0 -2.51182,0.67183 -3.11883,2.01501 l -0.17417,-1.78246 h -1.31739 v 9.26018 h 1.53046 v -4.55249 c 0.0258,-1.12363 0.27765,-2.00197 0.75551,-2.6348 0.47787,-0.63283 1.10439,-0.94912 1.87929,-0.94912 0.7749,0 1.36871,0.22563 1.78199,0.67767 0.42621,0.45203 0.63923,1.12386 0.63923,2.01501 v 5.44373 h 1.51103 v -4.49461 c 0,-1.13653 0.2135,-2.02746 0.63971,-2.67322 0.43911,-0.64576 1.05253,-0.96858 1.84036,-0.96858 0.78783,0 1.38817,0.22563 1.80145,0.67767 0.42621,0.45203 0.63923,1.12386 0.63923,2.01501 v 5.44373 h 1.51103 v -5.44373 c 0,-1.25277 -0.30321,-2.24089 -0.91022,-2.96413 -0.60701,-0.72325 -1.46617,-1.08487 -2.5769,-1.08487 -1.57563,0 -2.65392,0.74285 -3.23509,2.2281 -0.24539,-0.69742 -0.63923,-1.2403 -1.18168,-1.62778 -0.54244,-0.40035 -1.21427,-0.60032 -2.01501,-0.60032 z"
       id="path865" />
    <path
       style="font-style:normal;font-variant:normal;font-weight:normal;font-stretch:normal;font-size:medium;line-height:1.25;font-family:karla;-inkscape-font-specification:karla;letter-spacing:0px;word-spacing:0px;fill:#000000;fill-opacity:1;stroke:#000000;stroke-width:0.79052705;stroke-linecap:round;stroke-linejoin:round;stroke-miterlimit:4;stroke-dasharray:none;stroke-opacity:1"
       d="m 458.02039,534.05354 c -1.11072,0 -1.99511,0.22614 -2.65377,0.67817 -0.64576,0.45201 -0.96858,1.0589 -0.96858,1.8209 0,1.20111 0.80683,2.04064 2.42122,2.51851 l 1.80192,0.60032 c 0.58117,0.155 1.00072,0.3358 1.25903,0.54245 0.25829,0.20663 0.38772,0.5103 0.38772,0.91068 0,0.38745 -0.21958,0.72337 -0.65871,1.0075 -0.43911,0.28414 -0.9946,0.42616 -1.66619,0.42616 -0.67159,0 -1.23362,-0.14202 -1.68566,-0.42616 -0.43911,-0.29706 -0.6713,-0.73622 -0.69713,-1.3174 h -1.47258 c 0.0387,0.86532 0.40035,1.57545 1.08487,2.13079 0.68449,0.54245 1.64036,0.81388 2.8673,0.81388 1.22694,0 2.18283,-0.26489 2.86733,-0.79441 0.68451,-0.54243 1.02648,-1.14277 1.02648,-1.80144 0,-0.67159 -0.21305,-1.19486 -0.63923,-1.56939 -0.41328,-0.38745 -1.01363,-0.70376 -1.80146,-0.94914 l -1.85982,-0.61979 c -0.56827,-0.16789 -0.98175,-0.36177 -1.24003,-0.58132 -0.25831,-0.23248 -0.38726,-0.50999 -0.38726,-0.83288 0,-0.33579 0.16773,-0.646 0.50352,-0.93014 0.34872,-0.28414 0.83973,-0.42616 1.47259,-0.42616 1.30443,0 2.01455,0.41953 2.13079,1.25901 h 1.49157 c -0.0258,-0.71032 -0.35521,-1.29757 -0.98807,-1.76253 -0.61991,-0.46494 -1.48515,-0.69761 -2.59585,-0.69761 z"
       id="path863" />
    <path
       style="font-style:normal;font-variant:normal;font-weight:normal;font-stretch:normal;font-size:medium;line-height:1.25;font-family:karla;-inkscape-font-specification:karla;letter-spacing:0px;word-spacing:0px;fill:#000000;fill-opacity:1;stroke:#000000;stroke-width:0.79052705;stroke-linecap:round;stroke-linejoin:round;stroke-miterlimit:4;stroke-dasharray:none;stroke-opacity:1"
       d="m 410.30807,534.11144 c -1.17528,0 -1.9952,0.64615 -2.46014,1.93765 v -1.78246 h -1.53047 v 9.27964 h 1.53047 v -4.51405 c 0.0516,-2.29891 0.80712,-3.44819 2.26651,-3.44819 0.40038,0 0.79422,0.0645 1.18168,0.1936 l 0.0774,-1.49154 c -0.33579,-0.11624 -0.69086,-0.17465 -1.06541,-0.17465 z"
       id="path861" />
    <path
       style="font-style:normal;font-variant:normal;font-weight:normal;font-stretch:normal;font-size:medium;line-height:1.25;font-family:karla;-inkscape-font-specification:karla;letter-spacing:0px;word-spacing:0px;fill:#000000;fill-opacity:1;stroke:#000000;stroke-width:0.79052705;stroke-linecap:round;stroke-linejoin:round;stroke-miterlimit:4;stroke-dasharray:none;stroke-opacity:1"
       d="m 413.44401,534.26663 v 5.88936 c 0,1.21401 0.31629,2.11149 0.94912,2.69267 0.64576,0.58118 1.49186,0.87178 2.53797,0.87178 1.42067,0 2.4471,-0.67135 3.07993,-2.01452 v 1.84035 h 1.53047 v -9.27964 h -1.53047 v 4.66876 c -0.0258,1.00738 -0.30333,1.83385 -0.83285,2.47961 -0.51662,0.64576 -1.1945,0.96907 -2.03399,0.96907 -1.44649,0 -2.16971,-0.78161 -2.16971,-2.34435 v -5.77309 z"
       id="path859" />
    <path
       style="font-style:normal;font-variant:normal;font-weight:normal;font-stretch:normal;font-size:medium;line-height:1.25;font-family:karla;-inkscape-font-specification:karla;letter-spacing:0px;word-spacing:0px;fill:#000000;fill-opacity:1;stroke:#000000;stroke-width:0.79052705;stroke-linecap:round;stroke-linejoin:round;stroke-miterlimit:4;stroke-dasharray:none;stroke-opacity:1"
       d="m 447.71473,535.40986 c 0.73617,0 1.3622,0.31629 1.87879,0.94912 0.52952,0.63283 0.79442,1.47893 0.79442,2.53797 0,1.05904 -0.2649,1.91121 -0.79442,2.55697 -0.52952,0.63284 -1.15555,0.94912 -1.87879,0.94912 -0.72325,0 -1.34321,-0.25182 -1.85983,-0.75551 -0.50369,-0.5166 -0.75551,-1.20104 -0.75551,-2.05343 v -1.51103 c 0.0258,-0.83948 0.28372,-1.49168 0.77449,-1.95662 0.49079,-0.47786 1.10467,-0.71659 1.84085,-0.71659 z"
       id="path833" />
    <circle
       style="opacity:1;fill:#5382ff;fill-opacity:1;stroke:#000000;stroke-width:1;stroke-linecap:round;stroke-linejoin:round;stroke-miterlimit:4;stroke-dasharray:none;stroke-opacity:1"
       id="path873"
       cx="396.35577"
       cy="536.12634"
       r="1.1677015"
       transform="scale(0.26458333)" />
  </g>
</svg>
