<?xml version="1.0" encoding="UTF-8" standalone="no"?>
<!-- Created with Inkscape (http://www.inkscape.org/) -->

<svg
   xmlns:dc="http://purl.org/dc/elements/1.1/"
   xmlns:cc="http://creativecommons.org/ns#"
   xmlns:rdf="http://www.w3.org/1999/02/22-rdf-syntax-ns#"
   xmlns:svg="http://www.w3.org/2000/svg"
   xmlns="http://www.w3.org/2000/svg"
   xmlns:sodipodi="http://sodipodi.sourceforge.net/DTD/sodipodi-0.dtd"
   xmlns:inkscape="http://www.inkscape.org/namespaces/inkscape"
   width="210mm"
   height="297mm"
   viewBox="0 0 210 297"
   version="1.1"
   id="svg8"
   inkscape:version="0.92.3 (2405546, 2018-03-11)"
   sodipodi:docname="crumbs.svg.2018_11_23_19_10_54.0.svg">
  <defs
     id="defs2" />
  <sodipodi:namedview
     id="base"
     pagecolor="#ffffff"
     bordercolor="#666666"
     borderopacity="1.0"
     inkscape:pageopacity="0.0"
     inkscape:pageshadow="2"
     inkscape:zoom="0.5"
     inkscape:cx="1377.3914"
     inkscape:cy="-516.55419"
     inkscape:document-units="mm"
     inkscape:current-layer="layer1"
     showgrid="false"
     showborder="false"
     inkscape:window-width="1354"
     inkscape:window-height="723"
     inkscape:window-x="6"
     inkscape:window-y="288"
     inkscape:window-maximized="0" />
  <metadata
     id="metadata5">
    <rdf:RDF>
      <cc:Work
         rdf:about="">
        <dc:format>image/svg+xml</dc:format>
        <dc:type
           rdf:resource="http://purl.org/dc/dcmitype/StillImage" />
        <dc:title />
      </cc:Work>
    </rdf:RDF>
  </metadata>
  <g
     inkscape:label="Layer 1"
     inkscape:groupmode="layer"
     id="layer1">
    <rect
       transform="rotate(-32.419096)"
       ry="4.9322495"
       style="opacity:1;fill:#5382ff;fill-opacity:1;stroke:#5382ff;stroke-width:5;stroke-linecap:round;stroke-linejoin:round;stroke-miterlimit:4;stroke-dasharray:none;stroke-opacity:1"
       id="rect1696"
       width="71.410995"
       height="71.410995"
       x="55.452507"
       y="553.52826" />
    <rect
       style="opacity:1;fill:#5382ff;fill-opacity:1;stroke:#000000;stroke-width:10;stroke-linecap:round;stroke-linejoin:round;stroke-miterlimit:4;stroke-dasharray:none;stroke-opacity:1"
       id="rect7"
       width="71.410995"
       height="71.410995"
       x="88.9067"
       y="190.95467" />
    <rect
       y="389.22717"
       x="200.60991"
       height="71.410995"
       width="71.410995"
       id="rect814"
       style="opacity:1;fill:#5382ff;fill-opacity:1;stroke:#5382ff;stroke-width:5;stroke-linecap:round;stroke-linejoin:round;stroke-miterlimit:4;stroke-dasharray:none;stroke-opacity:1"
       ry="4.9322495"
       transform="rotate(-32.419096)" />
    <rect
       transform="rotate(-6.7610413)"
       ry="0.76905113"
       style="opacity:1;fill:#5382ff;fill-opacity:1;stroke:#5382ff;stroke-width:0.77961504;stroke-linecap:round;stroke-linejoin:round;stroke-miterlimit:4;stroke-dasharray:none;stroke-opacity:1"
       id="rect816"
       width="11.134617"
       height="11.134617"
       x="345.42755"
       y="233.54852" />
    <rect
       y="-53.557194"
       x="409.34406"
       height="23.711897"
       width="23.711897"
       id="rect818"
       style="opacity:1;fill:#5382ff;fill-opacity:1;stroke:#5382ff;stroke-width:1.66024137;stroke-linecap:round;stroke-linejoin:round;stroke-miterlimit:4;stroke-dasharray:none;stroke-opacity:1"
       ry="1.6377449"
       transform="rotate(28.764428)" />
    <rect
       y="100.92542"
       x="439.13589"
       height="4.8903384"
       width="4.8903384"
       id="rect820"
       style="opacity:1;fill:#5382ff;fill-opacity:1;stroke:#5382ff;stroke-width:0.34240794;stroke-linecap:round;stroke-linejoin:round;stroke-miterlimit:4;stroke-dasharray:none;stroke-opacity:1"
       ry="0.33776829"
       transform="rotate(9.709362)" />
    <path
       style="font-style:normal;font-variant:normal;font-weight:normal;font-stretch:normal;font-size:medium;line-height:1.25;font-family:karla;-inkscape-font-specification:karla;letter-spacing:0px;word-spacing:0px;fill:#ffffff;fill-opacity:1;stroke:#ffffff;stroke-width:0.69999999;stroke-linecap:round;stroke-linejoin:round;stroke-miterlimit:4;stroke-dasharray:none;stroke-opacity:1"
       d="m 408.58265,442.9945 v 12.9796 h 1.04885 l 0.34249,-1.6016 c 0.27951,0.59717 0.6609,1.04912 1.14371,1.35407 0.49556,0.30495 1.04852,0.45696 1.65843,0.45696 1.13083,0 2.08973,-0.43828 2.87755,-1.31501 0.78778,-0.88946 1.18188,-2.04537 1.18188,-3.4685 0,-1.43579 -0.38724,-2.58585 -1.16234,-3.44987 -0.77511,-0.87672 -1.74766,-1.31501 -2.91663,-1.31501 -1.16896,0 -2.05824,0.52653 -2.66813,1.58119 v -5.22183 z m -43.42637,3.64064 c -1.06734,0 -2.00168,0.42551 -2.80217,1.27686 -0.80051,0.85128 -1.20053,2.00723 -1.20053,3.46848 0,1.44852 0.40002,2.61128 1.20053,3.48804 0.81321,0.87673 1.79754,1.31501 2.95382,1.31501 1.09274,0 1.97609,-0.2981 2.64957,-0.89528 0.68614,-0.60994 1.02925,-1.40406 1.02925,-2.38244 h -1.54391 c 0,0.62258 -0.1843,1.10498 -0.55282,1.44804 -0.35575,0.3304 -0.90188,0.49602 -1.63883,0.49602 -0.72427,0 -1.33413,-0.31762 -1.82966,-0.95296 -0.48282,-0.6353 -0.72403,-1.4745 -0.72403,-2.51643 0,-1.0546 0.24712,-1.88703 0.74265,-2.49694 0.50827,-0.60989 1.16908,-0.91481 1.98229,-0.91481 0.44471,0 0.85159,0.15291 1.22005,0.4579 0.36846,0.29224 0.63515,0.70502 0.80035,1.23868 l 1.52532,-0.13309 c -0.19059,-0.82595 -0.60432,-1.51222 -1.23963,-2.05857 -0.6353,-0.5591 -1.49226,-0.83853 -2.57225,-0.83853 z m 30.11265,0 c -1.44851,0 -2.4711,0.6608 -3.0683,1.98229 l -0.17216,-1.75428 h -1.29542 v 9.11095 h 1.50574 v -4.47917 c 0.0254,-1.10544 0.27255,-1.96923 0.74266,-2.5918 0.47014,-0.62262 1.08682,-0.9344 1.84919,-0.9344 0.76239,0 1.3467,0.22258 1.75334,0.66728 0.41931,0.44475 0.62911,1.10555 0.62911,1.98228 v 5.35581 h 1.4862 v -4.42237 c 0,-1.11818 0.20985,-1.99467 0.62916,-2.63001 0.43199,-0.63531 1.03594,-0.95299 1.81099,-0.95299 0.77511,0 1.36533,0.22258 1.77196,0.66728 0.4193,0.44475 0.6291,1.10555 0.6291,1.98228 v 5.35581 h 1.48716 v -5.35581 c 0,-1.23253 -0.29898,-2.20509 -0.89621,-2.91663 -0.59719,-0.71158 -1.44234,-1.06652 -2.53507,-1.06652 -1.55016,0 -2.61099,0.73041 -3.18278,2.19166 -0.24139,-0.68615 -0.62868,-1.22044 -1.16235,-1.60162 -0.53366,-0.39391 -1.19446,-0.59004 -1.98229,-0.59004 z m 27.53206,0 c -1.09274,0 -1.96336,0.22162 -2.6114,0.66633 -0.6353,0.44475 -0.95296,1.04273 -0.95296,1.79246 0,1.18167 0.79416,2.00718 2.38243,2.47734 l 1.77287,0.59093 c 0.57179,0.15253 0.98457,0.32998 1.23868,0.53324 0.25415,0.20332 0.38157,0.50231 0.38157,0.89622 0,0.3812 -0.21666,0.71159 -0.64865,0.99114 -0.43203,0.27958 -0.97814,0.4188 -1.63888,0.4188 -0.6607,0 -1.21366,-0.1392 -1.65841,-0.4188 -0.43193,-0.29221 -0.66041,-0.72459 -0.68585,-1.29638 h -1.44809 c 0.0382,0.85131 0.3931,1.55037 1.06651,2.09674 0.67346,0.53368 1.61367,0.80037 2.82076,0.80037 1.20714,0 2.14829,-0.26084 2.82172,-0.78179 0.67346,-0.53365 1.00971,-1.12388 1.00977,-1.7719 -6e-5,-0.66075 -0.20985,-1.17545 -0.62917,-1.54396 -0.40657,-0.3812 -0.99775,-0.69291 -1.77285,-0.93435 l -1.82963,-0.60956 c -0.5591,-0.16514 -0.96503,-0.35542 -1.21914,-0.57141 -0.2541,-0.22871 -0.38157,-0.50222 -0.38157,-0.8199 0,-0.33035 0.16568,-0.63524 0.49602,-0.91481 0.34307,-0.27956 0.82549,-0.41974 1.44811,-0.41974 1.28337,0 1.98242,0.41368 2.09672,1.23963 h 1.46763 c -0.0254,-0.69886 -0.34994,-1.27732 -0.97256,-1.73475 -0.60989,-0.45743 -1.4609,-0.68585 -2.55363,-0.68585 z m -46.94052,0.0567 c -1.15631,0 -1.96318,0.63534 -2.4206,1.90594 v -1.75333 h -1.50575 v 9.12959 h 1.50575 v -4.44101 c 0.0508,-2.26173 0.79401,-3.39215 2.22982,-3.39215 v -9.6e-4 c 0.3939,0 0.78118,0.0637 1.16238,0.19079 l 0.0764,-1.46763 c -0.33036,-0.11435 -0.67943,-0.17126 -1.04789,-0.17126 z m 3.08506,0.15253 v 5.79419 c 0,1.19441 0.31081,2.07771 0.93344,2.64955 0.63531,0.57178 1.46768,0.8571 2.4969,0.8571 1.39767,0 2.40754,-0.66079 3.03016,-1.98228 v 1.81103 h 1.5058 v -9.12959 h -1.5058 v 4.59368 c -0.0254,0.99108 -0.29799,1.80389 -0.81894,2.43919 -0.50827,0.63534 -1.17593,0.95298 -2.00183,0.95298 -1.42311,0 -2.13489,-0.76863 -2.13489,-2.30613 v -5.67972 z m 33.71613,1.12423 c 0.72428,0 1.34094,0.31177 1.84917,0.93439 0.52097,0.62258 0.78082,1.45495 0.78082,2.49689 0,1.04193 -0.25985,1.88018 -0.78082,2.51552 -0.52095,0.62258 -1.13761,0.93344 -1.84917,0.93344 -0.71159,0 -1.32138,-0.2471 -1.82965,-0.74266 -0.49555,-0.50827 -0.74355,-1.18184 -0.74355,-2.02045 v -1.48712 c 0.0254,-0.82594 0.27935,-1.46716 0.76217,-1.92458 0.48284,-0.47014 1.08679,-0.70543 1.81103,-0.70543 z"
       id="path859"
       inkscape:connector-curvature="0" />
    <rect
       y="424.74042"
       x="320.16516"
       height="15.366203"
       width="15.366203"
       id="rect1698"
       style="opacity:1;fill:#5382ff;fill-opacity:1;stroke:#5382ff;stroke-width:1.07589889;stroke-linecap:round;stroke-linejoin:round;stroke-miterlimit:4;stroke-dasharray:none;stroke-opacity:1"
       ry="1.0613204"
       transform="rotate(-7.085779)" />
  </g>
</svg>
