<?xml version="1.0" encoding="UTF-8" standalone="no"?>
<!-- Created with Inkscape (http://www.inkscape.org/) -->

<svg
   xmlns:dc="http://purl.org/dc/elements/1.1/"
   xmlns:cc="http://creativecommons.org/ns#"
   xmlns:rdf="http://www.w3.org/1999/02/22-rdf-syntax-ns#"
   xmlns:svg="http://www.w3.org/2000/svg"
   xmlns="http://www.w3.org/2000/svg"
   xmlns:sodipodi="http://sodipodi.sourceforge.net/DTD/sodipodi-0.dtd"
   xmlns:inkscape="http://www.inkscape.org/namespaces/inkscape"
   width="210mm"
   height="297mm"
   viewBox="0 0 210 297"
   version="1.1"
   id="svg8"
   inkscape:version="0.92.3 (2405546, 2018-03-11)"
   sodipodi:docname="leefle.svg">
  <defs
     id="defs2" />
  <sodipodi:namedview
     id="base"
     pagecolor="#ffffff"
     bordercolor="#666666"
     borderopacity="1.0"
     inkscape:pageopacity="0.0"
     inkscape:pageshadow="2"
     inkscape:zoom="1.0479544"
     inkscape:cx="1678.9069"
     inkscape:cy="829.08988"
     inkscape:document-units="mm"
     inkscape:current-layer="layer1"
     showgrid="false"
     showborder="false"
     inkscape:window-width="1354"
     inkscape:window-height="723"
     inkscape:window-x="6"
     inkscape:window-y="6"
     inkscape:window-maximized="0"
     showguides="false" />
  <metadata
     id="metadata5">
    <rdf:RDF>
      <cc:Work
         rdf:about="">
        <dc:format>image/svg+xml</dc:format>
        <dc:type
           rdf:resource="http://purl.org/dc/dcmitype/StillImage" />
        <dc:title />
      </cc:Work>
    </rdf:RDF>
  </metadata>
  <g
     inkscape:label="Layer 1"
     inkscape:groupmode="layer"
     id="layer1">
    <path
       style="opacity:1;fill:#00b047;fill-opacity:1;stroke:#00b047;stroke-width:7.55905522;stroke-linecap:round;stroke-linejoin:round;stroke-miterlimit:4;stroke-dasharray:none;stroke-opacity:1"
       d="m 286.09375,661.66602 c 10.46671,0 18.89258,8.42586 18.89258,18.89257 v -18.89257 z"
       id="path825"
       inkscape:export-filename="/home/nick/Desktop/leeeeeeef.png"
       inkscape:export-xdpi="96.300003"
       inkscape:export-ydpi="96.300003"
       transform="scale(0.26458333)" />
    <rect
       style="opacity:1;fill:#00b047;fill-opacity:1;stroke:#00b047;stroke-width:2;stroke-linecap:round;stroke-linejoin:round;stroke-miterlimit:4;stroke-dasharray:none;stroke-opacity:1"
       id="rect812"
       width="34.277279"
       height="34.277279"
       x="46.417149"
       y="175.06572"
       ry="5.2124033"
       inkscape:export-filename="/home/nick/Desktop/leeeeeeef.png"
       inkscape:export-xdpi="96.300003"
       inkscape:export-ydpi="96.300003" />
    <path
       style="fill:#000000;stroke-width:0.26458332"
       d="m -102.14563,217.41199 c -2.53471,-1.04235 -4.79013,-2.73845 -6.02157,-4.52828 -1.04007,-1.51169 -1.18635,-2.26907 -0.6444,-3.33638 0.56014,-1.10312 4.40527,-6.86497 5.53677,-8.29672 0.46001,-0.58209 1.76863,-2.24896 2.90804,-3.70417 2.63561,-3.36609 10.2494,-10.95154 14.033608,-13.98137 5.870427,-4.70017 11.627348,-8.21704 23.707781,-14.48292 14.875481,-7.71561 19.752148,-10.87908 25.851734,-16.7699 4.840988,-4.6753 8.511331,-9.67492 11.548692,-15.73124 1.593101,-3.17656 1.841894,-4.25951 0.388339,-1.69037 -1.912072,3.37956 -5.890133,8.26045 -9.280427,11.38664 -5.92138,5.4601 -12.222546,8.92578 -28.006744,15.40387 -8.810506,3.61598 -18.094364,8.11214 -22.225,10.76354 -3.684966,2.36533 -8.051413,5.6528 -10.980203,8.26695 l -2.38125,2.12542 -0.55951,-1.24427 c -3.49164,-7.76492 -3.80166,-16.77953 -0.86344,-25.10662 2.33112,-6.6065 6.83571,-12.95547 12.246869,-17.26126 6.312625,-5.02311 16.039325,-8.80153 31.377118,-12.1887 11.417601,-2.52144 13.282329,-2.96772 16.673978,-3.99048 4.483383,-1.35198 6.271292,-2.05616 9.90882,-3.90267 4.484127,-2.27625 9.001332,-5.92032 11.863745,-9.57058 0.711237,-0.907 0.734608,-0.91516 1.136539,-0.39687 0.225703,0.29104 1.012322,1.77932 1.748044,3.30729 3.671731,7.62555 6.085596,16.19372 6.820387,24.20937 2.304777,25.14236 -9.695223,49.52025 -29.197782,59.31502 -7.774239,3.90446 -16.154799,6.01886 -25.17144,6.35072 -8.328705,0.30654 -16.125026,-1.29037 -22.401183,-4.58839 l -1.836052,-0.96482 -1.070552,1.03228 c -3.508451,3.38303 -8.185841,10.42204 -11.894721,17.9004 -0.63124,1.27279 -1.27001,2.31134 -1.41948,2.30789 -0.14947,-0.003 -0.95799,-0.28848 -1.79671,-0.63338 z"
       id="path840"
       inkscape:connector-curvature="0" />
    <path
       style="fill:#ffffff;fill-opacity:1;stroke:#ffffff;stroke-width:0.05817081;stroke-linecap:butt;stroke-linejoin:miter;stroke-miterlimit:4;stroke-dasharray:none;stroke-opacity:1"
       d="m 54.932697,196.53266 c 0,0 -2.508097,-4.93782 1.763504,-9.13104 1.254049,-0.97972 2.625665,-2.27296 8.895907,-3.44864 0.705402,-0.0783 5.486462,-1.0581 7.17159,-3.76214 0.07838,0.19595 3.9189,5.44727 0.979725,13.20669 -1.254049,2.58648 -3.291877,6.66213 -10.424278,7.48511 0.07838,0 -3.840523,0.19594 -5.799974,-1.29324 -0.117567,0.11757 -1.841883,1.95945 -3.056742,4.6635 -0.07838,0 -1.410804,-0.31352 -2.194585,-1.56756 0.235133,-0.35271 3.135121,-5.17296 7.759423,-7.83781 0.235136,-0.0392 7.720237,-3.33106 9.718877,-6.7797 0.156756,-0.0783 1.136481,-1.84188 1.489182,-2.54729 -0.07838,0.11757 -1.371615,3.37026 -6.858077,5.76079 -5.486463,2.39053 -4.310792,1.13649 -9.444552,5.25133 z"
       id="path842"
       inkscape:connector-curvature="0"
       inkscape:export-filename="/home/nick/Desktop/leeeeeeef.png"
       inkscape:export-xdpi="96.300003"
       inkscape:export-ydpi="96.300003" />
    <text
       xml:space="preserve"
       style="font-style:normal;font-weight:normal;font-size:10.58333302px;line-height:1.25;font-family:sans-serif;letter-spacing:0px;word-spacing:0px;fill:#00b047;fill-opacity:1;stroke:#00b047;stroke-width:0.26458332;stroke-opacity:1;"
       x="88.61908"
       y="196.50642"
       id="text846"
       inkscape:export-filename="/home/nick/Desktop/leeeeeeef.png"
       inkscape:export-xdpi="96.300003"
       inkscape:export-ydpi="96.300003"><tspan
         sodipodi:role="line"
         id="tspan844"
         x="88.61908"
         y="196.50642"
         style="font-style:normal;font-variant:normal;font-weight:normal;font-stretch:normal;font-family:'Best Prices';-inkscape-font-specification:'Best Prices';stroke-width:0.26458332;fill:#00b047;fill-opacity:1;stroke:#00b047;stroke-opacity:1;">LEEFLE</tspan></text>
    <path
       id="path848"
       d="m 228.83964,175.0658 c 2.76932,0 4.99866,2.22934 4.99866,4.99866 v -4.99866 z"
       style="opacity:1;fill:#00b047;fill-opacity:1;stroke:#00b047;stroke-width:2;stroke-linecap:round;stroke-linejoin:round;stroke-miterlimit:4;stroke-dasharray:none;stroke-opacity:1"
       inkscape:connector-curvature="0"
       inkscape:export-filename="/home/nick/Desktop/leeeeeeef.png"
       inkscape:export-xdpi="96.300003"
       inkscape:export-ydpi="96.300003" />
    <path
       inkscape:connector-curvature="0"
       id="path852"
       d="m 208.0767,196.53266 c 0,0 -2.50809,-4.93782 1.76351,-9.13104 1.25405,-0.97972 2.62566,-2.27296 8.8959,-3.44864 0.70541,-0.0783 5.48647,-1.0581 7.17159,-3.76214 0.0784,0.19595 3.9189,5.44727 0.97973,13.20669 -1.25405,2.58648 -3.29188,6.66213 -10.42428,7.48511 0.0784,0 -3.84052,0.19594 -5.79997,-1.29324 -0.11757,0.11757 -1.84189,1.95945 -3.05674,4.6635 -0.0784,0 -1.41081,-0.31352 -2.19459,-1.56756 0.23513,-0.35271 3.13512,-5.17296 7.75942,-7.83781 0.23514,-0.0392 7.72024,-3.33106 9.71888,-6.7797 0.15676,-0.0783 1.13648,-1.84188 1.48918,-2.54729 -0.0784,0.11757 -1.37161,3.37026 -6.85807,5.76079 -5.48647,2.39053 -4.3108,1.13649 -9.44456,5.25133 z"
       style="fill:#00b047;fill-opacity:1;stroke:#ffffff;stroke-width:0.05817081;stroke-linecap:butt;stroke-linejoin:miter;stroke-miterlimit:4;stroke-dasharray:none;stroke-opacity:1"
       inkscape:export-filename="/home/nick/Desktop/leeeeeeef.png"
       inkscape:export-xdpi="96.300003"
       inkscape:export-ydpi="96.300003" />
    <text
       id="text856"
       y="196.50642"
       x="241.76308"
       style="font-style:normal;font-weight:normal;font-size:10.58333302px;line-height:1.25;font-family:sans-serif;letter-spacing:0px;word-spacing:0px;fill:#00b047;fill-opacity:1;stroke:#00b047;stroke-width:0.26458332;stroke-opacity:1"
       xml:space="preserve"
       inkscape:export-filename="/home/nick/Desktop/leeeeeeef.png"
       inkscape:export-xdpi="96.300003"
       inkscape:export-ydpi="96.300003"><tspan
         style="font-style:normal;font-variant:normal;font-weight:normal;font-stretch:normal;font-family:'Best Prices';-inkscape-font-specification:'Best Prices';fill:#00b047;fill-opacity:1;stroke:#00b047;stroke-width:0.26458332;stroke-opacity:1"
         y="196.50642"
         x="241.76308"
         id="tspan854"
         sodipodi:role="line">LEEFLE</tspan></text>
    <path
       style="fill:#00b047;fill-opacity:1;stroke:#ffffff;stroke-width:0.05817081;stroke-linecap:butt;stroke-linejoin:miter;stroke-miterlimit:4;stroke-dasharray:none;stroke-opacity:1"
       d="m 352.32692,196.53266 c 0,0 -2.50809,-4.93782 1.76351,-9.13104 1.25405,-0.97972 2.62566,-2.27296 8.8959,-3.44864 0.70541,-0.0783 5.48647,-1.0581 7.17159,-3.76214 0.0784,0.19595 3.9189,5.44727 0.97973,13.20669 -1.25405,2.58648 -3.29188,6.66213 -10.42428,7.48511 0.0784,0 -3.84052,0.19594 -5.79997,-1.29324 -0.11757,0.11757 -1.84189,1.95945 -3.05674,4.6635 -0.0784,0 -1.41081,-0.31352 -2.19459,-1.56756 0.23513,-0.35271 3.13512,-5.17296 7.75942,-7.83781 0.23514,-0.0392 7.72024,-3.33106 9.71888,-6.7797 0.15676,-0.0783 1.13648,-1.84188 1.48918,-2.54729 -0.0784,0.11757 -1.37161,3.37026 -6.85807,5.76079 -5.48647,2.39053 -4.3108,1.13649 -9.44456,5.25133 z"
       id="path860"
       inkscape:connector-curvature="0"
       inkscape:export-filename="/home/nick/Desktop/leeeeeeef.png"
       inkscape:export-xdpi="96.300003"
       inkscape:export-ydpi="96.300003" />
    <text
       xml:space="preserve"
       style="font-style:normal;font-weight:normal;font-size:10.58333302px;line-height:1.25;font-family:sans-serif;letter-spacing:0px;word-spacing:0px;fill:#00b047;fill-opacity:1;stroke:#00b047;stroke-width:0.26458332;stroke-opacity:1"
       x="386.01331"
       y="196.50642"
       id="text864"
       inkscape:export-filename="/home/nick/Desktop/leeeeeeef.png"
       inkscape:export-xdpi="96.300003"
       inkscape:export-ydpi="96.300003"><tspan
         sodipodi:role="line"
         id="tspan862"
         x="386.01331"
         y="196.50642"
         style="font-style:normal;font-variant:normal;font-weight:normal;font-stretch:normal;font-family:'Best Prices';-inkscape-font-specification:'Best Prices';fill:#00b047;fill-opacity:1;stroke:#00b047;stroke-width:0.26458332;stroke-opacity:1">LEEFLE</tspan></text>
    <path
       id="path866"
       d="m 75.695637,240.20461 c 2.769317,0 4.998662,2.22934 4.998662,4.99866 v -4.99866 z"
       style="opacity:1;fill:#00b047;fill-opacity:1;stroke:#00b047;stroke-width:2;stroke-linecap:round;stroke-linejoin:round;stroke-miterlimit:4;stroke-dasharray:none;stroke-opacity:1"
       inkscape:connector-curvature="0"
       inkscape:export-filename="/home/nick/Desktop/leeeeeeef.png"
       inkscape:export-xdpi="96.300003"
       inkscape:export-ydpi="96.300003" />
    <rect
       ry="18.048338"
       y="239.29483"
       x="47.228058"
       height="36.096676"
       width="117.99159"
       id="rect868"
       style="opacity:1;fill:#00b047;fill-opacity:1;stroke:#00b047;stroke-width:3.80787611;stroke-linecap:round;stroke-linejoin:round;stroke-miterlimit:4;stroke-dasharray:none;stroke-opacity:1"
       inkscape:export-filename="/home/nick/Desktop/leeeeeeef.png"
       inkscape:export-xdpi="96.300003"
       inkscape:export-ydpi="96.300003" />
    <g
       id="g920"
       inkscape:export-filename="/home/nick/Desktop/leeeeeeef.png"
       inkscape:export-xdpi="96.300003"
       inkscape:export-ydpi="96.300003">
      <g
         transform="translate(4.1021824,2.6102991e-6)"
         id="g914">
        <path
           inkscape:connector-curvature="0"
           id="path870"
           d="m 54.932697,261.67147 c 0,0 -2.508097,-4.93782 1.763504,-9.13104 1.254049,-0.97972 2.625665,-2.27296 8.895907,-3.44864 0.705402,-0.0783 5.486462,-1.0581 7.17159,-3.76214 0.07838,0.19595 3.9189,5.44727 0.979725,13.20669 -1.254049,2.58648 -3.291877,6.66213 -10.424278,7.48511 0.07838,0 -3.840523,0.19594 -5.799974,-1.29324 -0.117567,0.11757 -1.841883,1.95945 -3.056742,4.6635 -0.07838,0 -1.410804,-0.31352 -2.194585,-1.56756 0.235133,-0.35271 3.135121,-5.17296 7.759423,-7.83781 0.235136,-0.0392 7.720237,-3.33106 9.718877,-6.7797 0.156756,-0.0783 1.136481,-1.84188 1.489182,-2.54729 -0.07838,0.11757 -1.371615,3.37026 -6.858077,5.76079 -5.486463,2.39053 -4.310792,1.13649 -9.444552,5.25133 z"
           style="fill:#ffffff;fill-opacity:1;stroke:#ffffff;stroke-width:0.05817081;stroke-linecap:butt;stroke-linejoin:miter;stroke-miterlimit:4;stroke-dasharray:none;stroke-opacity:1" />
        <text
           id="text874"
           y="264.80017"
           x="87.901138"
           style="font-style:normal;font-weight:normal;font-size:18.99497795px;line-height:1.25;font-family:sans-serif;letter-spacing:0px;word-spacing:0px;fill:#ffffff;fill-opacity:1;stroke:#00b047;stroke-width:0.47487438;stroke-opacity:1"
           xml:space="preserve"><tspan
             style="font-style:normal;font-variant:normal;font-weight:normal;font-stretch:normal;font-family:'KG Inimitable Original';-inkscape-font-specification:'KG Inimitable Original';fill:#ffffff;fill-opacity:1;stroke:#00b047;stroke-width:0.47487438;stroke-opacity:1"
             y="264.80017"
             x="87.901138"
             id="tspan872"
             sodipodi:role="line">LEEFLE</tspan></text>
      </g>
    </g>
    <text
       xml:space="preserve"
       style="font-style:normal;font-weight:normal;font-size:26.67908859px;line-height:1.25;font-family:sans-serif;letter-spacing:0px;word-spacing:0px;fill:#00b047;fill-opacity:1;stroke:#00b047;stroke-width:0.66697711;stroke-opacity:1"
       x="225.91484"
       y="270.57776"
       id="text878"
       inkscape:export-filename="/home/nick/Desktop/leeeeeeef.png"
       inkscape:export-xdpi="96.300003"
       inkscape:export-ydpi="96.300003"><tspan
         sodipodi:role="line"
         id="tspan876"
         x="225.91484"
         y="270.57776"
         style="font-style:normal;font-variant:normal;font-weight:normal;font-stretch:normal;font-family:'KG Inimitable Original';-inkscape-font-specification:'KG Inimitable Original';fill:#00b047;fill-opacity:1;stroke:#00b047;stroke-width:0.66697711;stroke-opacity:1">LEEFLE</tspan></text>
    <path
       inkscape:connector-curvature="0"
       id="path882"
       d="m 321.64057,245.58937 c 0,0 -2.37712,-4.67997 1.67141,-8.65421 1.18857,-0.92855 2.48855,-2.15426 8.43136,-3.26855 0.66856,-0.0742 5.19995,-1.00285 6.79708,-3.56567 0.0743,0.18572 3.71425,5.1628 0.92856,12.51702 -1.18856,2.4514 -3.11997,6.31422 -9.87992,7.09423 0.0743,0 -3.63996,0.18571 -5.49709,-1.22571 -0.11138,0.11138 -1.74569,1.85712 -2.8971,4.41997 -0.0743,0 -1.33715,-0.29715 -2.07999,-1.4857 0.22286,-0.33429 2.9714,-4.90282 7.35422,-7.42851 0.22285,-0.0372 7.31708,-3.15711 9.21134,-6.42566 0.14857,-0.0742 1.07713,-1.74569 1.41142,-2.41426 -0.0743,0.11138 -1.3,3.19426 -6.49995,5.45995 -5.19994,2.2657 -4.08567,1.07714 -8.95134,4.9771 z"
       style="fill:#00b047;fill-opacity:1;stroke:#00b047;stroke-width:0.05497116;stroke-linecap:butt;stroke-linejoin:miter;stroke-miterlimit:4;stroke-dasharray:none;stroke-opacity:1"
       inkscape:export-filename="/home/nick/Desktop/leeeeeeef.png"
       inkscape:export-xdpi="96.300003"
       inkscape:export-ydpi="96.300003" />
    <path
       style="fill:#00b047;fill-opacity:1;stroke:#00b047;stroke-width:0.32497922;stroke-linecap:butt;stroke-linejoin:miter;stroke-miterlimit:4;stroke-dasharray:none;stroke-opacity:1"
       d="m 389.32794,306.44299 c 0,0 -14.05308,-27.66711 9.88107,-51.16207 7.02661,-5.48942 14.71184,-12.73558 49.84462,-19.32306 3.9524,-0.43866 30.74113,-5.92865 40.18306,-21.07957 0.43925,1.09795 21.95796,30.52151 5.48948,73.99828 -7.02655,14.49221 -18.44468,37.32848 -58.40824,41.93976 0.43925,0 -21.51877,1.09788 -32.49776,-7.24618 -0.65846,0.65846 -10.3202,10.97895 -17.12711,26.13004 -0.43925,0 -7.90499,-1.75668 -12.29652,-8.78317 1.31751,-1.97626 17.56636,-28.98456 43.47677,-43.91596 1.31745,-0.21992 43.25721,-18.66425 54.45572,-37.9873 0.87831,-0.43865 6.36779,-10.32019 8.34405,-14.27265 -0.43925,0.65846 -7.68536,18.88386 -38.42649,32.2782 -30.74107,13.39439 -24.15372,6.36784 -52.91865,29.42368 z"
       id="path968"
       inkscape:connector-curvature="0"
       inkscape:export-filename="/home/nick/Desktop/leeeeeeef.png"
       inkscape:export-xdpi="96.300003"
       inkscape:export-ydpi="96.300003" />
    <text
       id="text972"
       y="292.66504"
       x="392.33316"
       style="font-style:normal;font-weight:normal;font-size:26.67908859px;line-height:1.25;font-family:sans-serif;letter-spacing:0px;word-spacing:0px;fill:#00222b;fill-opacity:1;stroke:#00222b;stroke-width:0.667;stroke-opacity:1;stroke-miterlimit:4;stroke-dasharray:none;"
       xml:space="preserve"
       inkscape:export-filename="/home/nick/Desktop/leeeeeeef.png"
       inkscape:export-xdpi="96.300003"
       inkscape:export-ydpi="96.300003"><tspan
         style="font-style:normal;font-variant:normal;font-weight:normal;font-stretch:normal;font-family:'KG Inimitable Original';-inkscape-font-specification:'KG Inimitable Original';fill:#00222b;fill-opacity:1;stroke:#00222b;stroke-width:0.667;stroke-opacity:1;stroke-miterlimit:4;stroke-dasharray:none;"
         y="292.66504"
         x="392.33316"
         id="tspan970"
         sodipodi:role="line">LEEFLE</tspan></text>
    <path
       inkscape:export-ydpi="96.300003"
       inkscape:export-xdpi="96.300003"
       inkscape:export-filename="/home/nick/Desktop/leeeeeeef.png"
       id="path980"
       d="m 51.41581,209.343 c -2.769317,0 -4.998661,-2.22934 -4.998661,-4.99866 v 4.99866 z"
       style="opacity:1;fill:#00b047;fill-opacity:1;stroke:#00b047;stroke-width:2;stroke-linecap:round;stroke-linejoin:round;stroke-miterlimit:4;stroke-dasharray:none;stroke-opacity:1"
       inkscape:connector-curvature="0" />
    <path
       inkscape:export-ydpi="96.300003"
       inkscape:export-xdpi="96.300003"
       inkscape:export-filename="/home/nick/Desktop/leeeeeeef.png"
       inkscape:connector-curvature="0"
       id="path982"
       d="m 59.542484,389.87752 c 0,0 6.914597,-3.31046 5.755454,-11.51466 -0.55197,-2.13255 -0.968992,-4.70852 -6.865424,-11.2822 -0.708959,-0.6801 -5.134634,-5.78418 -4.707449,-10.17378 -0.251343,0.14906 -8.893366,2.68149 -12.202053,13.68009 -0.801623,3.89729 -1.996903,10.09057 5.143577,17.00316 -0.08627,-0.0662 4.053149,3.45068 7.45983,3.46579 0.03005,0.22786 0.372326,3.70385 -0.571386,7.69725 0.08627,0.0662 1.813552,0.84438 3.731047,0.12712 0.03872,-0.58547 0.914501,-8.32286 -1.919553,-15.14551 -0.224268,-0.24258 -5.673236,-10.16259 -4.963156,-15.63416 -0.106255,-0.21781 0.303467,-2.98042 0.510349,-4.05234 -0.01298,0.19557 -1.332755,4.85724 2.67932,12.10488 4.01213,7.24776 3.777353,4.87995 5.949444,13.72436 z"
       style="fill:#8080ff;fill-opacity:1;stroke:#8080ff;stroke-width:0.08052159;stroke-linecap:butt;stroke-linejoin:miter;stroke-miterlimit:4;stroke-dasharray:none;stroke-opacity:1" />
    <text
       xml:space="preserve"
       style="font-style:normal;font-weight:normal;font-size:10.58333302px;line-height:1.25;font-family:sans-serif;letter-spacing:0px;word-spacing:0px;fill:#00b047;fill-opacity:1;stroke:#00b047;stroke-width:0.3;stroke-linecap:round;stroke-linejoin:round;stroke-miterlimit:4;stroke-dasharray:none;stroke-opacity:1"
       x="79.416389"
       y="337.26993"
       id="text986"><tspan
         sodipodi:role="line"
         id="tspan984"
         x="79.416389"
         y="337.26993"
         style="font-style:normal;font-variant:normal;font-weight:normal;font-stretch:normal;font-family:Carlito;-inkscape-font-specification:Carlito;fill:#00b047;fill-opacity:1;stroke:#00b047;stroke-width:0.3;stroke-linecap:round;stroke-linejoin:round;stroke-miterlimit:4;stroke-dasharray:none;stroke-opacity:1">LEEFLE</tspan></text>
    <path
       inkscape:export-ydpi="96.300003"
       inkscape:export-xdpi="96.300003"
       inkscape:export-filename="/home/nick/Desktop/leeeeeeef.png"
       inkscape:connector-curvature="0"
       id="path849"
       d="m 389.90696,146.91958 c 0,0 -2.50809,-4.93782 1.76351,-9.13104 1.25405,-0.97972 2.62566,-2.27296 8.8959,-3.44864 0.70541,-0.0783 5.48647,-1.0581 7.17159,-3.76214 0.0784,0.19595 3.9189,5.44727 0.97973,13.20669 -1.25405,2.58648 -3.29188,6.66213 -10.42428,7.48511 0.0784,0 -3.84052,0.19594 -5.79997,-1.29324 -0.11757,0.11757 -1.84189,1.95945 -3.05674,4.6635 -0.0784,0 -1.41081,-0.31352 -2.19459,-1.56756 0.23513,-0.35271 3.13512,-5.17296 7.75942,-7.83781 0.23514,-0.0392 7.72024,-3.33106 9.71888,-6.7797 0.15676,-0.0783 1.13648,-1.84188 1.48918,-2.54729 -0.0784,0.11757 -1.37161,3.37026 -6.85807,5.76079 -5.48647,2.39053 -4.3108,1.13649 -9.44456,5.25133 z"
       style="fill:#00b047;fill-opacity:1;stroke:#ffffff;stroke-width:0.05817081;stroke-linecap:butt;stroke-linejoin:miter;stroke-miterlimit:4;stroke-dasharray:none;stroke-opacity:1" />
    <text
       xml:space="preserve"
       style="font-style:normal;font-weight:normal;font-size:22.27830505px;line-height:1.25;font-family:sans-serif;letter-spacing:0px;word-spacing:0px;fill:#00b047;fill-opacity:1;stroke:none;stroke-width:0.5569576"
       x="413.92313"
       y="149.54117"
       id="text853"><tspan
         sodipodi:role="line"
         id="tspan851"
         x="413.92313"
         y="149.54117"
         style="font-style:normal;font-variant:normal;font-weight:normal;font-stretch:normal;font-family:'Signatra DEMO';-inkscape-font-specification:'Signatra DEMO';fill:#00b047;fill-opacity:1;stroke-width:0.5569576">leefle</tspan></text>
    <path
       style="fill:#00b047;fill-opacity:1;stroke:#ffffff;stroke-width:0.05817081;stroke-linecap:butt;stroke-linejoin:miter;stroke-miterlimit:4;stroke-dasharray:none;stroke-opacity:1"
       d="m 389.90696,115.47517 c 0,0 -2.50809,-4.93782 1.76351,-9.13104 1.25405,-0.97972 2.62566,-2.27296 8.8959,-3.44864 0.70541,-0.0783 5.48647,-1.0581 7.17159,-3.762142 0.0784,0.19595 3.9189,5.447272 0.97973,13.206692 -1.25405,2.58648 -3.29188,6.66213 -10.42428,7.48511 0.0784,0 -3.84052,0.19594 -5.79997,-1.29324 -0.11757,0.11757 -1.84189,1.95945 -3.05674,4.6635 -0.0784,0 -1.41081,-0.31352 -2.19459,-1.56756 0.23513,-0.35271 3.13512,-5.17296 7.75942,-7.83781 0.23514,-0.0392 7.72024,-3.33106 9.71888,-6.7797 0.15676,-0.0783 1.13648,-1.84188 1.48918,-2.54729 -0.0784,0.11757 -1.37161,3.37026 -6.85807,5.76079 -5.48647,2.39053 -4.3108,1.13649 -9.44456,5.25133 z"
       id="path855"
       inkscape:connector-curvature="0"
       inkscape:export-filename="/home/nick/Desktop/leeeeeeef.png"
       inkscape:export-xdpi="96.300003"
       inkscape:export-ydpi="96.300003" />
    <path
       inkscape:connector-curvature="0"
       id="path865"
       style="font-style:normal;font-variant:normal;font-weight:normal;font-stretch:normal;font-size:medium;line-height:1.25;font-family:sunrise;-inkscape-font-specification:sunrise;letter-spacing:0px;word-spacing:0px;fill:#00b047;fill-opacity:1;stroke:none;stroke-width:0.5569576"
       d="m 415.58747,102.93272 h 0.14142 l 0.27195,0.13053 -0.14142,0.96815 v 9.12671 q 0,1.6861 0.83762,3.03499 0,1.06605 -1.52293,1.38151 h -0.14142 q -1.10956,-0.38073 -1.10956,-3.1764 v -0.41336 q 0.40249,-11.05213 1.66434,-11.05213 z" />
    <path
       inkscape:connector-curvature="0"
       id="path867"
       style="font-style:normal;font-variant:normal;font-weight:normal;font-stretch:normal;font-size:medium;line-height:1.25;font-family:sunrise;-inkscape-font-specification:sunrise;letter-spacing:0px;word-spacing:0px;fill:#00b047;fill-opacity:1;stroke:none;stroke-width:0.5569576"
       d="m 420.40646,109.11147 h 0.14142 q 1.52293,0 2.20825,2.62161 -0.68532,1.01166 -3.58977,2.20825 v 0.14142 q 0.88112,1.2401 1.9363,1.2401 0.9899,0 2.34966,-1.38152 h 0.27195 q 0.28284,0.0435 0.28284,0.28283 v 0.13054 q -1.52294,2.49108 -4.14455,2.49108 h -0.42425 q -1.42503,0 -2.20825,-2.20825 v -1.66435 q 0,-3.86171 3.1764,-3.86171 z m -1.38152,1.51205 q -0.27195,0.5439 -0.27195,1.52293 v 0.41337 q 2.34967,-0.68532 2.34967,-0.96815 -0.81586,-0.96815 -2.07772,-0.96815 z" />
    <path
       inkscape:connector-curvature="0"
       id="path869"
       style="font-style:normal;font-variant:normal;font-weight:normal;font-stretch:normal;font-size:medium;line-height:1.25;font-family:sunrise;-inkscape-font-specification:sunrise;letter-spacing:0px;word-spacing:0px;fill:#00b047;fill-opacity:1;stroke:none;stroke-width:0.5569576"
       d="m 434.60302,108.14332 h 0.41337 q 0.82673,0.087 0.82673,0.41336 v 0.41337 q 0,0.27195 -0.27195,0.27195 h -0.96815 q -1.10956,0 -1.10956,2.49108 v 0.14142 l 0.14141,0.27195 q 0.60918,-0.27195 1.9363,-0.27195 0.55478,0.20668 0.55478,0.41337 v 0.13053 q -1.28361,1.29449 -2.34966,1.52293 0.55478,4.14455 0.55478,7.19041 v 1.38152 q 0,1.47942 -1.9363,1.79488 l -0.14141,-0.27195 v -0.28283 q 0,-9.25724 -0.6962,-9.25724 0.27195,-6.3528 3.04586,-6.3528 z" />
    <path
       inkscape:connector-curvature="0"
       id="path871"
       style="font-style:normal;font-variant:normal;font-weight:normal;font-stretch:normal;font-size:medium;line-height:1.25;font-family:sunrise;-inkscape-font-specification:sunrise;letter-spacing:0px;word-spacing:0px;fill:#00b047;fill-opacity:1;stroke:none;stroke-width:0.5569576"
       d="m 438.35596,102.93272 h 0.14142 l 0.27195,0.13053 -0.14142,0.96815 v 9.12671 q 0,1.6861 0.83761,3.03499 0,1.06605 -1.52293,1.38151 h -0.14141 q -1.10957,-0.38073 -1.10957,-3.1764 v -0.41336 q 0.40249,-11.05213 1.66435,-11.05213 z" />
    <path
       inkscape:connector-curvature="0"
       id="path873"
       style="font-style:normal;font-variant:normal;font-weight:normal;font-stretch:normal;font-size:medium;line-height:1.25;font-family:sunrise;-inkscape-font-specification:sunrise;letter-spacing:0px;word-spacing:0px;fill:#00b047;fill-opacity:1;stroke:none;stroke-width:0.5569576"
       d="m 443.17495,109.11147 h 0.14141 q 1.52293,0 2.20825,2.62161 -0.68532,1.01166 -3.58976,2.20825 v 0.14142 q 0.88112,1.2401 1.9363,1.2401 0.9899,0 2.34966,-1.38152 h 0.27195 q 0.28283,0.0435 0.28283,0.28283 v 0.13054 q -1.52293,2.49108 -4.14455,2.49108 h -0.42424 q -1.42503,0 -2.20825,-2.20825 v -1.66435 q 0,-3.86171 3.1764,-3.86171 z m -1.38152,1.51205 q -0.27195,0.5439 -0.27195,1.52293 v 0.41337 q 2.34967,-0.68532 2.34967,-0.96815 -0.81586,-0.96815 -2.07772,-0.96815 z" />
    <text
       xml:space="preserve"
       style="font-style:normal;font-weight:normal;font-size:22.34214592px;line-height:1.25;font-family:sans-serif;letter-spacing:0px;word-spacing:0px;fill:#00b047;fill-opacity:1;stroke:none;stroke-width:0.55855364"
       x="424.34033"
       y="118.11281"
       id="text863"><tspan
         sodipodi:role="line"
         id="tspan861"
         x="424.34033"
         y="118.11281"
         style="font-style:normal;font-variant:normal;font-weight:normal;font-stretch:normal;font-family:sunrise;-inkscape-font-specification:sunrise;fill:#00b047;fill-opacity:1;stroke-width:0.55855364">e</tspan></text>
    <path
       style="fill:#00b047;fill-opacity:1;stroke:#ffffff;stroke-width:0.05817081;stroke-linecap:butt;stroke-linejoin:miter;stroke-miterlimit:4;stroke-dasharray:none;stroke-opacity:1"
       d="m 389.90696,80.864405 c 0,0 -2.50809,-4.93782 1.76351,-9.13104 1.25405,-0.97972 2.62566,-2.27296 8.8959,-3.44864 0.70541,-0.0783 5.48647,-1.0581 7.17159,-3.76214 0.0784,0.19595 3.9189,5.44727 0.97973,13.20669 -1.25405,2.58648 -3.29188,6.66213 -10.42428,7.48511 0.0784,0 -3.84052,0.19594 -5.79997,-1.29324 -0.11757,0.11757 -1.84189,1.95945 -3.05674,4.6635 -0.0784,0 -1.41081,-0.31352 -2.19459,-1.56756 0.23513,-0.35271 3.13512,-5.17296 7.75942,-7.83781 0.23514,-0.0392 7.72024,-3.33106 9.71888,-6.7797 0.15676,-0.0783 1.13648,-1.84188 1.48918,-2.54729 -0.0784,0.11757 -1.37161,3.37026 -6.85807,5.76079 -5.48647,2.39053 -4.3108,1.13649 -9.44456,5.25133 z"
       id="path881"
       inkscape:connector-curvature="0"
       inkscape:export-filename="/home/nick/Desktop/leeeeeeef.png"
       inkscape:export-xdpi="96.300003"
       inkscape:export-ydpi="96.300003" />
    <text
       id="text885"
       y="83.485992"
       x="412.47137"
       style="font-style:normal;font-weight:normal;font-size:22.27830505px;line-height:1.25;font-family:sans-serif;letter-spacing:0px;word-spacing:0px;fill:#00b047;fill-opacity:1;stroke:#00b047;stroke-width:0.557;stroke-opacity:1;stroke-miterlimit:4;stroke-dasharray:none;"
       xml:space="preserve"><tspan
         style="font-style:normal;font-variant:normal;font-weight:normal;font-stretch:normal;font-family:'CC Keni';-inkscape-font-specification:'CC Keni';fill:#00b047;fill-opacity:1;stroke-width:0.557;stroke:#00b047;stroke-opacity:1;stroke-miterlimit:4;stroke-dasharray:none;"
         y="83.485992"
         x="412.47137"
         id="tspan883"
         sodipodi:role="line">leefle</tspan></text>
  </g>
</svg>
