<svg width="24" height="24" viewBox="0 0 24 24" fill="none" xmlns="http://www.w3.org/2000/svg">
<path d="M18 11.6306C17.8774 12.9574 17.3795 14.2218 16.5645 15.2759C15.7495 16.33 14.6512 17.1301 13.398 17.5828C12.1448 18.0354 10.7887 18.1218 9.48822 17.8319C8.18775 17.5419 6.99677 16.8875 6.05461 15.9454C5.11246 15.0032 4.45811 13.8122 4.16814 12.5118C3.87817 11.2113 3.96456 9.85515 4.41721 8.60199C4.86986 7.34883 5.67005 6.2505 6.72413 5.43552C7.77822 4.62054 9.04262 4.12261 10.3694 4C9.5926 5.05088 9.21881 6.34566 9.31599 7.64884C9.41317 8.95202 9.97487 10.177 10.8989 11.1011C11.823 12.0251 13.048 12.5868 14.3512 12.684C15.6543 12.7812 16.9491 12.4074 18 11.6306Z" stroke="white" stroke-width="2" stroke-linecap="round" stroke-linejoin="round"/>
</svg>
