<svg width="24" height="24" viewBox="0 0 24 24" fill="none" xmlns="http://www.w3.org/2000/svg">
<g clip-path="url(#clip0)">
<path d="M8 19V21" stroke="white" stroke-width="2" stroke-linecap="round" stroke-linejoin="round"/>
<path d="M8 13V15" stroke="white" stroke-width="2" stroke-linecap="round" stroke-linejoin="round"/>
<path d="M16 19V21" stroke="white" stroke-width="2" stroke-linecap="round" stroke-linejoin="round"/>
<path d="M16 13V15" stroke="white" stroke-width="2" stroke-linecap="round" stroke-linejoin="round"/>
<path d="M12 21V23" stroke="white" stroke-width="2" stroke-linecap="round" stroke-linejoin="round"/>
<path d="M12 15V17" stroke="white" stroke-width="2" stroke-linecap="round" stroke-linejoin="round"/>
<path d="M20 16.58C21.0512 16.1196 21.9121 15.3116 22.4381 14.2915C22.964 13.2715 23.1231 12.1016 22.8886 10.9782C22.654 9.85476 22.0402 8.84622 21.15 8.12184C20.2599 7.39746 19.1476 7.00135 18 7H16.74C16.423 5.77252 15.8188 4.63795 14.9773 3.6898C14.1357 2.74166 13.0809 2.00708 11.8997 1.54662C10.7186 1.08617 9.44488 0.91302 8.18365 1.04145C6.92243 1.16987 5.70978 1.5962 4.64567 2.28529C3.58155 2.97437 2.69644 3.90649 2.06328 5.0048C1.43012 6.10311 1.06704 7.33618 1.00398 8.60235C0.940923 9.86853 1.17968 11.1316 1.70058 12.2874C2.22147 13.4431 3.00959 14.4586 3.99997 15.25" stroke="white" stroke-width="2" stroke-linecap="round" stroke-linejoin="round"/>
</g>
<defs>
<clipPath id="clip0">
<rect width="24" height="24" fill="white"/>
</clipPath>
</defs>
</svg>
