<?xml version="1.0" encoding="UTF-8" standalone="no"?>
<svg
   xmlns:dc="http://purl.org/dc/elements/1.1/"
   xmlns:cc="http://creativecommons.org/ns#"
   xmlns:rdf="http://www.w3.org/1999/02/22-rdf-syntax-ns#"
   xmlns:svg="http://www.w3.org/2000/svg"
   xmlns="http://www.w3.org/2000/svg"
   xmlns:sodipodi="http://sodipodi.sourceforge.net/DTD/sodipodi-0.dtd"
   xmlns:inkscape="http://www.inkscape.org/namespaces/inkscape"
   width="18.638605"
   height="19.937244"
   viewBox="0 0 18.638605 19.937244"
   class="feather feather-package"
   version="1.1"
   id="svg970"
   sodipodi:docname="package.svg"
   inkscape:export-filename="/home/nick/Pictures/icons/package.svg.png"
   inkscape:export-xdpi="96.300003"
   inkscape:export-ydpi="96.300003"
   style="fill:none;stroke:currentColor;stroke-width:2;stroke-linecap:round;stroke-linejoin:round"
   inkscape:version="0.92.4 (5da689c313, 2019-01-14)">
  <metadata
     id="metadata976">
    <rdf:RDF>
      <cc:Work
         rdf:about="">
        <dc:format>image/svg+xml</dc:format>
        <dc:type
           rdf:resource="http://purl.org/dc/dcmitype/StillImage" />
        <dc:title></dc:title>
      </cc:Work>
    </rdf:RDF>
  </metadata>
  <defs
     id="defs974">
    <clipPath
       id="clip0">
      <rect
         id="rect5104"
         height="24"
         width="24"
         x="0"
         y="0"
         style="fill:#ffffff" />
    </clipPath>
  </defs>
  <sodipodi:namedview
     pagecolor="#ffffff"
     bordercolor="#666666"
     borderopacity="1"
     objecttolerance="10"
     gridtolerance="10"
     guidetolerance="10"
     inkscape:pageopacity="0"
     inkscape:pageshadow="2"
     inkscape:window-width="1352"
     inkscape:window-height="721"
     id="namedview972"
     showgrid="false"
     fit-margin-top="0"
     fit-margin-left="0"
     fit-margin-right="0"
     fit-margin-bottom="0"
     inkscape:zoom="7.1397894"
     inkscape:cx="17.195442"
     inkscape:cy="6.2817173"
     inkscape:window-x="6"
     inkscape:window-y="6"
     inkscape:window-maximized="0"
     inkscape:current-layer="svg970" />
  <g
     id="g5125"
     transform="matrix(0.51615689,0,0,0.51615689,3.1254321,3.7707164)"
     style="stroke:#ffffff">
    <path
       id="path962"
       d="m 12.89,1.45 8,4 A 2,2 0 0 1 22,7.24 v 9.53 a 2,2 0 0 1 -1.11,1.79 l -8,4 a 2,2 0 0 1 -1.79,0 l -8,-4 A 2,2 0 0 1 2,16.76 V 7.24 A 2,2 0 0 1 3.11,5.45 l 8,-4 a 2,2 0 0 1 1.78,0 z"
       inkscape:connector-curvature="0"
       style="stroke:#ffffff" />
    <polyline
       id="polyline964"
       points="2.32 6.16 12 11 21.68 6.16"
       style="stroke:#ffffff" />
    <line
       id="line966"
       y2="11"
       x2="12"
       y1="22.76"
       x1="12"
       style="stroke:#ffffff" />
    <line
       id="line968"
       y2="8.5"
       x2="17"
       y1="3.5"
       x1="7"
       style="stroke:#ffffff" />
  </g>
</svg>
