<svg width="24" height="24" viewBox="0 0 24 24" fill="none" xmlns="http://www.w3.org/2000/svg">
<path d="M11 7.08062C11 6.24212 10.0301 5.77595 9.37531 6.29976L6.27391 8.78087C6.0966 8.92272 5.87629 9 5.64922 9H3C2.44772 9 2 9.44772 2 10V14C2 14.5523 2.44772 15 3 15H5.64922C5.87629 15 6.0966 15.0773 6.27391 15.2191L9.3753 17.7002C10.0301 18.2241 11 17.7579 11 16.9194V7.08062Z" stroke="white" stroke-width="2" stroke-linecap="round" stroke-linejoin="round"/>
<path d="M15.54 9.46001C16.5 10 17.0039 10.6692 17.0039 11.995C17.0039 13.3208 16.5 14 15.54 14.53" stroke="white" stroke-width="2" stroke-linecap="round" stroke-linejoin="round"/>
</svg>
