<?xml version="1.0" encoding="UTF-8" standalone="no"?>
<!-- Created with Inkscape (http://www.inkscape.org/) -->

<svg
   xmlns:dc="http://purl.org/dc/elements/1.1/"
   xmlns:cc="http://creativecommons.org/ns#"
   xmlns:rdf="http://www.w3.org/1999/02/22-rdf-syntax-ns#"
   xmlns:svg="http://www.w3.org/2000/svg"
   xmlns="http://www.w3.org/2000/svg"
   xmlns:xlink="http://www.w3.org/1999/xlink"
   xmlns:sodipodi="http://sodipodi.sourceforge.net/DTD/sodipodi-0.dtd"
   xmlns:inkscape="http://www.inkscape.org/namespaces/inkscape"
   width="793.70081"
   height="1122.5197"
   viewBox="0 0 210 297"
   version="1.1"
   id="svg8"
   inkscape:version="0.92.3 (2405546, 2018-03-11)"
   sodipodi:docname="Lochness.svg">
  <defs
     id="defs2">
    <linearGradient
       inkscape:collect="always"
       id="linearGradient2348">
      <stop
         style="stop-color:#3e3e3e;stop-opacity:1"
         offset="0"
         id="stop2344" />
      <stop
         style="stop-color:#1593fe;stop-opacity:1"
         offset="1"
         id="stop2346" />
    </linearGradient>
    <linearGradient
       inkscape:collect="always"
       xlink:href="#linearGradient2348"
       id="linearGradient2350"
       x1="31140.275"
       y1="22334.486"
       x2="31140.275"
       y2="22304.52"
       gradientUnits="userSpaceOnUse"
       gradientTransform="matrix(0.46299036,0,0,0.46072935,-4943.965,-3526.5169)" />
    <linearGradient
       inkscape:collect="always"
       xlink:href="#linearGradient2348"
       id="linearGradient2367"
       gradientUnits="userSpaceOnUse"
       x1="31140.275"
       y1="22334.486"
       x2="31140.275"
       y2="22304.52" />
  </defs>
  <sodipodi:namedview
     id="base"
     pagecolor="#e1e1e1"
     bordercolor="#666666"
     borderopacity="1.0"
     inkscape:pageopacity="0"
     inkscape:pageshadow="2"
     inkscape:zoom="0.70710678"
     inkscape:cx="34031.214"
     inkscape:cy="-20463.566"
     inkscape:document-units="px"
     inkscape:current-layer="layer1"
     showgrid="false"
     showborder="false"
     units="px"
     inkscape:window-width="1656"
     inkscape:window-height="955"
     inkscape:window-x="12"
     inkscape:window-y="48"
     inkscape:window-maximized="0"
     inkscape:measure-start="29081.4,-21019"
     inkscape:measure-end="29081.4,-21018.7"
     inkscape:object-paths="true"
     inkscape:snap-intersection-paths="false"
     inkscape:object-nodes="false"
     inkscape:snap-center="false"
     inkscape:snap-object-midpoints="false"
     inkscape:snap-bbox="true"
     inkscape:snap-bbox-midpoints="true"
     inkscape:snap-midpoints="true"
     inkscape:snap-smooth-nodes="true"
     inkscape:snap-others="false"
     showguides="false"
     inkscape:snap-global="false">
    <sodipodi:guide
       position="7724.9962,-5590.6773"
       orientation="1,0"
       id="guide1482"
       inkscape:locked="false" />
  </sodipodi:namedview>
  <metadata
     id="metadata5">
    <rdf:RDF>
      <cc:Work
         rdf:about="">
        <dc:format>image/svg+xml</dc:format>
        <dc:type
           rdf:resource="http://purl.org/dc/dcmitype/StillImage" />
        <dc:title />
      </cc:Work>
    </rdf:RDF>
  </metadata>
  <g
     inkscape:label="Layer 1"
     inkscape:groupmode="layer"
     id="layer1"
     transform="translate(0,8.3923341e-6)"
     style="display:inline">
    <rect
       style="opacity:1;fill:#0173d4;fill-opacity:1;fill-rule:nonzero;stroke:none;stroke-width:0.52916664;stroke-linecap:round;stroke-linejoin:round;stroke-miterlimit:4;stroke-dasharray:none;stroke-dashoffset:0;stroke-opacity:1;paint-order:fill markers stroke"
       id="rect9"
       width="31.366842"
       height="22.039091"
       x="7649.603"
       y="5826.2534" />
    <g
       id="g1218"
       transform="matrix(5.3780371,0,0,5.3780371,-33720.28,-25665.089)"
       style="stroke-width:0.18594144">
      <circle
         r="0.078185014"
         cy="5857.9082"
         cx="7695.189"
         id="path819"
         style="opacity:1;fill:#fffc82;fill-opacity:1;fill-rule:nonzero;stroke:none;stroke-width:0.09839401;stroke-linecap:round;stroke-linejoin:round;stroke-miterlimit:4;stroke-dasharray:none;stroke-dashoffset:0;stroke-opacity:1;paint-order:fill markers stroke" />
      <circle
         style="opacity:1;fill:#ff6868;fill-opacity:1;fill-rule:nonzero;stroke:none;stroke-width:0.09839401;stroke-linecap:round;stroke-linejoin:round;stroke-miterlimit:4;stroke-dasharray:none;stroke-dashoffset:0;stroke-opacity:1;paint-order:fill markers stroke"
         id="circle821"
         cx="7695.396"
         cy="5857.9082"
         r="0.078185014" />
      <circle
         style="opacity:1;fill:#fffc82;fill-opacity:1;fill-rule:nonzero;stroke:none;stroke-width:0.09839401;stroke-linecap:round;stroke-linejoin:round;stroke-miterlimit:4;stroke-dasharray:none;stroke-dashoffset:0;stroke-opacity:1;paint-order:fill markers stroke"
         id="circle823"
         cx="7695.6025"
         cy="5857.9082"
         r="0.078185014" />
      <circle
         r="0.078185014"
         cy="5857.9082"
         cx="7695.8091"
         id="circle825"
         style="opacity:1;fill:#ff6868;fill-opacity:1;fill-rule:nonzero;stroke:none;stroke-width:0.09839401;stroke-linecap:round;stroke-linejoin:round;stroke-miterlimit:4;stroke-dasharray:none;stroke-dashoffset:0;stroke-opacity:1;paint-order:fill markers stroke" />
      <circle
         style="opacity:1;fill:#fffc82;fill-opacity:1;fill-rule:nonzero;stroke:none;stroke-width:0.09839401;stroke-linecap:round;stroke-linejoin:round;stroke-miterlimit:4;stroke-dasharray:none;stroke-dashoffset:0;stroke-opacity:1;paint-order:fill markers stroke"
         id="circle827"
         cx="7694.9829"
         cy="5857.9082"
         r="0.078185014" />
      <circle
         r="0.078185014"
         cy="5857.9082"
         cx="7694.7759"
         id="circle829"
         style="opacity:1;fill:#ff6868;fill-opacity:1;fill-rule:nonzero;stroke:none;stroke-width:0.09839401;stroke-linecap:round;stroke-linejoin:round;stroke-miterlimit:4;stroke-dasharray:none;stroke-dashoffset:0;stroke-opacity:1;paint-order:fill markers stroke" />
      <circle
         style="opacity:1;fill:#ff6868;fill-opacity:1;fill-rule:nonzero;stroke:none;stroke-width:0.09839401;stroke-linecap:round;stroke-linejoin:round;stroke-miterlimit:4;stroke-dasharray:none;stroke-dashoffset:0;stroke-opacity:1;paint-order:fill markers stroke"
         id="circle842"
         cx="7695.189"
         cy="5857.6992"
         r="0.078185014" />
      <circle
         r="0.078185014"
         cy="5857.6992"
         cx="7695.396"
         id="circle844"
         style="opacity:1;fill:#fffc82;fill-opacity:1;fill-rule:nonzero;stroke:none;stroke-width:0.09839401;stroke-linecap:round;stroke-linejoin:round;stroke-miterlimit:4;stroke-dasharray:none;stroke-dashoffset:0;stroke-opacity:1;paint-order:fill markers stroke" />
      <circle
         r="0.078185014"
         cy="5857.6992"
         cx="7695.6025"
         id="circle846"
         style="opacity:1;fill:#ff6868;fill-opacity:1;fill-rule:nonzero;stroke:none;stroke-width:0.09839401;stroke-linecap:round;stroke-linejoin:round;stroke-miterlimit:4;stroke-dasharray:none;stroke-dashoffset:0;stroke-opacity:1;paint-order:fill markers stroke" />
      <circle
         style="opacity:1;fill:#ff6868;fill-opacity:1;fill-rule:nonzero;stroke:none;stroke-width:0.09839401;stroke-linecap:round;stroke-linejoin:round;stroke-miterlimit:4;stroke-dasharray:none;stroke-dashoffset:0;stroke-opacity:1;paint-order:fill markers stroke"
         id="circle848"
         cx="7695.8091"
         cy="5857.6992"
         r="0.078185014" />
      <circle
         r="0.078185014"
         cy="5857.6992"
         cx="7694.9829"
         id="circle850"
         style="opacity:1;fill:#ff6868;fill-opacity:1;fill-rule:nonzero;stroke:none;stroke-width:0.09839401;stroke-linecap:round;stroke-linejoin:round;stroke-miterlimit:4;stroke-dasharray:none;stroke-dashoffset:0;stroke-opacity:1;paint-order:fill markers stroke" />
      <circle
         style="opacity:1;fill:#fffc82;fill-opacity:1;fill-rule:nonzero;stroke:none;stroke-width:0.09839401;stroke-linecap:round;stroke-linejoin:round;stroke-miterlimit:4;stroke-dasharray:none;stroke-dashoffset:0;stroke-opacity:1;paint-order:fill markers stroke"
         id="circle852"
         cx="7694.7759"
         cy="5857.6992"
         r="0.078185014" />
      <circle
         style="opacity:1;fill:#fffc82;fill-opacity:1;fill-rule:nonzero;stroke:none;stroke-width:0.09839401;stroke-linecap:round;stroke-linejoin:round;stroke-miterlimit:4;stroke-dasharray:none;stroke-dashoffset:0;stroke-opacity:1;paint-order:fill markers stroke"
         id="circle860"
         cx="7695.396"
         cy="5857.4902"
         r="0.078185014" />
      <circle
         style="opacity:1;fill:#ff6868;fill-opacity:1;fill-rule:nonzero;stroke:none;stroke-width:0.09839401;stroke-linecap:round;stroke-linejoin:round;stroke-miterlimit:4;stroke-dasharray:none;stroke-dashoffset:0;stroke-opacity:1;paint-order:fill markers stroke"
         id="circle862"
         cx="7695.6025"
         cy="5857.4902"
         r="0.078185014" />
      <circle
         r="0.078185014"
         cy="5857.4902"
         cx="7695.8091"
         id="circle864"
         style="opacity:1;fill:#fffc82;fill-opacity:1;fill-rule:nonzero;stroke:none;stroke-width:0.09839401;stroke-linecap:round;stroke-linejoin:round;stroke-miterlimit:4;stroke-dasharray:none;stroke-dashoffset:0;stroke-opacity:1;paint-order:fill markers stroke" />
      <circle
         style="opacity:1;fill:#fffc82;fill-opacity:1;fill-rule:nonzero;stroke:none;stroke-width:0.09839401;stroke-linecap:round;stroke-linejoin:round;stroke-miterlimit:4;stroke-dasharray:none;stroke-dashoffset:0;stroke-opacity:1;paint-order:fill markers stroke"
         id="circle866"
         cx="7694.9829"
         cy="5857.4902"
         r="0.078185014" />
      <circle
         r="0.078185014"
         cy="5857.2812"
         cx="7695.396"
         id="circle876"
         style="opacity:1;fill:#fffc82;fill-opacity:1;fill-rule:nonzero;stroke:none;stroke-width:0.09839401;stroke-linecap:round;stroke-linejoin:round;stroke-miterlimit:4;stroke-dasharray:none;stroke-dashoffset:0;stroke-opacity:1;paint-order:fill markers stroke" />
      <circle
         r="0.078185014"
         cy="5857.2812"
         cx="7695.6025"
         id="circle878"
         style="opacity:1;fill:#ff6868;fill-opacity:1;fill-rule:nonzero;stroke:none;stroke-width:0.09839401;stroke-linecap:round;stroke-linejoin:round;stroke-miterlimit:4;stroke-dasharray:none;stroke-dashoffset:0;stroke-opacity:1;paint-order:fill markers stroke" />
    </g>
    <rect
       y="5826.2534"
       x="7686.5908"
       height="22.039091"
       width="31.366842"
       id="rect1062"
       style="opacity:1;fill:#0173d4;fill-opacity:1;fill-rule:nonzero;stroke:none;stroke-width:0.52916664;stroke-linecap:round;stroke-linejoin:round;stroke-miterlimit:4;stroke-dasharray:none;stroke-dashoffset:0;stroke-opacity:1;paint-order:fill markers stroke" />
    <circle
       r="0.63941479"
       cy="5841.5474"
       cx="7700.5845"
       id="circle1064"
       style="opacity:1;fill:#fffc82;fill-opacity:1;fill-rule:nonzero;stroke:none;stroke-width:0.52916664;stroke-linecap:round;stroke-linejoin:round;stroke-miterlimit:4;stroke-dasharray:none;stroke-dashoffset:0;stroke-opacity:1;paint-order:fill markers stroke" />
    <circle
       style="opacity:1;fill:#ff6868;fill-opacity:1;fill-rule:nonzero;stroke:none;stroke-width:0.52916664;stroke-linecap:round;stroke-linejoin:round;stroke-miterlimit:4;stroke-dasharray:none;stroke-dashoffset:0;stroke-opacity:1;paint-order:fill markers stroke"
       id="circle1066"
       cx="7702.2759"
       cy="5841.5474"
       r="0.63941479" />
    <circle
       style="opacity:1;fill:#fffc82;fill-opacity:1;fill-rule:nonzero;stroke:none;stroke-width:0.52916664;stroke-linecap:round;stroke-linejoin:round;stroke-miterlimit:4;stroke-dasharray:none;stroke-dashoffset:0;stroke-opacity:1;paint-order:fill markers stroke"
       id="circle1068"
       cx="7703.9639"
       cy="5841.5474"
       r="0.63941479" />
    <circle
       r="0.63941479"
       cy="5841.5474"
       cx="7705.6528"
       id="circle1070"
       style="opacity:1;fill:#fffc82;fill-opacity:1;fill-rule:nonzero;stroke:none;stroke-width:0.52916664;stroke-linecap:round;stroke-linejoin:round;stroke-miterlimit:4;stroke-dasharray:none;stroke-dashoffset:0;stroke-opacity:1;paint-order:fill markers stroke" />
    <circle
       style="opacity:1;fill:#fffc82;fill-opacity:1;fill-rule:nonzero;stroke:none;stroke-width:0.52916664;stroke-linecap:round;stroke-linejoin:round;stroke-miterlimit:4;stroke-dasharray:none;stroke-dashoffset:0;stroke-opacity:1;paint-order:fill markers stroke"
       id="circle1072"
       cx="7698.8955"
       cy="5841.5474"
       r="0.63941479" />
    <circle
       r="0.63941479"
       cy="5841.5474"
       cx="7697.2046"
       id="circle1074"
       style="opacity:1;fill:#fffc82;fill-opacity:1;fill-rule:nonzero;stroke:none;stroke-width:0.52916664;stroke-linecap:round;stroke-linejoin:round;stroke-miterlimit:4;stroke-dasharray:none;stroke-dashoffset:0;stroke-opacity:1;paint-order:fill markers stroke" />
    <circle
       r="0.63941479"
       cy="5841.5474"
       cx="7707.3428"
       id="circle1076"
       style="opacity:1;fill:#ff6868;fill-opacity:1;fill-rule:nonzero;stroke:none;stroke-width:0.52916664;stroke-linecap:round;stroke-linejoin:round;stroke-miterlimit:4;stroke-dasharray:none;stroke-dashoffset:0;stroke-opacity:1;paint-order:fill markers stroke" />
    <circle
       style="opacity:1;fill:#fffc82;fill-opacity:1;fill-rule:nonzero;stroke:none;stroke-width:0.52916664;stroke-linecap:round;stroke-linejoin:round;stroke-miterlimit:4;stroke-dasharray:none;stroke-dashoffset:0;stroke-opacity:1;paint-order:fill markers stroke"
       id="circle1078"
       cx="7700.5845"
       cy="5839.835"
       r="0.63941479" />
    <circle
       r="0.63941479"
       cy="5839.835"
       cx="7702.2759"
       id="circle1080"
       style="opacity:1;fill:#ff6868;fill-opacity:1;fill-rule:nonzero;stroke:none;stroke-width:0.52916664;stroke-linecap:round;stroke-linejoin:round;stroke-miterlimit:4;stroke-dasharray:none;stroke-dashoffset:0;stroke-opacity:1;paint-order:fill markers stroke" />
    <circle
       r="0.63941479"
       cy="5839.835"
       cx="7703.9639"
       id="circle1082"
       style="opacity:1;fill:#fffc82;fill-opacity:1;fill-rule:nonzero;stroke:none;stroke-width:0.52916664;stroke-linecap:round;stroke-linejoin:round;stroke-miterlimit:4;stroke-dasharray:none;stroke-dashoffset:0;stroke-opacity:1;paint-order:fill markers stroke" />
    <circle
       style="opacity:1;fill:#fffc82;fill-opacity:1;fill-rule:nonzero;stroke:none;stroke-width:0.52916664;stroke-linecap:round;stroke-linejoin:round;stroke-miterlimit:4;stroke-dasharray:none;stroke-dashoffset:0;stroke-opacity:1;paint-order:fill markers stroke"
       id="circle1084"
       cx="7705.6528"
       cy="5839.835"
       r="0.63941479" />
    <circle
       r="0.63941479"
       cy="5839.835"
       cx="7698.8955"
       id="circle1086"
       style="opacity:1;fill:#fffc82;fill-opacity:1;fill-rule:nonzero;stroke:none;stroke-width:0.52916664;stroke-linecap:round;stroke-linejoin:round;stroke-miterlimit:4;stroke-dasharray:none;stroke-dashoffset:0;stroke-opacity:1;paint-order:fill markers stroke" />
    <circle
       style="opacity:1;fill:#fffc82;fill-opacity:1;fill-rule:nonzero;stroke:none;stroke-width:0.52916664;stroke-linecap:round;stroke-linejoin:round;stroke-miterlimit:4;stroke-dasharray:none;stroke-dashoffset:0;stroke-opacity:1;paint-order:fill markers stroke"
       id="circle1088"
       cx="7697.2046"
       cy="5839.835"
       r="0.63941479" />
    <circle
       style="opacity:1;fill:#ff6868;fill-opacity:1;fill-rule:nonzero;stroke:none;stroke-width:0.52916664;stroke-linecap:round;stroke-linejoin:round;stroke-miterlimit:4;stroke-dasharray:none;stroke-dashoffset:0;stroke-opacity:1;paint-order:fill markers stroke"
       id="circle1090"
       cx="7707.3428"
       cy="5839.835"
       r="0.63941479" />
    <circle
       r="0.63941479"
       cy="5838.1274"
       cx="7700.5845"
       id="circle1092"
       style="opacity:1;fill:#fffc82;fill-opacity:1;fill-rule:nonzero;stroke:none;stroke-width:0.52916664;stroke-linecap:round;stroke-linejoin:round;stroke-miterlimit:4;stroke-dasharray:none;stroke-dashoffset:0;stroke-opacity:1;paint-order:fill markers stroke" />
    <circle
       style="opacity:1;fill:#ff6868;fill-opacity:1;fill-rule:nonzero;stroke:none;stroke-width:0.52916664;stroke-linecap:round;stroke-linejoin:round;stroke-miterlimit:4;stroke-dasharray:none;stroke-dashoffset:0;stroke-opacity:1;paint-order:fill markers stroke"
       id="circle1094"
       cx="7702.2759"
       cy="5838.1274"
       r="0.63941479" />
    <circle
       style="opacity:1;fill:#fffc82;fill-opacity:1;fill-rule:nonzero;stroke:none;stroke-width:0.52916664;stroke-linecap:round;stroke-linejoin:round;stroke-miterlimit:4;stroke-dasharray:none;stroke-dashoffset:0;stroke-opacity:1;paint-order:fill markers stroke"
       id="circle1096"
       cx="7703.9639"
       cy="5838.1274"
       r="0.63941479" />
    <circle
       r="0.63941479"
       cy="5838.1274"
       cx="7705.6528"
       id="circle1098"
       style="opacity:1;fill:#fffc82;fill-opacity:1;fill-rule:nonzero;stroke:none;stroke-width:0.52916664;stroke-linecap:round;stroke-linejoin:round;stroke-miterlimit:4;stroke-dasharray:none;stroke-dashoffset:0;stroke-opacity:1;paint-order:fill markers stroke" />
    <circle
       style="opacity:1;fill:#fffc82;fill-opacity:1;fill-rule:nonzero;stroke:none;stroke-width:0.52916664;stroke-linecap:round;stroke-linejoin:round;stroke-miterlimit:4;stroke-dasharray:none;stroke-dashoffset:0;stroke-opacity:1;paint-order:fill markers stroke"
       id="circle1100"
       cx="7698.8955"
       cy="5838.1274"
       r="0.63941479" />
    <circle
       r="0.63941479"
       cy="5838.1274"
       cx="7697.2046"
       id="circle1102"
       style="opacity:1;fill:#fffc82;fill-opacity:1;fill-rule:nonzero;stroke:none;stroke-width:0.52916664;stroke-linecap:round;stroke-linejoin:round;stroke-miterlimit:4;stroke-dasharray:none;stroke-dashoffset:0;stroke-opacity:1;paint-order:fill markers stroke" />
    <circle
       r="0.63941479"
       cy="5838.1274"
       cx="7707.3428"
       id="circle1104"
       style="opacity:1;fill:#ff6868;fill-opacity:1;fill-rule:nonzero;stroke:none;stroke-width:0.52916664;stroke-linecap:round;stroke-linejoin:round;stroke-miterlimit:4;stroke-dasharray:none;stroke-dashoffset:0;stroke-opacity:1;paint-order:fill markers stroke" />
    <circle
       style="opacity:1;fill:#fffc82;fill-opacity:1;fill-rule:nonzero;stroke:none;stroke-width:0.52916664;stroke-linecap:round;stroke-linejoin:round;stroke-miterlimit:4;stroke-dasharray:none;stroke-dashoffset:0;stroke-opacity:1;paint-order:fill markers stroke"
       id="circle1106"
       cx="7700.5845"
       cy="5836.416"
       r="0.63941479" />
    <circle
       r="0.63941479"
       cy="5836.416"
       cx="7702.2759"
       id="circle1108"
       style="opacity:1;fill:#ff6868;fill-opacity:1;fill-rule:nonzero;stroke:none;stroke-width:0.52916664;stroke-linecap:round;stroke-linejoin:round;stroke-miterlimit:4;stroke-dasharray:none;stroke-dashoffset:0;stroke-opacity:1;paint-order:fill markers stroke" />
    <circle
       r="0.63941479"
       cy="5836.416"
       cx="7703.9639"
       id="circle1110"
       style="opacity:1;fill:#fffc82;fill-opacity:1;fill-rule:nonzero;stroke:none;stroke-width:0.52916664;stroke-linecap:round;stroke-linejoin:round;stroke-miterlimit:4;stroke-dasharray:none;stroke-dashoffset:0;stroke-opacity:1;paint-order:fill markers stroke" />
    <circle
       style="opacity:1;fill:#fffc82;fill-opacity:1;fill-rule:nonzero;stroke:none;stroke-width:0.52916664;stroke-linecap:round;stroke-linejoin:round;stroke-miterlimit:4;stroke-dasharray:none;stroke-dashoffset:0;stroke-opacity:1;paint-order:fill markers stroke"
       id="circle1112"
       cx="7705.6528"
       cy="5836.416"
       r="0.63941479" />
    <circle
       r="0.63941479"
       cy="5836.416"
       cx="7698.8955"
       id="circle1114"
       style="opacity:1;fill:#fffc82;fill-opacity:1;fill-rule:nonzero;stroke:none;stroke-width:0.52916664;stroke-linecap:round;stroke-linejoin:round;stroke-miterlimit:4;stroke-dasharray:none;stroke-dashoffset:0;stroke-opacity:1;paint-order:fill markers stroke" />
    <circle
       style="opacity:1;fill:#fffc82;fill-opacity:1;fill-rule:nonzero;stroke:none;stroke-width:0.52916664;stroke-linecap:round;stroke-linejoin:round;stroke-miterlimit:4;stroke-dasharray:none;stroke-dashoffset:0;stroke-opacity:1;paint-order:fill markers stroke"
       id="circle1116"
       cx="7697.2046"
       cy="5836.416"
       r="0.63941479" />
    <circle
       style="opacity:1;fill:#ff6868;fill-opacity:1;fill-rule:nonzero;stroke:none;stroke-width:0.52916664;stroke-linecap:round;stroke-linejoin:round;stroke-miterlimit:4;stroke-dasharray:none;stroke-dashoffset:0;stroke-opacity:1;paint-order:fill markers stroke"
       id="circle1118"
       cx="7707.3428"
       cy="5836.416"
       r="0.63941479" />
    <circle
       r="0.63941479"
       cy="5834.709"
       cx="7700.5845"
       id="circle1120"
       style="opacity:1;fill:#fffc82;fill-opacity:1;fill-rule:nonzero;stroke:none;stroke-width:0.52916664;stroke-linecap:round;stroke-linejoin:round;stroke-miterlimit:4;stroke-dasharray:none;stroke-dashoffset:0;stroke-opacity:1;paint-order:fill markers stroke" />
    <circle
       style="opacity:1;fill:#ff6868;fill-opacity:1;fill-rule:nonzero;stroke:none;stroke-width:0.52916664;stroke-linecap:round;stroke-linejoin:round;stroke-miterlimit:4;stroke-dasharray:none;stroke-dashoffset:0;stroke-opacity:1;paint-order:fill markers stroke"
       id="circle1122"
       cx="7702.2759"
       cy="5834.709"
       r="0.63941479" />
    <circle
       style="opacity:1;fill:#fffc82;fill-opacity:1;fill-rule:nonzero;stroke:none;stroke-width:0.52916664;stroke-linecap:round;stroke-linejoin:round;stroke-miterlimit:4;stroke-dasharray:none;stroke-dashoffset:0;stroke-opacity:1;paint-order:fill markers stroke"
       id="circle1124"
       cx="7703.9639"
       cy="5834.709"
       r="0.63941479" />
    <circle
       r="0.63941479"
       cy="5834.709"
       cx="7705.6528"
       id="circle1126"
       style="opacity:1;fill:#fffc82;fill-opacity:1;fill-rule:nonzero;stroke:none;stroke-width:0.52916664;stroke-linecap:round;stroke-linejoin:round;stroke-miterlimit:4;stroke-dasharray:none;stroke-dashoffset:0;stroke-opacity:1;paint-order:fill markers stroke" />
    <circle
       style="opacity:1;fill:#fffc82;fill-opacity:1;fill-rule:nonzero;stroke:none;stroke-width:0.52916664;stroke-linecap:round;stroke-linejoin:round;stroke-miterlimit:4;stroke-dasharray:none;stroke-dashoffset:0;stroke-opacity:1;paint-order:fill markers stroke"
       id="circle1128"
       cx="7698.8955"
       cy="5834.709"
       r="0.63941479" />
    <circle
       r="0.63941479"
       cy="5834.709"
       cx="7697.2046"
       id="circle1130"
       style="opacity:1;fill:#fffc82;fill-opacity:1;fill-rule:nonzero;stroke:none;stroke-width:0.52916664;stroke-linecap:round;stroke-linejoin:round;stroke-miterlimit:4;stroke-dasharray:none;stroke-dashoffset:0;stroke-opacity:1;paint-order:fill markers stroke" />
    <circle
       r="0.63941479"
       cy="5834.709"
       cx="7707.3428"
       id="circle1132"
       style="opacity:1;fill:#ff6868;fill-opacity:1;fill-rule:nonzero;stroke:none;stroke-width:0.52916664;stroke-linecap:round;stroke-linejoin:round;stroke-miterlimit:4;stroke-dasharray:none;stroke-dashoffset:0;stroke-opacity:1;paint-order:fill markers stroke" />
    <circle
       style="opacity:1;fill:#fffc82;fill-opacity:1;fill-rule:nonzero;stroke:none;stroke-width:0.52916664;stroke-linecap:round;stroke-linejoin:round;stroke-miterlimit:4;stroke-dasharray:none;stroke-dashoffset:0;stroke-opacity:1;paint-order:fill markers stroke"
       id="circle1134"
       cx="7700.5845"
       cy="5832.9995"
       r="0.63941479" />
    <circle
       r="0.63941479"
       cy="5832.9995"
       cx="7702.2759"
       id="circle1136"
       style="opacity:1;fill:#ff6868;fill-opacity:1;fill-rule:nonzero;stroke:none;stroke-width:0.52916664;stroke-linecap:round;stroke-linejoin:round;stroke-miterlimit:4;stroke-dasharray:none;stroke-dashoffset:0;stroke-opacity:1;paint-order:fill markers stroke" />
    <circle
       r="0.63941479"
       cy="5832.9995"
       cx="7703.9639"
       id="circle1138"
       style="opacity:1;fill:#fffc82;fill-opacity:1;fill-rule:nonzero;stroke:none;stroke-width:0.52916664;stroke-linecap:round;stroke-linejoin:round;stroke-miterlimit:4;stroke-dasharray:none;stroke-dashoffset:0;stroke-opacity:1;paint-order:fill markers stroke" />
    <circle
       style="opacity:1;fill:#fffc82;fill-opacity:1;fill-rule:nonzero;stroke:none;stroke-width:0.52916664;stroke-linecap:round;stroke-linejoin:round;stroke-miterlimit:4;stroke-dasharray:none;stroke-dashoffset:0;stroke-opacity:1;paint-order:fill markers stroke"
       id="circle1140"
       cx="7705.6528"
       cy="5832.9995"
       r="0.63941479" />
    <circle
       r="0.63941479"
       cy="5832.9995"
       cx="7698.8955"
       id="circle1142"
       style="opacity:1;fill:#fffc82;fill-opacity:1;fill-rule:nonzero;stroke:none;stroke-width:0.52916664;stroke-linecap:round;stroke-linejoin:round;stroke-miterlimit:4;stroke-dasharray:none;stroke-dashoffset:0;stroke-opacity:1;paint-order:fill markers stroke" />
    <circle
       style="opacity:1;fill:#fffc82;fill-opacity:1;fill-rule:nonzero;stroke:none;stroke-width:0.52916664;stroke-linecap:round;stroke-linejoin:round;stroke-miterlimit:4;stroke-dasharray:none;stroke-dashoffset:0;stroke-opacity:1;paint-order:fill markers stroke"
       id="circle1144"
       cx="7697.2046"
       cy="5832.9995"
       r="0.63941479" />
    <circle
       style="opacity:1;fill:#ff6868;fill-opacity:1;fill-rule:nonzero;stroke:none;stroke-width:0.52916664;stroke-linecap:round;stroke-linejoin:round;stroke-miterlimit:4;stroke-dasharray:none;stroke-dashoffset:0;stroke-opacity:1;paint-order:fill markers stroke"
       id="circle1146"
       cx="7707.3428"
       cy="5832.9995"
       r="0.63941479" />
    <rect
       y="5851.2178"
       x="7649.603"
       height="22.039091"
       width="31.366842"
       id="rect1239"
       style="opacity:1;fill:#008158;fill-opacity:1;fill-rule:nonzero;stroke:none;stroke-width:0.52916664;stroke-linecap:round;stroke-linejoin:round;stroke-miterlimit:4;stroke-dasharray:none;stroke-dashoffset:0;stroke-opacity:1;paint-order:fill markers stroke" />
    <g
       id="g2317"
       transform="matrix(0.89526789,0,0,0.89526789,803.55726,612.43666)"
       style="stroke-width:1.11698413">
      <circle
         r="0.63941479"
         cy="5866.5063"
         cx="7666.1338"
         id="circle1257"
         style="opacity:1;fill:#333333;fill-opacity:1;fill-rule:nonzero;stroke:none;stroke-width:0.59107071;stroke-linecap:round;stroke-linejoin:round;stroke-miterlimit:4;stroke-dasharray:none;stroke-dashoffset:0;stroke-opacity:1;paint-order:fill markers stroke" />
      <circle
         r="0.63941479"
         cy="5866.5063"
         cx="7662.7539"
         id="circle1263"
         style="opacity:1;fill:#333333;fill-opacity:1;fill-rule:nonzero;stroke:none;stroke-width:0.59107071;stroke-linecap:round;stroke-linejoin:round;stroke-miterlimit:4;stroke-dasharray:none;stroke-dashoffset:0;stroke-opacity:1;paint-order:fill markers stroke" />
      <circle
         r="0.63941479"
         cy="5864.8008"
         cx="7664.4429"
         id="circle1269"
         style="opacity:1;fill:#ececec;fill-opacity:1;fill-rule:nonzero;stroke:none;stroke-width:0.59107071;stroke-linecap:round;stroke-linejoin:round;stroke-miterlimit:4;stroke-dasharray:none;stroke-dashoffset:0;stroke-opacity:1;paint-order:fill markers stroke" />
      <circle
         style="opacity:1;fill:#333333;fill-opacity:1;fill-rule:nonzero;stroke:none;stroke-width:0.59107071;stroke-linecap:round;stroke-linejoin:round;stroke-miterlimit:4;stroke-dasharray:none;stroke-dashoffset:0;stroke-opacity:1;paint-order:fill markers stroke"
         id="circle1271"
         cx="7666.1338"
         cy="5864.8008"
         r="0.63941479" />
      <circle
         style="opacity:1;fill:#ececec;fill-opacity:1;fill-rule:nonzero;stroke:none;stroke-width:0.59107071;stroke-linecap:round;stroke-linejoin:round;stroke-miterlimit:4;stroke-dasharray:none;stroke-dashoffset:0;stroke-opacity:1;paint-order:fill markers stroke"
         id="circle1273"
         cx="7667.8223"
         cy="5864.8008"
         r="0.63941479" />
      <circle
         style="opacity:1;fill:#ececec;fill-opacity:1;fill-rule:nonzero;stroke:none;stroke-width:0.59107071;stroke-linecap:round;stroke-linejoin:round;stroke-miterlimit:4;stroke-dasharray:none;stroke-dashoffset:0;stroke-opacity:1;paint-order:fill markers stroke"
         id="circle1277"
         cx="7662.7539"
         cy="5864.8008"
         r="0.63941479" />
      <circle
         style="opacity:1;fill:#ececec;fill-opacity:1;fill-rule:nonzero;stroke:none;stroke-width:0.59107071;stroke-linecap:round;stroke-linejoin:round;stroke-miterlimit:4;stroke-dasharray:none;stroke-dashoffset:0;stroke-opacity:1;paint-order:fill markers stroke"
         id="circle1283"
         cx="7664.4429"
         cy="5863.0874"
         r="0.63941479" />
      <circle
         r="0.63941479"
         cy="5863.0874"
         cx="7666.1338"
         id="circle1285"
         style="opacity:1;fill:#ececec;fill-opacity:1;fill-rule:nonzero;stroke:none;stroke-width:0.59107071;stroke-linecap:round;stroke-linejoin:round;stroke-miterlimit:4;stroke-dasharray:none;stroke-dashoffset:0;stroke-opacity:1;paint-order:fill markers stroke" />
      <circle
         r="0.63941479"
         cy="5863.0874"
         cx="7667.8223"
         id="circle1287"
         style="opacity:1;fill:#ececec;fill-opacity:1;fill-rule:nonzero;stroke:none;stroke-width:0.59107071;stroke-linecap:round;stroke-linejoin:round;stroke-miterlimit:4;stroke-dasharray:none;stroke-dashoffset:0;stroke-opacity:1;paint-order:fill markers stroke" />
      <circle
         r="0.63941479"
         cy="5863.0874"
         cx="7662.7539"
         id="circle1291"
         style="opacity:1;fill:#ececec;fill-opacity:1;fill-rule:nonzero;stroke:none;stroke-width:0.59107071;stroke-linecap:round;stroke-linejoin:round;stroke-miterlimit:4;stroke-dasharray:none;stroke-dashoffset:0;stroke-opacity:1;paint-order:fill markers stroke" />
      <circle
         style="opacity:1;fill:#ececec;fill-opacity:1;fill-rule:nonzero;stroke:none;stroke-width:0.59107071;stroke-linecap:round;stroke-linejoin:round;stroke-miterlimit:4;stroke-dasharray:none;stroke-dashoffset:0;stroke-opacity:1;paint-order:fill markers stroke"
         id="circle1293"
         cx="7661.0625"
         cy="5863.0874"
         r="0.63941479" />
      <circle
         r="0.63941479"
         cy="5861.3813"
         cx="7664.4429"
         id="circle1297"
         style="opacity:1;fill:#ececec;fill-opacity:1;fill-rule:nonzero;stroke:none;stroke-width:0.59107071;stroke-linecap:round;stroke-linejoin:round;stroke-miterlimit:4;stroke-dasharray:none;stroke-dashoffset:0;stroke-opacity:1;paint-order:fill markers stroke" />
      <circle
         style="opacity:1;fill:#ececec;fill-opacity:1;fill-rule:nonzero;stroke:none;stroke-width:0.59107071;stroke-linecap:round;stroke-linejoin:round;stroke-miterlimit:4;stroke-dasharray:none;stroke-dashoffset:0;stroke-opacity:1;paint-order:fill markers stroke"
         id="circle1301"
         cx="7667.8223"
         cy="5861.3813"
         r="0.63941479" />
      <circle
         style="opacity:1;fill:#333333;fill-opacity:1;fill-rule:nonzero;stroke:none;stroke-width:0.59107071;stroke-linecap:round;stroke-linejoin:round;stroke-miterlimit:4;stroke-dasharray:none;stroke-dashoffset:0;stroke-opacity:1;paint-order:fill markers stroke"
         id="circle1305"
         cx="7662.7539"
         cy="5861.3813"
         r="0.63941479" />
      <circle
         r="0.63941479"
         cy="5861.3813"
         cx="7661.0625"
         id="circle1307"
         style="opacity:1;fill:#333333;fill-opacity:1;fill-rule:nonzero;stroke:none;stroke-width:0.59107071;stroke-linecap:round;stroke-linejoin:round;stroke-miterlimit:4;stroke-dasharray:none;stroke-dashoffset:0;stroke-opacity:1;paint-order:fill markers stroke" />
    </g>
    <rect
       y="6074.9722"
       x="8347.5039"
       height="744.14062"
       width="1322.9166"
       id="rect1699"
       style="opacity:1;fill:#1593fe;fill-opacity:1;fill-rule:nonzero;stroke:none;stroke-width:0.52916658;stroke-linecap:round;stroke-linejoin:round;stroke-miterlimit:4;stroke-dasharray:none;stroke-dashoffset:0;stroke-opacity:1;paint-order:fill markers stroke"
       inkscape:export-xdpi="96"
       inkscape:export-ydpi="96"
       inkscape:export-filename="/home/nicholas/Pictures/Wallpapers/Lochness.png" />
    <path
       style="fill:#37d690;fill-opacity:1;stroke:#3e3e3e;stroke-width:2.64583325;stroke-linecap:round;stroke-linejoin:round;stroke-miterlimit:4;stroke-dasharray:none;stroke-opacity:1"
       d="m 9453.5424,6703.5742 h -1.6599 v 0 c -4.8817,-0.095 -26.5537,1.3044 -26.329,32.5582 0.072,10.5441 0.1589,16.5011 0.2457,21.1328 0.4589,0.062 9.0905,1.2577 13.2314,1.2577 3.9956,0 11.8657,-1.0758 12.8632,-1.2134 l -0.9211,-16.3125 c 0,0 0.097,-8.5107 4.0015,-2.4733 3.2762,5.0656 3.92,12.9696 3.8323,18.2164 0.2576,0.039 8.2129,0.9332 11.9905,0.9332 3.5274,0 10.249,-0.7441 11.3796,-0.8723 0.2107,-4.3669 0.4613,-13.2277 -0.5745,-19.3749 -1.4134,-8.4111 -2.16,-14.5818 -7.4327,-23.3818 -5.8504,-7.9547 -12.4363,-10.3647 -20.6281,-10.4783 z m 127.5309,-27.1935 c -0.1981,0 -12.791,-0.3438 -20.3517,12.6515 -3.518,6.0631 -5.6377,12.1616 -5.9402,19.0631 -0.2765,6.3784 1.0388,40.7229 4.1986,49.0681 1.164,0.1235 10.371,1.0976 15.1929,1.0976 4.1231,0 10.6914,-0.648 13.6016,-0.9424 -5.8379,-9.0105 -20.3467,-47.6608 -9.7674,-56.4401 0,0 7.2256,2.6902 18.067,-1.2936 0.1919,0.144 6.4183,2.444 9.0007,2.4345 6.6528,-0.2461 7.0839,-1.9189 7.9206,-3.8659 2.1654,-5.5063 -4.2968,-11.303 -5.9647,-12.696 -1.6209,-1.3921 -10.7115,-9.1759 -25.9574,-9.0768 z m -182.3952,29.7799 c -1.6568,0 -3.886,0.5511 -5.2954,1.0056 -8.8801,2.4856 -6.0574,11.0653 -8.489,15.4788 -1.7249,3.4983 -6.9292,9.2168 -12.0422,8.0702 0,0 8.7276,3.2494 13.4645,0 5.8267,-4.1449 5.5428,-17.2802 12.7159,-15.4952 5.2333,2.5123 3.9757,8.2592 2.7666,12.7638 -2.5045,4.7519 -5.9864,13.0092 -5.9864,20.2661 0,2.815 0.052,5.861 0.3392,8.954 0.6262,0.091 6.3764,0.9219 9.1951,0.9219 2.5334,0 6.9443,-0.5922 8.5283,-0.8138 -1.0543,-2.3074 -1.9758,-4.8299 -2.6031,-7.5627 -2.7635,-13.011 0.984,-15.3549 2.5038,-25.622 0.2732,-1.8562 0.7831,-5.5414 -2.8606,-12.8438 -2.9671,-4.8976 -7.2675,-5.1733 -12.238,-5.1229 z m 121.8426,1.0498 c -13.8255,1.3105 -20.625,4.0618 -25.5912,22.1183 -2.5811,8.0783 -1.9124,19.8461 -1.6743,27.7375 0.2458,0.04 0.5569,0.044 0.9634,0.082 0.885,0.074 2.1068,0.1728 3.4582,0.2694 2.7016,0.1954 5.9369,0.3917 8.0124,0.3917 3.8292,0 10.9629,-0.621 12.1699,-0.7276 0.132,-7.0492 0.6964,-30.498 3.6292,-19.0368 1.9375,7.5822 2.508,13.9608 2.6514,18.9261 3.9065,0.041 8.4084,0.8169 12.4031,0.6846 0.021,-4e-4 0.027,-4e-4 0.039,0 3.5515,0 9.7837,-0.6017 11.4848,-0.7566 0.3745,-9.1296 1.6217,-20.641 -5.1053,-36.0354 -5.8316,-10.6011 -11.615,-13.8151 -22.4418,-13.6532 z"
       id="path1996"
       inkscape:connector-curvature="0"
       inkscape:export-xdpi="96"
       inkscape:export-ydpi="96"
       sodipodi:nodetypes="cccccsccscscccccccccsccccccccccccccscscccccccccccsccccccccc"
       inkscape:export-filename="/home/nicholas/Pictures/Wallpapers/Lochness.png" />
    <path
       inkscape:connector-curvature="0"
       style="color:#000000;font-style:normal;font-variant:normal;font-weight:normal;font-stretch:normal;font-size:medium;line-height:normal;font-family:sans-serif;font-variant-ligatures:normal;font-variant-position:normal;font-variant-caps:normal;font-variant-numeric:normal;font-variant-alternates:normal;font-feature-settings:normal;text-indent:0;text-align:start;text-decoration:none;text-decoration-line:none;text-decoration-style:solid;text-decoration-color:#000000;letter-spacing:normal;word-spacing:normal;text-transform:none;writing-mode:lr-tb;direction:ltr;text-orientation:mixed;dominant-baseline:auto;baseline-shift:baseline;text-anchor:start;white-space:normal;shape-padding:0;clip-rule:nonzero;display:inline;overflow:visible;visibility:visible;opacity:1;isolation:auto;mix-blend-mode:normal;color-interpolation:sRGB;color-interpolation-filters:linearRGB;solid-color:#000000;solid-opacity:1;vector-effect:none;fill:url(#linearGradient2350);fill-opacity:1;fill-rule:nonzero;stroke:none;stroke-width:0.26458329;stroke-linecap:round;stroke-linejoin:round;stroke-miterlimit:4;stroke-dasharray:none;stroke-dashoffset:0;stroke-opacity:1;color-rendering:auto;image-rendering:auto;shape-rendering:auto;text-rendering:auto;enable-background:accumulate"
       d="m 9459.7637,6760.0049 v 0 c 0,0 0,0 0,0 h -0.037 -0.037 c -0.3351,0 -0.6441,0.1791 -0.818,0.4418 -0.1837,0.2774 -0.2654,0.6083 -0.2732,0.9367 0,0.3286 0.06,0.6636 0.2222,0.9552 0.1651,0.2889 0.4676,0.5262 0.8205,0.547 h -0.037 c 0,0 7.3857,0.9683 11.2465,0.9683 3.8596,0 11.2424,-0.9683 11.2467,-0.9683 0.3504,-0.041 0.6403,-0.2974 0.7949,-0.6019 0.1547,-0.3013 0.2022,-0.6419 0.1836,-0.9703 -0.037,-0.328 -0.1073,-0.6556 -0.3151,-0.9204 -0.2001,-0.2617 -0.5367,-0.4438 -0.89,-0.3922 0,0 -7.4482,0.9527 -11.0196,0.9527 -3.5765,0 -11.0359,-0.9527 -11.0359,-0.9527 0,0 -0.037,0 -0.037,0 z m 88.3799,0 c -0.081,-0.021 -0.1651,-0.021 -0.2505,0 v 0 c -0.037,0 -7.7029,0.862 -11.4401,0.862 -3.9468,0.1441 -8.3223,-0.7776 -11.8651,-0.6883 -0.2967,0.037 -0.3704,0.109 -0.4731,0.2737 -0.1733,0.2773 -0.2458,0.606 -0.2573,0.934 0,0.3284 0.054,0.6648 0.2107,0.955 0.1588,0.293 0.4378,0.5243 0.7713,0.5459 0.037,0 7.6587,0.8659 11.6158,0.8659 3.959,0 11.5897,-0.8641 11.6105,-0.8659 0.3388,-0.041 0.6288,-0.2694 0.7821,-0.5694 0.1547,-0.3008 0.207,-0.6455 0.1918,-0.9791 -0.037,-0.3362 -0.1052,-0.6689 -0.2921,-0.9393 -0.1404,-0.2017 -0.3593,-0.3551 -0.6028,-0.3953 z m -54.4014,0.2276 c -0.089,0 -0.194,0.037 -0.3273,0.076 -0.1734,0.082 -0.2458,0.2112 -0.351,0.3751 -0.1755,0.2775 -0.2578,0.6051 -0.2662,0.9339 0,0.328 0.054,0.6644 0.2111,0.9552 0.1589,0.2926 0.4492,0.5214 0.7884,0.5422 0.037,0 7.8391,0.8099 11.8786,0.8099 4.0368,0 11.8335,-0.8067 11.8614,-0.8099 0.3509,0 0.6551,-0.2543 0.8167,-0.5552 0.1589,-0.3004 0.2144,-0.6474 0.1981,-0.9841 -0.037,-0.3363 -0.1011,-0.6732 -0.2964,-0.9469 -0.1918,-0.2658 -0.511,-0.4395 -0.8509,-0.3942 0,0 -7.8962,0.792 -11.7302,0.792 -3.8257,0 -11.6567,-0.7861 -11.696,-0.7902 h -0.2461 z m -42.3802,0 c -0.9368,0 -0.2001,0 -0.2928,0.041 h 0.049 c 0,0 -7.8329,1.2996 -12.0948,1.2996 -4.2614,0 -12.6544,-1.2996 -12.6544,-1.2996 h -0.097 -0.1548 c -1.3877,0.1563 -1.3877,2.7261 0,2.8833 0.037,0 8.2959,1.3365 12.9105,1.3365 4.622,0 12.3696,-1.3394 12.3696,-1.3394 h -0.045 c 1.4671,0 1.4921,-2.8394 0.037,-2.8948 z m 136.2016,0.066 h 0.027 -0.083 c -0.037,0 -9.1821,1.1716 -13.6572,1.1716 -4.4757,0 -13.649,-1.1694 -13.6647,-1.1716 h -0.1011 c 0,0 -0.037,0 -0.041,0 h -0.037 -0.037 -0.037 c -0.1052,0 -0.1919,0.09 -0.2495,0.2037 -0.8335,0.5428 -0.7794,2.5363 0.2721,2.6773 0,0 9.1432,1.1918 13.8454,1.1918 4.6989,0 13.8138,-1.1914 13.8254,-1.1918 1.2157,-0.1317 1.1644,-2.8622 -0.056,-2.8887 z m -190.8415,0.045 h 0.033 c 0,0 -0.037,0 -0.037,0 h -0.037 -0.037 c -0.2727,0 -0.5189,0.1708 -0.6626,0.4288 -0.1506,0.2737 -0.2184,0.6064 -0.2263,0.9367 0,0.3286 0.048,0.6667 0.1795,0.9593 0.1321,0.293 0.3778,0.5284 0.6643,0.5511 0.037,0 5.7069,0.997 8.7067,0.9988 3.0529,0 8.8596,-0.9998 8.8699,-1.0017 0.2848,-0.041 0.5235,-0.2924 0.6496,-0.5947 0.128,-0.3008 0.1651,-0.6433 0.1506,-0.9727 -0.037,-0.3284 -0.095,-0.657 -0.2534,-0.9223 -0.1589,-0.2658 -0.4366,-0.4418 -0.723,-0.387 0,0 -5.8814,0.9836 -8.6877,0.9809 -2.7623,0 -8.5444,-0.9809 -8.5444,-0.9809 0,0 -0.037,0 -0.037,0 z"
       id="path2254"
       inkscape:export-filename="/home/nicholas/Pictures/Wallpapers/Lochness.png"
       inkscape:export-xdpi="96"
       inkscape:export-ydpi="96" />
    <path
       style="color:#000000;font-style:normal;font-variant:normal;font-weight:normal;font-stretch:normal;font-size:medium;line-height:normal;font-family:sans-serif;font-variant-ligatures:normal;font-variant-position:normal;font-variant-caps:normal;font-variant-numeric:normal;font-variant-alternates:normal;font-feature-settings:normal;text-indent:0;text-align:start;text-decoration:none;text-decoration-line:none;text-decoration-style:solid;text-decoration-color:#000000;letter-spacing:normal;word-spacing:normal;text-transform:none;writing-mode:lr-tb;direction:ltr;text-orientation:mixed;dominant-baseline:auto;baseline-shift:baseline;text-anchor:start;white-space:normal;shape-padding:0;clip-rule:nonzero;display:inline;overflow:visible;visibility:visible;opacity:1;isolation:auto;mix-blend-mode:normal;color-interpolation:sRGB;color-interpolation-filters:linearRGB;solid-color:#000000;solid-opacity:1;vector-effect:none;fill:#3e3e3e;fill-opacity:1;fill-rule:nonzero;stroke:none;stroke-width:0.52916664;stroke-linecap:round;stroke-linejoin:round;stroke-miterlimit:4;stroke-dasharray:none;stroke-dashoffset:0;stroke-opacity:1;color-rendering:auto;image-rendering:auto;shape-rendering:auto;text-rendering:auto;enable-background:accumulate"
       d="m 9604.4985,6679.0733 c -3.6957,0 -7.9041,0.069 -10.1775,0.4018 -4.3693,0.6391 -5.3319,0.7246 -8.9391,1.7726 -0.017,0.01 -0.033,0.011 -0.049,0.022 -0.4139,0.1665 -1.2285,0.5613 -1.9388,1.1057 -0.3548,0.2722 -0.6857,0.5793 -0.915,0.9561 -0.2413,0.4714 -0.249,0.9304 -0.1398,1.3012 0.2097,0.4164 0.4619,0.6838 0.7715,0.9065 0.5623,0.3724 1.4801,0.6168 2.8216,0.3538 2.5649,-0.5046 4.6221,-1.5641 4.6221,-1.5641 l -0.032,0.022 c 0,0 2.286,-0.9702 4.2804,-1.2908 6.9681,-0.331 9.5828,-0.361 13.2713,0.2575 0.022,0 0.032,0.022 0.049,0.022 0.058,0.022 0.124,0.028 0.1982,0.043 0.1485,0.032 0.3363,0.064 0.5203,0.097 0.1322,0.022 0.1479,0.027 0.2615,0.043 l -0.1643,7.588 c -0.01,0.3021 0.2364,0.5504 0.5394,0.5542 l 2.197,0.027 c 0.3079,0 0.5579,-0.2473 0.5525,-0.5543 0,0 -0.038,-2.4843 -0.094,-5.152 -0.055,-2.6678 -0.1169,-5.4543 -0.2015,-6.2939 -0.017,-0.197 -0.1442,-0.368 -0.3265,-0.447 0,0 -0.075,-0.027 -0.093,-0.032 h -0.043 -0.044 -0.049 -0.1239 c -0.1032,0 -0.2495,0 -0.4318,-0.022 -0.3637,-0.022 -0.8769,-0.022 -1.5064,-0.032 -1.2595,-0.027 -2.9733,-0.049 -4.8208,-0.049 z"
       id="path2376"
       inkscape:connector-curvature="0"
       sodipodi:nodetypes="ccccccccccccccccccccccccccccscccc"
       inkscape:export-filename="/home/nicholas/Pictures/Wallpapers/Lochness.png"
       inkscape:export-xdpi="96"
       inkscape:export-ydpi="96" />
    <rect
       inkscape:export-ydpi="96"
       inkscape:export-xdpi="96"
       style="opacity:1;fill:#1593fe;fill-opacity:1;fill-rule:nonzero;stroke:none;stroke-width:0.52916658;stroke-linecap:round;stroke-linejoin:round;stroke-miterlimit:4;stroke-dasharray:none;stroke-dashoffset:0;stroke-opacity:1;paint-order:fill markers stroke"
       id="rect2357"
       width="508"
       height="285.75"
       x="8365.6191"
       y="5640.1294" />
    <g
       id="g2365"
       transform="matrix(0.88242059,0,0,0.88104268,1339.3676,598.77865)"
       style="stroke-width:1.13413227">
      <path
         style="fill:#37d690;fill-opacity:1;stroke:#3e3e3e;stroke-width:1.5003624;stroke-linecap:round;stroke-linejoin:round;stroke-miterlimit:4;stroke-dasharray:none;stroke-opacity:1"
         d="m 8227.6883,5874.8407 h -0.9485 v 0 c -2.7897,-0.054 -15.1746,0.749 -15.0461,18.6972 0.041,6.0551 0.091,9.476 0.1404,12.1359 0.2622,0.036 5.1949,0.7223 7.5612,0.7223 2.2834,0 6.7809,-0.6178 7.3509,-0.6968 l -0.5263,-9.3679 c 0,0 0.056,-4.8879 2.2867,-1.4203 1.873,2.9086 2.2402,7.4481 2.19,10.4612 0.1472,0.022 4.6935,0.5359 6.8523,0.5359 2.0157,0 5.8569,-0.4273 6.503,-0.5009 0.1204,-2.5079 0.2635,-7.5964 -0.3283,-11.1265 -0.8078,-4.8303 -1.2344,-8.3739 -4.2475,-13.4275 -3.3434,-4.5681 -7.107,-5.9521 -11.7883,-6.0173 z m 72.8797,-15.6164 c -0.1137,0 -7.3097,-0.1975 -11.6303,7.2653 -2.0105,3.4819 -3.2218,6.9841 -3.3946,10.9474 -0.1581,3.6629 0.5936,23.386 2.3993,28.1783 0.6652,0.071 5.9267,0.6304 8.6822,0.6304 2.3562,0 6.1098,-0.3722 7.7729,-0.5413 -3.3362,-5.1744 -11.6275,-27.3702 -5.5817,-32.4117 0,0 4.1291,1.5448 10.3246,-0.743 0.1095,0.083 3.6679,1.4035 5.1437,1.3981 3.8018,-0.1413 4.0481,-1.102 4.5263,-2.2201 1.2374,-3.1621 -2.4555,-6.4909 -3.4087,-7.291 -0.9263,-0.7994 -6.1212,-5.2694 -14.8337,-5.2124 z m -104.2328,17.1016 c -0.9467,0 -2.2206,0.3165 -3.0261,0.5776 -5.0746,1.4273 -3.4616,6.3544 -4.8511,8.889 -0.9857,2.009 -3.9599,5.2929 -6.8817,4.6345 0,0 4.9875,1.866 7.6945,0 3.3298,-2.3803 3.1675,-9.9236 7.2667,-8.8985 2.9906,1.4427 2.272,4.743 1.581,7.3299 -1.4313,2.7289 -3.4211,7.4708 -3.4211,11.6382 0,1.6166 0.029,3.3658 0.1939,5.142 0.3579,0.052 3.6439,0.5294 5.2547,0.5294 1.4478,0 3.9685,-0.34 4.8736,-0.4673 -0.6025,-1.3251 -1.1291,-2.7737 -1.4876,-4.343 -1.5792,-7.4719 0.5624,-8.8179 1.4309,-14.714 0.1561,-1.066 0.4475,-3.1823 -1.6347,-7.3758 -1.6956,-2.8126 -4.1532,-2.9709 -6.9937,-2.942 z m 69.629,0.6029 c -7.9008,0.7526 -11.7865,2.3326 -14.6245,12.7019 -1.475,4.6392 -1.0929,11.397 -0.9568,15.9289 0.1404,0.022 0.3182,0.025 0.5506,0.047 0.5057,0.043 1.2039,0.099 1.9762,0.1547 1.5439,0.1122 3.3927,0.225 4.5788,0.225 2.1883,0 6.2649,-0.3566 6.9547,-0.4179 0.076,-4.0481 0.398,-17.5141 2.074,-10.9322 1.1072,4.3542 1.4332,8.0172 1.5152,10.8687 2.2323,0.023 4.8051,0.4691 7.0879,0.3931 0.01,-2e-4 0.015,-2e-4 0.022,0 2.0296,0 5.5911,-0.3455 6.5632,-0.4345 0.214,-5.2428 0.9268,-11.8535 -2.9175,-20.694 -3.3326,-6.0879 -6.6376,-7.9337 -12.8247,-7.8407 z"
         id="path2359"
         inkscape:connector-curvature="0"
         inkscape:export-xdpi="96"
         inkscape:export-ydpi="96"
         sodipodi:nodetypes="cccccsccccscccccccccsccccccccccccccscscccccccccccsccccccccc" />
      <path
         style="color:#000000;font-style:normal;font-variant:normal;font-weight:normal;font-stretch:normal;font-size:medium;line-height:normal;font-family:sans-serif;font-variant-ligatures:normal;font-variant-position:normal;font-variant-caps:normal;font-variant-numeric:normal;font-variant-alternates:normal;font-feature-settings:normal;text-indent:0;text-align:start;text-decoration:none;text-decoration-line:none;text-decoration-style:solid;text-decoration-color:#000000;letter-spacing:normal;word-spacing:normal;text-transform:none;writing-mode:lr-tb;direction:ltr;text-orientation:mixed;dominant-baseline:auto;baseline-shift:baseline;text-anchor:start;white-space:normal;shape-padding:0;clip-rule:nonzero;display:inline;overflow:visible;visibility:visible;opacity:1;isolation:auto;mix-blend-mode:normal;color-interpolation:sRGB;color-interpolation-filters:linearRGB;solid-color:#000000;solid-opacity:1;vector-effect:none;fill:url(#linearGradient2367);fill-opacity:1;fill-rule:nonzero;stroke:none;stroke-width:1.13413203;stroke-linecap:round;stroke-linejoin:round;stroke-miterlimit:4;stroke-dasharray:none;stroke-dashoffset:0;stroke-opacity:1;color-rendering:auto;image-rendering:auto;shape-rendering:auto;text-rendering:auto;enable-background:accumulate"
         d="m 31110.213,22326.604 v 0 c 0,0 -0.01,0 -0.02,0 h -0.08 -0.08 c -0.724,0 -1.391,0.39 -1.767,0.959 -0.397,0.602 -0.573,1.32 -0.59,2.033 0,0.713 0.129,1.44 0.48,2.073 0.356,0.627 1.01,1.142 1.772,1.187 h -0.08 c 0,0 15.952,2.102 24.291,2.102 8.336,0 24.282,-2.102 24.291,-2.102 0.757,-0.09 1.383,-0.645 1.717,-1.306 0.336,-0.654 0.437,-1.393 0.396,-2.106 -0.08,-0.712 -0.234,-1.423 -0.681,-1.998 -0.43,-0.568 -1.159,-0.963 -1.922,-0.851 0,0 -16.087,2.068 -23.801,2.068 -7.725,0 -23.836,-2.068 -23.836,-2.068 0,0 -0.08,0 -0.08,0 z m 190.889,0 c -0.176,-0.03 -0.358,-0.03 -0.541,0 v 0 c -0.08,0 -16.637,1.871 -24.709,1.871 -8.525,0.314 -17.975,-1.688 -25.627,-1.494 -0.641,0.08 -0.8,0.238 -1.022,0.594 -0.374,0.602 -0.531,1.315 -0.556,2.027 0,0.713 0.117,1.443 0.455,2.073 0.344,0.636 0.946,1.138 1.666,1.185 0.08,0 16.542,1.879 25.089,1.879 8.551,0 25.032,-1.875 25.077,-1.879 0.732,-0.09 1.358,-0.585 1.689,-1.236 0.336,-0.653 0.447,-1.401 0.414,-2.125 -0.08,-0.73 -0.226,-1.452 -0.631,-2.039 -0.304,-0.439 -0.776,-0.771 -1.302,-0.858 z m -117.5,0.494 c -0.193,0 -0.421,0.08 -0.707,0.163 -0.375,0.177 -0.531,0.458 -0.758,0.814 -0.381,0.602 -0.557,1.313 -0.575,2.027 0,0.712 0.118,1.442 0.456,2.073 0.344,0.635 0.97,1.132 1.703,1.177 0.08,0 16.931,1.758 25.656,1.758 8.719,0 25.559,-1.751 25.619,-1.758 0.758,0 1.415,-0.552 1.764,-1.205 0.344,-0.652 0.463,-1.405 0.429,-2.136 -0.08,-0.73 -0.22,-1.461 -0.64,-2.055 -0.414,-0.577 -1.104,-0.954 -1.838,-0.856 0,0 -17.055,1.719 -25.336,1.719 -8.263,0 -25.177,-1.706 -25.262,-1.715 h -0.531 z m -91.536,0 c -2.023,0 -0.431,0 -0.632,0.09 h 0.105 c 0,0 -16.918,2.821 -26.123,2.821 -9.204,0 -27.332,-2.821 -27.332,-2.821 h -0.211 -0.336 c -2.997,0.341 -2.997,5.917 0,6.258 0.08,0 17.918,2.901 27.885,2.901 9.983,0 26.717,-2.907 26.717,-2.907 h -0.1 c 3.169,0 3.223,-6.163 0.08,-6.283 z m 294.178,0.141 0.06,0.02 h -0.178 c -0.08,0 -19.832,2.543 -29.498,2.543 -9.667,0 -29.48,-2.538 -29.514,-2.543 h -0.218 c 0,0 -0.08,0 -0.09,0 h -0.08 -0.08 -0.08 c -0.227,0 -0.414,0.197 -0.539,0.441 -1.8,1.178 -1.683,5.505 0.588,5.811 0,0 19.748,2.587 29.904,2.587 10.149,0 29.836,-2.586 29.861,-2.587 2.626,-0.284 2.515,-6.212 -0.121,-6.27 z m -412.193,0.1 h 0.07 c 0,0 -0.08,0 -0.08,0 h -0.08 -0.08 c -0.589,0 -1.121,0.373 -1.431,0.931 -0.325,0.594 -0.472,1.316 -0.489,2.033 0,0.713 0.102,1.447 0.389,2.082 0.287,0.636 0.816,1.147 1.435,1.196 0.08,0 12.326,2.164 18.805,2.168 6.594,0 19.136,-2.17 19.158,-2.174 0.615,-0.09 1.131,-0.635 1.403,-1.291 0.276,-0.653 0.358,-1.396 0.324,-2.111 -0.08,-0.713 -0.203,-1.426 -0.547,-2.002 -0.344,-0.577 -0.943,-0.959 -1.562,-0.84 0,0 -12.703,2.135 -18.764,2.129 -5.966,0 -18.455,-2.129 -18.455,-2.129 0,0 -0.08,0 -0.08,0 z"
         transform="matrix(0.26458333,0,0,0.26458333,0,-8.3923341e-6)"
         id="path2361"
         inkscape:connector-curvature="0" />
      <path
         style="fill:#000000;fill-opacity:1;stroke:#000000;stroke-width:0.51012325;stroke-linecap:round;stroke-linejoin:round;stroke-miterlimit:4;stroke-dasharray:none;stroke-opacity:1"
         d="m 8302.0935,5865.2301 c 0,0 0.2831,0.7985 1.698,0.5195 1.4154,-0.2799 2.4212,-1.1189 2.4212,-1.1189 0,0 0.5813,-0.4082 1.7843,-0.5998 1.2023,-0.1923 6.4052,-0.085 8.551,0.2772 0.026,0.027 0.7945,0.096 0.7945,0.096 l 0.4788,4.5653 0.7446,0.096 c 0,0 -0.083,-5.7004 -0.1665,-6.5476 -0.06,-0.026 -7.2357,0.085 -9.7354,0.4517 -2.4996,0.3676 -2.987,0.1201 -5.0386,0.719 -0.4086,0.1658 -1.8365,0.9047 -1.5333,1.5424 z"
         id="path2363"
         inkscape:connector-curvature="0"
         sodipodi:nodetypes="cccccccccccc"
         inkscape:export-xdpi="96"
         inkscape:export-ydpi="96" />
    </g>
    <rect
       y="5651.2031"
       x="8980.7393"
       height="158.75"
       width="158.75"
       id="rect107"
       style="opacity:1;fill:#1593fe;fill-opacity:1;fill-rule:nonzero;stroke:none;stroke-width:0.52916658;stroke-linecap:round;stroke-linejoin:round;stroke-miterlimit:4;stroke-dasharray:none;stroke-dashoffset:0;stroke-opacity:1;paint-order:fill markers stroke"
       inkscape:export-xdpi="96"
       inkscape:export-ydpi="96" />
    <g
       id="g949"
       transform="translate(-29.121811,-53.571518)"
       inkscape:export-xdpi="96"
       inkscape:export-ydpi="96">
      <g
         transform="translate(4.3171181e-4,-0.42098981)"
         id="g972">
        <path
           style="fill:#37d690;fill-opacity:1;stroke:#3e3e3e;stroke-width:1.0583334;stroke-linecap:round;stroke-linejoin:round;stroke-miterlimit:4;stroke-dasharray:none;stroke-opacity:1"
           d="m 9078.6378,5774.3422 h -0.4441 v 0 c -1.3064,-0.025 -7.106,0.3463 -7.0458,8.6449 0.019,2.7994 0.041,4.3811 0.066,5.611 0.1231,0.017 2.4327,0.334 3.5407,0.334 1.0694,0 3.1755,-0.2857 3.4424,-0.3221 l -0.2466,-4.3313 c 0,0 0.026,-2.26 1.0709,-0.6567 0.8771,1.3448 1.0491,3.4436 1.0256,4.8368 0.069,0.013 2.1978,0.2477 3.2088,0.2477 0.9439,0 2.7427,-0.1976 3.0452,-0.2317 0.057,-1.1595 0.1231,-3.5122 -0.1537,-5.1443 -0.3783,-2.2332 -0.5781,-3.8718 -1.989,-6.2083 -1.5657,-2.1121 -3.3282,-2.752 -5.5202,-2.7821 z m 34.1283,-7.2204 c -0.053,0 -3.4229,-0.091 -5.4462,3.3592 -0.9416,1.61 -1.5087,3.2293 -1.5897,5.0616 -0.074,1.6936 0.2781,10.8127 1.1236,13.0285 0.3115,0.033 2.7753,0.2914 4.0658,0.2914 1.1033,0 2.861,-0.172 3.6398,-0.2502 -1.5623,-2.3924 -5.4449,-12.6549 -2.6138,-14.9859 0,0 1.9336,0.7143 4.8348,-0.3435 0.052,0.038 1.7177,0.6489 2.4087,0.6464 1.7804,-0.065 1.8957,-0.5095 2.1196,-1.0265 0.5794,-1.4619 -1.1498,-3.0011 -1.5962,-3.3709 -0.4338,-0.3697 -2.8665,-2.4365 -6.9464,-2.4101 z m -48.8103,7.9071 c -0.4434,0 -1.0398,0.1463 -1.4171,0.267 -2.3763,0.6599 -1.6209,2.9381 -2.2716,4.1099 -0.4616,0.9288 -1.8543,2.4473 -3.2226,2.1429 0,0 2.3355,0.8627 3.6032,0 1.5593,-1.1006 1.4833,-4.5883 3.4028,-4.1143 1.4005,0.6669 1.0639,2.1929 0.7404,3.389 -0.6703,1.2616 -1.602,3.4542 -1.602,5.3811 0,0.7473 0.014,1.5561 0.091,2.3773 0.1675,0.025 1.7064,0.2448 2.4606,0.2448 0.6781,0 1.8583,-0.1573 2.2823,-0.216 -0.2822,-0.6127 -0.5288,-1.2826 -0.6967,-2.0081 -0.7395,-3.4546 0.2634,-4.077 0.6701,-6.8031 0.073,-0.4928 0.2095,-1.4713 -0.7655,-3.4103 -0.7941,-1.3004 -1.9449,-1.3735 -3.2752,-1.3602 z m 32.6061,0.2787 c -3.6998,0.3481 -5.5194,1.0786 -6.8485,5.8729 -0.6908,2.145 -0.5118,5.2695 -0.448,7.3648 0.066,0.013 0.1489,0.013 0.2578,0.022 0.2368,0.02 0.5638,0.046 0.9254,0.072 0.7231,0.052 1.5887,0.1044 2.1442,0.1044 1.0248,0 2.9337,-0.1648 3.2567,-0.1932 0.036,-1.8717 0.1865,-8.0977 0.9713,-5.0546 0.5185,2.0133 0.6712,3.7068 0.7094,5.0252 1.0454,0.013 2.2503,0.2171 3.3192,0.1819 0.013,-2e-4 0.013,-2e-4 0.013,0 0.9505,0 2.6183,-0.1598 3.0735,-0.2011 0.1,-2.424 0.4341,-5.4804 -1.3662,-9.5679 -1.5606,-2.8147 -3.1083,-3.6681 -6.0057,-3.6252 z"
           id="path109"
           inkscape:connector-curvature="0"
           inkscape:export-xdpi="96"
           inkscape:export-ydpi="96"
           sodipodi:nodetypes="cccccsccccscccccccccsccccccccccccccscscccccccccccsccccccccc" />
        <path
           style="color:#000000;font-style:normal;font-variant:normal;font-weight:normal;font-stretch:normal;font-size:medium;line-height:normal;font-family:sans-serif;font-variant-ligatures:normal;font-variant-position:normal;font-variant-caps:normal;font-variant-numeric:normal;font-variant-alternates:normal;font-feature-settings:normal;text-indent:0;text-align:start;text-decoration:none;text-decoration-line:none;text-decoration-style:solid;text-decoration-color:#000000;letter-spacing:normal;word-spacing:normal;text-transform:none;writing-mode:lr-tb;direction:ltr;text-orientation:mixed;dominant-baseline:auto;baseline-shift:baseline;text-anchor:start;white-space:normal;shape-padding:0;clip-rule:nonzero;display:inline;overflow:visible;visibility:visible;opacity:1;isolation:auto;mix-blend-mode:normal;color-interpolation:sRGB;color-interpolation-filters:linearRGB;solid-color:#000000;solid-opacity:1;vector-effect:none;fill:#3e3e3e;fill-opacity:1;fill-rule:nonzero;stroke:none;stroke-width:0.26458326;stroke-linecap:round;stroke-linejoin:round;stroke-miterlimit:4;stroke-dasharray:none;stroke-dashoffset:0;stroke-opacity:1;color-rendering:auto;image-rendering:auto;shape-rendering:auto;text-rendering:auto;enable-background:accumulate"
           d="m 9080.3027,5789.5127 v 0 c 0,0 0,0 0,0 h -0.013 -0.013 c -0.089,0 -0.1723,0.047 -0.2188,0.1174 -0.049,0.074 -0.071,0.1615 -0.073,0.2488 0,0.087 0.016,0.1761 0.058,0.2536 0.044,0.076 0.1258,0.1397 0.2197,0.1452 h -0.013 c 0,0 1.9764,0.2571 3.0096,0.2571 1.0327,0 3.0084,-0.2571 3.0096,-0.2571 0.093,-0.013 0.1714,-0.08 0.2127,-0.1597 0.042,-0.08 0.053,-0.1706 0.048,-0.2578 -0.013,-0.087 -0.029,-0.1741 -0.084,-0.2444 -0.053,-0.069 -0.1438,-0.1174 -0.2382,-0.1044 0,0 -1.9931,0.2531 -2.9489,0.2531 -0.9571,0 -2.9533,-0.2531 -2.9533,-0.2531 0,0 -0.013,0 -0.013,0 z m 23.6511,0 c -0.022,0 -0.044,0 -0.066,0 v 0 c -0.013,0 -2.0614,0.229 -3.0615,0.229 -1.0562,0.038 -2.227,-0.2067 -3.1751,-0.1828 -0.079,0.013 -0.099,0.03 -0.1271,0.073 -0.047,0.074 -0.066,0.1608 -0.069,0.2478 0,0.087 0.014,0.1765 0.057,0.2537 0.041,0.078 0.1166,0.1392 0.2064,0.145 0.013,0 2.0495,0.2298 3.1085,0.2298 1.0596,0 3.1015,-0.2293 3.107,-0.2298 0.091,-0.013 0.1682,-0.072 0.2093,-0.1514 0.043,-0.08 0.056,-0.1712 0.052,-0.2598 -0.013,-0.09 -0.027,-0.1777 -0.078,-0.2496 -0.038,-0.053 -0.097,-0.095 -0.1613,-0.1043 z m -14.5581,0.06 c -0.025,0 -0.052,0.013 -0.087,0.02 -0.047,0.021 -0.066,0.056 -0.093,0.1004 -0.048,0.074 -0.069,0.1606 -0.071,0.2479 0,0.087 0.014,0.1764 0.057,0.2536 0.043,0.078 0.1206,0.1384 0.2109,0.144 0.013,0 2.0978,0.2151 3.1789,0.2151 1.0802,0 3.1666,-0.2142 3.1741,-0.2151 0.093,0 0.1753,-0.068 0.2185,-0.1474 0.043,-0.08 0.057,-0.1719 0.053,-0.2613 -0.013,-0.09 -0.027,-0.1787 -0.079,-0.2514 -0.052,-0.072 -0.1368,-0.1174 -0.2277,-0.1043 0,0 -2.1131,0.2103 -3.1392,0.2103 -1.0238,0 -3.1194,-0.2088 -3.1299,-0.2099 h -0.066 z m -11.3413,0 c -0.2507,0 -0.053,0 -0.078,0.013 h 0.013 c 0,0 -2.0961,0.345 -3.2366,0.345 -1.1403,0 -3.3865,-0.345 -3.3865,-0.345 h -0.026 -0.041 c -0.3713,0.042 -0.3713,0.7238 0,0.7656 0.013,0 2.2201,0.3548 3.4549,0.3548 1.237,0 3.3103,-0.3556 3.3103,-0.3556 h -0.013 c 0.3926,0 0.3992,-0.754 0.013,-0.7687 z m 36.4484,0.017 h 0.013 -0.022 c -0.013,0 -2.4572,0.3111 -3.6548,0.3111 -1.1977,0 -3.6525,-0.3105 -3.6567,-0.3111 h -0.027 c 0,0 -0.013,0 -0.013,0 h -0.013 -0.013 -0.013 c -0.027,0 -0.052,0.025 -0.066,0.053 -0.2232,0.1441 -0.2087,0.6735 0.073,0.7108 0,0 2.4468,0.3165 3.7051,0.3165 1.2575,0 3.6966,-0.3163 3.6998,-0.3165 0.3254,-0.035 0.3115,-0.7597 -0.014,-0.7669 z m -51.0705,0.013 h 0.013 c 0,0 -0.013,0 -0.013,0 h -0.013 -0.013 c -0.073,0 -0.1389,0.046 -0.1774,0.1135 -0.04,0.073 -0.058,0.1611 -0.061,0.2488 0,0.087 0.013,0.177 0.048,0.2548 0.036,0.078 0.1012,0.1402 0.1779,0.1462 0.013,0 1.5272,0.2648 2.3299,0.2652 0.8169,0 2.371,-0.2655 2.3737,-0.2659 0.076,-0.013 0.1402,-0.078 0.1739,-0.1579 0.034,-0.08 0.044,-0.1708 0.04,-0.2582 -0.013,-0.087 -0.025,-0.1745 -0.067,-0.2451 -0.043,-0.07 -0.1167,-0.1174 -0.1935,-0.1031 0,0 -1.5739,0.2611 -2.3249,0.2605 -0.7391,0 -2.2865,-0.2605 -2.2865,-0.2605 0,0 -0.013,0 -0.013,0 z"
           id="path111"
           inkscape:connector-curvature="0" />
        <path
           style="fill:#3e3e3e;fill-opacity:1;stroke:#3e3e3e;stroke-width:0.4497917;stroke-linecap:round;stroke-linejoin:round;stroke-miterlimit:4;stroke-dasharray:none;stroke-opacity:1"
           d="m 9113.4805,5769.8987 c 0,0 0.1326,0.3692 0.7951,0.2401 0.6628,-0.1291 1.1337,-0.5173 1.1337,-0.5173 0,0 0.2724,-0.1888 0.8358,-0.2774 0.5629,-0.089 2.9994,-0.039 4.0042,0.1279 0.013,0.013 0.3721,0.044 0.3721,0.044 l 0.2242,2.1108 0.3487,0.044 c 0,0 -0.039,-2.6357 -0.078,-3.0275 -0.027,-0.013 -3.3883,0.039 -4.559,0.2089 -1.1705,0.1699 -1.3987,0.056 -2.3594,0.3325 -0.1914,0.076 -0.86,0.4183 -0.718,0.7131 z"
           id="path113"
           inkscape:connector-curvature="0"
           sodipodi:nodetypes="cccccccccccc"
           inkscape:export-xdpi="96"
           inkscape:export-ydpi="96" />
        <text
           xml:space="preserve"
           style="font-style:normal;font-variant:normal;font-weight:normal;font-stretch:normal;font-size:10.58333302px;line-height:1.25;font-family:'Andale Mono';-inkscape-font-specification:'Andale Mono';letter-spacing:0px;word-spacing:0px;fill:#37d690;fill-opacity:1;stroke:none;stroke-width:0.26458332"
           x="9072.0996"
           y="5802.0151"
           id="text929"><tspan
             sodipodi:role="line"
             id="tspan927"
             x="9072.0996"
             y="5802.0151"
             style="font-style:normal;font-variant:normal;font-weight:normal;font-stretch:normal;font-family:Believer;-inkscape-font-specification:Believer;fill:#37d690;fill-opacity:1;stroke-width:0.26458332">nessie</tspan></text>
      </g>
    </g>
    <rect
       inkscape:export-ydpi="96"
       inkscape:export-xdpi="96"
       style="opacity:1;fill:#1593fe;fill-opacity:1;fill-rule:nonzero;stroke:none;stroke-width:0.52916658;stroke-linecap:round;stroke-linejoin:round;stroke-miterlimit:4;stroke-dasharray:none;stroke-dashoffset:0;stroke-opacity:1;paint-order:fill markers stroke"
       id="rect943"
       width="160.86667"
       height="160.86667"
       x="9207.8652"
       y="5703.7163" />
    <path
       sodipodi:nodetypes="cccccsccccscccccccccsccccccccccccccscscccccccccccsccccccccc"
       inkscape:export-ydpi="96"
       inkscape:export-xdpi="96"
       inkscape:connector-curvature="0"
       id="path945"
       d="m 9277.7001,5774.3422 h -0.4441 v 0 c -1.3064,-0.025 -7.106,0.3463 -7.0458,8.6449 0.019,2.7994 0.041,4.3811 0.066,5.611 0.1231,0.017 2.4327,0.334 3.5407,0.334 1.0694,0 3.1755,-0.2857 3.4424,-0.3221 l -0.2466,-4.3313 c 0,0 0.026,-2.26 1.0709,-0.6567 0.8771,1.3448 1.0491,3.4436 1.0256,4.8368 0.069,0.013 2.1978,0.2477 3.2088,0.2477 0.9439,0 2.7427,-0.1976 3.0452,-0.2317 0.057,-1.1595 0.1231,-3.5122 -0.1537,-5.1443 -0.3783,-2.2332 -0.5781,-3.8718 -1.989,-6.2083 -1.5657,-2.1121 -3.3282,-2.752 -5.5202,-2.7821 z m 34.1283,-7.2204 c -0.053,0 -3.4229,-0.091 -5.4462,3.3592 -0.9416,1.61 -1.5087,3.2293 -1.5897,5.0616 -0.074,1.6936 0.2781,10.8127 1.1236,13.0285 0.3115,0.033 2.7753,0.2914 4.0658,0.2914 1.1033,0 2.861,-0.172 3.6398,-0.2502 -1.5623,-2.3924 -5.4449,-12.6549 -2.6138,-14.9859 0,0 1.9336,0.7143 4.8348,-0.3435 0.052,0.038 1.7177,0.6489 2.4087,0.6464 1.7804,-0.065 1.8957,-0.5095 2.1196,-1.0265 0.5794,-1.4619 -1.1498,-3.0011 -1.5962,-3.3709 -0.4338,-0.3697 -2.8665,-2.4365 -6.9464,-2.4101 z m -48.8103,7.9071 c -0.4434,0 -1.0398,0.1463 -1.4171,0.267 -2.3763,0.6599 -1.6209,2.9381 -2.2716,4.1099 -0.4616,0.9288 -1.8543,2.4473 -3.2226,2.1429 0,0 2.3355,0.8627 3.6032,0 1.5593,-1.1006 1.4833,-4.5883 3.4028,-4.1143 1.4005,0.6669 1.0639,2.1929 0.7404,3.389 -0.6703,1.2616 -1.602,3.4542 -1.602,5.3811 0,0.7473 0.014,1.5561 0.091,2.3773 0.1675,0.025 1.7064,0.2448 2.4606,0.2448 0.6781,0 1.8583,-0.1573 2.2823,-0.216 -0.2822,-0.6127 -0.5288,-1.2826 -0.6967,-2.0081 -0.7395,-3.4546 0.2634,-4.077 0.6701,-6.8031 0.073,-0.4928 0.2095,-1.4713 -0.7655,-3.4103 -0.7941,-1.3004 -1.9449,-1.3735 -3.2752,-1.3602 z m 32.6061,0.2787 c -3.6998,0.3481 -5.5194,1.0786 -6.8485,5.8729 -0.6908,2.145 -0.5118,5.2695 -0.448,7.3648 0.066,0.013 0.1489,0.013 0.2578,0.022 0.2368,0.02 0.5638,0.046 0.9254,0.072 0.7231,0.052 1.5887,0.1044 2.1442,0.1044 1.0248,0 2.9337,-0.1648 3.2567,-0.1932 0.036,-1.8717 0.1865,-8.0977 0.9713,-5.0546 0.5185,2.0133 0.6712,3.7068 0.7094,5.0252 1.0454,0.013 2.2503,0.2171 3.3192,0.1819 0.013,-2e-4 0.013,-2e-4 0.013,0 0.9505,0 2.6183,-0.1598 3.0735,-0.2011 0.1,-2.424 0.4341,-5.4804 -1.3662,-9.5679 -1.5606,-2.8147 -3.1083,-3.6681 -6.0057,-3.6252 z"
       style="fill:#37d690;fill-opacity:1;stroke:#3e3e3e;stroke-width:1.0583334;stroke-linecap:round;stroke-linejoin:round;stroke-miterlimit:4;stroke-dasharray:none;stroke-opacity:1" />
    <path
       inkscape:connector-curvature="0"
       id="path947"
       d="m 9279.365,5789.5127 v 0 c 0,0 0,0 0,0 h -0.013 -0.013 c -0.089,0 -0.1723,0.047 -0.2188,0.1174 -0.049,0.074 -0.071,0.1615 -0.073,0.2488 0,0.087 0.016,0.1761 0.058,0.2536 0.044,0.076 0.1258,0.1397 0.2197,0.1452 h -0.013 c 0,0 1.9764,0.2571 3.0096,0.2571 1.0327,0 3.0084,-0.2571 3.0096,-0.2571 0.093,-0.013 0.1714,-0.08 0.2127,-0.1597 0.042,-0.08 0.053,-0.1706 0.048,-0.2578 -0.013,-0.087 -0.029,-0.1741 -0.084,-0.2444 -0.053,-0.069 -0.1438,-0.1174 -0.2382,-0.1044 0,0 -1.9931,0.2531 -2.9489,0.2531 -0.9571,0 -2.9533,-0.2531 -2.9533,-0.2531 0,0 -0.013,0 -0.013,0 z m 23.6511,0 c -0.022,0 -0.044,0 -0.066,0 v 0 c -0.013,0 -2.0614,0.229 -3.0615,0.229 -1.0562,0.038 -2.227,-0.2067 -3.1751,-0.1828 -0.079,0.013 -0.099,0.03 -0.1271,0.073 -0.047,0.074 -0.066,0.1608 -0.069,0.2478 0,0.087 0.014,0.1765 0.057,0.2537 0.041,0.078 0.1166,0.1392 0.2064,0.145 0.013,0 2.0495,0.2298 3.1085,0.2298 1.0596,0 3.1015,-0.2293 3.107,-0.2298 0.091,-0.013 0.1682,-0.072 0.2093,-0.1514 0.043,-0.08 0.056,-0.1712 0.052,-0.2598 -0.013,-0.09 -0.027,-0.1777 -0.078,-0.2496 -0.038,-0.053 -0.097,-0.095 -0.1613,-0.1043 z m -14.5581,0.06 c -0.025,0 -0.052,0.013 -0.087,0.02 -0.047,0.021 -0.066,0.056 -0.093,0.1004 -0.048,0.074 -0.069,0.1606 -0.071,0.2479 0,0.087 0.014,0.1764 0.057,0.2536 0.043,0.078 0.1206,0.1384 0.2109,0.144 0.013,0 2.0978,0.2151 3.1789,0.2151 1.0802,0 3.1666,-0.2142 3.1741,-0.2151 0.093,0 0.1753,-0.068 0.2185,-0.1474 0.043,-0.08 0.057,-0.1719 0.053,-0.2613 -0.013,-0.09 -0.027,-0.1787 -0.079,-0.2514 -0.052,-0.072 -0.1368,-0.1174 -0.2277,-0.1043 0,0 -2.1131,0.2103 -3.1392,0.2103 -1.0238,0 -3.1194,-0.2088 -3.1299,-0.2099 h -0.066 z m -11.3413,0 c -0.2507,0 -0.053,0 -0.078,0.013 h 0.013 c 0,0 -2.0961,0.345 -3.2366,0.345 -1.1403,0 -3.3865,-0.345 -3.3865,-0.345 h -0.026 -0.041 c -0.3713,0.042 -0.3713,0.7238 0,0.7656 0.013,0 2.2201,0.3548 3.4549,0.3548 1.237,0 3.3103,-0.3556 3.3103,-0.3556 h -0.013 c 0.3926,0 0.3992,-0.754 0.013,-0.7687 z m 36.4484,0.017 h 0.013 -0.022 c -0.013,0 -2.4572,0.3111 -3.6548,0.3111 -1.1977,0 -3.6525,-0.3105 -3.6567,-0.3111 h -0.027 c 0,0 -0.013,0 -0.013,0 h -0.013 -0.013 -0.013 c -0.027,0 -0.052,0.025 -0.066,0.053 -0.2232,0.1441 -0.2087,0.6735 0.073,0.7108 0,0 2.4468,0.3165 3.7051,0.3165 1.2575,0 3.6966,-0.3163 3.6998,-0.3165 0.3254,-0.035 0.3115,-0.7597 -0.014,-0.7669 z m -51.0705,0.013 h 0.013 c 0,0 -0.013,0 -0.013,0 h -0.013 -0.013 c -0.073,0 -0.1389,0.046 -0.1774,0.1135 -0.04,0.073 -0.058,0.1611 -0.061,0.2488 0,0.087 0.013,0.177 0.048,0.2548 0.036,0.078 0.1012,0.1402 0.1779,0.1462 0.013,0 1.5272,0.2648 2.3299,0.2652 0.8169,0 2.371,-0.2655 2.3737,-0.2659 0.076,-0.013 0.1402,-0.078 0.1739,-0.1579 0.034,-0.08 0.044,-0.1708 0.04,-0.2582 -0.013,-0.087 -0.025,-0.1745 -0.067,-0.2451 -0.043,-0.07 -0.1167,-0.1174 -0.1935,-0.1031 0,0 -1.5739,0.2611 -2.3249,0.2605 -0.7391,0 -2.2865,-0.2605 -2.2865,-0.2605 0,0 -0.013,0 -0.013,0 z"
       style="color:#000000;font-style:normal;font-variant:normal;font-weight:normal;font-stretch:normal;font-size:medium;line-height:normal;font-family:sans-serif;font-variant-ligatures:normal;font-variant-position:normal;font-variant-caps:normal;font-variant-numeric:normal;font-variant-alternates:normal;font-feature-settings:normal;text-indent:0;text-align:start;text-decoration:none;text-decoration-line:none;text-decoration-style:solid;text-decoration-color:#000000;letter-spacing:normal;word-spacing:normal;text-transform:none;writing-mode:lr-tb;direction:ltr;text-orientation:mixed;dominant-baseline:auto;baseline-shift:baseline;text-anchor:start;white-space:normal;shape-padding:0;clip-rule:nonzero;display:inline;overflow:visible;visibility:visible;opacity:1;isolation:auto;mix-blend-mode:normal;color-interpolation:sRGB;color-interpolation-filters:linearRGB;solid-color:#000000;solid-opacity:1;vector-effect:none;fill:#3e3e3e;fill-opacity:1;fill-rule:nonzero;stroke:none;stroke-width:0.26458326;stroke-linecap:round;stroke-linejoin:round;stroke-miterlimit:4;stroke-dasharray:none;stroke-dashoffset:0;stroke-opacity:1;color-rendering:auto;image-rendering:auto;shape-rendering:auto;text-rendering:auto;enable-background:accumulate" />
    <path
       inkscape:export-ydpi="96"
       inkscape:export-xdpi="96"
       sodipodi:nodetypes="cccccccccccc"
       inkscape:connector-curvature="0"
       id="path949"
       d="m 9312.5428,5769.8987 c 0,0 0.1326,0.3692 0.7951,0.2401 0.6628,-0.1291 1.1337,-0.5173 1.1337,-0.5173 0,0 0.2724,-0.1888 0.8358,-0.2774 0.5629,-0.089 2.9994,-0.039 4.0042,0.1279 0.013,0.013 0.3721,0.044 0.3721,0.044 l 0.2242,2.1108 0.3487,0.044 c 0,0 -0.039,-2.6357 -0.078,-3.0275 -0.027,-0.013 -3.3883,0.039 -4.559,0.2089 -1.1705,0.1699 -1.3987,0.056 -2.3594,0.3325 -0.1914,0.076 -0.86,0.4183 -0.718,0.7131 z"
       style="fill:#3e3e3e;fill-opacity:1;stroke:#3e3e3e;stroke-width:0.4497917;stroke-linecap:round;stroke-linejoin:round;stroke-miterlimit:4;stroke-dasharray:none;stroke-opacity:1" />
    <text
       id="text953"
       y="5655.4556"
       x="9513.9014"
       style="font-style:normal;font-variant:normal;font-weight:normal;font-stretch:normal;font-size:10.51299381px;line-height:1.25;font-family:'Andale Mono';-inkscape-font-specification:'Andale Mono';letter-spacing:0px;word-spacing:0px;fill:#37d690;fill-opacity:1;stroke:#37d690;stroke-width:0.26458335;stroke-linecap:round;stroke-linejoin:round;stroke-miterlimit:4;stroke-dasharray:none;stroke-opacity:1"
       xml:space="preserve"
       transform="scale(0.97476489,1.0258884)"><tspan
         style="font-style:normal;font-variant:normal;font-weight:normal;font-stretch:normal;line-height:0;font-family:'Enchanting Celebrations';-inkscape-font-specification:'Enchanting Celebrations';letter-spacing:1.05129957px;fill:#37d690;fill-opacity:1;stroke:#37d690;stroke-width:0.26458335;stroke-linecap:round;stroke-linejoin:round;stroke-miterlimit:4;stroke-dasharray:none;stroke-opacity:1"
         y="5655.4556"
         x="9513.9014"
         id="tspan951"
         sodipodi:role="line">nessie</tspan></text>
    <rect
       inkscape:export-ydpi="96"
       inkscape:export-xdpi="96"
       style="opacity:1;fill:#1593fe;fill-opacity:1;fill-rule:nonzero;stroke:none;stroke-width:0.52916658;stroke-linecap:round;stroke-linejoin:round;stroke-miterlimit:4;stroke-dasharray:none;stroke-dashoffset:0;stroke-opacity:1;paint-order:fill markers stroke"
       id="rect955"
       width="160.86667"
       height="160.86667"
       x="9008.8027"
       y="5887.063" />
    <path
       sodipodi:nodetypes="cccccsccccscccccccccsccccccccccccccscscccccccccccsccccccccc"
       inkscape:export-ydpi="96"
       inkscape:export-xdpi="96"
       inkscape:connector-curvature="0"
       id="path957"
       d="m 9078.6378,5957.6891 h -0.4441 v 0 c -1.3064,-0.025 -7.106,0.3463 -7.0458,8.6449 0.019,2.7994 0.041,4.3811 0.066,5.611 0.1231,0.017 2.4327,0.334 3.5407,0.334 1.0694,0 3.1755,-0.2857 3.4424,-0.3221 l -0.2466,-4.3313 c 0,0 0.026,-2.26 1.0709,-0.6567 0.8771,1.3448 1.0491,3.4436 1.0256,4.8368 0.069,0.013 2.1978,0.2477 3.2088,0.2477 0.9439,0 2.7427,-0.1976 3.0452,-0.2317 0.057,-1.1595 0.1231,-3.5122 -0.1537,-5.1443 -0.3783,-2.2332 -0.5781,-3.8718 -1.989,-6.2083 -1.5657,-2.1121 -3.3282,-2.752 -5.5202,-2.7821 z m 34.1283,-7.2204 c -0.053,0 -3.4229,-0.091 -5.4462,3.3592 -0.9416,1.61 -1.5087,3.2293 -1.5897,5.0616 -0.074,1.6936 0.2781,10.8127 1.1236,13.0285 0.3115,0.033 2.7753,0.2914 4.0658,0.2914 1.1033,0 2.861,-0.172 3.6398,-0.2502 -1.5623,-2.3924 -5.4449,-12.6549 -2.6138,-14.9859 0,0 1.9336,0.7143 4.8348,-0.3435 0.052,0.038 1.7177,0.6489 2.4087,0.6464 1.7804,-0.065 1.8957,-0.5095 2.1196,-1.0265 0.5794,-1.4619 -1.1498,-3.0011 -1.5962,-3.3709 -0.4338,-0.3697 -2.8665,-2.4365 -6.9464,-2.4101 z m -48.8103,7.9071 c -0.4434,0 -1.0398,0.1463 -1.4171,0.267 -2.3763,0.6599 -1.6209,2.9381 -2.2716,4.1099 -0.4616,0.9288 -1.8543,2.4473 -3.2226,2.1429 0,0 2.3355,0.8627 3.6032,0 1.5593,-1.1006 1.4833,-4.5883 3.4028,-4.1143 1.4005,0.6669 1.0639,2.1929 0.7404,3.389 -0.6703,1.2616 -1.602,3.4542 -1.602,5.3811 0,0.7473 0.014,1.5561 0.091,2.3773 0.1675,0.025 1.7064,0.2448 2.4606,0.2448 0.6781,0 1.8583,-0.1573 2.2823,-0.216 -0.2822,-0.6127 -0.5288,-1.2826 -0.6967,-2.0081 -0.7395,-3.4546 0.2634,-4.077 0.6701,-6.8031 0.073,-0.4928 0.2095,-1.4713 -0.7655,-3.4103 -0.7941,-1.3004 -1.9449,-1.3735 -3.2752,-1.3602 z m 32.6061,0.2787 c -3.6998,0.3481 -5.5194,1.0786 -6.8485,5.8729 -0.6908,2.145 -0.5118,5.2695 -0.448,7.3648 0.066,0.013 0.1489,0.013 0.2578,0.022 0.2368,0.02 0.5638,0.046 0.9254,0.072 0.7231,0.052 1.5887,0.1044 2.1442,0.1044 1.0248,0 2.9337,-0.1648 3.2567,-0.1932 0.036,-1.8717 0.1865,-8.0977 0.9713,-5.0546 0.5185,2.0133 0.6712,3.7068 0.7094,5.0252 1.0454,0.013 2.2503,0.2171 3.3192,0.1819 0.013,-2e-4 0.013,-2e-4 0.013,0 0.9505,0 2.6183,-0.1598 3.0735,-0.2011 0.1,-2.424 0.4341,-5.4804 -1.3662,-9.5679 -1.5606,-2.8147 -3.1083,-3.6681 -6.0057,-3.6252 z"
       style="fill:#37d690;fill-opacity:1;stroke:#3e3e3e;stroke-width:1.0583334;stroke-linecap:round;stroke-linejoin:round;stroke-miterlimit:4;stroke-dasharray:none;stroke-opacity:1" />
    <path
       inkscape:connector-curvature="0"
       id="path959"
       d="m 9080.3027,5972.8596 v 0 c 0,0 0,0 0,0 h -0.013 -0.013 c -0.089,0 -0.1723,0.047 -0.2188,0.1174 -0.049,0.074 -0.071,0.1615 -0.073,0.2488 0,0.087 0.016,0.1761 0.058,0.2536 0.044,0.076 0.1258,0.1397 0.2197,0.1452 h -0.013 c 0,0 1.9764,0.2571 3.0096,0.2571 1.0327,0 3.0084,-0.2571 3.0096,-0.2571 0.093,-0.013 0.1714,-0.08 0.2127,-0.1597 0.042,-0.08 0.053,-0.1706 0.048,-0.2578 -0.013,-0.087 -0.029,-0.1741 -0.084,-0.2444 -0.053,-0.069 -0.1438,-0.1174 -0.2382,-0.1044 0,0 -1.9931,0.2531 -2.9489,0.2531 -0.9571,0 -2.9533,-0.2531 -2.9533,-0.2531 0,0 -0.013,0 -0.013,0 z m 23.6511,0 c -0.022,0 -0.044,0 -0.066,0 v 0 c -0.013,0 -2.0614,0.229 -3.0615,0.229 -1.0562,0.038 -2.227,-0.2067 -3.1751,-0.1828 -0.079,0.013 -0.099,0.03 -0.1271,0.073 -0.047,0.074 -0.066,0.1608 -0.069,0.2478 0,0.087 0.014,0.1765 0.057,0.2537 0.041,0.078 0.1166,0.1392 0.2064,0.145 0.013,0 2.0495,0.2298 3.1085,0.2298 1.0596,0 3.1015,-0.2293 3.107,-0.2298 0.091,-0.013 0.1682,-0.072 0.2093,-0.1514 0.043,-0.08 0.056,-0.1712 0.052,-0.2598 -0.013,-0.09 -0.027,-0.1777 -0.078,-0.2496 -0.038,-0.053 -0.097,-0.095 -0.1613,-0.1043 z m -14.5581,0.06 c -0.025,0 -0.052,0.013 -0.087,0.02 -0.047,0.021 -0.066,0.056 -0.093,0.1004 -0.048,0.074 -0.069,0.1606 -0.071,0.2479 0,0.087 0.014,0.1764 0.057,0.2536 0.043,0.078 0.1206,0.1384 0.2109,0.144 0.013,0 2.0978,0.2151 3.1789,0.2151 1.0802,0 3.1666,-0.2142 3.1741,-0.2151 0.093,0 0.1753,-0.068 0.2185,-0.1474 0.043,-0.08 0.057,-0.1719 0.053,-0.2613 -0.013,-0.09 -0.027,-0.1787 -0.079,-0.2514 -0.052,-0.072 -0.1368,-0.1174 -0.2277,-0.1043 0,0 -2.1131,0.2103 -3.1392,0.2103 -1.0238,0 -3.1194,-0.2088 -3.1299,-0.2099 h -0.066 z m -11.3413,0 c -0.2507,0 -0.053,0 -0.078,0.013 h 0.013 c 0,0 -2.0961,0.345 -3.2366,0.345 -1.1403,0 -3.3865,-0.345 -3.3865,-0.345 h -0.026 -0.041 c -0.3713,0.042 -0.3713,0.7238 0,0.7656 0.013,0 2.2201,0.3548 3.4549,0.3548 1.237,0 3.3103,-0.3556 3.3103,-0.3556 h -0.013 c 0.3926,0 0.3992,-0.754 0.013,-0.7687 z m 36.4484,0.017 h 0.013 -0.022 c -0.013,0 -2.4572,0.3111 -3.6548,0.3111 -1.1977,0 -3.6525,-0.3105 -3.6567,-0.3111 h -0.027 c 0,0 -0.013,0 -0.013,0 h -0.013 -0.013 -0.013 c -0.027,0 -0.052,0.025 -0.066,0.053 -0.2232,0.1441 -0.2087,0.6735 0.073,0.7108 0,0 2.4468,0.3165 3.7051,0.3165 1.2575,0 3.6966,-0.3163 3.6998,-0.3165 0.3254,-0.035 0.3115,-0.7597 -0.014,-0.7669 z m -51.0705,0.013 h 0.013 c 0,0 -0.013,0 -0.013,0 h -0.013 -0.013 c -0.073,0 -0.1389,0.046 -0.1774,0.1135 -0.04,0.073 -0.058,0.1611 -0.061,0.2488 0,0.087 0.013,0.177 0.048,0.2548 0.036,0.078 0.1012,0.1402 0.1779,0.1462 0.013,0 1.5272,0.2648 2.3299,0.2652 0.8169,0 2.371,-0.2655 2.3737,-0.2659 0.076,-0.013 0.1402,-0.078 0.1739,-0.1579 0.034,-0.08 0.044,-0.1708 0.04,-0.2582 -0.013,-0.087 -0.025,-0.1745 -0.067,-0.2451 -0.043,-0.07 -0.1167,-0.1174 -0.1935,-0.1031 0,0 -1.5739,0.2611 -2.3249,0.2605 -0.7391,0 -2.2865,-0.2605 -2.2865,-0.2605 0,0 -0.013,0 -0.013,0 z"
       style="color:#000000;font-style:normal;font-variant:normal;font-weight:normal;font-stretch:normal;font-size:medium;line-height:normal;font-family:sans-serif;font-variant-ligatures:normal;font-variant-position:normal;font-variant-caps:normal;font-variant-numeric:normal;font-variant-alternates:normal;font-feature-settings:normal;text-indent:0;text-align:start;text-decoration:none;text-decoration-line:none;text-decoration-style:solid;text-decoration-color:#000000;letter-spacing:normal;word-spacing:normal;text-transform:none;writing-mode:lr-tb;direction:ltr;text-orientation:mixed;dominant-baseline:auto;baseline-shift:baseline;text-anchor:start;white-space:normal;shape-padding:0;clip-rule:nonzero;display:inline;overflow:visible;visibility:visible;opacity:1;isolation:auto;mix-blend-mode:normal;color-interpolation:sRGB;color-interpolation-filters:linearRGB;solid-color:#000000;solid-opacity:1;vector-effect:none;fill:#3e3e3e;fill-opacity:1;fill-rule:nonzero;stroke:none;stroke-width:0.26458326;stroke-linecap:round;stroke-linejoin:round;stroke-miterlimit:4;stroke-dasharray:none;stroke-dashoffset:0;stroke-opacity:1;color-rendering:auto;image-rendering:auto;shape-rendering:auto;text-rendering:auto;enable-background:accumulate" />
    <path
       inkscape:export-ydpi="96"
       inkscape:export-xdpi="96"
       sodipodi:nodetypes="cccccccccccc"
       inkscape:connector-curvature="0"
       id="path961"
       d="m 9113.4805,5953.2456 c 0,0 0.1326,0.3692 0.7951,0.2401 0.6628,-0.1291 1.1337,-0.5173 1.1337,-0.5173 0,0 0.2724,-0.1888 0.8358,-0.2774 0.5629,-0.089 2.9994,-0.039 4.0042,0.1279 0.013,0.013 0.3721,0.044 0.3721,0.044 l 0.2242,2.1108 0.3487,0.044 c 0,0 -0.039,-2.6357 -0.078,-3.0275 -0.027,-0.013 -3.3883,0.039 -4.559,0.2089 -1.1705,0.1699 -1.3987,0.056 -2.3594,0.3325 -0.1914,0.076 -0.86,0.4183 -0.718,0.7131 z"
       style="fill:#3e3e3e;fill-opacity:1;stroke:#3e3e3e;stroke-width:0.4497917;stroke-linecap:round;stroke-linejoin:round;stroke-miterlimit:4;stroke-dasharray:none;stroke-opacity:1" />
    <text
       id="text965"
       y="5984.52"
       x="9070.167"
       style="font-style:normal;font-variant:normal;font-weight:normal;font-stretch:normal;font-size:10.58333302px;line-height:1.25;font-family:Lato;-inkscape-font-specification:Lato;letter-spacing:0px;word-spacing:0px;fill:#37d690;fill-opacity:1;stroke:#37d690;stroke-width:0.26458332;stroke-miterlimit:4;stroke-dasharray:none;stroke-opacity:1"
       xml:space="preserve"><tspan
         style="font-style:normal;font-variant:normal;font-weight:normal;font-stretch:normal;font-family:quicksand;-inkscape-font-specification:quicksand;letter-spacing:1.0583334px;fill:#37d690;fill-opacity:1;stroke:#37d690;stroke-width:0.26458332;stroke-miterlimit:4;stroke-dasharray:none;stroke-opacity:1"
         y="5984.52"
         x="9070.167"
         id="tspan963"
         sodipodi:role="line">nessie</tspan></text>
    <rect
       y="5889.3081"
       x="9207.8652"
       height="160.86667"
       width="160.86667"
       id="rect931"
       style="opacity:1;fill:#1593fe;fill-opacity:1;fill-rule:nonzero;stroke:none;stroke-width:0.52916658;stroke-linecap:round;stroke-linejoin:round;stroke-miterlimit:4;stroke-dasharray:none;stroke-dashoffset:0;stroke-opacity:1;paint-order:fill markers stroke"
       inkscape:export-xdpi="96"
       inkscape:export-ydpi="96" />
    <path
       style="fill:#37d690;fill-opacity:1;stroke:#3e3e3e;stroke-width:1.0583334;stroke-linecap:round;stroke-linejoin:round;stroke-miterlimit:4;stroke-dasharray:none;stroke-opacity:1"
       d="m 9277.7001,5959.9342 h -0.4441 v 0 c -1.3064,-0.025 -7.106,0.3463 -7.0458,8.6449 0.019,2.7994 0.041,4.3811 0.066,5.611 0.1231,0.017 2.4327,0.334 3.5407,0.334 1.0694,0 3.1755,-0.2857 3.4424,-0.3221 l -0.2466,-4.3313 c 0,0 0.026,-2.26 1.0709,-0.6567 0.8771,1.3448 1.0491,3.4436 1.0256,4.8368 0.069,0.013 2.1978,0.2477 3.2088,0.2477 0.9439,0 2.7427,-0.1976 3.0452,-0.2317 0.057,-1.1595 0.1231,-3.5122 -0.1537,-5.1443 -0.3783,-2.2332 -0.5781,-3.8718 -1.989,-6.2083 -1.5657,-2.1121 -3.3282,-2.752 -5.5202,-2.7821 z m 34.1283,-7.2204 c -0.053,0 -3.4229,-0.091 -5.4462,3.3592 -0.9416,1.61 -1.5087,3.2293 -1.5897,5.0616 -0.074,1.6936 0.2781,10.8127 1.1236,13.0285 0.3115,0.033 2.7753,0.2914 4.0658,0.2914 1.1033,0 2.861,-0.172 3.6398,-0.2502 -1.5623,-2.3924 -5.4449,-12.6549 -2.6138,-14.9859 0,0 1.9336,0.7143 4.8348,-0.3435 0.052,0.038 1.7177,0.6489 2.4087,0.6464 1.7804,-0.065 1.8957,-0.5095 2.1196,-1.0265 0.5794,-1.4619 -1.1498,-3.0011 -1.5962,-3.3709 -0.4338,-0.3697 -2.8665,-2.4365 -6.9464,-2.4101 z m -48.8103,7.9071 c -0.4434,0 -1.0398,0.1463 -1.4171,0.267 -2.3763,0.6599 -1.6209,2.9381 -2.2716,4.1099 -0.4616,0.9288 -1.8543,2.4473 -3.2226,2.1429 0,0 2.3355,0.8627 3.6032,0 1.5593,-1.1006 1.4833,-4.5883 3.4028,-4.1143 1.4005,0.6669 1.0639,2.1929 0.7404,3.389 -0.6703,1.2616 -1.602,3.4542 -1.602,5.3811 0,0.7473 0.014,1.5561 0.091,2.3773 0.1675,0.025 1.7064,0.2448 2.4606,0.2448 0.6781,0 1.8583,-0.1573 2.2823,-0.216 -0.2822,-0.6127 -0.5288,-1.2826 -0.6967,-2.0081 -0.7395,-3.4546 0.2634,-4.077 0.6701,-6.8031 0.073,-0.4928 0.2095,-1.4713 -0.7655,-3.4103 -0.7941,-1.3004 -1.9449,-1.3735 -3.2752,-1.3602 z m 32.6061,0.2787 c -3.6998,0.3481 -5.5194,1.0786 -6.8485,5.8729 -0.6908,2.145 -0.5118,5.2695 -0.448,7.3648 0.066,0.013 0.1489,0.013 0.2578,0.022 0.2368,0.02 0.5638,0.046 0.9254,0.072 0.7231,0.052 1.5887,0.1044 2.1442,0.1044 1.0248,0 2.9337,-0.1648 3.2567,-0.1932 0.036,-1.8717 0.1865,-8.0977 0.9713,-5.0546 0.5185,2.0133 0.6712,3.7068 0.7094,5.0252 1.0454,0.013 2.2503,0.2171 3.3192,0.1819 0.013,-2e-4 0.013,-2e-4 0.013,0 0.9505,0 2.6183,-0.1598 3.0735,-0.2011 0.1,-2.424 0.4341,-5.4804 -1.3662,-9.5679 -1.5606,-2.8147 -3.1083,-3.6681 -6.0057,-3.6252 z"
       id="path933"
       inkscape:connector-curvature="0"
       inkscape:export-xdpi="96"
       inkscape:export-ydpi="96"
       sodipodi:nodetypes="cccccsccccscccccccccsccccccccccccccscscccccccccccsccccccccc" />
    <path
       style="color:#000000;font-style:normal;font-variant:normal;font-weight:normal;font-stretch:normal;font-size:medium;line-height:normal;font-family:sans-serif;font-variant-ligatures:normal;font-variant-position:normal;font-variant-caps:normal;font-variant-numeric:normal;font-variant-alternates:normal;font-feature-settings:normal;text-indent:0;text-align:start;text-decoration:none;text-decoration-line:none;text-decoration-style:solid;text-decoration-color:#000000;letter-spacing:normal;word-spacing:normal;text-transform:none;writing-mode:lr-tb;direction:ltr;text-orientation:mixed;dominant-baseline:auto;baseline-shift:baseline;text-anchor:start;white-space:normal;shape-padding:0;clip-rule:nonzero;display:inline;overflow:visible;visibility:visible;opacity:1;isolation:auto;mix-blend-mode:normal;color-interpolation:sRGB;color-interpolation-filters:linearRGB;solid-color:#000000;solid-opacity:1;vector-effect:none;fill:#3e3e3e;fill-opacity:1;fill-rule:nonzero;stroke:none;stroke-width:0.26458326;stroke-linecap:round;stroke-linejoin:round;stroke-miterlimit:4;stroke-dasharray:none;stroke-dashoffset:0;stroke-opacity:1;color-rendering:auto;image-rendering:auto;shape-rendering:auto;text-rendering:auto;enable-background:accumulate"
       d="m 9279.365,5975.1047 v 0 c 0,0 0,0 0,0 h -0.013 -0.013 c -0.089,0 -0.1723,0.047 -0.2188,0.1174 -0.049,0.074 -0.071,0.1615 -0.073,0.2488 0,0.087 0.016,0.1761 0.058,0.2536 0.044,0.076 0.1258,0.1397 0.2197,0.1452 h -0.013 c 0,0 1.9764,0.2571 3.0096,0.2571 1.0327,0 3.0084,-0.2571 3.0096,-0.2571 0.093,-0.013 0.1714,-0.08 0.2127,-0.1597 0.042,-0.08 0.053,-0.1706 0.048,-0.2578 -0.013,-0.087 -0.029,-0.1741 -0.084,-0.2444 -0.053,-0.069 -0.1438,-0.1174 -0.2382,-0.1044 0,0 -1.9931,0.2531 -2.9489,0.2531 -0.9571,0 -2.9533,-0.2531 -2.9533,-0.2531 0,0 -0.013,0 -0.013,0 z m 23.6511,0 c -0.022,0 -0.044,0 -0.066,0 v 0 c -0.013,0 -2.0614,0.229 -3.0615,0.229 -1.0562,0.038 -2.227,-0.2067 -3.1751,-0.1828 -0.079,0.013 -0.099,0.03 -0.1271,0.073 -0.047,0.074 -0.066,0.1608 -0.069,0.2478 0,0.087 0.014,0.1765 0.057,0.2537 0.041,0.078 0.1166,0.1392 0.2064,0.145 0.013,0 2.0495,0.2298 3.1085,0.2298 1.0596,0 3.1015,-0.2293 3.107,-0.2298 0.091,-0.013 0.1682,-0.072 0.2093,-0.1514 0.043,-0.08 0.056,-0.1712 0.052,-0.2598 -0.013,-0.09 -0.027,-0.1777 -0.078,-0.2496 -0.038,-0.053 -0.097,-0.095 -0.1613,-0.1043 z m -14.5581,0.06 c -0.025,0 -0.052,0.013 -0.087,0.02 -0.047,0.021 -0.066,0.056 -0.093,0.1004 -0.048,0.074 -0.069,0.1606 -0.071,0.2479 0,0.087 0.014,0.1764 0.057,0.2536 0.043,0.078 0.1206,0.1384 0.2109,0.144 0.013,0 2.0978,0.2151 3.1789,0.2151 1.0802,0 3.1666,-0.2142 3.1741,-0.2151 0.093,0 0.1753,-0.068 0.2185,-0.1474 0.043,-0.08 0.057,-0.1719 0.053,-0.2613 -0.013,-0.09 -0.027,-0.1787 -0.079,-0.2514 -0.052,-0.072 -0.1368,-0.1174 -0.2277,-0.1043 0,0 -2.1131,0.2103 -3.1392,0.2103 -1.0238,0 -3.1194,-0.2088 -3.1299,-0.2099 h -0.066 z m -11.3413,0 c -0.2507,0 -0.053,0 -0.078,0.013 h 0.013 c 0,0 -2.0961,0.345 -3.2366,0.345 -1.1403,0 -3.3865,-0.345 -3.3865,-0.345 h -0.026 -0.041 c -0.3713,0.042 -0.3713,0.7238 0,0.7656 0.013,0 2.2201,0.3548 3.4549,0.3548 1.237,0 3.3103,-0.3556 3.3103,-0.3556 h -0.013 c 0.3926,0 0.3992,-0.754 0.013,-0.7687 z m 36.4484,0.017 h 0.013 -0.022 c -0.013,0 -2.4572,0.3111 -3.6548,0.3111 -1.1977,0 -3.6525,-0.3105 -3.6567,-0.3111 h -0.027 c 0,0 -0.013,0 -0.013,0 h -0.013 -0.013 -0.013 c -0.027,0 -0.052,0.025 -0.066,0.053 -0.2232,0.1441 -0.2087,0.6735 0.073,0.7108 0,0 2.4468,0.3165 3.7051,0.3165 1.2575,0 3.6966,-0.3163 3.6998,-0.3165 0.3254,-0.035 0.3115,-0.7597 -0.014,-0.7669 z m -51.0705,0.013 h 0.013 c 0,0 -0.013,0 -0.013,0 h -0.013 -0.013 c -0.073,0 -0.1389,0.046 -0.1774,0.1135 -0.04,0.073 -0.058,0.1611 -0.061,0.2488 0,0.087 0.013,0.177 0.048,0.2548 0.036,0.078 0.1012,0.1402 0.1779,0.1462 0.013,0 1.5272,0.2648 2.3299,0.2652 0.8169,0 2.371,-0.2655 2.3737,-0.2659 0.076,-0.013 0.1402,-0.078 0.1739,-0.1579 0.034,-0.08 0.044,-0.1708 0.04,-0.2582 -0.013,-0.087 -0.025,-0.1745 -0.067,-0.2451 -0.043,-0.07 -0.1167,-0.1174 -0.1935,-0.1031 0,0 -1.5739,0.2611 -2.3249,0.2605 -0.7391,0 -2.2865,-0.2605 -2.2865,-0.2605 0,0 -0.013,0 -0.013,0 z"
       id="path935"
       inkscape:connector-curvature="0" />
    <path
       style="fill:#3e3e3e;fill-opacity:1;stroke:#3e3e3e;stroke-width:0.4497917;stroke-linecap:round;stroke-linejoin:round;stroke-miterlimit:4;stroke-dasharray:none;stroke-opacity:1"
       d="m 9312.5428,5955.4907 c 0,0 0.1326,0.3692 0.7951,0.2401 0.6628,-0.1291 1.1337,-0.5173 1.1337,-0.5173 0,0 0.2724,-0.1888 0.8358,-0.2774 0.5629,-0.089 2.9994,-0.039 4.0042,0.1279 0.013,0.013 0.3721,0.044 0.3721,0.044 l 0.2242,2.1108 0.3487,0.044 c 0,0 -0.039,-2.6357 -0.078,-3.0275 -0.027,-0.013 -3.3883,0.039 -4.559,0.2089 -1.1705,0.1699 -1.3987,0.056 -2.3594,0.3325 -0.1914,0.076 -0.86,0.4183 -0.718,0.7131 z"
       id="path937"
       inkscape:connector-curvature="0"
       sodipodi:nodetypes="cccccccccccc"
       inkscape:export-xdpi="96"
       inkscape:export-ydpi="96" />
    <text
       transform="scale(0.97476489,1.0258884)"
       xml:space="preserve"
       style="font-style:normal;font-variant:normal;font-weight:normal;font-stretch:normal;font-size:10.51299381px;line-height:1.25;font-family:'Andale Mono';-inkscape-font-specification:'Andale Mono';letter-spacing:0px;word-spacing:0px;fill:#37d690;fill-opacity:1;stroke:#37d690;stroke-width:0.52916667;stroke-linecap:round;stroke-linejoin:round;stroke-miterlimit:4;stroke-dasharray:none;stroke-opacity:1"
       x="9513.9014"
       y="5836.3643"
       id="text941"><tspan
         sodipodi:role="line"
         id="tspan939"
         x="9513.9014"
         y="5836.3643"
         style="font-style:normal;font-variant:normal;font-weight:normal;font-stretch:normal;line-height:0;font-family:Bluebell;-inkscape-font-specification:Bluebell;letter-spacing:1.05129957px;fill:#37d690;fill-opacity:1;stroke:#37d690;stroke-width:0.52916667;stroke-linecap:round;stroke-linejoin:round;stroke-miterlimit:4;stroke-dasharray:none;stroke-opacity:1">nessie</tspan></text>
  </g>
</svg>
