<?xml version="1.0" encoding="UTF-8" standalone="no"?>
<!-- Created with Inkscape (http://www.inkscape.org/) -->

<svg
   xmlns:dc="http://purl.org/dc/elements/1.1/"
   xmlns:cc="http://creativecommons.org/ns#"
   xmlns:rdf="http://www.w3.org/1999/02/22-rdf-syntax-ns#"
   xmlns:svg="http://www.w3.org/2000/svg"
   xmlns="http://www.w3.org/2000/svg"
   xmlns:xlink="http://www.w3.org/1999/xlink"
   xmlns:sodipodi="http://sodipodi.sourceforge.net/DTD/sodipodi-0.dtd"
   xmlns:inkscape="http://www.inkscape.org/namespaces/inkscape"
   width="210mm"
   height="297mm"
   viewBox="0 0 210 297"
   version="1.1"
   id="svg8"
   inkscape:version="0.92.2 (5c3e80d, 2017-08-06)"
   sodipodi:docname="day009.svg">
  <defs
     id="defs2">
    <linearGradient
       inkscape:collect="always"
       id="linearGradient1227">
      <stop
         style="stop-color:#255afe;stop-opacity:1"
         offset="0"
         id="stop1223" />
      <stop
         style="stop-color:#ffffff;stop-opacity:0"
         offset="1"
         id="stop1225" />
    </linearGradient>
    <linearGradient
       id="linearGradient981">
      <stop
         style="stop-color:#c49fff;stop-opacity:1;"
         offset="0"
         id="stop977" />
      <stop
         style="stop-color:#6b0086;stop-opacity:0.77499998;"
         offset="1"
         id="stop979" />
    </linearGradient>
    <linearGradient
       inkscape:collect="always"
       xlink:href="#linearGradient981"
       id="linearGradient983"
       x1="-90.50238"
       y1="187.70706"
       x2="-90.50238"
       y2="223.92207"
       gradientUnits="userSpaceOnUse"
       gradientTransform="translate(177.68002,-403.74468)" />
    <linearGradient
       inkscape:collect="always"
       xlink:href="#linearGradient1227"
       id="linearGradient1229"
       x1="39.395947"
       y1="1453.3446"
       x2="-199.00006"
       y2="1273.5376"
       gradientUnits="userSpaceOnUse"
       gradientTransform="matrix(0.26458333,0,0,0.26458333,0,-2.1166667)" />
  </defs>
  <sodipodi:namedview
     id="base"
     pagecolor="#ffffff"
     bordercolor="#666666"
     borderopacity="1.0"
     inkscape:pageopacity="0.0"
     inkscape:pageshadow="2"
     inkscape:zoom="1.4"
     inkscape:cx="-43.083428"
     inkscape:cy="-292.07192"
     inkscape:document-units="mm"
     inkscape:current-layer="layer1"
     showgrid="false"
     showborder="false"
     inkscape:window-width="1648"
     inkscape:window-height="991"
     inkscape:window-x="16"
     inkscape:window-y="43"
     inkscape:window-maximized="0" />
  <metadata
     id="metadata5">
    <rdf:RDF>
      <cc:Work
         rdf:about="">
        <dc:format>image/svg+xml</dc:format>
        <dc:type
           rdf:resource="http://purl.org/dc/dcmitype/StillImage" />
        <dc:title></dc:title>
      </cc:Work>
    </rdf:RDF>
  </metadata>
  <g
     inkscape:label="Layer 1"
     inkscape:groupmode="layer"
     id="layer1">
    <rect
       style="opacity:1;fill:#241c1f;fill-opacity:1;fill-rule:nonzero;stroke:#ffffff;stroke-width:0.26499999;stroke-linecap:round;stroke-linejoin:round;stroke-miterlimit:4;stroke-dasharray:none;stroke-opacity:1;paint-order:fill markers stroke"
       id="rect1114"
       width="106.0844"
       height="53.452839"
       x="-54.36512"
       y="331.12463" />
    <rect
       style="opacity:1;fill:#000000;fill-opacity:1;fill-rule:nonzero;stroke:none;stroke-width:10;stroke-linecap:square;stroke-linejoin:miter;stroke-miterlimit:4;stroke-dasharray:none;stroke-opacity:1;paint-order:fill markers stroke"
       id="rect987"
       width="72.760414"
       height="40.159973"
       x="-5.3861609"
       y="114.05952" />
    <rect
       style="opacity:1;fill:url(#linearGradient983);fill-opacity:1;fill-rule:nonzero;stroke:none;stroke-width:10;stroke-linecap:square;stroke-linejoin:miter;stroke-miterlimit:4;stroke-dasharray:none;stroke-opacity:1;paint-order:fill markers stroke"
       id="rect975"
       width="54.239582"
       height="28.159227"
       x="61.720219"
       y="-215.95195"
       transform="scale(-1)" />
    <path
       inkscape:connector-curvature="0"
       id="path928"
       style="font-style:normal;font-variant:normal;font-weight:normal;font-stretch:normal;font-size:medium;line-height:1.25;font-family:Kiona;-inkscape-font-specification:Kiona;letter-spacing:0px;word-spacing:0px;fill:#ffffff;fill-opacity:1;stroke:none;stroke-width:0.26458332"
       d="m 16.002,139.7619 v -6.96383 l -3.52425,5.03767 -3.5665834,-5.03767 v 6.96383 h 0.47625 v -5.45041 l 3.0903334,4.36033 3.048,-4.34975 v 5.43983 z" />
    <path
       inkscape:connector-curvature="0"
       id="path930"
       style="font-style:normal;font-variant:normal;font-weight:normal;font-stretch:normal;font-size:medium;line-height:1.25;font-family:Kiona;-inkscape-font-specification:Kiona;letter-spacing:0px;word-spacing:0px;fill:#ffffff;fill-opacity:1;stroke:none;stroke-width:0.26458332"
       d="m 22.492559,139.7619 v -0.49741 h -3.979333 v -2.69875 h 3.100916 v -0.48684 h -3.100916 v -2.70933 h 3.979333 v -0.48683 h -4.455583 v 6.87916 z" />
    <path
       inkscape:connector-curvature="0"
       id="path932"
       style="font-style:normal;font-variant:normal;font-weight:normal;font-stretch:normal;font-size:medium;line-height:1.25;font-family:Kiona;-inkscape-font-specification:Kiona;letter-spacing:0px;word-spacing:0px;fill:#ffffff;fill-opacity:1;stroke:none;stroke-width:0.26458332"
       d="m 28.639326,139.7619 v -0.47625 h -3.862917 v -6.40291 h -0.47625 v 6.87916 z" />
    <path
       inkscape:connector-curvature="0"
       id="path934"
       style="font-style:normal;font-variant:normal;font-weight:normal;font-stretch:normal;font-size:medium;line-height:1.25;font-family:Kiona;-inkscape-font-specification:Kiona;letter-spacing:0px;word-spacing:0px;fill:#ffffff;fill-opacity:1;stroke:none;stroke-width:0.26458332"
       d="m 32.846532,139.83599 q 0.941917,0 1.74625,-0.46567 0.804334,-0.47625 1.27,-1.28058 0.465667,-0.81492 0.465667,-1.76742 0,-0.9525 -0.465667,-1.75683 -0.465666,-0.81492 -1.27,-1.28059 -0.804333,-0.47625 -1.74625,-0.47625 -0.941916,0 -1.74625,0.47625 -0.804333,0.46567 -1.269999,1.28059 -0.465667,0.80433 -0.465667,1.75683 0,0.9525 0.465667,1.76742 0.465666,0.80433 1.269999,1.28058 0.804334,0.46567 1.74625,0.46567 z m 0,-6.5405 q 0.814917,0 1.502834,0.41275 0.687916,0.40216 1.090083,1.10066 0.402167,0.68792 0.402167,1.51342 0,0.8255 -0.402167,1.524 -0.402167,0.68792 -1.090083,1.10067 -0.687917,0.40216 -1.502834,0.40216 -0.814916,0 -1.502833,-0.40216 -0.687917,-0.41275 -1.100666,-1.10067 -0.402167,-0.6985 -0.402167,-1.524 0,-0.8255 0.402167,-1.51342 0.412749,-0.6985 1.100666,-1.10066 0.687917,-0.41275 1.502833,-0.41275 z" />
    <path
       inkscape:connector-curvature="0"
       id="path938"
       style="font-style:normal;font-variant:normal;font-weight:normal;font-stretch:normal;font-size:medium;line-height:1.25;font-family:Kiona;-inkscape-font-specification:Kiona;letter-spacing:0px;word-spacing:0px;fill:#ffffff;fill-opacity:1;stroke:none;stroke-width:0.26458332"
       d="m 50.226559,136.86207 2.709333,-3.97933 h 0.5715 l -3.048,4.49791 v 2.38125 h -0.47625 v -2.38125 l -3.048,-4.49791 h 0.5715 z" />
    <g
       id="g969"
       transform="matrix(0.19700029,0,0,0.19700029,53.525262,95.071951)"
       style="stroke-width:5.07613468;fill:#ffffff">
      <ellipse
         transform="rotate(-19.639439)"
         ry="16.407534"
         rx="21.314459"
         cy="179.24594"
         cx="-129.89153"
         id="path947"
         style="opacity:1;fill:#ffffff;fill-opacity:1;fill-rule:nonzero;stroke:none;stroke-width:50.76135254;stroke-linecap:square;stroke-linejoin:miter;stroke-miterlimit:4;stroke-dasharray:none;stroke-opacity:1;paint-order:fill markers stroke" />
      <rect
         ry="5.4806547"
         y="130.05722"
         x="-52.989784"
         height="84.552361"
         width="11.717261"
         id="rect960"
         style="opacity:1;fill:#ffffff;fill-opacity:1;fill-rule:nonzero;stroke:none;stroke-width:50.76134872;stroke-linecap:square;stroke-linejoin:miter;stroke-miterlimit:4;stroke-dasharray:none;stroke-opacity:1;paint-order:fill markers stroke" />
      <path
         inkscape:connector-curvature="0"
         id="path964"
         d="m -41.577381,142.02976 c 0,0 1.606399,5.48065 14.552083,13.22917 -0.09449,0.18898 12.945685,7.08705 16.347471,22.86756 3.4017854,15.7805 -3.02381,17.19791 -3.02381,17.19791 0,0 -2.834821,0.0945 -3.779762,-4.44122 -0.94494,-4.53571 -11.339285,-16.81994 -23.906993,-20.22173 -12.567708,-3.40178 -0.188989,-28.63169 -0.188989,-28.63169 z"
         style="fill:#ffffff;fill-opacity:1;stroke:none;stroke-width:1.34306061px;stroke-linecap:butt;stroke-linejoin:miter;stroke-opacity:1" />
    </g>
    <text
       xml:space="preserve"
       style="font-style:italic;font-variant:normal;font-weight:normal;font-stretch:normal;font-size:10.58333302px;line-height:1.25;font-family:'Lobster Two';-inkscape-font-specification:'Lobster Two Italic';letter-spacing:0px;word-spacing:0px;fill:#ffffff;fill-opacity:1;stroke:none;stroke-width:0.26458332"
       x="-111.25129"
       y="205.59383"
       id="text973"><tspan
         sodipodi:role="line"
         id="tspan971"
         x="-111.25129"
         y="205.59383"
         style="font-style:normal;font-variant:normal;font-weight:normal;font-stretch:normal;font-family:Tomatoes;-inkscape-font-specification:Tomatoes;letter-spacing:0.69056249px;fill:#ffffff;fill-opacity:1;stroke-width:0.26458332">lullaby</tspan></text>
    <text
       xml:space="preserve"
       style="font-style:italic;font-variant:normal;font-weight:normal;font-stretch:normal;font-size:10.58333302px;line-height:1.25;font-family:'Lobster Two';-inkscape-font-specification:'Lobster Two Italic';letter-spacing:0px;word-spacing:0px;fill:#ffffff;fill-opacity:1;stroke:none;stroke-width:0.26458332;"
       x="10.883426"
       y="361.69089"
       id="text1065"><tspan
         sodipodi:role="line"
         id="tspan1063"
         x="10.883426"
         y="361.69089"
         style="font-style:normal;font-variant:normal;font-weight:normal;font-stretch:normal;font-family:Quicksand;-inkscape-font-specification:Quicksand;fill:#ffffff;stroke-width:0.26458332;">ROAR</tspan></text>
    <text
       xml:space="preserve"
       style="font-style:italic;font-variant:normal;font-weight:normal;font-stretch:normal;font-size:5.05906582px;line-height:1.25;font-family:'Lobster Two';-inkscape-font-specification:'Lobster Two Italic';letter-spacing:0px;word-spacing:0px;fill:#ffffff;fill-opacity:1;stroke:none;stroke-width:0.26458332;"
       x="17.827435"
       y="365.94315"
       id="text1069"><tspan
         sodipodi:role="line"
         id="tspan1067"
         x="17.827435"
         y="365.94315"
         style="font-style:normal;font-variant:normal;font-weight:normal;font-stretch:normal;font-family:Quicksand;-inkscape-font-specification:Quicksand;fill:#ffffff;stroke-width:0.26458332;">music</tspan></text>
    <path
       style="color:#000000;font-style:normal;font-variant:normal;font-weight:normal;font-stretch:normal;font-size:medium;line-height:normal;font-family:sans-serif;font-variant-ligatures:normal;font-variant-position:normal;font-variant-caps:normal;font-variant-numeric:normal;font-variant-alternates:normal;font-feature-settings:normal;text-indent:0;text-align:start;text-decoration:none;text-decoration-line:none;text-decoration-style:solid;text-decoration-color:#000000;letter-spacing:normal;word-spacing:normal;text-transform:none;writing-mode:lr-tb;direction:ltr;text-orientation:mixed;dominant-baseline:auto;baseline-shift:baseline;text-anchor:start;white-space:normal;shape-padding:0;clip-rule:nonzero;display:inline;overflow:visible;visibility:visible;opacity:1;isolation:auto;mix-blend-mode:normal;color-interpolation:sRGB;color-interpolation-filters:linearRGB;solid-color:#000000;solid-opacity:1;vector-effect:none;fill:url(#linearGradient1229);fill-opacity:1;fill-rule:nonzero;stroke:none;stroke-width:0.26499999;stroke-linecap:round;stroke-linejoin:round;stroke-miterlimit:4;stroke-dasharray:none;stroke-dashoffset:0;stroke-opacity:1;color-rendering:auto;image-rendering:auto;shape-rendering:auto;text-rendering:auto;enable-background:accumulate"
       d="m -16.991727,335.90453 c -2.025264,0.008 -4.254248,0.20225 -6.45387,0.75139 v -0.002 c -1.303473,0.32544 -2.597009,0.77584 -3.831291,1.38544 a 0.13230489,0.13230489 0 0 0 0.0646,0.25064 c 0,0 6.114001,-0.27871 9.873299,1.35443 a 0.13230489,0.13230489 0 0 0 0.05943,0.0103 c 0,0 0.986851,-0.0477 2.247408,0.0811 1.059565,0.10827 2.260303,0.39905 3.264917,0.88109 -1.896676,-0.12332 -25.262988,-1.29026 -40.173259,17.27129 a 0.13230664,0.13230664 0 0 0 0.190688,0.18346 c 0.03773,-0.0282 10.232792,-7.67183 23.649717,-5.5821 a 0.13230489,0.13230489 0 0 0 0.07958,-0.004 c 0,0 2.110132,-0.7644 4.42247,-1.50119 1.156173,-0.36841 2.36215,-0.7284 3.379121,-0.9829 0.440399,-0.10978 0.609342,-0.0895 0.959115,-0.15089 -3.140933,1.07116 -17.816285,6.60643 -21.949564,19.02211 a 0.13259112,0.13259112 0 0 0 0.114205,0.17415 0.13258757,0.13258757 0 0 0 0.0098,5e-4 0.13259112,0.13259112 0 0 0 0.02377,-0.003 0.13258757,0.13258757 0 0 0 0.0021,-5.3e-4 0.13259112,0.13259112 0 0 0 0.0036,-10e-4 0.13258757,0.13258757 0 0 0 0.0088,-0.002 0.13259112,0.13259112 0 0 0 0.01033,-0.003 0.13258757,0.13258757 0 0 0 0.0031,-0.001 0.13259112,0.13259112 0 0 0 0.0031,-10e-4 0.13258757,0.13258757 0 0 0 0.01188,-0.006 0.13259112,0.13259112 0 0 0 0.01033,-0.006 0.13258757,0.13258757 0 0 0 0.0016,-5e-4 0.13259112,0.13259112 0 0 0 0.0072,-0.006 0.13258757,0.13258757 0 0 0 0.0124,-0.0119 0.13259112,0.13259112 0 0 0 0.0021,-5.3e-4 c 7.822587,-8.32527 15.377414,-9.39789 20.992518,-8.40877 4.030169,0.70988 6.462049,2.16929 7.848616,3.11608 -5.768984,-2.82361 -10.595218,-2.40864 -10.595218,-2.40864 a 0.13251324,0.13251324 0 0 0 -0.07855,0.0351 c -4.315938,4.34012 -6.232098,8.68447 -7.066753,11.94398 -0.83467,3.25943 -0.58756,5.44668 -0.58756,5.44668 a 0.13251324,0.13251324 0 0 0 0.249079,0.0471 c 4.208586,-8.09853 11.238075,-10.98177 11.238075,-10.98177 a 0.13251324,0.13251324 0 0 0 0.07803,-0.0853 c 0.369263,-1.31934 1.011906,-1.99916 1.408699,-2.36159 -1.474669,2.94878 -2.005959,6.60715 -2.092378,9.63816 -0.09136,3.20419 0.235644,5.66063 0.235644,5.66063 a 0.13279337,0.13279337 0 0 0 0.240812,0.0574 h 5.17e-4 c 2.82668,-4.15247 5.131288,-6.37508 6.722587,-7.55663 0.795633,-0.59081 1.412304,-0.92001 1.827796,-1.10278 0.415443,-0.18288 0.6180496,-0.21654 0.6180496,-0.21654 l 0.018087,-0.002 0.01757,-0.009 c 1.1065213,-0.5339 3.1151208,-0.1683 4.8291625,0.36174 1.7140356,0.53004 3.1372762,1.202 3.1372762,1.202 l 0.00517,0.002 0.0062,0.004 c 1.39152411,0.4885 2.4825358,0.0543 2.48253575,0.0543 l -0.0475423,-0.11835 0.054777,0.11526 c 0.90033815,-0.4281 1.87132105,-1.37962 2.66650385,-2.37041 0.7951714,-0.99083 1.4088097,-2.00562 1.5735475,-2.62723 0.1616763,-0.61008 -0.00496,-1.05002 -0.2180746,-1.31776 -0.1919989,-0.24119 -0.3990319,-0.3398 -0.442867,-0.35964 a 0.13258252,0.13258252 0 0 0 -0.039791,-0.0212 c -0.4424576,-0.15105 -1.0093711,-0.38444 -1.6231567,-0.70075 0.06449,-0.22029 0.1238361,-0.4427 0.1746665,-0.65886 0.2257673,-0.9602 0.3136759,-1.80351 0.3136759,-1.80351 a 0.13251324,0.13251324 0 0 0 -0.2537314,-0.0677 c -0.2973989,0.69482 -1.1359779,1.16861 -1.95440261,1.46349 -0.57324068,-0.42665 -1.13384201,-0.92718 -1.62987467,-1.50895 -1.55359932,-1.82213 -2.49171192,-4.41896 -1.25160312,-8.04706 1.23967314,-3.62683 3.6877958,-5.25241 5.8358194,-5.98464 0.096599,-0.0329 0.191771,-0.0621 0.2868041,-0.0915 0.040564,0.0492 0.081049,0.0968 0.1214397,0.1483 0.5627148,0.71771 1.0666873,1.63923 0.9239745,2.42983 a 0.13251324,0.13251324 0 0 0 0.2490806,0.0827 c 0,0 0.3910452,-0.75152 0.7312213,-1.6774 0.1693579,-0.46099 0.3295467,-0.96311 0.4211629,-1.44333 0.6885895,-0.0494 1.143195,-0.0155 1.2040611,-0.0104 a 0.13230489,0.13230489 0 0 0 0.144177,-0.0284 0.13281932,0.13281932 0 0 0 0.022221,-0.0248 c 0.045992,-0.0462 0.8185126,-0.83413 1.2789916,-2.34868 0.4744879,-1.56059 0.6091862,-3.88493 -0.7208861,-6.92102 a 0.13230489,0.13230489 0 0 0 -0.065112,-0.0661 c 0,0 -1.1503554,-0.5424 -3.0261718,-0.60203 -1.836497,-0.0584 -1.768425,-0.0578 -1.8401977,-0.0584 l -0.00517,-10e-4 c -4.363e-4,0 -0.011508,-0.001 -0.011886,-0.001 -0.01467,-10e-4 -2.64542702,-0.31803 -5.5278279,-0.73226 -1.4452554,-0.2077 -2.9499104,-0.44061 -4.2105957,-0.66868 -1.2606785,-0.22807 -2.2845424,-0.45683 -2.7331665,-0.63926 a 0.13230489,0.13230489 0 0 0 -0.01757,-0.006 c 0,0 -3.4695169,-0.88699 -7.9250969,-0.87025 z m 10.2944615,5.89836 c 0.029905,0.005 0.4466113,0.0835 0.5922118,0.62685 l 0.066663,0.0677 1.3348022,0.42323 -1.2717568,-5e-4 -1.473812,0.38602 -0.018603,0.005 c -0.092982,0.0449 -0.25292,0.0492 -0.4387329,0.0114 -0.1857931,-0.0377 -0.3953433,-0.11221 -0.5896282,-0.19431 -0.2853259,-0.12052 -0.4898205,-0.23199 -0.6040974,-0.29612 0.081975,-0.0813 0.2252638,-0.21122 0.5121134,-0.38859 0.3086725,-0.1909 0.7401306,-0.39849 1.3027628,-0.53486 v 5.3e-4 c 0.1819437,-0.0446 0.3780296,-0.0799 0.5880778,-0.10647 z"
       id="path1110"
       inkscape:connector-curvature="0" />
  </g>
</svg>
