<?xml version="1.0" encoding="UTF-8" standalone="no"?>
<!-- Created with Inkscape (http://www.inkscape.org/) -->

<svg
   xmlns:dc="http://purl.org/dc/elements/1.1/"
   xmlns:cc="http://creativecommons.org/ns#"
   xmlns:rdf="http://www.w3.org/1999/02/22-rdf-syntax-ns#"
   xmlns:svg="http://www.w3.org/2000/svg"
   xmlns="http://www.w3.org/2000/svg"
   xmlns:xlink="http://www.w3.org/1999/xlink"
   xmlns:sodipodi="http://sodipodi.sourceforge.net/DTD/sodipodi-0.dtd"
   xmlns:inkscape="http://www.inkscape.org/namespaces/inkscape"
   width="210mm"
   height="297mm"
   viewBox="0 0 210 297"
   version="1.1"
   id="svg8"
   inkscape:version="0.92.2 (5c3e80d, 2017-08-06)"
   sodipodi:docname="day006.svg">
  <defs
     id="defs2">
    <linearGradient
       id="linearGradient847">
      <stop
         style="stop-color:#ec5b00;stop-opacity:1;"
         offset="0"
         id="stop843" />
      <stop
         id="stop851"
         offset="0.5"
         style="stop-color:#963a00;stop-opacity:0.95686275;" />
      <stop
         style="stop-color:#933c00;stop-opacity:1;"
         offset="1"
         id="stop845" />
    </linearGradient>
    <linearGradient
       id="linearGradient923">
      <stop
         style="stop-color:#d9d9d9;stop-opacity:1;"
         offset="0"
         id="stop919" />
      <stop
         style="stop-color:#7b7b7b;stop-opacity:1;"
         offset="1"
         id="stop921" />
    </linearGradient>
    <linearGradient
       id="linearGradient877">
      <stop
         style="stop-color:#dedede;stop-opacity:1;"
         offset="0"
         id="stop873" />
      <stop
         style="stop-color:#ababab;stop-opacity:1;"
         offset="1"
         id="stop875" />
    </linearGradient>
    <linearGradient
       inkscape:collect="always"
       xlink:href="#linearGradient877"
       id="linearGradient879"
       x1="-18553.517"
       y1="-855.38434"
       x2="-18493.938"
       y2="-855.38434"
       gradientUnits="userSpaceOnUse"
       gradientTransform="translate(1.9480367,2.31972)" />
    <linearGradient
       inkscape:collect="always"
       xlink:href="#linearGradient923"
       id="linearGradient883"
       gradientUnits="userSpaceOnUse"
       x1="-18553.518"
       y1="-855.38434"
       x2="-18493.938"
       y2="-855.38434"
       gradientTransform="matrix(-0.93408104,0,0,0.93408104,-35824.442,-54.066326)" />
    <radialGradient
       inkscape:collect="always"
       xlink:href="#linearGradient847"
       id="radialGradient849"
       cx="-18521.779"
       cy="-853.06456"
       fx="-18521.779"
       fy="-853.06456"
       r="22.5555"
       gradientTransform="matrix(1,0,0,0.99998692,0,-0.01115657)"
       gradientUnits="userSpaceOnUse" />
    <linearGradient
       inkscape:collect="always"
       xlink:href="#linearGradient877"
       id="linearGradient1184"
       gradientUnits="userSpaceOnUse"
       gradientTransform="matrix(0.48504823,0,0,0.49492334,-9346.2797,-430.79607)"
       x1="-18553.517"
       y1="-855.38434"
       x2="-18493.938"
       y2="-855.38434" />
    <linearGradient
       inkscape:collect="always"
       xlink:href="#linearGradient923"
       id="linearGradient1186"
       gradientUnits="userSpaceOnUse"
       gradientTransform="matrix(-0.45307436,0,0,0.46229851,-26723.807,-458.70284)"
       x1="-18553.518"
       y1="-855.38434"
       x2="-18493.938"
       y2="-855.38434" />
    <radialGradient
       inkscape:collect="always"
       xlink:href="#linearGradient847"
       id="radialGradient1188"
       gradientUnits="userSpaceOnUse"
       gradientTransform="matrix(0.48504823,0,0,0.49491687,-9347.2246,-431.94967)"
       cx="-18521.779"
       cy="-853.06456"
       fx="-18521.779"
       fy="-853.06456"
       r="22.5555" />
    <filter
       style="color-interpolation-filters:sRGB;"
       inkscape:label="Drop Shadow"
       id="filter1546">
      <feFlood
         flood-opacity="0.498039"
         flood-color="rgb(0,0,0)"
         result="flood"
         id="feFlood1536" />
      <feComposite
         in="flood"
         in2="SourceGraphic"
         operator="in"
         result="composite1"
         id="feComposite1538" />
      <feGaussianBlur
         in="composite1"
         stdDeviation="1"
         result="blur"
         id="feGaussianBlur1540" />
      <feOffset
         dx="1"
         dy="1"
         result="offset"
         id="feOffset1542" />
      <feComposite
         in="SourceGraphic"
         in2="offset"
         operator="over"
         result="composite2"
         id="feComposite1544" />
    </filter>
  </defs>
  <sodipodi:namedview
     id="base"
     pagecolor="#ffffff"
     bordercolor="#666666"
     borderopacity="1.0"
     inkscape:pageopacity="0.0"
     inkscape:pageshadow="2"
     inkscape:zoom="1"
     inkscape:cx="-69364.279"
     inkscape:cy="4169.9722"
     inkscape:document-units="mm"
     inkscape:current-layer="layer1"
     showgrid="false"
     showborder="false"
     inkscape:window-width="1888"
     inkscape:window-height="1024"
     inkscape:window-x="16"
     inkscape:window-y="40"
     inkscape:window-maximized="0"
     inkscape:snap-global="false" />
  <metadata
     id="metadata5">
    <rdf:RDF>
      <cc:Work
         rdf:about="">
        <dc:format>image/svg+xml</dc:format>
        <dc:type
           rdf:resource="http://purl.org/dc/dcmitype/StillImage" />
        <dc:title />
      </cc:Work>
    </rdf:RDF>
  </metadata>
  <g
     inkscape:label="Layer 1"
     inkscape:groupmode="layer"
     id="layer1">
    <rect
       style="opacity:1;fill:#fff6d5;fill-opacity:1;fill-rule:nonzero;stroke:none;stroke-width:10;stroke-linecap:square;stroke-linejoin:miter;stroke-miterlimit:4;stroke-dasharray:none;stroke-opacity:1;paint-order:fill markers stroke"
       id="rect1714"
       width="139.17084"
       height="148.69583"
       x="-18413.678"
       y="-882.77704" />
    <rect
       style="opacity:1;fill:#333333;fill-opacity:1;fill-rule:nonzero;stroke:none;stroke-width:1;stroke-linecap:round;stroke-linejoin:round;stroke-miterlimit:4;stroke-dasharray:none;stroke-opacity:1;paint-order:fill markers stroke"
       id="rect4532"
       width="117.91766"
       height="117.91766"
       x="-18763.982"
       y="-863.03253"
       ry="0.17659992" />
    <path
       style="color:#000000;font-style:normal;font-variant:normal;font-weight:normal;font-stretch:normal;font-size:medium;line-height:normal;font-family:sans-serif;font-variant-ligatures:normal;font-variant-position:normal;font-variant-caps:normal;font-variant-numeric:normal;font-variant-alternates:normal;font-feature-settings:normal;text-indent:0;text-align:start;text-decoration:none;text-decoration-line:none;text-decoration-style:solid;text-decoration-color:#000000;letter-spacing:normal;word-spacing:normal;text-transform:none;writing-mode:lr-tb;direction:ltr;text-orientation:mixed;dominant-baseline:auto;baseline-shift:baseline;text-anchor:start;white-space:normal;shape-padding:0;clip-rule:nonzero;display:inline;overflow:visible;visibility:visible;opacity:1;isolation:auto;mix-blend-mode:normal;color-interpolation:sRGB;color-interpolation-filters:linearRGB;solid-color:#000000;solid-opacity:1;vector-effect:none;fill:#9c4d2b;fill-opacity:1;fill-rule:nonzero;stroke:none;stroke-width:1;stroke-linecap:round;stroke-linejoin:round;stroke-miterlimit:4;stroke-dasharray:none;stroke-dashoffset:0;stroke-opacity:1;color-rendering:auto;image-rendering:auto;shape-rendering:auto;text-rendering:auto;enable-background:accumulate"
       d="m -18731.564,-804.11204 a 0.50005,0.50005 0 1 0 0,1 h 9.576 a 0.50005,0.50005 0 1 0 0,-1 z"
       id="path821" />
    <path
       style="color:#000000;font-style:normal;font-variant:normal;font-weight:normal;font-stretch:normal;font-size:medium;line-height:normal;font-family:sans-serif;font-variant-ligatures:normal;font-variant-position:normal;font-variant-caps:normal;font-variant-numeric:normal;font-variant-alternates:normal;font-feature-settings:normal;text-indent:0;text-align:start;text-decoration:none;text-decoration-line:none;text-decoration-style:solid;text-decoration-color:#000000;letter-spacing:normal;word-spacing:normal;text-transform:none;writing-mode:lr-tb;direction:ltr;text-orientation:mixed;dominant-baseline:auto;baseline-shift:baseline;text-anchor:start;white-space:normal;shape-padding:0;clip-rule:nonzero;display:inline;overflow:visible;visibility:visible;opacity:1;isolation:auto;mix-blend-mode:normal;color-interpolation:sRGB;color-interpolation-filters:linearRGB;solid-color:#000000;solid-opacity:1;vector-effect:none;fill:#9c4d2b;fill-opacity:1;fill-rule:nonzero;stroke:none;stroke-width:1;stroke-linecap:round;stroke-linejoin:round;stroke-miterlimit:4;stroke-dasharray:none;stroke-dashoffset:0;stroke-opacity:1;color-rendering:auto;image-rendering:auto;shape-rendering:auto;text-rendering:auto;enable-background:accumulate"
       d="m -18704.923,-827.6804 c -0.228,-0.002 -0.428,0.15086 -0.487,0.3711 l -8.139,29.94384 -4.888,-17.81884 c -0.131,-0.49662 -0.836,-0.49662 -0.967,0 l -3.066,11.44335 c -0.224,0.67067 0.82,0.95196 0.964,0.25977 l 2.584,-9.64258 4.891,17.8208 c 0.131,0.49662 0.836,0.49662 0.967,0 l 8.021,-29.51416 7.239,43.92969 c 0.09,0.55604 0.887,0.56252 0.986,0.008 l 3.733,-32.31054 c 0.118,-0.65667 -0.867,-0.83441 -0.985,-0.17774 l -3.217,29.46875 -7.146,-43.36328 c -0.04,-0.23996 -0.247,-0.41638 -0.49,-0.41797 z"
       id="path829" />
    <path
       style="color:#000000;font-style:normal;font-variant:normal;font-weight:normal;font-stretch:normal;font-size:medium;line-height:normal;font-family:sans-serif;font-variant-ligatures:normal;font-variant-position:normal;font-variant-caps:normal;font-variant-numeric:normal;font-variant-alternates:normal;font-feature-settings:normal;text-indent:0;text-align:start;text-decoration:none;text-decoration-line:none;text-decoration-style:solid;text-decoration-color:#000000;letter-spacing:normal;word-spacing:normal;text-transform:none;writing-mode:lr-tb;direction:ltr;text-orientation:mixed;dominant-baseline:auto;baseline-shift:baseline;text-anchor:start;white-space:normal;shape-padding:0;clip-rule:nonzero;display:inline;overflow:visible;visibility:visible;opacity:1;isolation:auto;mix-blend-mode:normal;color-interpolation:sRGB;color-interpolation-filters:linearRGB;solid-color:#000000;solid-opacity:1;vector-effect:none;fill:#9c4d2b;fill-opacity:1;fill-rule:nonzero;stroke:none;stroke-width:1;stroke-linecap:round;stroke-linejoin:round;stroke-miterlimit:4;stroke-dasharray:none;stroke-dashoffset:0;stroke-opacity:1;color-rendering:auto;image-rendering:auto;shape-rendering:auto;text-rendering:auto;enable-background:accumulate"
       d="m -18689.679,-804.11204 a 0.50005,0.50005 0 1 0 0,1 h 11.195 a 0.50005,0.50005 0 1 0 0,-1 z"
       id="path831" />
    <path
       style="color:#000000;font-style:normal;font-variant:normal;font-weight:normal;font-stretch:normal;font-size:medium;line-height:normal;font-family:sans-serif;font-variant-ligatures:normal;font-variant-position:normal;font-variant-caps:normal;font-variant-numeric:normal;font-variant-alternates:normal;font-feature-settings:normal;text-indent:0;text-align:start;text-decoration:none;text-decoration-line:none;text-decoration-style:solid;text-decoration-color:#000000;letter-spacing:normal;word-spacing:normal;text-transform:none;writing-mode:lr-tb;direction:ltr;text-orientation:mixed;dominant-baseline:auto;baseline-shift:baseline;text-anchor:start;white-space:normal;shape-padding:0;clip-rule:nonzero;display:inline;overflow:visible;visibility:visible;opacity:1;isolation:auto;mix-blend-mode:normal;color-interpolation:sRGB;color-interpolation-filters:linearRGB;solid-color:#000000;solid-opacity:1;vector-effect:none;fill:#9c4d2b;fill-opacity:1;fill-rule:nonzero;stroke:none;stroke-width:1;stroke-linecap:round;stroke-linejoin:round;stroke-miterlimit:4;stroke-dasharray:none;stroke-dashoffset:0;stroke-opacity:1;color-rendering:auto;image-rendering:auto;shape-rendering:auto;text-rendering:auto;enable-background:accumulate"
       d="m -18693.578,-813.78587 c -0.315,2.7e-4 -0.551,0.28853 -0.49,0.59766 l 3.896,9.66797 c 0.121,0.65676 1.106,0.47512 0.985,-0.18164 l -3.898,-9.66797 c -0.04,-0.2403 -0.249,-0.41605 -0.493,-0.41602 z"
       id="path833" />
    <text
       xml:space="preserve"
       style="font-style:italic;font-variant:normal;font-weight:normal;font-stretch:normal;font-size:29.51095963px;line-height:1.25;font-family:'Lobster Two';-inkscape-font-specification:'Lobster Two Italic';letter-spacing:0px;word-spacing:0px;fill:#ffffff;fill-opacity:1;stroke:none;stroke-width:0.26458332"
       x="-18730.213"
       y="-750.65161"
       id="text4542"><tspan
         sodipodi:role="line"
         id="tspan4540"
         x="-18730.213"
         y="-750.65161"
         style="font-style:normal;font-variant:normal;font-weight:normal;font-stretch:normal;font-family:Wildemount;-inkscape-font-specification:Wildemount;fill:#ffffff;fill-opacity:1;stroke-width:0.26458332">WIRED</tspan></text>
    <g
       id="g1168">
      <path
         id="path834"
         d="m -18484.985,-853.06468 c 0,20.3207 -36.794,68.54362 -36.794,68.54362 0,0 -36.793,-48.22331 -36.793,-68.54362 0,-20.32031 16.473,-36.79328 36.793,-36.79362 20.321,-2.1e-4 36.794,16.47292 36.794,36.79362 z"
         style="opacity:1;fill:#552200;fill-opacity:1;fill-rule:nonzero;stroke:#552200;stroke-width:5;stroke-linecap:round;stroke-linejoin:round;stroke-miterlimit:4;stroke-dasharray:none;stroke-opacity:1;paint-order:fill markers stroke"
         inkscape:connector-curvature="0" />
      <path
         inkscape:connector-curvature="0"
         style="opacity:1;fill:url(#linearGradient879);fill-opacity:1;fill-rule:nonzero;stroke:none;stroke-width:5.00000048;stroke-linecap:round;stroke-linejoin:round;stroke-miterlimit:4;stroke-dasharray:none;stroke-opacity:1;paint-order:fill markers stroke"
         d="m -18491.99,-853.06463 a 29.789904,29.789907 0 0 1 -29.792,29.78992 29.789904,29.789907 0 0 1 -29.787,-29.78992 29.789904,29.789907 0 0 1 29.787,-29.78991 29.789904,29.789907 0 0 1 29.792,29.78991 z"
         id="path871" />
      <path
         id="path881"
         d="m -18549.605,-853.06463 a 27.826184,27.826187 0 0 0 27.828,27.8262 27.826184,27.826187 0 0 0 27.823,-27.8262 27.826184,27.826187 0 0 0 -27.823,-27.82619 27.826184,27.826187 0 0 0 -27.828,27.82619 z"
         style="opacity:1;fill:url(#linearGradient883);fill-opacity:1.0;fill-rule:nonzero;stroke:none;stroke-width:5.00000048;stroke-linecap:round;stroke-linejoin:round;stroke-miterlimit:4;stroke-dasharray:none;stroke-opacity:1;paint-order:fill markers stroke"
         inkscape:connector-curvature="0" />
      <path
         id="circle866"
         d="m -18499.223,-853.06456 a 22.555204,22.555204 0 0 1 -22.556,22.55521 22.555204,22.555204 0 0 1 -22.555,-22.55521 22.555204,22.555204 0 0 1 22.555,-22.5552 22.555204,22.555204 0 0 1 22.556,22.5552 z"
         style="opacity:1;fill:url(#radialGradient849);fill-opacity:1;fill-rule:nonzero;stroke:none;stroke-width:5;stroke-linecap:round;stroke-linejoin:round;stroke-miterlimit:4;stroke-dasharray:none;stroke-opacity:1;paint-order:fill markers stroke"
         inkscape:connector-curvature="0" />
      <path
         inkscape:connector-curvature="0"
         id="circle839"
         d="m -18521.779,-878.11914 c -13.808,0 -25.055,11.24669 -25.055,25.05469 0,13.80799 11.247,25.05468 25.055,25.05468 13.808,0 25.054,-11.24669 25.054,-25.05468 0,-13.808 -11.246,-25.05469 -25.054,-25.05469 z m 0,5 c 11.105,0 20.054,8.94889 20.054,20.05469 0,11.10579 -8.949,20.05468 -20.054,20.05468 -11.106,0 -20.055,-8.94889 -20.055,-20.05468 0,-11.1058 8.949,-20.05469 20.055,-20.05469 z"
         style="color:#000000;font-style:normal;font-variant:normal;font-weight:normal;font-stretch:normal;font-size:medium;line-height:normal;font-family:sans-serif;font-variant-ligatures:normal;font-variant-position:normal;font-variant-caps:normal;font-variant-numeric:normal;font-variant-alternates:normal;font-feature-settings:normal;text-indent:0;text-align:start;text-decoration:none;text-decoration-line:none;text-decoration-style:solid;text-decoration-color:#000000;letter-spacing:normal;word-spacing:normal;text-transform:none;writing-mode:lr-tb;direction:ltr;text-orientation:mixed;dominant-baseline:auto;baseline-shift:baseline;text-anchor:start;white-space:normal;shape-padding:0;clip-rule:nonzero;display:inline;overflow:visible;visibility:visible;opacity:1;isolation:auto;mix-blend-mode:normal;color-interpolation:sRGB;color-interpolation-filters:linearRGB;solid-color:#000000;solid-opacity:1;vector-effect:none;fill:#ffffff;fill-opacity:1;fill-rule:nonzero;stroke:none;stroke-width:5;stroke-linecap:round;stroke-linejoin:round;stroke-miterlimit:4;stroke-dasharray:none;stroke-dashoffset:0;stroke-opacity:1;paint-order:fill markers stroke;color-rendering:auto;image-rendering:auto;shape-rendering:auto;text-rendering:auto;enable-background:accumulate" />
      <rect
         inkscape:transform-center-y="-19.410508"
         transform="rotate(-45)"
         inkscape:transform-center-x="-19.411237"
         ry="1.7910327"
         y="-13702.581"
         x="-12472.53"
         height="7.7331505"
         width="12.628262"
         id="rect852"
         style="opacity:1;fill:#ffffff;fill-opacity:1;fill-rule:nonzero;stroke:none;stroke-width:5;stroke-linecap:round;stroke-linejoin:round;stroke-miterlimit:4;stroke-dasharray:none;stroke-opacity:1;paint-order:fill markers stroke" />
    </g>
    <text
       xml:space="preserve"
       style="font-style:italic;font-variant:normal;font-weight:normal;font-stretch:normal;font-size:43.86400986px;line-height:1.25;font-family:'Lobster Two';-inkscape-font-specification:'Lobster Two Italic';letter-spacing:0px;word-spacing:0px;fill:#552200;fill-opacity:1;stroke:none;stroke-width:0.26458332"
       x="-18574.232"
       y="-751.74841"
       id="text887"><tspan
         sodipodi:role="line"
         id="tspan885"
         x="-18574.232"
         y="-751.74841"
         style="font-style:normal;font-variant:normal;font-weight:normal;font-stretch:normal;font-family:Wildemount;-inkscape-font-specification:Wildemount;fill:#552200;fill-opacity:1;stroke-width:0.26458332">THE CAFE</tspan></text>
    <g
       id="g1733"
       transform="translate(-0.04657691,-0.16104269)">
      <path
         style="opacity:1;fill:#b3b3b3;fill-opacity:1;fill-rule:nonzero;stroke:none;stroke-width:7.55905533;stroke-linecap:square;stroke-linejoin:miter;stroke-miterlimit:4;stroke-dasharray:none;stroke-opacity:1;paint-order:fill markers stroke;filter:url(#filter1546)"
         d="m -69339.887,-3151.4023 a 102.75144,102.75144 0 0 0 -96.894,102.5429 102.75144,102.75144 0 0 0 102.75,102.752 102.75144,102.75144 0 0 0 102.752,-102.752 102.75144,102.75144 0 0 0 -21.014,-62.123 c -9.15,13.3869 -15.771,22.2441 -15.771,22.2441 a 18.899528,18.899528 0 0 1 -30.276,0 c 0,0 -17.287,-23.0997 -34.662,-51.2363 -2.303,-3.7283 -4.608,-7.5501 -6.885,-11.4277 z"
         transform="scale(0.26458333)"
         id="path1450"
         inkscape:connector-curvature="0" />
      <path
         id="path1128"
         transform="scale(0.26458333)"
         d="m -69339.887,-3151.4023 a 102.75144,102.75144 0 0 0 -96.894,102.5429 102.75144,102.75144 0 0 0 102.75,102.752 102.75144,102.75144 0 0 0 102.752,-102.752 102.75144,102.75144 0 0 0 -21.014,-62.123 c -9.15,13.3869 -15.771,22.2441 -15.771,22.2441 a 18.899528,18.899528 0 0 1 -30.276,0 c 0,0 -17.287,-23.0997 -34.662,-51.2363 -2.303,-3.7283 -4.608,-7.5501 -6.885,-11.4277 z"
         style="opacity:1;fill:#b3b3b3;fill-opacity:1;fill-rule:nonzero;stroke:none;stroke-width:7.55905533;stroke-linecap:square;stroke-linejoin:miter;stroke-miterlimit:4;stroke-dasharray:none;stroke-opacity:1;paint-order:fill markers stroke"
         inkscape:connector-curvature="0" />
      <path
         id="path945"
         transform="scale(0.26458333)"
         d="m -69337.605,-3147.5605 a 98.884442,98.884442 0 0 0 -82.588,50.291 l 82.121,31.209 19.554,-51.4551 c -4.567,-6.8205 -9.495,-14.3806 -14.484,-22.459 -1.537,-2.4881 -3.073,-5.0265 -4.603,-7.5859 z m -91.192,70.6503 a 98.884442,98.884442 0 0 0 -4.117,28.0528 98.884442,98.884442 0 0 0 54.736,88.3535 l 32.264,-84.9063 z"
         style="opacity:1;fill:#009700;fill-opacity:1;fill-rule:nonzero;stroke:none;stroke-width:18.89763832;stroke-linecap:round;stroke-linejoin:round;stroke-miterlimit:4;stroke-dasharray:none;stroke-opacity:1;paint-order:fill markers stroke"
         inkscape:connector-curvature="0" />
      <path
         id="path943"
         transform="scale(0.26458333)"
         d="m -69254.65,-3107.5684 c -7.867,11.3841 -13.414,18.8301 -13.414,18.8301 a 18.899528,18.899528 0 0 1 -30.276,0 c 0,0 -1.915,-2.5771 -4.904,-6.7344 l -14.158,37.2579 79.933,30.3808 a 98.884442,98.884442 0 0 0 2.324,-21.0234 98.884442,98.884442 0 0 0 -19.505,-58.711 z"
         style="opacity:1;fill:#7a7a7a;fill-opacity:1;fill-rule:nonzero;stroke:none;stroke-width:18.89763832;stroke-linecap:round;stroke-linejoin:round;stroke-miterlimit:4;stroke-dasharray:none;stroke-opacity:1;paint-order:fill markers stroke"
         inkscape:connector-curvature="0" />
      <path
         transform="scale(0.26458333)"
         id="rect911"
         d="m -69325.24,-3037.5645 -32.18,84.6641 a 98.884443,98.884443 0 0 0 23.389,2.9258 98.884443,98.884443 0 0 0 89.422,-56.9453 z"
         style="opacity:1;fill:#005ce6;fill-opacity:1;fill-rule:nonzero;stroke:none;stroke-width:18.89763832;stroke-linecap:round;stroke-linejoin:round;stroke-miterlimit:4;stroke-dasharray:none;stroke-opacity:1;paint-order:fill markers stroke"
         inkscape:connector-curvature="0" />
      <path
         id="rect913"
         transform="scale(0.26458333)"
         d="m -69318.516,-3117.5156 -19.556,51.4551 -82.119,-31.209 a 98.884441,98.884441 0 0 0 -8.606,20.3593 l 82.883,31.5 -32.264,84.9063 a 98.884441,98.884441 0 0 0 20.758,7.6035 l 32.182,-84.6641 80.633,30.6446 a 98.884441,98.884441 0 0 0 7.136,-20.9141 l -79.933,-30.3808 14.16,-37.2559 c -3.655,-5.082 -9.036,-12.7289 -15.274,-22.0449 z"
         style="opacity:1;fill:#ffda49;fill-opacity:1;fill-rule:nonzero;stroke:none;stroke-width:18.89763832;stroke-linecap:round;stroke-linejoin:round;stroke-miterlimit:4;stroke-dasharray:none;stroke-opacity:1;paint-order:fill markers stroke"
         inkscape:connector-curvature="0" />
      <text
         xml:space="preserve"
         style="font-style:italic;font-variant:normal;font-weight:normal;font-stretch:normal;font-size:43.86400986px;line-height:1.25;font-family:'Lobster Two';-inkscape-font-specification:'Lobster Two Italic';letter-spacing:0px;word-spacing:0px;fill:#552200;fill-opacity:1;stroke:none;stroke-width:0.26458332"
         x="-18396.498"
         y="-744.14795"
         id="text1192"><tspan
           sodipodi:role="line"
           id="tspan1190"
           x="-18396.498"
           y="-744.14795"
           style="font-style:normal;font-variant:normal;font-weight:normal;font-stretch:normal;font-family:Wildemount;-inkscape-font-specification:Wildemount;fill:#552200;fill-opacity:1;stroke-width:0.26458332">THE CAFE</tspan></text>
      <path
         transform="scale(0.26458333)"
         id="rect1194"
         d="m -69299.012,-3089.6543 -3.426,9.002 22.2,8.4472 3.896,-10.2383 a 18.899528,18.899528 0 0 1 -21.998,-6.2949 c 0,0 -0.564,-0.7716 -0.672,-0.916 z"
         style="opacity:1;fill:#333333;fill-opacity:1;fill-rule:nonzero;stroke:none;stroke-width:7.55905533;stroke-linecap:square;stroke-linejoin:miter;stroke-miterlimit:4;stroke-dasharray:none;stroke-opacity:1;paint-order:fill markers stroke"
         inkscape:connector-curvature="0" />
      <path
         inkscape:connector-curvature="0"
         id="path1198"
         d="m -18336.069,-814.81559 -0.201,-0.27392 5.874,2.23523 0.201,0.27389 z"
         style="fill:#232323;fill-opacity:1;stroke:none;stroke-width:0.26458332px;stroke-linecap:butt;stroke-linejoin:miter;stroke-opacity:1" />
      <path
         id="path1200"
         transform="scale(0.26458333)"
         d="m -69274.949,-3083.0684 a 18.899528,18.899528 0 0 1 -1.391,0.6231 l -3.896,10.2402 0.759,1.0352 z"
         style="fill:#232323;fill-opacity:1;stroke:#232323;stroke-width:0.00377953;stroke-linecap:butt;stroke-linejoin:miter;stroke-miterlimit:4;stroke-dasharray:none;stroke-opacity:1"
         inkscape:connector-curvature="0" />
      <path
         inkscape:connector-curvature="0"
         style="opacity:1;fill:#552200;fill-opacity:1;fill-rule:nonzero;stroke:#552200;stroke-width:5;stroke-linecap:round;stroke-linejoin:round;stroke-miterlimit:4;stroke-dasharray:none;stroke-opacity:1;paint-order:fill markers stroke"
         d="m -18313.334,-854.14577 c 0,10.05719 -17.847,33.92384 -17.847,33.92384 0,0 -17.846,-23.86684 -17.846,-33.92384 0,-10.057 7.99,-18.20985 17.846,-18.21002 9.857,-1.1e-4 17.847,8.15283 17.847,18.21002 z"
         id="path1170" />
      <path
         id="path1172"
         d="m -18316.732,-854.14575 a 14.44954,14.74372 0 0 1 -14.45,14.74373 14.44954,14.74372 0 0 1 -14.448,-14.74373 14.44954,14.74372 0 0 1 14.448,-14.74372 14.44954,14.74372 0 0 1 14.45,14.74372 z"
         style="opacity:1;fill:url(#linearGradient1184);fill-opacity:1;fill-rule:nonzero;stroke:none;stroke-width:5.00000048;stroke-linecap:round;stroke-linejoin:round;stroke-miterlimit:4;stroke-dasharray:none;stroke-opacity:1;paint-order:fill markers stroke"
         inkscape:connector-curvature="0" />
      <path
         inkscape:connector-curvature="0"
         style="opacity:1;fill:url(#linearGradient1186);fill-opacity:1;fill-rule:nonzero;stroke:none;stroke-width:5.00000048;stroke-linecap:round;stroke-linejoin:round;stroke-miterlimit:4;stroke-dasharray:none;stroke-opacity:1;paint-order:fill markers stroke"
         d="m -18344.678,-854.14575 a 13.497041,13.771829 0 0 0 13.498,13.77184 13.497041,13.771829 0 0 0 13.496,-13.77184 13.497041,13.771829 0 0 0 -13.496,-13.77183 13.497041,13.771829 0 0 0 -13.498,13.77183 z"
         id="path1174" />
      <path
         inkscape:connector-curvature="0"
         style="opacity:1;fill:url(#radialGradient1188);fill-opacity:1;fill-rule:nonzero;stroke:none;stroke-width:5;stroke-linecap:round;stroke-linejoin:round;stroke-miterlimit:4;stroke-dasharray:none;stroke-opacity:1;paint-order:fill markers stroke"
         d="m -18320.24,-854.14571 a 10.940362,11.163097 0 0 1 -10.941,11.1631 10.940362,11.163097 0 0 1 -10.94,-11.1631 10.940362,11.163097 0 0 1 10.94,-11.1631 10.940362,11.163097 0 0 1 10.941,11.1631 z"
         id="path1176" />
      <path
         style="color:#000000;font-style:normal;font-variant:normal;font-weight:normal;font-stretch:normal;font-size:medium;line-height:normal;font-family:sans-serif;font-variant-ligatures:normal;font-variant-position:normal;font-variant-caps:normal;font-variant-numeric:normal;font-variant-alternates:normal;font-feature-settings:normal;text-indent:0;text-align:start;text-decoration:none;text-decoration-line:none;text-decoration-style:solid;text-decoration-color:#000000;letter-spacing:normal;word-spacing:normal;text-transform:none;writing-mode:lr-tb;direction:ltr;text-orientation:mixed;dominant-baseline:auto;baseline-shift:baseline;text-anchor:start;white-space:normal;shape-padding:0;clip-rule:nonzero;display:inline;overflow:visible;visibility:visible;opacity:1;isolation:auto;mix-blend-mode:normal;color-interpolation:sRGB;color-interpolation-filters:linearRGB;solid-color:#000000;solid-opacity:1;vector-effect:none;fill:#ffffff;fill-opacity:1;fill-rule:nonzero;stroke:none;stroke-width:5;stroke-linecap:round;stroke-linejoin:round;stroke-miterlimit:4;stroke-dasharray:none;stroke-dashoffset:0;stroke-opacity:1;paint-order:fill markers stroke;color-rendering:auto;image-rendering:auto;shape-rendering:auto;text-rendering:auto;enable-background:accumulate"
         d="m -18331.181,-866.54581 c -6.697,0 -12.153,5.56625 -12.153,12.40015 0,6.8339 5.456,12.40015 12.153,12.40015 6.698,0 12.153,-5.56625 12.153,-12.40015 0,-6.8339 -5.455,-12.40015 -12.153,-12.40015 z m 0,2.47462 c 5.387,0 9.727,4.42901 9.727,9.92553 0,5.49652 -4.34,9.92553 -9.727,9.92553 -5.387,0 -9.727,-4.42901 -9.727,-9.92553 0,-5.49652 4.34,-9.92553 9.727,-9.92553 z"
         id="path1178"
         inkscape:connector-curvature="0" />
      <rect
         style="opacity:1;fill:#ffffff;fill-opacity:1;fill-rule:nonzero;stroke:none;stroke-width:5.00050783;stroke-linecap:round;stroke-linejoin:round;stroke-miterlimit:4;stroke-dasharray:none;stroke-opacity:1;paint-order:fill markers stroke"
         id="rect1180"
         width="6.1879826"
         height="3.7893262"
         x="-12486.38"
         y="-13693.916"
         ry="0.87762511"
         inkscape:transform-center-x="-19.411237"
         transform="matrix(0.69994577,-0.71419599,0.69994577,0.71419599,0,0)"
         inkscape:transform-center-y="-19.410508" />
    </g>
  </g>
</svg>
